<svg id="Layer_1" data-name="Layer 1" xmlns="http://www.w3.org/2000/svg" viewBox="0 0 961.04 913.94"><defs><style>.cls-1{fill:#3aaedf;}.cls-2{fill:#168cf1;}.cls-3{fill:#ff2b0c;}.cls-4{fill:#71a6d2;}.cls-5{fill:#5869a7;}</style></defs><title>careerdeer-logo</title><polygon class="cls-1" points="458.47 671.45 454.48 674.61 461.48 682.61 458.47 671.45"/><polygon class="cls-2" points="454.13 674.33 461.48 682.61 452.32 678.47 454.13 674.33"/><path class="cls-3" d="M491.4,675.85s.08,4.5.08,10v51.63c0,5.5,0,10-.08,10l-5.88.06a47.75,47.75,0,0,1-12.69-2.21c-3.79-1.25-10.36-12.62-11.78-16.84l-3.95-11.73a44.22,44.22,0,0,1-1.33-11.28c0-4,9.49-14.27,13.91-17.55l3.79-2.82a124.14,124.14,0,0,1,11.21-7.6C486.44,676.62,491.35,675.85,491.4,675.85Z"/><path class="cls-4" d="M451,297.6c-6.6,0-13.39-2.44-15.1-5.43s-8.29-6.92-14.63-8.76L204,220.67c-6.34-1.83-10.3-5.57-8.8-8.32s2.68-5,2.63-5,2.46-4.8,5.59-10.61l41.79-77.53c3.13-5.81,5-5.21,4,1.32l-9.11,65.89A14.32,14.32,0,0,0,250,201.6l149.05,43.06c6.34,1.83,8.85-1.36,5.57-7.09L319.21,88c-3.27-5.73-3-12.09.55-14.13s6.49-3.77,6.47-3.84,4.63-2.83,10.35-6.13L443.89,1.88c5.71-3.3,6.62-2.14,2,2.58L374.76,77.35c-4.61,4.72-5.7,13.28-2.43,19L481.39,287.19c3.27,5.73.55,10.42-6,10.42Z"/><path class="cls-4" d="M469.43,58.9c2.23-6.21.28-7.43-4.32-2.7L404.85,118c-4.61,4.73-5.68,13.27-2.38,19l18,31.21c3.3,5.72,7.82,5.31,10-.9Z"/><path class="cls-4" d="M302.58,139.86c-2.8-6-5.83-5.51-6.73,1l-7.52,54.83a14.29,14.29,0,0,0,9.91,15.18l32,9.13c6.35,1.81,9.24-1.59,6.44-7.57Z"/><path class="cls-1" d="M246.12,440.08a11,11,0,0,1,.31-14.66l19-19.6c3.83-4,2.5-6.57-3-5.82L227,404.88c-5.45.75-12.16-2.53-14.9-7.3l-16-27.77a11.65,11.65,0,0,1,3-14.69l25.58-19.32c4.39-3.32,11.9-3.83,16.7-1.14l51.51,28.89a13.72,13.72,0,0,0,15.68-2.29l45-46.47c3.83-4,8.13-2.84,9.56,2.47l95.8,355.69c1.43,5.31-.39,6.29-4,2.18Z"/><path class="cls-2" d="M457.81,678.47c2,2.28-.43,2.28-5.44,0L315.59,616.72c-5-2.26-10.68-8.33-12.6-13.49L243,442c-1.92-5.15-.5-6,3.15-1.89L447.49,666.85Z"/><path class="cls-5" d="M532,718.81c.9-2.66,1.61-8.74,1.59-13.51S523,688.76,518.56,685.48l-7.7-5.72a124.53,124.53,0,0,0-11.76-7.9c-2.05-1.06-9.63-1.7-11.86-1.32s-11.1,5.93-15.51,9.21l-7.7,5.72a67.9,67.9,0,0,0-12.95,13.1c-2.71,3.93-1.42,17.57-.52,20.22s-1.95,2.11-6.32-1.23L314.43,618.66c-4.37-3.33-3.85-4.21,1.16-1.95l127.61,57.63,13.69,6.19c2.52,1.14,3.9-.44,3.07-3.51l-4.11-15.24L363.08,317.26c-1.43-5.31,1.9-9.66,7.4-9.66H612.1c5.5,0,8.83,4.35,7.4,9.66L526.71,661.79,522.6,677c-.83,3.07.56,4.65,3.07,3.51l13.69-6.19L667,616.72c5-2.26,5.53-1.39,1.16,1.95L538.35,717.58C534,720.92,531.13,721.47,532,718.81Z"/><polygon class="cls-1" points="524.1 671.45 528.1 674.61 521.1 682.61 524.1 671.45"/><polygon class="cls-2" points="528.45 674.33 521.1 682.61 530.26 678.47 528.45 674.33"/><path class="cls-4" d="M507.23,297.6c-6.6,0-9.32-4.69-6-10.42L610.24,96.35c3.27-5.73,2.18-14.28-2.43-19L536.68,4.46c-4.61-4.72-3.71-5.88,2-2.58L646,63.94c5.71,3.3,10.37,6.06,10.35,6.13s2.89,1.8,6.47,3.84,3.83,8.4.55,14.13L577.91,237.57c-3.27,5.73-.77,8.92,5.57,7.09L732.54,201.6a14.32,14.32,0,0,0,9.88-15.22l-9.11-65.89c-.9-6.54.92-7.13,4-1.32l41.79,77.53c3.13,5.81,5.65,10.59,5.59,10.61s1.13,2.29,2.63,5-2.46,6.48-8.8,8.32L561.34,283.42c-6.34,1.83-12.92,5.77-14.63,8.76s-8.5,5.43-15.1,5.43Z"/><path class="cls-4" d="M513.15,58.9c-2.23-6.21-.28-7.43,4.32-2.7L577.72,118c4.61,4.73,5.68,13.27,2.38,19l-18,31.21c-3.3,5.72-7.82,5.31-10-.9Z"/><path class="cls-4" d="M680,139.86c2.8-6,5.83-5.51,6.73,1l7.52,54.83a14.29,14.29,0,0,1-9.91,15.18l-32,9.13c-6.35,1.81-9.24-1.59-6.44-7.57Z"/><path class="cls-1" d="M736.46,440.08a11,11,0,0,0-.31-14.66l-19-19.6c-3.83-4-2.5-6.57,3-5.82l35.43,4.88c5.45.75,12.16-2.53,14.9-7.3l16-27.77a11.65,11.65,0,0,0-3-14.69L757.92,335.8c-4.39-3.32-11.9-3.83-16.7-1.14l-51.51,28.89A13.72,13.72,0,0,1,674,361.26l-45-46.47c-3.83-4-8.13-2.84-9.56,2.47L523.7,672.95c-1.43,5.31.39,6.29,4,2.18Z"/><path class="cls-2" d="M524.77,678.47c-2,2.28.43,2.28,5.44,0L667,616.72c5-2.26,10.68-8.33,12.6-13.49l60-161.26c1.92-5.15.5-6-3.15-1.89L535.09,666.85Z"/><path class="cls-3" d="M491.18,675.85s-.08,4.5-.08,10v51.63c0,5.5,0,10,.08,10l5.88.06a47.75,47.75,0,0,0,12.69-2.21c3.79-1.25,10.36-12.62,11.78-16.84l3.95-11.73a44.22,44.22,0,0,0,1.33-11.28c0-4-9.49-14.27-13.91-17.55l-3.79-2.82a124.14,124.14,0,0,0-11.21-7.6C496.14,676.62,491.22,675.85,491.18,675.85Z"/><path class="cls-2" d="M0,844.19c0-27.75,23.25-50.4,51.75-50.4a52.54,52.54,0,0,1,38.85,17.1L78.45,822a35.86,35.86,0,0,0-26.7-11.7c-19.35,0-35.25,15.15-35.25,33.9s15.9,33.9,35.25,33.9A36,36,0,0,0,79.5,865.34l12.6,10.5a52.42,52.42,0,0,1-40.35,18.75C23.25,894.59,0,871.94,0,844.19Z"/><path class="cls-2" d="M204.9,892.94h-18l-8.55-19.65H128.4l-8.55,19.65h-18l42.3-97.5H162.6Zm-33.6-36.15-17.85-41.1-17.85,41.1Z"/><path class="cls-2" d="M292.95,892.94h-19.5L255,864.14H234.9v28.8H218.4v-97.5h42.75c19.5,0,35.25,15.45,35.25,34.35,0,14.85-9.75,27.45-23.25,32.25Zm-31.8-45.3c10.35,0,18.75-8.1,18.75-17.85,0-9.9-8.4-17.85-18.75-17.85H234.9v35.7Z"/><path class="cls-2" d="M333.15,811.94v27.3H379v16.5h-45.9v20.7h54.15v16.5H316.65v-97.5h70.65v16.5Z"/><path class="cls-2" d="M427.8,811.94v27.3h45.9v16.5H427.8v20.7h54.15v16.5H411.3v-97.5h70.65v16.5Z"/><path class="cls-2" d="M580.49,892.94H561l-18.45-28.8h-20.1v28.8h-16.5v-97.5H548.7c19.5,0,35.25,15.45,35.25,34.35,0,14.85-9.75,27.45-23.25,32.25Zm-31.8-45.3c10.35,0,18.75-8.1,18.75-17.85,0-9.9-8.4-17.85-18.75-17.85H522.45v35.7Z"/><path class="cls-3" d="M604.2,892.94v-97.5h37.35c27.75,0,50.1,21.9,50.1,48.75s-22.35,48.75-50.1,48.75Zm37.35-16.5c18.6,0,33.6-14.4,33.6-32.25,0-17.7-15-32.25-33.6-32.25H620.7v64.5Z"/><path class="cls-3" d="M868.79,892.79c-.6.9-14.7,21.15-41.7,21.15-13.95,0-24.6-5.1-35.7-10.65-15.3-7.35-32.25-15.6-63-12.9a146.26,146.26,0,0,0-16.5,2.4V795.44h70.65v16.5H728.39v24h45.9v16.5h-45.9v21.45c34.5-2.85,54,6.75,70.2,14.55,10.2,5.1,18.45,9,28.5,9,18,0,27.6-13.35,28-13.95Zm-14.55-17.7H802V795.44h52.2v16.5H818.39v12h30.45v16.35H818.39v18.3h35.85Z"/><path class="cls-3" d="M957.59,892.94h-19.5l-18.45-28.8h-20.1v28.8H883v-97.5h42.75c19.5,0,35.25,15.45,35.25,34.35,0,14.85-9.75,27.45-23.25,32.25Zm-31.8-45.3c10.35,0,18.75-8.1,18.75-17.85,0-9.9-8.4-17.85-18.75-17.85H899.54v35.7Z"/></svg>