<svg id="Layer_1" data-name="Layer 1" xmlns="http://www.w3.org/2000/svg" viewBox="0 0 961.04 733.91"><defs><style>.cls-1{fill:#3aaedf;}.cls-2{fill:#168cf1;}.cls-3{fill:#ff2b0c;}.cls-4{fill:#71a6d2;}.cls-5{fill:#5869a7;}</style></defs><title>careerdeer-logo</title><polygon class="cls-1" points="455.56 509.66 452.53 512.06 457.85 518.14 455.56 509.66"/><polygon class="cls-2" points="452.26 511.85 457.85 518.14 450.88 515 452.26 511.85"/><path class="cls-3" d="M480.6,513s.06,4.5.06,10v34.48c0,5.5,0,10-.06,10l-4.47,0a36.32,36.32,0,0,1-9.65-1.68c-2.88-.95-7.88-9.6-9-12.81l-3-8.92a33.63,33.63,0,0,1-1-8.58c0-3,7.87-11.33,12-14.42s8.64-6.16,10-6.85A25.21,25.21,0,0,1,480.6,513Z"/><path class="cls-4" d="M452.73,225.34c-6.6,0-13.06-1.86-14.36-4.13s-7.55-5.62-13.89-7.46L264.8,167.63c-6.34-1.83-10.6-5-9.46-7.12s2-3.81,2-3.83,2.49-4.79,5.62-10.6L292,92.17c3.13-5.81,5-5.21,4,1.32l-6.14,44.41a14.32,14.32,0,0,0,9.88,15.22l107.83,31.15c6.34,1.83,8.85-1.36,5.57-7.09L351.08,68.47c-3.27-5.73-3.73-11.69-1-13.24S355,52.35,355,52.3s4.64-2.8,10.36-6.1L442,1.88c5.71-3.3,6.62-2.14,2,2.58L393.91,55.78c-4.61,4.72-5.7,13.28-2.43,19l80.09,140.14c3.27,5.73.55,10.42-6,10.42Z"/><path class="cls-4" d="M462.92,46.51c2.23-6.21.28-7.43-4.32-2.7L416.79,86.7c-4.61,4.73-5.68,13.27-2.38,19l10.82,18.76c3.3,5.72,7.82,5.31,10-.9Z"/><path class="cls-4" d="M338.23,108c-2.8-6-5.83-5.51-6.73,1l-4.94,36a14.29,14.29,0,0,0,9.91,15.18l18.8,5.37c6.35,1.81,9.24-1.59,6.44-7.57Z"/><path class="cls-1" d="M295.66,335.49a11,11,0,0,1,.31-14.66l11.1-11.46c3.83-4,2.5-6.57-3-5.82l-22.2,3.06c-5.45.75-12.16-2.53-14.9-7.3l-9.79-17a11.65,11.65,0,0,1,3-14.69l15.63-11.81c4.39-3.32,11.9-3.83,16.7-1.14l35,19.63A13.72,13.72,0,0,0,343.21,272l30.88-31.9c3.83-4,8.13-2.84,9.56,2.47l71.61,265.88c1.43,5.31-.39,6.29-4,2.18Z"/><path class="cls-2" d="M455.06,515c1.54,1.73-1.31,1.29-6.32-1l-99.65-45c-5-2.26-10.68-8.33-12.6-13.49l-44-118.15c-1.92-5.15-.5-6,3.15-1.89l150,168.88Z"/><path class="cls-5" d="M511.5,545.67a40.13,40.13,0,0,0,1.21-10.27c0-3.63-9-13.22-13.38-16.5l-2-1.49A129.12,129.12,0,0,0,486.46,510c-1.56-.81-7.32-1.29-9-1s-9.31,5.15-13.72,8.43l-2,1.49c-4.42,3.28-9.71,8.4-11.77,11.39s-1.08,13.36-.4,15.38-2.34.95-6.71-2.38L347.92,471c-4.37-3.33-3.85-4.21,1.16-1.95l92.69,41.86,12.6,5.69c1.92.87,3-.34,2.34-2.67L453,500,383.64,242.6c-1.43-5.31,1.9-9.66,7.4-9.66H570c5.5,0,8.83,4.35,7.4,9.66L508.08,500l-3.75,13.9c-.63,2.33.42,3.54,2.34,2.67l12.6-5.69L612,469c5-2.26,5.53-1.39,1.16,1.95l-94.9,72.32C513.84,546.62,510.82,547.7,511.5,545.67Z"/><polygon class="cls-1" points="505.48 509.66 508.51 512.06 503.19 518.14 505.48 509.66"/><polygon class="cls-2" points="508.78 511.85 503.19 518.14 510.16 515 508.78 511.85"/><path class="cls-4" d="M495.52,225.34c-6.6,0-9.32-4.69-6-10.42L569.56,74.79c3.27-5.73,2.18-14.28-2.43-19L517,4.46c-4.61-4.72-3.71-5.88,2-2.58L595.69,46.2c5.71,3.3,10.37,6,10.36,6.1s2.2,1.37,4.92,2.92,2.27,7.51-1,13.24L547.82,177.19c-3.27,5.73-.77,8.92,5.57,7.09l107.83-31.15a14.32,14.32,0,0,0,9.88-15.22L665,93.49c-.9-6.54.92-7.13,4-1.32l29.06,53.91c3.13,5.81,5.66,10.58,5.62,10.6s.86,1.74,2,3.83-3.12,5.29-9.46,7.12L536.55,213.76c-6.34,1.83-12.59,5.19-13.89,7.46s-7.76,4.13-14.36,4.13Z"/><path class="cls-4" d="M498.12,46.51c-2.23-6.21-.28-7.43,4.32-2.7L544.25,86.7c4.61,4.73,5.68,13.27,2.38,19l-10.82,18.76c-3.3,5.72-7.82,5.31-10-.9Z"/><path class="cls-4" d="M622.81,108c2.8-6,5.83-5.51,6.73,1l4.94,36a14.29,14.29,0,0,1-9.91,15.18l-18.8,5.37c-6.35,1.81-9.24-1.59-6.44-7.57Z"/><path class="cls-1" d="M665.38,335.49a11,11,0,0,0-.31-14.66L654,309.36c-3.83-4-2.5-6.57,3-5.82l22.2,3.06c5.45.75,12.16-2.53,14.9-7.3l9.79-17a11.65,11.65,0,0,0-3-14.69l-15.63-11.81c-4.39-3.32-11.9-3.83-16.7-1.14l-35,19.63A13.72,13.72,0,0,1,617.83,272L587,240.13c-3.83-4-8.13-2.84-9.56,2.47L505.79,508.49c-1.43,5.31.39,6.29,4,2.18Z"/><path class="cls-2" d="M506,515c-1.54,1.73,1.31,1.29,6.32-1L612,469c5-2.26,10.68-8.33,12.6-13.49l44-118.15c1.92-5.15.5-6-3.15-1.89l-150,168.88Z"/><path class="cls-3" d="M480.44,513s-.06,4.5-.06,10v34.48c0,5.5,0,10,.06,10l4.47,0a36.32,36.32,0,0,0,9.65-1.68c2.88-.95,7.88-9.6,9-12.81l3-8.92a33.63,33.63,0,0,0,1-8.58c0-3-7.87-11.33-12-14.42s-8.64-6.16-10-6.85A25.21,25.21,0,0,0,480.44,513Z"/><path class="cls-2" d="M0,664.16c0-27.75,23.25-50.4,51.75-50.4a52.54,52.54,0,0,1,38.85,17.1L78.45,642a35.86,35.86,0,0,0-26.7-11.7c-19.35,0-35.25,15.15-35.25,33.9s15.9,33.9,35.25,33.9A36,36,0,0,0,79.5,685.31l12.6,10.5a52.42,52.42,0,0,1-40.35,18.75C23.25,714.56,0,691.91,0,664.16Z"/><path class="cls-2" d="M204.9,712.91h-18l-8.55-19.65H128.4l-8.55,19.65h-18l42.3-97.5H162.6Zm-33.6-36.15-17.85-41.1-17.85,41.1Z"/><path class="cls-2" d="M292.95,712.91h-19.5L255,684.11H234.9v28.8H218.4v-97.5h42.75c19.5,0,35.25,15.45,35.25,34.35,0,14.85-9.75,27.45-23.25,32.25Zm-31.8-45.3c10.35,0,18.75-8.1,18.75-17.85,0-9.9-8.4-17.85-18.75-17.85H234.9v35.7Z"/><path class="cls-2" d="M333.15,631.91v27.3H379v16.5h-45.9v20.7h54.15v16.5H316.65v-97.5h70.65v16.5Z"/><path class="cls-2" d="M427.8,631.91v27.3h45.9v16.5H427.8v20.7h54.15v16.5H411.3v-97.5h70.65v16.5Z"/><path class="cls-2" d="M580.49,712.91H561l-18.45-28.8h-20.1v28.8h-16.5v-97.5H548.7c19.5,0,35.25,15.45,35.25,34.35,0,14.85-9.75,27.45-23.25,32.25Zm-31.8-45.3c10.35,0,18.75-8.1,18.75-17.85,0-9.9-8.4-17.85-18.75-17.85H522.45v35.7Z"/><path class="cls-3" d="M604.2,712.91v-97.5h37.35c27.75,0,50.1,21.9,50.1,48.75s-22.35,48.75-50.1,48.75Zm37.35-16.5c18.6,0,33.6-14.4,33.6-32.25,0-17.7-15-32.25-33.6-32.25H620.7v64.5Z"/><path class="cls-3" d="M868.79,712.76c-.6.9-14.7,21.15-41.7,21.15-13.95,0-24.6-5.1-35.7-10.65-15.3-7.35-32.25-15.6-63-12.9a146.26,146.26,0,0,0-16.5,2.4V615.41h70.65v16.5H728.39v24h45.9v16.5h-45.9v21.45c34.5-2.85,54,6.75,70.2,14.55,10.2,5.1,18.45,9,28.5,9,18,0,27.6-13.35,28-13.95Zm-14.55-17.7H802V615.41h52.2v16.5H818.39v12h30.45v16.35H818.39v18.3h35.85Z"/><path class="cls-3" d="M957.59,712.91h-19.5l-18.45-28.8h-20.1v28.8H883v-97.5h42.75c19.5,0,35.25,15.45,35.25,34.35,0,14.85-9.75,27.45-23.25,32.25Zm-31.8-45.3c10.35,0,18.75-8.1,18.75-17.85,0-9.9-8.4-17.85-18.75-17.85H899.54v35.7Z"/></svg>