<svg id="Layer_1" data-name="Layer 1" xmlns="http://www.w3.org/2000/svg" viewBox="0 0 1913.08 603.33"><defs><style>.cls-1{fill:#3aaedf;}.cls-2{fill:#168cf1;}.cls-3{fill:#ff2b0c;}.cls-4{fill:#71a6d2;}.cls-5{fill:#5869a7;}</style></defs><title>careerdeer-logo-horizontal</title><polygon class="cls-1" points="212.97 541.83 209.74 544.38 215.4 550.85 212.97 541.83"/><polygon class="cls-2" points="209.46 544.16 215.4 550.85 207.99 547.5 209.46 544.16"/><path class="cls-3" d="M239.57,545.39s.06,4.5.06,10v37.89c0,5.5,0,10-.06,10l-4.75,0a38.59,38.59,0,0,1-10.25-1.79c-3.06-1-8.37-10.2-9.52-13.61l-3.19-9.48a35.74,35.74,0,0,1-1.07-9.12c0-3.22,8.36-12,12.77-15.32s9.18-6.55,10.59-7.28A26.79,26.79,0,0,1,239.57,545.39Z"/><path class="cls-4" d="M209.2,239.71c-6.6,0-13.13-2-14.51-4.38s-7.69-5.88-14-7.71L9.53,178.18C3.19,176.34-1,173,.21,170.82s2.17-4,2.12-4.07,2.48-4.79,5.61-10.6l31.59-58.6c3.13-5.81,5-5.21,4,1.32l-6.73,48.68a14.32,14.32,0,0,0,9.88,15.22l116,33.52c6.34,1.83,8.85-1.36,5.57-7.09L101.57,72.36c-3.27-5.73-3.59-11.77-.7-13.42s5.24-3,5.22-3.1,4.64-2.8,10.36-6.11L199.19,1.88c5.71-3.3,6.62-2.14,2,2.58L146.92,60.07c-4.61,4.72-5.7,13.28-2.43,19L230.35,229.3c3.27,5.73.55,10.42-6,10.42Z"/><path class="cls-4" d="M221,49c2.23-6.21.28-7.43-4.32-2.7L171.24,92.93c-4.61,4.73-5.68,13.27-2.38,19l12.25,21.23c3.3,5.72,7.82,5.31,10-.9Z"/><path class="cls-4" d="M88,114.31c-2.8-6-5.83-5.51-6.73,1l-5.45,39.75a14.29,14.29,0,0,0,9.91,15.18l21.42,6.12c6.35,1.81,9.24-1.59,6.44-7.57Z"/><path class="cls-1" d="M42.63,356.29a11,11,0,0,1,.31-14.66l12.66-13.08c3.83-4,2.5-6.57-3-5.82l-24.83,3.42c-5.45.75-12.16-2.53-14.9-7.3l-11-19.12a11.65,11.65,0,0,1,3-14.69l17.61-13.3c4.39-3.32,11.9-3.83,16.7-1.14l38.28,21.47a13.72,13.72,0,0,0,15.68-2.29L126.82,255c3.83-4,8.13-2.84,9.56,2.47l76.42,283.74c1.43,5.31-.39,6.29-4,2.18Z"/><path class="cls-2" d="M212.43,547.5c1.63,1.84-1.13,1.49-6.15-.77l-107-48.34c-5-2.26-10.68-8.33-12.6-13.49L39.48,358.18c-1.92-5.15-.5-6,3.15-1.89L202.82,536.68Z"/><path class="cls-5" d="M272.41,580.1a42.64,42.64,0,0,0,1.29-10.91c0-3.85-9.29-13.88-13.71-17.16l-3.14-2.33a127.63,127.63,0,0,0-11-7.52c-1.66-.86-7.78-1.37-9.58-1.06s-9.66,5.31-14.08,8.59L219,552c-4.42,3.28-9.82,8.56-12,11.73s-1.14,14.2-.42,16.34-2.26,1.18-6.64-2.15L98.09,500.34c-4.37-3.33-3.85-4.21,1.16-1.95l99.63,45,12.81,5.79c2,.92,3.15-.36,2.48-2.84l-3.82-14.17-74-274.72c-1.43-5.31,1.9-9.66,7.4-9.66H335.2c5.5,0,8.83,4.35,7.4,9.66l-74,274.72-3.82,14.17c-.67,2.48.45,3.76,2.48,2.84l12.81-5.79,99.63-45c5-2.26,5.53-1.39,1.16,1.95L279,578C274.67,581.28,271.68,582.25,272.41,580.1Z"/><polygon class="cls-1" points="266 541.83 269.23 544.38 263.58 550.85 266 541.83"/><polygon class="cls-2" points="269.51 544.16 263.58 550.85 270.98 547.5 269.51 544.16"/><path class="cls-4" d="M254.67,239.71c-6.6,0-9.32-4.69-6-10.42L334.48,79.07c3.27-5.73,2.18-14.28-2.43-19L277.78,4.46c-4.61-4.72-3.71-5.88,2-2.58l82.74,47.84c5.71,3.3,10.37,6.05,10.36,6.11s2.33,1.45,5.22,3.1,2.58,7.69-.7,13.42L310.63,189.2c-3.27,5.73-.77,8.92,5.57,7.09l116-33.52a14.32,14.32,0,0,0,9.88-15.22l-6.73-48.68c-.9-6.54.92-7.13,4-1.32L471,156.14c3.13,5.81,5.66,10.58,5.61,10.6s.91,1.85,2.12,4.07-3,5.53-9.33,7.36L298.31,227.62c-6.34,1.83-12.66,5.3-14,7.71s-7.91,4.38-14.51,4.38Z"/><path class="cls-4" d="M257.93,49c-2.23-6.21-.28-7.43,4.32-2.7l45.48,46.66c4.61,4.73,5.68,13.27,2.38,19l-12.25,21.23c-3.3,5.72-7.82,5.31-10-.9Z"/><path class="cls-4" d="M391,114.31c2.8-6,5.83-5.51,6.73,1l5.45,39.75a14.29,14.29,0,0,1-9.91,15.18l-21.42,6.12c-6.35,1.81-9.24-1.59-6.44-7.57Z"/><path class="cls-1" d="M436.34,356.29a11,11,0,0,0-.31-14.66l-12.66-13.08c-3.83-4-2.5-6.57,3-5.82l24.83,3.42c5.45.75,12.16-2.53,14.9-7.3l11-19.12a11.65,11.65,0,0,0-3-14.69l-17.61-13.3c-4.39-3.32-11.9-3.83-16.7-1.14l-38.28,21.47a13.72,13.72,0,0,1-15.68-2.29L352.15,255c-3.83-4-8.13-2.84-9.56,2.47L266.18,541.19c-1.43,5.31.39,6.29,4,2.18Z"/><path class="cls-2" d="M266.55,547.5c-1.63,1.84,1.13,1.49,6.15-.77l107-48.34c5-2.26,10.68-8.33,12.6-13.49l47.17-126.72c1.92-5.15.5-6-3.15-1.89L276.15,536.68Z"/><path class="cls-3" d="M239.4,545.39s-.06,4.5-.06,10v37.89c0,5.5,0,10,.06,10l4.75,0a38.59,38.59,0,0,0,10.25-1.79c3.06-1,8.37-10.2,9.52-13.61l3.19-9.48a35.74,35.74,0,0,0,1.07-9.12c0-3.22-8.36-12-12.77-15.32s-9.18-6.55-10.59-7.28A26.79,26.79,0,0,0,239.4,545.39Z"/><path class="cls-2" d="M493.79,391.22c0-41,34.33-74.43,76.42-74.43A77.59,77.59,0,0,1,627.59,342l-17.94,16.39a53,53,0,0,0-39.43-17.28c-28.58,0-52.06,22.37-52.06,50.06s23.48,50.06,52.06,50.06a53.22,53.22,0,0,0,41-18.83L629.8,438a77.42,77.42,0,0,1-59.59,27.69C528.13,465.65,493.79,432.2,493.79,391.22Z"/><path class="cls-2" d="M796.39,463.21H769.81l-12.63-29H683.41l-12.63,29H644.21l62.47-144h27.25Zm-49.62-53.38-26.36-60.7L694,409.83Z"/><path class="cls-2" d="M926.42,463.21h-28.8l-27.25-42.53H840.69v42.53H816.33v-144h63.13c28.8,0,52.06,22.82,52.06,50.73,0,21.93-14.4,40.54-34.33,47.63Zm-47-66.9c15.28,0,27.69-12,27.69-26.36,0-14.62-12.4-26.36-27.69-26.36H840.69v52.72Z"/><path class="cls-2" d="M985.79,343.6v40.32h67.78v24.37H985.79v30.57h80v24.37H961.43v-144h104.33V343.6Z"/><path class="cls-2" d="M1125.57,343.6v40.32h67.78v24.37h-67.78v30.57h80v24.37H1101.21v-144h104.33V343.6Z"/><path class="cls-2" d="M1351.08,463.21h-28.8L1295,420.68h-29.68v42.53H1241v-144h63.13c28.8,0,52.06,22.82,52.06,50.73,0,21.93-14.4,40.54-34.33,47.63Zm-47-66.9c15.28,0,27.69-12,27.69-26.36,0-14.62-12.4-26.36-27.69-26.36h-38.77v52.72Z"/><path class="cls-3" d="M1386.08,463.21v-144h55.16c41,0,74,32.34,74,72s-33,72-74,72Zm55.16-24.37c27.47,0,49.62-21.26,49.62-47.62,0-26.14-22.15-47.62-49.62-47.62h-30.79v95.25Z"/><path class="cls-3" d="M1776.84,463c-.89,1.33-21.71,31.23-61.58,31.23-20.6,0-36.33-7.53-52.72-15.73-22.59-10.85-47.63-23-93-19.05a216,216,0,0,0-24.37,3.54V319.23h104.33V343.6h-80V379h67.78V403.4H1569.5v31.68c50.95-4.21,79.75,10,103.67,21.49,15.06,7.53,27.25,13.29,42.09,13.29,26.58,0,40.76-19.72,41.42-20.6Zm-21.49-26.14h-77.09V319.23h77.09V343.6h-52.94v17.72h45v24.14h-45v27h52.94Z"/><path class="cls-3" d="M1908,463.21h-28.8l-27.25-42.53h-29.68v42.53h-24.37v-144H1861c28.8,0,52.06,22.82,52.06,50.73,0,21.93-14.4,40.54-34.33,47.63Zm-47-66.9c15.28,0,27.69-12,27.69-26.36,0-14.62-12.4-26.36-27.69-26.36h-38.77v52.72Z"/></svg>