<svg id="Layer_1" data-name="Layer 1" xmlns="http://www.w3.org/2000/svg" viewBox="0 0 770 770"><defs><style>.cls-1{fill:#3aaedf;}.cls-2{fill:#44c5f2;}.cls-3{fill:#eff2fa;}.cls-4{fill:#d7deed;}.cls-5{fill:#c7cfe2;}.cls-6{fill:#707487;}.cls-7{fill:#5b5d6e;}.cls-8{opacity:0.97;}.cls-9{fill:#afb9d2;}.cls-10{fill:#fff;}</style></defs><title>archive</title><circle class="cls-1" cx="385" cy="385" r="385"/><ellipse class="cls-2" cx="384.5" cy="385.2" rx="321.5" ry="312.08"/><path class="cls-3" d="M504.82,130h-259a16.71,16.71,0,0,0-16.71,16.71v451.1a16.71,16.71,0,0,0,16.71,16.71H563.29A16.71,16.71,0,0,0,580,597.81V205.18Z"/><path class="cls-4" d="M580,205.18H514.21a9.4,9.4,0,0,1-9.4-9.4V130Z"/><rect class="cls-4" x="278.17" y="458.87" width="57.1" height="22.47" transform="translate(-242.58 354.58) rotate(-45)"/><path class="cls-5" d="M304.75,456.19a131.21,131.21,0,0,0,15.89,15.89l14.21-14.21L319,442Z"/><path class="cls-6" d="M179.13,610.88l-13.18-13.17a12.42,12.42,0,0,1,0-17.57L270.79,475.3a12.42,12.42,0,0,1,17.57,0l13.18,13.17a12.42,12.42,0,0,1,0,17.57L196.69,610.88A12.42,12.42,0,0,1,179.13,610.88Z"/><path class="cls-7" d="M178.37,592.56,283.21,487.72a12.42,12.42,0,0,1,17.57,0l.77.77v0L288.36,475.3a12.42,12.42,0,0,0-17.57,0L165.95,580.14a12.42,12.42,0,0,0,0,17.57l12.41,12.41A12.42,12.42,0,0,1,178.37,592.56Z"/><path class="cls-5" d="M293.88,513.7l7.65-7.65a12.42,12.42,0,0,0,0-17.57L288.36,475.3a12.42,12.42,0,0,0-17.57,0L263.14,483Z"/><g class="cls-8"><path class="cls-9" d="M275.56,495.37l7.65-7.65a12.42,12.42,0,0,1,17.57,0l.77.77h0L288.36,475.3a12.42,12.42,0,0,0-17.57,0L263.14,483Z"/></g><circle class="cls-10" cx="404.57" cy="372.26" r="83.54"/><path class="cls-4" d="M404.57,489.21a117,117,0,1,1,117-117A117.08,117.08,0,0,1,404.57,489.21Zm0-217.2A100.25,100.25,0,1,0,504.82,372.26,100.36,100.36,0,0,0,404.57,272Z"/><path class="cls-4" d="M454.69,380.61H354.45a8.35,8.35,0,0,1-8.35-8.35h0a8.35,8.35,0,0,1,8.35-8.35H454.69a8.35,8.35,0,0,1,8.35,8.35h0A8.35,8.35,0,0,1,454.69,380.61Z"/><path class="cls-4" d="M438,347.2H412.92a8.35,8.35,0,0,1-8.35-8.35h0a8.35,8.35,0,0,1,8.35-8.35H438a8.35,8.35,0,0,1,8.35,8.35h0A8.35,8.35,0,0,1,438,347.2Z"/><path class="cls-4" d="M371.15,414H362.8a8.35,8.35,0,0,1-8.35-8.35h0a8.35,8.35,0,0,1,8.35-8.35h8.35a8.35,8.35,0,0,1,8.35,8.35h0A8.35,8.35,0,0,1,371.15,414Z"/><path class="cls-5" d="M379.51,347.2H362.8a8.35,8.35,0,0,1-8.35-8.35h0a8.35,8.35,0,0,1,8.35-8.35h16.71a8.35,8.35,0,0,1,8.35,8.35h0A8.35,8.35,0,0,1,379.51,347.2Z"/><path class="cls-5" d="M438,414H404.57a8.35,8.35,0,0,1-8.35-8.35h0a8.35,8.35,0,0,1,8.35-8.35H438a8.35,8.35,0,0,1,8.35,8.35h0A8.36,8.36,0,0,1,438,414Z"/></svg>