<svg id="Layer_1" data-name="Layer 1" xmlns="http://www.w3.org/2000/svg" viewBox="0 0 211.56 261.29"><defs><style>.cls-1{fill:#71a6d2;}.cls-2{fill:#3aaedf;}.cls-3{fill:#168cf1;}.cls-4{fill:#5869a7;}.cls-5{fill:#ff2b0c;}</style></defs><title>logo-symbol</title><path class="cls-1" d="M95.1,102.82c-4.69,0-9-.86-9.61-1.91s-5.41-3.16-10.7-4.69L9.39,77.33C4.1,75.8.21,73.76.74,72.8s1-1.8.93-1.8,2.1-4,4.71-8.82L15.62,45c2.61-4.84,4.13-4.35,3.37,1.1L17.36,57.93A11.94,11.94,0,0,0,25.6,70.61l41.4,12c5.28,1.53,7.37-1.13,4.65-5.91L47.28,34c-2.73-4.78-3.93-9.27-2.67-10s2.28-1.33,2.28-1.35,3.88-2.3,8.64-5L83.32,1.57C88.08-1.18,88.83-.22,85,3.72L68,21.12A14.07,14.07,0,0,0,66,37L98.66,94.14C101.39,98.91,99.79,102.82,95.1,102.82Z"/><path class="cls-1" d="M95.36,24.19c1.86-5.18.24-6.19-3.6-2.25L78.6,35.44a14,14,0,0,0-2,15.82l.57,1c2.75,4.76,6.52,4.43,8.37-.75Z"/><path class="cls-1" d="M41,52.49c-2.34-5-4.86-4.59-5.61.85l-1.08,7.87a11.91,11.91,0,0,0,8.26,12.65h.16c5.29,1.51,7.7-1.33,5.37-6.31Z"/><path class="cls-1" d="M211.06,72.8c.53,1-3.36,3-8.65,4.53L137,96.22c-5.28,1.53-10.1,3.64-10.7,4.69s-4.93,1.91-9.61,1.91-6.29-3.91-3.56-8.68L145.81,37a14.07,14.07,0,0,0-2-15.84l-17-17.4c-3.84-3.94-3.09-4.9,1.67-2.15l27.8,16.07,8.64,5s1,.63,2.28,1.35.06,5.22-2.67,10L140.16,76.66c-2.73,4.78-.64,7.43,4.64,5.91l41.4-12a11.94,11.94,0,0,0,8.24-12.68l-1.63-11.76c-.75-5.45.77-5.94,3.38-1.1l9.24,17.14C208,67,210.15,71,210.13,71S210.53,71.83,211.06,72.8Z"/><path class="cls-1" d="M116.44,24.19C114.58,19,116.2,18,120,21.94l13.16,13.5a14,14,0,0,1,2,15.82l-.57,1c-2.75,4.76-6.52,4.43-8.37-.75Z"/><path class="cls-1" d="M170.79,52.49c2.34-5,4.86-4.59,5.61.85l1.08,7.87a11.91,11.91,0,0,1-8.26,12.65h-.16c-5.29,1.51-7.7-1.33-5.37-6.31Z"/><polygon class="cls-2" points="17.04 150.36 28.62 138.4 9.16 141.08 0 125.2 14.63 114.15 38.91 127.77 59.65 106.34 95.22 238.4 17.04 150.36"/><polygon class="cls-3" points="95.22 238.4 40.63 213.75 17.04 150.36 95.22 238.4"/><path class="cls-4" d="M170.93,213.75,120,252.53l-.42.32,1.15-3.41a7.06,7.06,0,0,0-2.49-7.93l-8.37-6.21a7,7,0,0,0-4.09-1.39h0a7,7,0,0,0-4.09,1.39l-8.37,6.21a7.06,7.06,0,0,0-2.49,7.93l1.15,3.41-51.31-39.1L95.22,238.4,59.65,106.34h92.22L114.59,238.4Z"/><polygon class="cls-2" points="202.4 141.08 182.95 138.4 194.53 150.36 114.59 238.4 151.91 106.34 172.65 127.77 196.94 114.15 211.56 125.2 202.4 141.08"/><polygon class="cls-3" points="194.53 150.36 170.93 213.75 114.59 238.4 194.53 150.36"/><path class="cls-5" d="M118.54,248.75l-.89,2.84-1.72,5.47a5.91,5.91,0,0,1-5.58,4.14h-8.71a5.91,5.91,0,0,1-5.66-4l-1.82-5.41-1-2.85a5.91,5.91,0,0,1,2.08-6.63l7-5.19a5.92,5.92,0,0,1,6.95-.07l7.1,5A5.91,5.91,0,0,1,118.54,248.75Z"/></svg>