<svg id="Layer_1" data-name="Layer 1" xmlns="http://www.w3.org/2000/svg" viewBox="0 0 1704.77 328.41"><defs><style>.cls-1{fill:#71a6d2;}.cls-2{fill:#3aaedf;}.cls-3{fill:#168cf1;}.cls-4{fill:#5869a7;}.cls-5{fill:#ff2b0c;}</style></defs><title>logo-horizontal</title><path class="cls-1" d="M118.54,129.76c-5.5,0-10.62-1.08-11.37-2.39s-5.69-3.64-11-5.17L9.33,97.1C4,95.57.27,93.34.93,92.13s1.18-2.21,1.16-2.22,2.09-4,4.7-8.82l14-26c2.61-4.84,4.13-4.35,3.37,1.1L21.42,76a11.94,11.94,0,0,0,8.24,12.68l56.76,16.4c5.28,1.53,7.37-1.13,4.65-5.91L58,41.33c-2.73-4.78-3.67-9.42-2.09-10.32s2.86-1.66,2.85-1.7S62.64,27,67.4,24.25L106.64,1.57c4.76-2.75,5.51-1.79,1.67,2.15L83.48,29.16a14.07,14.07,0,0,0-2,15.84L125,121.08c2.73,4.78.46,8.68-5,8.68Z"/><path class="cls-1" d="M120.4,28.81c1.86-5.18.24-6.19-3.6-2.25l-20,20.55a14,14,0,0,0-2,15.82L98,68.57c2.75,4.76,6.52,4.43,8.37-.75Z"/><path class="cls-1" d="M50.33,64.38c-2.34-5-4.86-4.59-5.61.85l-2,14.89A11.91,11.91,0,0,0,51,92.77l5,1.45c5.29,1.51,7.7-1.33,5.37-6.31Z"/><path class="cls-1" d="M264.57,92.13c.66,1.21-3.12,3.45-8.4,5L169.3,122.2c-5.28,1.53-10.22,3.85-11,5.17s-5.87,2.39-11.37,2.39H145.6c-5.5,0-7.77-3.91-5-8.68L184,45a14.07,14.07,0,0,0-2-15.84L157.18,3.72c-3.84-3.94-3.09-4.9,1.67-2.15l39.24,22.69c4.76,2.75,8.65,5,8.64,5.06s1.27.79,2.85,1.7.64,5.55-2.09,10.32L174.43,99.17c-2.73,4.78-.64,7.43,4.64,5.91l56.76-16.4A11.94,11.94,0,0,0,244.08,76l-2.73-19.77c-.75-5.45.77-5.94,3.38-1.1l14,26c2.61,4.84,4.72,8.81,4.7,8.82S263.91,90.91,264.57,92.13Z"/><path class="cls-1" d="M145.1,28.81c-1.86-5.18-.24-6.19,3.6-2.25l20,20.55a14,14,0,0,1,2,15.82l-3.25,5.63c-2.75,4.76-6.52,4.43-8.37-.75Z"/><path class="cls-1" d="M215.17,64.38c2.34-5,4.86-4.59,5.61.85l2,14.89a11.91,11.91,0,0,1-8.26,12.65l-5.08,1.45c-5.29,1.51-7.7-1.33-5.37-6.31Z"/><polygon class="cls-2" points="21.36 189.36 35.87 174.36 11.49 177.72 0 157.81 18.34 143.96 48.78 161.03 74.77 134.18 119.36 299.72 21.36 189.36"/><polygon class="cls-3" points="119.36 299.72 50.93 268.82 21.36 189.36 119.36 299.72"/><path class="cls-4" d="M214.27,268.82l-63.79,48.61-.53.4,1.44-4.27a8.86,8.86,0,0,0-3.12-10l-10.49-7.79a8.86,8.86,0,0,0-5.18-1.74h0a8.86,8.86,0,0,0-5.18,1.74l-10.49,7.79a8.86,8.86,0,0,0-3.12,9.95l1.44,4.27-64.32-49,68.42,30.9L74.77,134.18H190.43L143.64,299.72Z"/><polygon class="cls-2" points="253.72 177.72 229.33 174.36 243.85 189.36 143.64 299.72 190.43 134.18 216.43 161.03 246.87 143.96 265.2 157.81 253.72 177.72"/><polygon class="cls-3" points="243.85 189.36 214.27 268.82 143.64 299.72 243.85 189.36"/><path class="cls-5" d="M148.59,312.69l-1.12,3.56-2.15,6.86a7.41,7.41,0,0,1-7,5.19l-5.8.06-5.12,0a7.41,7.41,0,0,1-7.1-5l-2.3-6.83L116.8,313a7.41,7.41,0,0,1,2.61-8.31l8.77-6.51a7.42,7.42,0,0,1,8.71-.09l8.9,6.33A7.41,7.41,0,0,1,148.59,312.69Z"/><path class="cls-3" d="M285.48,214.62c0-41,34.33-74.43,76.42-74.43a77.59,77.59,0,0,1,57.37,25.25l-17.94,16.39a53,53,0,0,0-39.43-17.28c-28.58,0-52.06,22.37-52.06,50.06s23.48,50.06,52.06,50.06a53.22,53.22,0,0,0,41-18.83l18.61,15.51A77.42,77.42,0,0,1,361.9,289C319.82,289,285.48,255.6,285.48,214.62Z"/><path class="cls-3" d="M588.08,286.61H561.49l-12.63-29H475.1l-12.63,29H435.89l62.47-144h27.25Zm-49.62-53.38-26.36-60.7-26.36,60.7Z"/><path class="cls-3" d="M718.11,286.61h-28.8l-27.25-42.53H632.38v42.53H608v-144h63.13c28.8,0,52.06,22.82,52.06,50.73,0,21.93-14.4,40.54-34.33,47.63Zm-47-66.9c15.28,0,27.69-12,27.69-26.36,0-14.62-12.4-26.36-27.69-26.36H632.38v52.72Z"/><path class="cls-3" d="M777.48,167v40.32h67.78v24.37H777.48v30.57h80v24.37H753.11v-144H857.45V167Z"/><path class="cls-3" d="M917.26,167v40.32H985v24.37H917.26v30.57h80v24.37H892.89v-144H997.23V167Z"/><path class="cls-3" d="M1142.77,286.61H1114l-27.25-42.53H1057v42.53h-24.37v-144h63.13c28.8,0,52.06,22.82,52.06,50.73,0,21.93-14.4,40.54-34.33,47.63Zm-47-66.9c15.28,0,27.69-12,27.69-26.36,0-14.62-12.4-26.36-27.69-26.36H1057v52.72Z"/><path class="cls-5" d="M1177.77,286.61v-144h55.16c41,0,74,32.34,74,72s-33,72-74,72Zm55.16-24.37c27.47,0,49.62-21.26,49.62-47.62,0-26.14-22.15-47.62-49.62-47.62h-30.79v95.25Z"/><path class="cls-5" d="M1568.53,286.39c-.89,1.33-21.71,31.23-61.58,31.23-20.6,0-36.33-7.53-52.72-15.73-22.59-10.85-47.63-23-93-19a216,216,0,0,0-24.37,3.54V142.63h104.33V167h-80v35.44H1429V226.8h-67.78v31.68c50.95-4.21,79.75,10,103.67,21.49,15.06,7.53,27.25,13.29,42.09,13.29,26.58,0,40.76-19.72,41.42-20.6ZM1547,260.25h-77V142.63h77V167h-52.9v17.72h45v24.14h-45v27H1547Z"/><path class="cls-5" d="M1699.68,286.61h-28.8l-27.25-42.53h-29.68v42.53h-24.37v-144h63.13c28.8,0,52.06,22.82,52.06,50.73,0,21.93-14.4,40.54-34.33,47.63Zm-47-66.9c15.28,0,27.69-12,27.69-26.36,0-14.62-12.4-26.36-27.69-26.36h-38.77v52.72Z"/></svg>