<svg id="Layer_1" data-name="Layer 1" xmlns="http://www.w3.org/2000/svg" viewBox="0 0 556.15 359.69"><defs><style>.cls-1{fill:#71a6d2;}.cls-2{fill:#3aaedf;}.cls-3{fill:#168cf1;}.cls-4{fill:#5869a7;}.cls-5{fill:#ff2b0c;}</style></defs><title>logo-vertical</title><path class="cls-1" d="M267.28,102.82c-4.69,0-9-.86-9.61-1.91s-5.41-3.16-10.7-4.69l-65.41-18.9c-5.28-1.53-9.18-3.57-8.65-4.53s.94-1.76.92-1.77,2.1-4,4.71-8.82l9.24-17.14c2.61-4.84,4.13-4.35,3.37,1.1l-1.63,11.76a11.94,11.94,0,0,0,8.24,12.68l41.4,12c5.28,1.53,7.37-1.13,4.65-5.91L219.45,34c-2.73-4.78-3.93-9.27-2.67-10s2.28-1.33,2.28-1.35,3.88-2.3,8.64-5L255.5,1.57c4.76-2.75,5.51-1.79,1.67,2.15l-17,17.4a14.07,14.07,0,0,0-2,15.84l32.68,57.18C273.57,98.91,272,102.82,267.28,102.82Z"/><path class="cls-1" d="M267.54,24.19c1.86-5.18.24-6.19-3.6-2.25l-13.16,13.5a14,14,0,0,0-2,15.82l.57,1c2.75,4.76,6.52,4.43,8.37-.75Z"/><path class="cls-1" d="M213.19,52.49c-2.34-5-4.86-4.59-5.61.85l-1.08,7.87a11.91,11.91,0,0,0,8.26,12.65h.16c5.29,1.51,7.7-1.33,5.37-6.31Z"/><path class="cls-1" d="M383.23,72.8c.53,1-3.36,3-8.65,4.53l-65.41,18.9c-5.28,1.53-10.1,3.64-10.7,4.69s-4.93,1.91-9.61,1.91-6.29-3.91-3.56-8.68L318,37a14.07,14.07,0,0,0-2-15.84L299,3.72c-3.84-3.94-3.09-4.9,1.67-2.15l27.8,16.07,8.64,5s1,.63,2.28,1.35.06,5.22-2.67,10L312.33,76.66c-2.73,4.78-.64,7.43,4.64,5.91l41.4-12a11.94,11.94,0,0,0,8.24-12.68L365,46.17c-.75-5.45.77-5.94,3.38-1.1L377.6,62.2c2.61,4.8,4.73,8.8,4.71,8.8S382.7,71.83,383.23,72.8Z"/><path class="cls-1" d="M288.61,24.19c-1.86-5.18-.24-6.19,3.6-2.25l13.16,13.5a14,14,0,0,1,2,15.82l-.57,1c-2.75,4.76-6.52,4.43-8.37-.75Z"/><path class="cls-1" d="M343,52.49c2.34-5,4.86-4.59,5.61.85l1.08,7.87a11.91,11.91,0,0,1-8.26,12.65h-.16c-5.29,1.51-7.7-1.33-5.37-6.31Z"/><polygon class="cls-2" points="189.21 150.36 200.79 138.4 181.34 141.08 172.18 125.2 186.81 114.15 211.09 127.77 231.82 106.34 267.39 238.4 189.21 150.36"/><polygon class="cls-3" points="267.39 238.4 212.81 213.75 189.21 150.36 267.39 238.4"/><path class="cls-4" d="M343.11,213.75l-50.89,38.78-.42.32,1.15-3.41a7.06,7.06,0,0,0-2.49-7.93l-8.37-6.21a7,7,0,0,0-4.09-1.39h0a7,7,0,0,0-4.09,1.39l-8.37,6.21a7.06,7.06,0,0,0-2.49,7.93l1.15,3.41-51.31-39.1,54.58,24.65-35.6-132.06h92.26L286.76,238.4Z"/><polygon class="cls-2" points="374.58 141.08 355.12 138.4 366.7 150.36 286.76 238.4 324.09 106.34 344.83 127.77 369.11 114.15 383.74 125.2 374.58 141.08"/><polygon class="cls-3" points="366.7 150.36 343.11 213.75 286.76 238.4 366.7 150.36"/><path class="cls-5" d="M290.71,248.75l-.89,2.84-1.72,5.47a5.91,5.91,0,0,1-5.58,4.14h-8.71a5.91,5.91,0,0,1-5.66-4l-1.82-5.41-1-2.85a5.91,5.91,0,0,1,2.08-6.63l7-5.19a5.92,5.92,0,0,1,7-.07l7.1,5A5.91,5.91,0,0,1,290.71,248.75Z"/><path class="cls-3" d="M0,319.33c0-16.06,13.45-29.17,30-29.17a30.4,30.4,0,0,1,22.48,9.9l-7,6.42A20.75,20.75,0,0,0,30,299.71c-11.2,0-20.4,8.77-20.4,19.62s9.2,19.62,20.4,19.62a20.86,20.86,0,0,0,16-7.38l7.29,6.08A30.34,30.34,0,0,1,29.94,348.5C13.45,348.49,0,335.39,0,319.33Z"/><path class="cls-3" d="M118.57,347.54H108.16l-4.95-11.37H74.3l-4.95,11.37H58.94l24.48-56.42H94.09ZM99.13,326.62,88.8,302.84,78.47,326.62Z"/><path class="cls-3" d="M169.53,347.54H158.24l-10.68-16.67H135.93v16.67h-9.55V291.12h24.74A20.16,20.16,0,0,1,171.52,311a19.94,19.94,0,0,1-13.45,18.66Zm-18.4-26.21a10.34,10.34,0,0,0,.91-20.66q-.45,0-.91,0h-15.2v20.66Z"/><path class="cls-3" d="M192.79,300.67v15.8h26.56V326H192.79v12h31.33v9.55H183.24V291.12h40.88v9.55Z"/><path class="cls-3" d="M247.56,300.67v15.8h26.56V326H247.56v12H278.9v9.55H238V291.12h40.9v9.55Z"/><path class="cls-3" d="M335.93,347.54H324.64L314,330.87H302.34v16.67h-9.55V291.12h24.74A20.16,20.16,0,0,1,337.93,311a19.94,19.94,0,0,1-13.45,18.66Zm-18.4-26.21a10.34,10.34,0,0,0,.91-20.66q-.45,0-.91,0H302.34v20.66Z"/><path class="cls-5" d="M349.65,347.54V291.12h21.61c16.06,0,29,12.67,29,28.21s-12.93,28.21-29,28.21ZM371.26,338c10.76,0,19.44-8.33,19.44-18.66s-8.68-18.66-19.44-18.66H359.19V338Z"/><path class="cls-5" d="M502.76,347.45a30.33,30.33,0,0,1-24.13,12.24c-8.07,0-14.24-3-20.66-6.16-8.85-4.25-18.66-9-36.46-7.46a84.64,84.64,0,0,0-9.55,1.39V291.12h40.88v9.55H421.52v13.89h26.56v9.55H421.52v12.41c20-1.65,31.25,3.91,40.62,8.42,5.9,3,10.68,5.21,16.49,5.21a20.74,20.74,0,0,0,16.23-8.07Zm-8.42-10.24h-30.2V291.12h30.21v9.55H473.6v6.94h17.62v9.46H473.6v10.59h20.75Z"/><path class="cls-5" d="M554.15,347.54H542.87l-10.68-16.67H520.56v16.67H511V291.12h24.74A20.16,20.16,0,0,1,556.15,311a19.94,19.94,0,0,1-13.45,18.66Zm-18.4-26.21a10.34,10.34,0,0,0,.91-20.66q-.45,0-.91,0H520.56v20.66Z"/></svg>