<svg id="Layer_1" data-name="Layer 1" xmlns="http://www.w3.org/2000/svg" viewBox="0 0 182.42 225.83"><defs><style>.cls-1{fill:#f4f4f4;}.cls-2{fill:#e5e5e5;}.cls-3{fill:#c9c9c9;}.cls-4{fill:#fff;}.cls-5{fill:#ff2b0c;}</style></defs><title>logo-white</title><path class="cls-1" d="M82,88.18c-4,0-7.77-.74-8.29-1.65s-5.26-2.9-10.55-4.42L9.42,66.59C4.13,65.06.18,63.13.64,62.3s.81-1.52.8-1.53,2.1-4,4.71-8.82L12.81,39.6c2.61-4.84,4.13-4.35,3.37,1.1l-1,7.41A11.94,11.94,0,0,0,23.4,60.79l33,9.55c5.28,1.53,7.37-1.13,4.65-5.91L41.45,30.07c-2.73-4.78-4.07-9.19-3-9.81s2-1.15,2-1.17,3.88-2.29,8.64-5L70.65,1.57c4.76-2.75,5.51-1.79,1.67,2.15l-12.72,13a14.07,14.07,0,0,0-2,15.84L84.39,79.5C87.12,84.28,86,88.18,82,88.18Z"/><path class="cls-1" d="M81.76,21.68c1.86-5.18.24-6.19-3.6-2.25L68.74,29.1C64.9,33,63.81,39.81,66.31,44.15s6.07,3.66,7.93-1.52Z"/><path class="cls-1" d="M35.95,46c-2.34-5-4.86-4.59-5.61.85l-.56,4.06c-.75,5.45,2.4,11,7,12.29s6.45-1.69,4.11-6.67Z"/><path class="cls-1" d="M182,62.3c.46.83-3.5,2.76-8.78,4.29L119.45,82.11c-5.28,1.53-10,3.52-10.55,4.42s-4.25,1.65-8.29,1.65-5.11-3.91-2.38-8.68L125,32.59a14.07,14.07,0,0,0-2-15.84l-12.72-13c-3.84-3.94-3.09-4.9,1.67-2.15L133.56,14c4.76,2.75,8.65,5,8.64,5s.88.55,2,1.17-.26,5-3,9.81L121.53,64.43c-2.73,4.78-.64,7.43,4.64,5.91l33-9.55a11.94,11.94,0,0,0,8.24-12.68l-1-7.41c-.75-5.45.77-5.94,3.38-1.1l6.66,12.35c2.61,4.84,4.73,8.81,4.71,8.82S181.53,61.46,182,62.3Z"/><path class="cls-1" d="M100.86,21.68c-1.86-5.18-.24-6.19,3.6-2.25l9.42,9.67c3.84,3.94,4.93,10.71,2.43,15.06s-6.07,3.66-7.93-1.52Z"/><path class="cls-1" d="M146.68,46c2.34-5,4.86-4.59,5.61.85l.56,4.06c.75,5.45-2.4,11-7,12.29s-6.45-1.69-4.11-6.67Z"/><polygon class="cls-2" points="14.69 129.18 24.68 118.86 7.9 121.17 0 107.48 12.61 97.95 33.55 109.69 51.43 91.22 82.1 205.09 14.69 129.18"/><polygon class="cls-3" points="82.1 205.09 35.04 183.84 14.69 129.18 82.1 205.09"/><path class="cls-4" d="M147.39,183.83l-43.88,33.44-.37.28,1-2.94a6.11,6.11,0,0,0-2.14-6.84l-7.22-5.35a5.88,5.88,0,0,0-7.12,0l-7.22,5.35a6.11,6.11,0,0,0-2.14,6.84l1,2.94L35,183.83,82.1,205.09,51.43,91.22H131L98.8,205.09Z"/><polygon class="cls-2" points="174.52 121.17 157.75 118.86 167.73 129.18 98.8 205.09 130.99 91.22 148.87 109.69 169.81 97.95 182.42 107.48 174.52 121.17"/><polygon class="cls-3" points="167.73 129.18 147.39 183.84 98.8 205.09 167.73 129.18"/><path class="cls-5" d="M102.21,215l-.77,2.45L100,222.18a5.1,5.1,0,0,1-4.81,3.57l-4,0-3.52,0a5.09,5.09,0,0,1-4.88-3.47l-1.57-4.66-.83-2.45a5.1,5.1,0,0,1,1.79-5.72l6-4.48a5.1,5.1,0,0,1,6-.06l6.12,4.35A5.1,5.1,0,0,1,102.21,215Z"/></svg>