<svg xmlns="http://www.w3.org/2000/svg" width="1440" height="900"><path d="M613,342L828,339L610,125Z" fill="#b2bfbb" stroke="#b2bfbb" stroke-width="1.51"/><path d="M828,339L828,125L610,125Z" fill="#b1b6b4" stroke="#b1b6b4" stroke-width="1.51"/><path d="M828,125L611,-90L610,125Z" fill="#c1aba7" stroke="#c1aba7" stroke-width="1.51"/><path d="M828,125L825,-92L611,-90Z" fill="#c0a5a1" stroke="#c0a5a1" stroke-width="1.51"/><path d="M828,339L1042,125L828,125Z" fill="#a2a2a8" stroke="#a2a2a8" stroke-width="1.51"/><path d="M1044,-89L825,-92L828,125Z" fill="#b09195" stroke="#b09195" stroke-width="1.51"/><path d="M611,-90L395,124L610,125Z" fill="#c7a09d" stroke="#c7a09d" stroke-width="1.51"/><path d="M610,125L394,344L613,342Z" fill="#bab5b0" stroke="#bab5b0" stroke-width="1.51"/><path d="M828,339L1043,341L1042,125Z" fill="#969fa8" stroke="#969fa8" stroke-width="1.51"/><path d="M1044,556L1043,341L828,339Z" fill="#89abb5" stroke="#89abb5" stroke-width="1.51"/><path d="M395,124L394,344L610,125Z" fill="#c2a9a4" stroke="#c2a9a4" stroke-width="1.51"/><path d="M613,342L828,560L828,339Z" fill="#9fcac8" stroke="#9fcac8" stroke-width="1.51"/><path d="M609,560L828,560L613,342Z" fill="#9cc9c8" stroke="#9cc9c8" stroke-width="1.51"/><path d="M394,344L609,560L613,342Z" fill="#afc2bd" stroke="#afc2bd" stroke-width="1.51"/><path d="M1042,125L1044,-89L828,125Z" fill="#a48b95" stroke="#a48b95" stroke-width="1.51"/><path d="M1262,124L1044,-89L1042,125Z" fill="#957789" stroke="#957789" stroke-width="1.51"/><path d="M611,-90L395,-92L395,124Z" fill="#ce9692" stroke="#ce9692" stroke-width="1.51"/><path d="M395,124L181,340L394,344Z" fill="#c5a4a1" stroke="#c5a4a1" stroke-width="1.51"/><path d="M612,-306L395,-92L611,-90Z" fill="#d5988a" stroke="#d5988a" stroke-width="1.51"/><path d="M1043,341L1259,343L1042,125Z" fill="#878b9c" stroke="#878b9c" stroke-width="1.51"/><path d="M828,560L1044,556L828,339Z" fill="#87b3ba" stroke="#87b3ba" stroke-width="1.51"/><path d="M394,344L395,559L609,560Z" fill="#acb9b7" stroke="#acb9b7" stroke-width="1.51"/><path d="M827,-307L612,-306L825,-92Z" fill="#d09f8e" stroke="#d09f8e" stroke-width="1.51"/><path d="M825,-92L612,-306L611,-90Z" fill="#d0a394" stroke="#d0a394" stroke-width="1.51"/><path d="M394,344L178,560L395,559Z" fill="#b4afad" stroke="#b4afad" stroke-width="1.51"/><path d="M177,124L181,340L395,124Z" fill="#cb9895" stroke="#cb9895" stroke-width="1.51"/><path d="M1042,-305L827,-307L825,-92Z" fill="#c08b83" stroke="#c08b83" stroke-width="1.51"/><path d="M1044,556L1259,343L1043,341Z" fill="#7a97a9" stroke="#7a97a9" stroke-width="1.51"/><path d="M178,-91L177,124L395,124Z" fill="#d18989" stroke="#d18989" stroke-width="1.51"/><path d="M397,771L612,775L609,560Z" fill="#8c99a6" stroke="#8c99a6" stroke-width="1.51"/><path d="M609,560L612,775L828,560Z" fill="#8ab0b8" stroke="#8ab0b8" stroke-width="1.51"/><path d="M828,560L1043,773L1044,556Z" fill="#6e90a5" stroke="#6e90a5" stroke-width="1.51"/><path d="M612,775L827,775L828,560Z" fill="#7aa1b0" stroke="#7aa1b0" stroke-width="1.51"/><path d="M1044,556L1257,559L1259,343Z" fill="#6a8ba2" stroke="#6a8ba2" stroke-width="1.51"/><path d="M1259,343L1262,124L1042,125Z" fill="#847b90" stroke="#847b90" stroke-width="1.51"/><path d="M1044,-89L1042,-305L825,-92Z" fill="#b48383" stroke="#b48383" stroke-width="1.51"/><path d="M1260,-91L1042,-305L1044,-89Z" fill="#a46f78" stroke="#a46f78" stroke-width="1.51"/><path d="M179,772L397,771L395,559Z" fill="#998a97" stroke="#998a97" stroke-width="1.51"/><path d="M395,559L397,771L609,560Z" fill="#9aa1a8" stroke="#9aa1a8" stroke-width="1.51"/><path d="M395,-92L178,-91L395,124Z" fill="#d28b88" stroke="#d28b88" stroke-width="1.51"/><path d="M612,-306L394,-307L395,-92Z" fill="#dc907f" stroke="#dc907f" stroke-width="1.51"/><path d="M827,-307L394,-307L612,-306Z" fill="#dd9a83" stroke="#dd9a83" stroke-width="1.51"/><path d="M1043,773L1257,559L1044,556Z" fill="#5f7d99" stroke="#5f7d99" stroke-width="1.51"/><path d="M1259,343L1476,341L1262,124Z" fill="#7d7e99" stroke="#7d7e99" stroke-width="1.51"/><path d="M181,-305L178,-91L395,-92Z" fill="#dd8077" stroke="#dd8077" stroke-width="1.51"/><path d="M1262,124L1260,-91L1044,-89Z" fill="#926a7e" stroke="#926a7e" stroke-width="1.51"/><path d="M827,775L1043,773L828,560Z" fill="#6c8ea3" stroke="#6c8ea3" stroke-width="1.51"/><path d="M181,340L178,560L394,344Z" fill="#bfada8" stroke="#bfada8" stroke-width="1.51"/><path d="M-37,342L178,560L181,340Z" fill="#c8a69e" stroke="#c8a69e" stroke-width="1.51"/><path d="M394,-307L181,-305L395,-92Z" fill="#df8476" stroke="#df8476" stroke-width="1.51"/><path d="M1260,-91L1261,-305L1042,-305Z" fill="#a0646d" stroke="#a0646d" stroke-width="1.51"/><path d="M1042,-305L1474,-308L827,-307Z" fill="#ad6c6d" stroke="#ad6c6d" stroke-width="1.51"/><path d="M1475,-92L1261,-305L1260,-91Z" fill="#9a6375" stroke="#9a6375" stroke-width="1.51"/><path d="M177,124L-37,342L181,340Z" fill="#cf9792" stroke="#cf9792" stroke-width="1.51"/><path d="M-37,-90L-37,125L177,124Z" fill="#da807a" stroke="#da807a" stroke-width="1.51"/><path d="M-37,-90L177,124L178,-91Z" fill="#da7d79" stroke="#da7d79" stroke-width="1.51"/><path d="M397,991L611,990L612,775Z" fill="#787f99" stroke="#787f99" stroke-width="1.51"/><path d="M178,560L179,772L395,559Z" fill="#a59099" stroke="#a59099" stroke-width="1.51"/><path d="M-36,772L179,772L178,560Z" fill="#a47e88" stroke="#a47e88" stroke-width="1.51"/><path d="M-37,125L-37,342L177,124Z" fill="#d58f87" stroke="#d58f87" stroke-width="1.51"/><path d="M1262,124L1475,-92L1260,-91Z" fill="#906781" stroke="#906781" stroke-width="1.51"/><path d="M1474,557L1476,341L1259,343Z" fill="#7491af" stroke="#7491af" stroke-width="1.51"/><path d="M1474,557L1259,343L1257,559Z" fill="#6788a5" stroke="#6788a5" stroke-width="1.51"/><path d="M1476,341L1477,126L1262,124Z" fill="#887e9c" stroke="#887e9c" stroke-width="1.51"/><path d="M397,991L612,775L397,771Z" fill="#7e7c92" stroke="#7e7c92" stroke-width="1.51"/><path d="M612,775L611,990L827,775Z" fill="#6e8ba1" stroke="#6e8ba1" stroke-width="1.51"/><path d="M827,775L829,991L1043,773Z" fill="#597694" stroke="#597694" stroke-width="1.51"/><path d="M1043,773L1260,774L1257,559Z" fill="#4e698b" stroke="#4e698b" stroke-width="1.51"/><path d="M1257,988L1260,774L1043,773Z" fill="#3b527d" stroke="#3b527d" stroke-width="1.51"/><path d="M611,990L829,991L827,775Z" fill="#6687a3" stroke="#6687a3" stroke-width="1.51"/><path d="M-36,-309L-37,-90L178,-91Z" fill="#e57769" stroke="#e57769" stroke-width="1.51"/><path d="M1260,774L1474,557L1257,559Z" fill="#547196" stroke="#547196" stroke-width="1.51"/><path d="M1477,126L1475,-92L1262,124Z" fill="#91718f" stroke="#91718f" stroke-width="1.51"/><path d="M-37,342L-36,559L178,560Z" fill="#c5a199" stroke="#c5a199" stroke-width="1.51"/><path d="M611,990L826,1203L829,991Z" fill="#7198ba" stroke="#7198ba" stroke-width="1.51"/><path d="M179,772L397,991L397,771Z" fill="#867288" stroke="#867288" stroke-width="1.51"/><path d="M179,990L397,991L179,772Z" fill="#886a85" stroke="#886a85" stroke-width="1.51"/><path d="M829,991L1043,991L1043,773Z" fill="#506b90" stroke="#506b90" stroke-width="1.51"/><path d="M1260,774L1476,775L1474,557Z" fill="#4e6c97" stroke="#4e6c97" stroke-width="1.51"/><path d="M1043,991L1257,988L1043,773Z" fill="#405985" stroke="#405985" stroke-width="1.51"/><path d="M-36,559L-36,772L178,560Z" fill="#b1888a" stroke="#b1888a" stroke-width="1.51"/><path d="M-251,775L-36,772L-36,559Z" fill="#b0797a" stroke="#b0797a" stroke-width="1.51"/><path d="M1475,-92L1474,-308L1261,-305Z" fill="#a56778" stroke="#a56778" stroke-width="1.51"/><path d="M1261,-305L1474,-308L1042,-305Z" fill="#9d5862" stroke="#9d5862" stroke-width="1.51"/><path d="M827,-307L-36,-309L394,-307Z" fill="#e28875" stroke="#e28875" stroke-width="1.51"/><path d="M1693,-304L1474,-308L1475,-92Z" fill="#b1748a" stroke="#b1748a" stroke-width="1.51"/><path d="M1474,-308L-36,-309L827,-307Z" fill="#d59e88" stroke="#d59e88" stroke-width="1.51"/><path d="M394,-307L-36,-309L181,-305Z" fill="#e67666" stroke="#e67666" stroke-width="1.51"/><path d="M181,-305L-36,-309L178,-91Z" fill="#e57668" stroke="#e57668" stroke-width="1.51"/><path d="M-36,772L179,990L179,772Z" fill="#91667a" stroke="#91667a" stroke-width="1.51"/><path d="M1474,989L1476,775L1260,774Z" fill="#3a5588" stroke="#3a5588" stroke-width="1.51"/><path d="M1694,342L1690,126L1476,341Z" fill="#9199be" stroke="#9199be" stroke-width="1.51"/><path d="M1476,341L1690,126L1477,126Z" fill="#928cae" stroke="#928cae" stroke-width="1.51"/><path d="M1477,126L1690,-90L1475,-92Z" fill="#a07a9b" stroke="#a07a9b" stroke-width="1.51"/><path d="M1694,342L1476,341L1691,557Z" fill="#82a6cb" stroke="#82a6cb" stroke-width="1.51"/><path d="M1043,991L1260,1204L1257,988Z" fill="#426095" stroke="#426095" stroke-width="1.51"/><path d="M829,991L1042,1206L1043,991Z" fill="#5a7ba7" stroke="#5a7ba7" stroke-width="1.51"/><path d="M611,1205L826,1203L611,990Z" fill="#7ea2c6" stroke="#7ea2c6" stroke-width="1.51"/><path d="M611,1205L611,990L397,991Z" fill="#8490b0" stroke="#8490b0" stroke-width="1.51"/><path d="M-251,-90L-37,125L-37,-90Z" fill="#e3786b" stroke="#e3786b" stroke-width="1.51"/><path d="M-251,-90L-253,125L-37,125Z" fill="#e37b6c" stroke="#e37b6c" stroke-width="1.51"/><path d="M-37,125L-254,340L-37,342Z" fill="#da9383" stroke="#da9383" stroke-width="1.51"/><path d="M-37,342L-254,556L-36,559Z" fill="#ce9e8f" stroke="#ce9e8f" stroke-width="1.51"/><path d="M394,1206L611,1205L397,991Z" fill="#8f93b6" stroke="#8f93b6" stroke-width="1.51"/><path d="M-253,125L-254,340L-37,125Z" fill="#df8a78" stroke="#df8a78" stroke-width="1.51"/><path d="M1691,557L1476,341L1474,557Z" fill="#749cc1" stroke="#749cc1" stroke-width="1.51"/><path d="M-253,-307L-251,-90L-37,-90Z" fill="#ed715a" stroke="#ed715a" stroke-width="1.51"/><path d="M1694,342L1690,-90L1690,126Z" fill="#a192bb" stroke="#a192bb" stroke-width="1.51"/><path d="M1690,126L1690,-90L1477,126Z" fill="#a185ab" stroke="#a185ab" stroke-width="1.51"/><path d="M1476,775L1691,557L1474,557Z" fill="#6084b2" stroke="#6084b2" stroke-width="1.51"/><path d="M-254,340L-254,556L-37,342Z" fill="#d8a08b" stroke="#d8a08b" stroke-width="1.51"/><path d="M-36,772L-38,990L179,990Z" fill="#936277" stroke="#936277" stroke-width="1.51"/><path d="M611,1205L1042,1206L826,1203Z" fill="#749fcb" stroke="#749fcb" stroke-width="1.51"/><path d="M826,1203L1042,1206L829,991Z" fill="#678db9" stroke="#678db9" stroke-width="1.51"/><path d="M1257,988L1474,989L1260,774Z" fill="#334d81" stroke="#334d81" stroke-width="1.51"/><path d="M181,1204L394,1206L397,991Z" fill="#9888ac" stroke="#9888ac" stroke-width="1.51"/><path d="M611,1205L394,1206L1042,1206Z" fill="#84abd2" stroke="#84abd2" stroke-width="1.51"/><path d="M181,1204L397,991L179,990Z" fill="#957b9c" stroke="#957b9c" stroke-width="1.51"/><path d="M1476,775L1693,771L1691,557Z" fill="#5b7fb3" stroke="#5b7fb3" stroke-width="1.51"/><path d="M1260,1204L1474,989L1257,988Z" fill="#3d5c97" stroke="#3d5c97" stroke-width="1.51"/><path d="M-251,775L-38,990L-36,772Z" fill="#9c616c" stroke="#9c616c" stroke-width="1.51"/><path d="M-36,1204L181,1204L179,990Z" fill="#a47b9d" stroke="#a47b9d" stroke-width="1.51"/><path d="M-36,-309L-253,-307L-37,-90Z" fill="#ee7059" stroke="#ee7059" stroke-width="1.51"/><path d="M-251,-90L-253,-307L-253,125Z" fill="#ed715c" stroke="#ed715c" stroke-width="1.51"/><path d="M-253,125L-253,-307L-254,340Z" fill="#e77967" stroke="#e77967" stroke-width="1.51"/><path d="M-254,556L-251,775L-36,559Z" fill="#bd847c" stroke="#bd847c" stroke-width="1.51"/><path d="M1690,-90L1693,-304L1475,-92Z" fill="#b27c99" stroke="#b27c99" stroke-width="1.51"/><path d="M1694,342L1693,-304L1690,-90Z" fill="#ac87ae" stroke="#ac87ae" stroke-width="1.51"/><path d="M1042,1206L1260,1204L1043,991Z" fill="#4f70a6" stroke="#4f70a6" stroke-width="1.51"/><path d="M1693,989L1476,775L1474,989Z" fill="#3f609c" stroke="#3f609c" stroke-width="1.51"/><path d="M1693,989L1693,771L1476,775Z" fill="#4668a4" stroke="#4668a4" stroke-width="1.51"/><path d="M1691,557L1693,771L1694,342Z" fill="#739ecd" stroke="#739ecd" stroke-width="1.51"/><path d="M-38,990L-36,1204L179,990Z" fill="#a2728d" stroke="#a2728d" stroke-width="1.51"/><path d="M181,1204L-36,1204L394,1206Z" fill="#a785ad" stroke="#a785ad" stroke-width="1.51"/><path d="M-255,1204L-36,1204L-38,990Z" fill="#b2768f" stroke="#b2768f" stroke-width="1.51"/><path d="M-251,775L-252,989L-38,990Z" fill="#9e5d6a" stroke="#9e5d6a" stroke-width="1.51"/><path d="M-254,556L-252,989L-251,775Z" fill="#ad6a6a" stroke="#ad6a6a" stroke-width="1.51"/><path d="M1690,1203L1693,989L1474,989Z" fill="#4c75bc" stroke="#4c75bc" stroke-width="1.51"/><path d="M1693,771L1693,989L1694,342Z" fill="#5f85bd" stroke="#5f85bd" stroke-width="1.51"/><path d="M1260,1204L1475,1207L1474,989Z" fill="#456bac" stroke="#456bac" stroke-width="1.51"/><path d="M1042,1206L1475,1207L1260,1204Z" fill="#4366a5" stroke="#4366a5" stroke-width="1.51"/><path d="M394,1206L1475,1207L1042,1206Z" fill="#648bbe" stroke="#648bbe" stroke-width="1.51"/><path d="M1475,1207L1690,1203L1474,989Z" fill="#4c77be" stroke="#4c77be" stroke-width="1.51"/><path d="M-254,340L-255,1204L-254,556Z" fill="#b77671" stroke="#b77671" stroke-width="1.51"/><path d="M-254,556L-255,1204L-252,989Z" fill="#a25b65" stroke="#a25b65" stroke-width="1.51"/><path d="M-252,989L-255,1204L-38,990Z" fill="#ae6d7f" stroke="#ae6d7f" stroke-width="1.51"/><path d="M-36,1204L-255,1204L394,1206Z" fill="#b082a4" stroke="#b082a4" stroke-width="1.51"/></svg>