<svg xmlns="http://www.w3.org/2000/svg" width="1920" height="1080"><path d="M1079,492L1187,393L1055,348Z" fill="#86818d" stroke="#86818d" stroke-width="1.51"/><path d="M1079,492L1196,585L1187,393Z" fill="#867480" stroke="#867480" stroke-width="1.51"/><path d="M1187,393L1244,271L1055,348Z" fill="#958b95" stroke="#958b95" stroke-width="1.51"/><path d="M1338,410L1244,271L1187,393Z" fill="#a0878e" stroke="#a0878e" stroke-width="1.51"/><path d="M1055,348L897,409L1079,492Z" fill="#768090" stroke="#768090" stroke-width="1.51"/><path d="M1079,492L1025,677L1196,585Z" fill="#836c79" stroke="#836c79" stroke-width="1.51"/><path d="M996,232L897,409L1055,348Z" fill="#788e9e" stroke="#788e9e" stroke-width="1.51"/><path d="M1244,271L996,232L1055,348Z" fill="#8f94a0" stroke="#8f94a0" stroke-width="1.51"/><path d="M1325,533L1338,410L1187,393Z" fill="#9c7981" stroke="#9c7981" stroke-width="1.51"/><path d="M1196,585L1325,533L1187,393Z" fill="#90717a" stroke="#90717a" stroke-width="1.51"/><path d="M1136,61L991,109L996,232Z" fill="#91adb8" stroke="#91adb8" stroke-width="1.51"/><path d="M1338,410L1294,241L1244,271Z" fill="#aa8f94" stroke="#aa8f94" stroke-width="1.51"/><path d="M897,409L850,509L1079,492Z" fill="#6b7a8c" stroke="#6b7a8c" stroke-width="1.51"/><path d="M850,509L1025,677L1079,492Z" fill="#6e6e7f" stroke="#6e6e7f" stroke-width="1.51"/><path d="M1196,585L1374,721L1325,533Z" fill="#a2696f" stroke="#a2696f" stroke-width="1.51"/><path d="M830,231L777,393L897,409Z" fill="#7999a9" stroke="#7999a9" stroke-width="1.51"/><path d="M897,409L777,393L850,509Z" fill="#738a9b" stroke="#738a9b" stroke-width="1.51"/><path d="M1136,61L996,232L1244,271Z" fill="#9ba3ac" stroke="#9ba3ac" stroke-width="1.51"/><path d="M830,231L897,409L996,232Z" fill="#799aaa" stroke="#799aaa" stroke-width="1.51"/><path d="M991,109L830,231L996,232Z" fill="#7ea6b5" stroke="#7ea6b5" stroke-width="1.51"/><path d="M1025,677L1181,743L1196,585Z" fill="#986a73" stroke="#986a73" stroke-width="1.51"/><path d="M850,509L855,646L1025,677Z" fill="#787282" stroke="#787282" stroke-width="1.51"/><path d="M1025,677L1087,808L1181,743Z" fill="#a16970" stroke="#a16970" stroke-width="1.51"/><path d="M730,541L855,646L850,509Z" fill="#737d8e" stroke="#737d8e" stroke-width="1.51"/><path d="M1294,241L1136,61L1244,271Z" fill="#aba2a7" stroke="#aba2a7" stroke-width="1.51"/><path d="M1338,410L1460,340L1294,241Z" fill="#b28a8e" stroke="#b28a8e" stroke-width="1.51"/><path d="M1294,241L1351,120L1136,61Z" fill="#b5aaad" stroke="#b5aaad" stroke-width="1.51"/><path d="M1475,590L1460,340L1338,410Z" fill="#ae777b" stroke="#ae777b" stroke-width="1.51"/><path d="M1475,590L1338,410L1325,533Z" fill="#a26e74" stroke="#a26e74" stroke-width="1.51"/><path d="M1524,211L1351,120L1294,241Z" fill="#c3a1a0" stroke="#c3a1a0" stroke-width="1.51"/><path d="M910,825L1087,808L1025,677Z" fill="#9a6a72" stroke="#9a6a72" stroke-width="1.51"/><path d="M777,393L730,541L850,509Z" fill="#72899a" stroke="#72899a" stroke-width="1.51"/><path d="M1181,743L1374,721L1196,585Z" fill="#a8686d" stroke="#a8686d" stroke-width="1.51"/><path d="M1211,844L1374,721L1181,743Z" fill="#b76568" stroke="#b76568" stroke-width="1.51"/><path d="M1374,721L1475,590L1325,533Z" fill="#ad676b" stroke="#ad676b" stroke-width="1.51"/><path d="M1087,808L1211,844L1181,743Z" fill="#b1666a" stroke="#b1666a" stroke-width="1.51"/><path d="M830,231L712,195L777,393Z" fill="#80abba" stroke="#80abba" stroke-width="1.51"/><path d="M777,393L612,396L730,541Z" fill="#7898a7" stroke="#7898a7" stroke-width="1.51"/><path d="M737,80L712,195L830,231Z" fill="#88becb" stroke="#88becb" stroke-width="1.51"/><path d="M856,36L830,231L991,109Z" fill="#85b6c4" stroke="#85b6c4" stroke-width="1.51"/><path d="M1013,-46L856,36L991,109Z" fill="#95a3ab" stroke="#95a3ab" stroke-width="1.51"/><path d="M855,646L910,825L1025,677Z" fill="#8c6e79" stroke="#8c6e79" stroke-width="1.51"/><path d="M730,541L752,697L855,646Z" fill="#83808d" stroke="#83808d" stroke-width="1.51"/><path d="M752,697L910,825L855,646Z" fill="#937882" stroke="#937882" stroke-width="1.51"/><path d="M1087,808L1055,988L1211,844Z" fill="#ba6566" stroke="#ba6566" stroke-width="1.51"/><path d="M1597,208L1524,211L1460,340Z" fill="#cf9491" stroke="#cf9491" stroke-width="1.51"/><path d="M1460,340L1524,211L1294,241Z" fill="#c19595" stroke="#c19595" stroke-width="1.51"/><path d="M1171,-93L1013,-46L1136,61Z" fill="#b49896" stroke="#b49896" stroke-width="1.51"/><path d="M1136,61L1013,-46L991,109Z" fill="#a1a3a8" stroke="#a1a3a8" stroke-width="1.51"/><path d="M712,195L612,396L777,393Z" fill="#80aab9" stroke="#80aab9" stroke-width="1.51"/><path d="M730,541L543,648L752,697Z" fill="#898b97" stroke="#898b97" stroke-width="1.51"/><path d="M712,195L557,232L612,396Z" fill="#87bbc8" stroke="#87bbc8" stroke-width="1.51"/><path d="M856,36L737,80L830,231Z" fill="#8ac0cd" stroke="#8ac0cd" stroke-width="1.51"/><path d="M695,-74L737,80L856,36Z" fill="#a3b6ba" stroke="#a3b6ba" stroke-width="1.51"/><path d="M1351,120L1355,-22L1136,61Z" fill="#c3a3a1" stroke="#c3a3a1" stroke-width="1.51"/><path d="M1542,68L1355,-22L1351,120Z" fill="#d5a29b" stroke="#d5a29b" stroke-width="1.51"/><path d="M1475,590L1604,503L1460,340Z" fill="#b57073" stroke="#b57073" stroke-width="1.51"/><path d="M1670,668L1604,503L1475,590Z" fill="#bc6566" stroke="#bc6566" stroke-width="1.51"/><path d="M1211,844L1380,839L1374,721Z" fill="#c46263" stroke="#c46263" stroke-width="1.51"/><path d="M1374,721L1551,715L1475,590Z" fill="#c06364" stroke="#c06364" stroke-width="1.51"/><path d="M1013,-46L871,-38L856,36Z" fill="#a0a0a4" stroke="#a0a0a4" stroke-width="1.51"/><path d="M1355,-22L1171,-93L1136,61Z" fill="#c29893" stroke="#c29893" stroke-width="1.51"/><path d="M1013,-46L984,-184L871,-38Z" fill="#a7908f" stroke="#a7908f" stroke-width="1.51"/><path d="M1524,211L1542,68L1351,120Z" fill="#d4a9a5" stroke="#d4a9a5" stroke-width="1.51"/><path d="M1694,397L1597,208L1460,340Z" fill="#cd8b88" stroke="#cd8b88" stroke-width="1.51"/><path d="M1380,839L1551,715L1374,721Z" fill="#c96161" stroke="#c96161" stroke-width="1.51"/><path d="M1617,95L1542,68L1524,211Z" fill="#e1aaa2" stroke="#e1aaa2" stroke-width="1.51"/><path d="M910,825L1055,988L1087,808Z" fill="#ad676b" stroke="#ad676b" stroke-width="1.51"/><path d="M1211,844L1313,983L1380,839Z" fill="#cf5f5e" stroke="#cf5f5e" stroke-width="1.51"/><path d="M855,1003L1055,988L910,825Z" fill="#b3686b" stroke="#b3686b" stroke-width="1.51"/><path d="M578,48L712,195L737,80Z" fill="#92ced9" stroke="#92ced9" stroke-width="1.51"/><path d="M578,48L557,232L712,195Z" fill="#8fd0dc" stroke="#8fd0dc" stroke-width="1.51"/><path d="M1604,503L1694,397L1460,340Z" fill="#c27b7a" stroke="#c27b7a" stroke-width="1.51"/><path d="M1597,208L1617,95L1524,211Z" fill="#dda29b" stroke="#dda29b" stroke-width="1.51"/><path d="M1825,505L1694,397L1604,503Z" fill="#b07c7f" stroke="#b07c7f" stroke-width="1.51"/><path d="M415,496L526,556L612,396Z" fill="#7ea6b5" stroke="#7ea6b5" stroke-width="1.51"/><path d="M612,396L526,556L730,541Z" fill="#7898a8" stroke="#7898a8" stroke-width="1.51"/><path d="M752,697L705,900L910,825Z" fill="#a77c81" stroke="#a77c81" stroke-width="1.51"/><path d="M1783,258L1617,95L1597,208Z" fill="#d1a6a2" stroke="#d1a6a2" stroke-width="1.51"/><path d="M1542,68L1481,-85L1355,-22Z" fill="#e0968a" stroke="#e0968a" stroke-width="1.51"/><path d="M1380,839L1538,893L1551,715Z" fill="#d85c5b" stroke="#d85c5b" stroke-width="1.51"/><path d="M1161,1031L1313,983L1211,844Z" fill="#d15e5d" stroke="#d15e5d" stroke-width="1.51"/><path d="M871,-38L695,-74L856,36Z" fill="#a7abac" stroke="#a7abac" stroke-width="1.51"/><path d="M1171,-93L984,-184L1013,-46Z" fill="#b68c86" stroke="#b68c86" stroke-width="1.51"/><path d="M1202,-215L984,-184L1171,-93Z" fill="#c38276" stroke="#c38276" stroke-width="1.51"/><path d="M526,556L543,648L730,541Z" fill="#8294a2" stroke="#8294a2" stroke-width="1.51"/><path d="M543,648L620,794L752,697Z" fill="#9e8e95" stroke="#9e8e95" stroke-width="1.51"/><path d="M1551,715L1670,668L1475,590Z" fill="#c76161" stroke="#c76161" stroke-width="1.51"/><path d="M1668,886L1670,668L1551,715Z" fill="#d36260" stroke="#d36260" stroke-width="1.51"/><path d="M1055,988L1161,1031L1211,844Z" fill="#c96161" stroke="#c96161" stroke-width="1.51"/><path d="M1655,-77L1481,-85L1542,68Z" fill="#ee9181" stroke="#ee9181" stroke-width="1.51"/><path d="M1355,-22L1202,-215L1171,-93Z" fill="#ce897d" stroke="#ce897d" stroke-width="1.51"/><path d="M620,794L705,900L752,697Z" fill="#ab878b" stroke="#ab878b" stroke-width="1.51"/><path d="M1055,988L1079,1179L1161,1031Z" fill="#b77071" stroke="#b77071" stroke-width="1.51"/><path d="M1392,-283L1202,-215L1355,-22Z" fill="#da7c6c" stroke="#da7c6c" stroke-width="1.51"/><path d="M874,-217L695,-74L871,-38Z" fill="#b39d98" stroke="#b39d98" stroke-width="1.51"/><path d="M763,992L855,1003L910,825Z" fill="#ba7374" stroke="#ba7374" stroke-width="1.51"/><path d="M557,232L469,334L612,396Z" fill="#88bdca" stroke="#88bdca" stroke-width="1.51"/><path d="M526,556L408,728L543,648Z" fill="#969fa9" stroke="#969fa9" stroke-width="1.51"/><path d="M418,193L469,334L557,232Z" fill="#8fcfdb" stroke="#8fcfdb" stroke-width="1.51"/><path d="M695,-74L578,48L737,80Z" fill="#a7c1c5" stroke="#a7c1c5" stroke-width="1.51"/><path d="M1528,1012L1538,893L1380,839Z" fill="#e75655" stroke="#e75655" stroke-width="1.51"/><path d="M984,-184L874,-217L871,-38Z" fill="#b18c86" stroke="#b18c86" stroke-width="1.51"/><path d="M1202,-215L874,-217L984,-184Z" fill="#ba7c72" stroke="#ba7c72" stroke-width="1.51"/><path d="M727,1116L763,992L560,1054Z" fill="#bc8f90" stroke="#bc8f90" stroke-width="1.51"/><path d="M705,900L763,992L910,825Z" fill="#b8797b" stroke="#b8797b" stroke-width="1.51"/><path d="M1694,397L1783,258L1597,208Z" fill="#c49897" stroke="#c49897" stroke-width="1.51"/><path d="M1655,-77L1471,-201L1481,-85Z" fill="#f1806e" stroke="#f1806e" stroke-width="1.51"/><path d="M1851,422L1783,258L1694,397Z" fill="#b39396" stroke="#b39396" stroke-width="1.51"/><path d="M469,334L415,496L612,396Z" fill="#84b4c2" stroke="#84b4c2" stroke-width="1.51"/><path d="M543,648L408,728L620,794Z" fill="#a79ba0" stroke="#a79ba0" stroke-width="1.51"/><path d="M1670,668L1825,505L1604,503Z" fill="#ad7073" stroke="#ad7073" stroke-width="1.51"/><path d="M1668,886L1755,690L1670,668Z" fill="#cc6968" stroke="#cc6968" stroke-width="1.51"/><path d="M1481,-85L1471,-201L1355,-22Z" fill="#e48677" stroke="#e48677" stroke-width="1.51"/><path d="M1655,-77L1542,68L1617,95Z" fill="#e89e91" stroke="#e89e91" stroke-width="1.51"/><path d="M469,334L238,437L415,496Z" fill="#89c0cd" stroke="#89c0cd" stroke-width="1.51"/><path d="M578,48L418,193L557,232Z" fill="#93dbe6" stroke="#93dbe6" stroke-width="1.51"/><path d="M389,46L418,193L578,48Z" fill="#9fe5ed" stroke="#9fe5ed" stroke-width="1.51"/><path d="M1755,690L1825,505L1670,668Z" fill="#b37375" stroke="#b37375" stroke-width="1.51"/><path d="M1313,983L1528,1012L1380,839Z" fill="#e35856" stroke="#e35856" stroke-width="1.51"/><path d="M1538,893L1668,886L1551,715Z" fill="#e25957" stroke="#e25957" stroke-width="1.51"/><path d="M1322,1153L1528,1012L1313,983Z" fill="#da6663" stroke="#da6663" stroke-width="1.51"/><path d="M1612,1021L1668,886L1538,893Z" fill="#f05553" stroke="#f05553" stroke-width="1.51"/><path d="M1759,-78L1655,-77L1617,95Z" fill="#e59c8e" stroke="#e59c8e" stroke-width="1.51"/><path d="M1825,505L1851,422L1694,397Z" fill="#a9878c" stroke="#a9878c" stroke-width="1.51"/><path d="M1783,258L1817,71L1617,95Z" fill="#ccb4b1" stroke="#ccb4b1" stroke-width="1.51"/><path d="M727,1116L924,1138L855,1003Z" fill="#ac8286" stroke="#ac8286" stroke-width="1.51"/><path d="M855,1003L924,1138L1055,988Z" fill="#ab7175" stroke="#ab7175" stroke-width="1.51"/><path d="M1161,1031L1322,1153L1313,983Z" fill="#cb6b69" stroke="#cb6b69" stroke-width="1.51"/><path d="M1471,-201L1392,-283L1355,-22Z" fill="#e47a69" stroke="#e47a69" stroke-width="1.51"/><path d="M1202,-215L1392,-283L874,-217Z" fill="#cc7364" stroke="#cc7364" stroke-width="1.51"/><path d="M1669,-230L1392,-283L1471,-201Z" fill="#f36a55" stroke="#f36a55" stroke-width="1.51"/><path d="M695,-74L580,-129L578,48Z" fill="#b7bcb9" stroke="#b7bcb9" stroke-width="1.51"/><path d="M714,-242L580,-129L695,-74Z" fill="#c2a89e" stroke="#c2a89e" stroke-width="1.51"/><path d="M874,-217L714,-242L695,-74Z" fill="#be978d" stroke="#be978d" stroke-width="1.51"/><path d="M1392,-283L714,-242L874,-217Z" fill="#ba7569" stroke="#ba7569" stroke-width="1.51"/><path d="M620,794L560,1054L705,900Z" fill="#c68b8a" stroke="#c68b8a" stroke-width="1.51"/><path d="M763,992L727,1116L855,1003Z" fill="#b88384" stroke="#b88384" stroke-width="1.51"/><path d="M415,496L408,728L526,556Z" fill="#8ca4b0" stroke="#8ca4b0" stroke-width="1.51"/><path d="M283,562L408,728L415,496Z" fill="#91adb8" stroke="#91adb8" stroke-width="1.51"/><path d="M924,1138L1079,1179L1055,988Z" fill="#a8767a" stroke="#a8767a" stroke-width="1.51"/><path d="M1199,1185L1322,1153L1161,1031Z" fill="#be7574" stroke="#be7574" stroke-width="1.51"/><path d="M1079,1179L1199,1185L1161,1031Z" fill="#b37779" stroke="#b37779" stroke-width="1.51"/><path d="M1966,285L1817,71L1783,258Z" fill="#b6b3b5" stroke="#b6b3b5" stroke-width="1.51"/><path d="M1668,886L1809,860L1755,690Z" fill="#d36c68" stroke="#d36c68" stroke-width="1.51"/><path d="M1528,1012L1612,1021L1538,893Z" fill="#f45250" stroke="#f45250" stroke-width="1.51"/><path d="M1646,1126L1612,1021L1528,1012Z" fill="#ec625d" stroke="#ec625d" stroke-width="1.51"/><path d="M408,728L434,842L620,794Z" fill="#b79da0" stroke="#b79da0" stroke-width="1.51"/><path d="M924,1138L1066,1259L1079,1179Z" fill="#998087" stroke="#998087" stroke-width="1.51"/><path d="M560,1054L763,992L705,900Z" fill="#c88885" stroke="#c88885" stroke-width="1.51"/><path d="M399,-125L389,46L578,48Z" fill="#b9d5d3" stroke="#b9d5d3" stroke-width="1.51"/><path d="M418,193L299,255L469,334Z" fill="#92d8e3" stroke="#92d8e3" stroke-width="1.51"/><path d="M1817,71L1759,-78L1617,95Z" fill="#daa99f" stroke="#daa99f" stroke-width="1.51"/><path d="M1655,-77L1669,-230L1471,-201Z" fill="#f57864" stroke="#f57864" stroke-width="1.51"/><path d="M242,59L299,255L418,193Z" fill="#a0eaf2" stroke="#a0eaf2" stroke-width="1.51"/><path d="M408,728L284,705L434,842Z" fill="#b8abad" stroke="#b8abad" stroke-width="1.51"/><path d="M1755,970L1809,860L1668,886Z" fill="#e26762" stroke="#e26762" stroke-width="1.51"/><path d="M1755,690L1924,672L1825,505Z" fill="#a97a7d" stroke="#a97a7d" stroke-width="1.51"/><path d="M2003,509L1943,344L1851,422Z" fill="#97959d" stroke="#97959d" stroke-width="1.51"/><path d="M238,437L283,562L415,496Z" fill="#8bb3bf" stroke="#8bb3bf" stroke-width="1.51"/><path d="M1851,422L1943,344L1783,258Z" fill="#a99da1" stroke="#a99da1" stroke-width="1.51"/><path d="M1817,71L1994,-77L1759,-78Z" fill="#d1a9a0" stroke="#d1a9a0" stroke-width="1.51"/><path d="M2003,509L1851,422L1825,505Z" fill="#988991" stroke="#988991" stroke-width="1.51"/><path d="M435,962L560,1054L620,794Z" fill="#d09591" stroke="#d09591" stroke-width="1.51"/><path d="M1079,1179L1066,1259L1199,1185Z" fill="#a38186" stroke="#a38186" stroke-width="1.51"/><path d="M1365,1339L1449,1193L1322,1153Z" fill="#c17f7e" stroke="#c17f7e" stroke-width="1.51"/><path d="M897,1268L1066,1259L924,1138Z" fill="#8b848e" stroke="#8b848e" stroke-width="1.51"/><path d="M897,1268L924,1138L727,1116Z" fill="#9b8b92" stroke="#9b8b92" stroke-width="1.51"/><path d="M714,-242L603,-270L580,-129Z" fill="#cba092" stroke="#cba092" stroke-width="1.51"/><path d="M580,-129L399,-125L578,48Z" fill="#c0c5bf" stroke="#c0c5bf" stroke-width="1.51"/><path d="M1392,-283L603,-270L714,-242Z" fill="#bc796c" stroke="#bc796c" stroke-width="1.51"/><path d="M1322,1153L1449,1193L1528,1012Z" fill="#d76f6b" stroke="#d76f6b" stroke-width="1.51"/><path d="M1612,1021L1755,970L1668,886Z" fill="#ef5d58" stroke="#ef5d58" stroke-width="1.51"/><path d="M1200,1313L1322,1153L1199,1185Z" fill="#b28082" stroke="#b28082" stroke-width="1.51"/><path d="M1646,1126L1755,970L1612,1021Z" fill="#e86962" stroke="#e86962" stroke-width="1.51"/><path d="M1759,-78L1669,-230L1655,-77Z" fill="#eb8a77" stroke="#eb8a77" stroke-width="1.51"/><path d="M1962,859L1924,672L1809,860Z" fill="#c27b79" stroke="#c27b79" stroke-width="1.51"/><path d="M1809,860L1924,672L1755,690Z" fill="#bf7675" stroke="#bf7675" stroke-width="1.51"/><path d="M232,897L435,962L434,842Z" fill="#d6a9a5" stroke="#d6a9a5" stroke-width="1.51"/><path d="M434,842L435,962L620,794Z" fill="#c69b9a" stroke="#c69b9a" stroke-width="1.51"/><path d="M299,255L238,437L469,334Z" fill="#91cfda" stroke="#91cfda" stroke-width="1.51"/><path d="M1943,344L1966,285L1783,258Z" fill="#a7a7ac" stroke="#a7a7ac" stroke-width="1.51"/><path d="M2076,332L1966,285L1943,344Z" fill="#95aab3" stroke="#95aab3" stroke-width="1.51"/><path d="M161,556L284,705L283,562Z" fill="#a2a4a9" stroke="#a2a4a9" stroke-width="1.51"/><path d="M283,562L284,705L408,728Z" fill="#a7adb3" stroke="#a7adb3" stroke-width="1.51"/><path d="M690,1323L897,1268L727,1116Z" fill="#929aa3" stroke="#929aa3" stroke-width="1.51"/><path d="M389,46L242,59L418,193Z" fill="#a3f3fa" stroke="#a3f3fa" stroke-width="1.51"/><path d="M299,255L145,338L238,437Z" fill="#a3c3c8" stroke="#a3c3c8" stroke-width="1.51"/><path d="M470,-209L399,-125L580,-129Z" fill="#cebaaf" stroke="#cebaaf" stroke-width="1.51"/><path d="M603,-270L470,-209L580,-129Z" fill="#cfab9c" stroke="#cfab9c" stroke-width="1.51"/><path d="M1449,1193L1646,1126L1528,1012Z" fill="#e36b65" stroke="#e36b65" stroke-width="1.51"/><path d="M1924,672L2003,509L1825,505Z" fill="#948189" stroke="#948189" stroke-width="1.51"/><path d="M1066,1259L1200,1313L1199,1185Z" fill="#a0858b" stroke="#a0858b" stroke-width="1.51"/><path d="M1449,1193L1633,1263L1646,1126Z" fill="#dd7670" stroke="#dd7670" stroke-width="1.51"/><path d="M897,1268L1200,1313L1066,1259Z" fill="#8c8993" stroke="#8c8993" stroke-width="1.51"/><path d="M215,-28L389,46L399,-125Z" fill="#c5ddd7" stroke="#c5ddd7" stroke-width="1.51"/><path d="M215,-28L242,59L389,46Z" fill="#c0e1dd" stroke="#c0e1dd" stroke-width="1.51"/><path d="M385,1167L597,1203L560,1054Z" fill="#b6acae" stroke="#b6acae" stroke-width="1.51"/><path d="M560,1054L597,1203L727,1116Z" fill="#b29da0" stroke="#b29da0" stroke-width="1.51"/><path d="M1966,285L1999,103L1817,71Z" fill="#aec0c4" stroke="#aec0c4" stroke-width="1.51"/><path d="M1759,-78L1853,-256L1669,-230Z" fill="#e88571" stroke="#e88571" stroke-width="1.51"/><path d="M2102,209L1999,103L1966,285Z" fill="#99bfc8" stroke="#99bfc8" stroke-width="1.51"/><path d="M238,437L161,556L283,562Z" fill="#95a7ae" stroke="#95a7ae" stroke-width="1.51"/><path d="M284,705L232,897L434,842Z" fill="#c8aaa7" stroke="#c8aaa7" stroke-width="1.51"/><path d="M435,962L385,1167L560,1054Z" fill="#caa9a7" stroke="#caa9a7" stroke-width="1.51"/><path d="M145,338L161,556L238,437Z" fill="#a1aeb1" stroke="#a1aeb1" stroke-width="1.51"/><path d="M1200,1313L1365,1339L1322,1153Z" fill="#b18687" stroke="#b18687" stroke-width="1.51"/><path d="M690,1323L1365,1339L1200,1313Z" fill="#878e99" stroke="#878e99" stroke-width="1.51"/><path d="M123,228L145,338L299,255Z" fill="#aecbcd" stroke="#aecbcd" stroke-width="1.51"/><path d="M1963,1032L1809,860L1755,970Z" fill="#e1706a" stroke="#e1706a" stroke-width="1.51"/><path d="M1963,1032L1962,859L1809,860Z" fill="#d57873" stroke="#d57873" stroke-width="1.51"/><path d="M1924,672L2098,560L2003,509Z" fill="#8b8892" stroke="#8b8892" stroke-width="1.51"/><path d="M1365,1339L1484,1308L1449,1193Z" fill="#c08583" stroke="#c08583" stroke-width="1.51"/><path d="M1646,1126L1825,1137L1755,970Z" fill="#dd7770" stroke="#dd7770" stroke-width="1.51"/><path d="M2098,560L2076,332L2003,509Z" fill="#7e97a4" stroke="#7e97a4" stroke-width="1.51"/><path d="M2003,509L2076,332L1943,344Z" fill="#8d9fa9" stroke="#8d9fa9" stroke-width="1.51"/><path d="M242,59L123,228L299,255Z" fill="#b0dee0" stroke="#b0dee0" stroke-width="1.51"/><path d="M250,-196L215,-28L399,-125Z" fill="#d7cabc" stroke="#d7cabc" stroke-width="1.51"/><path d="M74,671L232,897L284,705Z" fill="#c79d98" stroke="#c79d98" stroke-width="1.51"/><path d="M1484,1308L1633,1263L1449,1193Z" fill="#cf807b" stroke="#cf807b" stroke-width="1.51"/><path d="M897,1268L690,1323L1200,1313Z" fill="#79909e" stroke="#79909e" stroke-width="1.51"/><path d="M597,1203L690,1323L727,1116Z" fill="#9da3aa" stroke="#9da3aa" stroke-width="1.51"/><path d="M583,1322L690,1323L597,1203Z" fill="#8dafb9" stroke="#8dafb9" stroke-width="1.51"/><path d="M-6,575L74,671L161,556Z" fill="#b1928f" stroke="#b1928f" stroke-width="1.51"/><path d="M83,93L123,228L242,59Z" fill="#bfdfdc" stroke="#bfdfdc" stroke-width="1.51"/><path d="M2102,687L2098,560L1924,672Z" fill="#938991" stroke="#938991" stroke-width="1.51"/><path d="M1946,-217L1853,-256L1759,-78Z" fill="#df8f7b" stroke="#df8f7b" stroke-width="1.51"/><path d="M1669,-230L1853,-256L1392,-283Z" fill="#f56b55" stroke="#f56b55" stroke-width="1.51"/><path d="M232,897L301,1018L435,962Z" fill="#e5a89f" stroke="#e5a89f" stroke-width="1.51"/><path d="M2080,75L1994,-77L1999,103Z" fill="#b0c0c1" stroke="#b0c0c1" stroke-width="1.51"/><path d="M1999,103L1994,-77L1817,71Z" fill="#beb9b7" stroke="#beb9b7" stroke-width="1.51"/><path d="M2076,332L2102,209L1966,285Z" fill="#8eb5bf" stroke="#8eb5bf" stroke-width="1.51"/><path d="M2257,272L2102,209L2076,332Z" fill="#78bdca" stroke="#78bdca" stroke-width="1.51"/><path d="M1633,1263L1825,1137L1646,1126Z" fill="#d4807b" stroke="#d4807b" stroke-width="1.51"/><path d="M2102,209L2080,75L1999,103Z" fill="#96ced7" stroke="#96ced7" stroke-width="1.51"/><path d="M2098,560L2222,373L2076,332Z" fill="#72a3b3" stroke="#72a3b3" stroke-width="1.51"/><path d="M2106,798L2102,687L1924,672Z" fill="#a3888d" stroke="#a3888d" stroke-width="1.51"/><path d="M2106,798L1924,672L1962,859Z" fill="#b48385" stroke="#b48385" stroke-width="1.51"/><path d="M301,1118L385,1167L301,1018Z" fill="#cbb9b6" stroke="#cbb9b6" stroke-width="1.51"/><path d="M301,1018L385,1167L435,962Z" fill="#d2b1ad" stroke="#d2b1ad" stroke-width="1.51"/><path d="M690,1323L583,1322L1365,1339Z" fill="#7498a7" stroke="#7498a7" stroke-width="1.51"/><path d="M416,1257L583,1322L597,1203Z" fill="#98b7bf" stroke="#98b7bf" stroke-width="1.51"/><path d="M1994,-77L1946,-217L1759,-78Z" fill="#d69c8e" stroke="#d69c8e" stroke-width="1.51"/><path d="M2166,-229L1946,-217L1994,-77Z" fill="#cb9f91" stroke="#cb9f91" stroke-width="1.51"/><path d="M215,-28L83,93L242,59Z" fill="#cad8d0" stroke="#cad8d0" stroke-width="1.51"/><path d="M470,-209L250,-196L399,-125Z" fill="#d9c4b4" stroke="#d9c4b4" stroke-width="1.51"/><path d="M603,-270L250,-196L470,-209Z" fill="#dab4a2" stroke="#dab4a2" stroke-width="1.51"/><path d="M1825,1137L1963,1032L1755,970Z" fill="#d87c76" stroke="#d87c76" stroke-width="1.51"/><path d="M161,556L74,671L284,705Z" fill="#b19c9c" stroke="#b19c9c" stroke-width="1.51"/><path d="M151,1052L301,1118L301,1018Z" fill="#d9aba3" stroke="#d9aba3" stroke-width="1.51"/><path d="M-6,575L161,556L145,338Z" fill="#a79e9e" stroke="#a79e9e" stroke-width="1.51"/><path d="M385,1167L416,1257L597,1203Z" fill="#aab9be" stroke="#aab9be" stroke-width="1.51"/><path d="M151,1052L301,1018L232,897Z" fill="#e7a094" stroke="#e7a094" stroke-width="1.51"/><path d="M2251,505L2222,373L2098,560Z" fill="#609eb0" stroke="#609eb0" stroke-width="1.51"/><path d="M2105,981L2106,798L1962,859Z" fill="#c08684" stroke="#c08684" stroke-width="1.51"/><path d="M-93,417L-6,575L145,338Z" fill="#b39c97" stroke="#b39c97" stroke-width="1.51"/><path d="M159,-122L83,93L215,-28Z" fill="#d7cbbd" stroke="#d7cbbd" stroke-width="1.51"/><path d="M250,-196L159,-122L215,-28Z" fill="#dfc1af" stroke="#dfc1af" stroke-width="1.51"/><path d="M248,1296L416,1257L385,1167Z" fill="#a7cacf" stroke="#a7cacf" stroke-width="1.51"/><path d="M2080,75L2118,-64L1994,-77Z" fill="#b3bab8" stroke="#b3bab8" stroke-width="1.51"/><path d="M2271,33L2118,-64L2080,75Z" fill="#9bc7cb" stroke="#9bc7cb" stroke-width="1.51"/><path d="M2251,505L2098,560L2283,694Z" fill="#6c94a5" stroke="#6c94a5" stroke-width="1.51"/><path d="M2271,33L2080,75L2102,209Z" fill="#83d4e0" stroke="#83d4e0" stroke-width="1.51"/><path d="M74,671L62,889L232,897Z" fill="#d79489" stroke="#d79489" stroke-width="1.51"/><path d="M-66,248L145,338L123,228Z" fill="#bdbeb9" stroke="#bdbeb9" stroke-width="1.51"/><path d="M301,1118L248,1296L385,1167Z" fill="#b8c1c2" stroke="#b8c1c2" stroke-width="1.51"/><path d="M-37,717L62,889L74,671Z" fill="#d18a7f" stroke="#d18a7f" stroke-width="1.51"/><path d="M2283,694L2098,560L2102,687Z" fill="#82929e" stroke="#82929e" stroke-width="1.51"/><path d="M1963,1032L2105,981L1962,859Z" fill="#d3807b" stroke="#d3807b" stroke-width="1.51"/><path d="M2106,798L2283,694L2102,687Z" fill="#949299" stroke="#949299" stroke-width="1.51"/><path d="M2107,1194L2105,981L1963,1032Z" fill="#be918f" stroke="#be918f" stroke-width="1.51"/><path d="M1959,1203L1963,1032L1825,1137Z" fill="#c58c89" stroke="#c58c89" stroke-width="1.51"/><path d="M62,889L151,1052L232,897Z" fill="#ec9385" stroke="#ec9385" stroke-width="1.51"/><path d="M2222,373L2257,272L2076,332Z" fill="#6ab7c7" stroke="#6ab7c7" stroke-width="1.51"/><path d="M2251,505L2257,272L2222,373Z" fill="#65adbf" stroke="#65adbf" stroke-width="1.51"/><path d="M1365,1339L1820,1330L1484,1308Z" fill="#c88885" stroke="#c88885" stroke-width="1.51"/><path d="M1484,1308L1820,1330L1633,1263Z" fill="#c78b88" stroke="#c78b88" stroke-width="1.51"/><path d="M1633,1263L1820,1330L1825,1137Z" fill="#c48e8b" stroke="#c48e8b" stroke-width="1.51"/><path d="M1820,1330L1959,1203L1825,1137Z" fill="#ba9493" stroke="#ba9493" stroke-width="1.51"/><path d="M-6,575L-37,717L74,671Z" fill="#bf8a82" stroke="#bf8a82" stroke-width="1.51"/><path d="M82,1160L301,1118L151,1052Z" fill="#d6a99f" stroke="#d6a99f" stroke-width="1.51"/><path d="M-174,530L-37,717L-6,575Z" fill="#bc8178" stroke="#bc8178" stroke-width="1.51"/><path d="M83,93L-66,248L123,228Z" fill="#c7c9c1" stroke="#c7c9c1" stroke-width="1.51"/><path d="M-93,127L-66,248L83,93Z" fill="#d1c7bb" stroke="#d1c7bb" stroke-width="1.51"/><path d="M159,-122L-70,-46L83,93Z" fill="#e0bfac" stroke="#e0bfac" stroke-width="1.51"/><path d="M250,-196L91,-218L159,-122Z" fill="#e8b29a" stroke="#e8b29a" stroke-width="1.51"/><path d="M603,-270L91,-218L250,-196Z" fill="#e3baa6" stroke="#e3baa6" stroke-width="1.51"/><path d="M-66,248L-93,417L145,338Z" fill="#bfaba4" stroke="#bfaba4" stroke-width="1.51"/><path d="M2251,505L2283,694L2257,272Z" fill="#609caf" stroke="#609caf" stroke-width="1.51"/><path d="M2248,875L2283,694L2106,798Z" fill="#9f9298" stroke="#9f9298" stroke-width="1.51"/><path d="M2257,272L2271,33L2102,209Z" fill="#70d0df" stroke="#70d0df" stroke-width="1.51"/><path d="M2118,-64L2166,-229L1994,-77Z" fill="#beaca3" stroke="#beaca3" stroke-width="1.51"/><path d="M2283,694L2271,33L2257,272Z" fill="#68b5c6" stroke="#68b5c6" stroke-width="1.51"/><path d="M6,1036L151,1052L62,889Z" fill="#ee8d7c" stroke="#ee8d7c" stroke-width="1.51"/><path d="M154,1292L248,1296L301,1118Z" fill="#b7bebc" stroke="#b7bebc" stroke-width="1.51"/><path d="M416,1257L248,1296L583,1322Z" fill="#95c8d1" stroke="#95c8d1" stroke-width="1.51"/><path d="M2105,981L2248,875L2106,798Z" fill="#b78e8e" stroke="#b78e8e" stroke-width="1.51"/><path d="M2239,1046L2248,875L2105,981Z" fill="#c0908e" stroke="#c0908e" stroke-width="1.51"/><path d="M2271,33L2220,-113L2118,-64Z" fill="#a2bfbf" stroke="#a2bfbf" stroke-width="1.51"/><path d="M1946,-217L2166,-229L1853,-256Z" fill="#d5917e" stroke="#d5917e" stroke-width="1.51"/><path d="M-214,344L-174,530L-93,417Z" fill="#c08b7e" stroke="#c08b7e" stroke-width="1.51"/><path d="M-70,-46L-93,127L83,93Z" fill="#ddc3b2" stroke="#ddc3b2" stroke-width="1.51"/><path d="M2220,-113L2166,-229L2118,-64Z" fill="#b5b0a8" stroke="#b5b0a8" stroke-width="1.51"/><path d="M-168,818L-55,883L-37,717Z" fill="#de7a69" stroke="#de7a69" stroke-width="1.51"/><path d="M-37,717L-55,883L62,889Z" fill="#df8373" stroke="#df8373" stroke-width="1.51"/><path d="M91,-218L-70,-46L159,-122Z" fill="#ebae94" stroke="#ebae94" stroke-width="1.51"/><path d="M-55,883L6,1036L62,889Z" fill="#f0816f" stroke="#f0816f" stroke-width="1.51"/><path d="M6,1036L82,1160L151,1052Z" fill="#e19a8b" stroke="#e19a8b" stroke-width="1.51"/><path d="M1959,1203L2107,1194L1963,1032Z" fill="#b79696" stroke="#b79696" stroke-width="1.51"/><path d="M1975,1359L2107,1194L1959,1203Z" fill="#a0a3a7" stroke="#a0a3a7" stroke-width="1.51"/><path d="M2220,-113L2228,-203L2166,-229Z" fill="#b9aaa0" stroke="#b9aaa0" stroke-width="1.51"/><path d="M2271,33L2228,-203L2220,-113Z" fill="#abb8b4" stroke="#abb8b4" stroke-width="1.51"/><path d="M1820,1330L1975,1359L1959,1203Z" fill="#a4a0a4" stroke="#a4a0a4" stroke-width="1.51"/><path d="M1365,1339L1975,1359L1820,1330Z" fill="#b79696" stroke="#b79696" stroke-width="1.51"/><path d="M-246,1328L1975,1359L1365,1339Z" fill="#79909e" stroke="#79909e" stroke-width="1.51"/><path d="M-93,417L-174,530L-6,575Z" fill="#b5867e" stroke="#b5867e" stroke-width="1.51"/><path d="M-214,344L-93,417L-66,248Z" fill="#c89e91" stroke="#c89e91" stroke-width="1.51"/><path d="M-214,344L-66,248L-226,211Z" fill="#d2a493" stroke="#d2a493" stroke-width="1.51"/><path d="M-33,1256L154,1292L82,1160Z" fill="#c8aba1" stroke="#c8aba1" stroke-width="1.51"/><path d="M82,1160L154,1292L301,1118Z" fill="#c7b2ac" stroke="#c7b2ac" stroke-width="1.51"/><path d="M248,1296L-246,1328L583,1322Z" fill="#a8c1c3" stroke="#a8c1c3" stroke-width="1.51"/><path d="M2306,1126L2239,1046L2107,1194Z" fill="#a2a2a6" stroke="#a2a2a6" stroke-width="1.51"/><path d="M2107,1194L2239,1046L2105,981Z" fill="#b2999a" stroke="#b2999a" stroke-width="1.51"/><path d="M2248,875L2306,1126L2283,694Z" fill="#b59191" stroke="#b59191" stroke-width="1.51"/><path d="M-226,211L-66,248L-93,127Z" fill="#d7b5a4" stroke="#d7b5a4" stroke-width="1.51"/><path d="M91,-218L-79,-178L-70,-46Z" fill="#f0a283" stroke="#f0a283" stroke-width="1.51"/><path d="M-70,-46L-179,71L-93,127Z" fill="#e5b8a2" stroke="#e5b8a2" stroke-width="1.51"/><path d="M-215,-71L-179,71L-70,-46Z" fill="#eda88c" stroke="#eda88c" stroke-width="1.51"/><path d="M-174,530L-192,731L-37,717Z" fill="#c8796b" stroke="#c8796b" stroke-width="1.51"/><path d="M-227,1044L-52,1134L6,1036Z" fill="#eb846f" stroke="#eb846f" stroke-width="1.51"/><path d="M6,1036L-52,1134L82,1160Z" fill="#e09585" stroke="#e09585" stroke-width="1.51"/><path d="M-214,344L-192,731L-174,530Z" fill="#b7756a" stroke="#b7756a" stroke-width="1.51"/><path d="M-192,731L-168,818L-37,717Z" fill="#d87665" stroke="#d87665" stroke-width="1.51"/><path d="M-214,344L-227,1044L-192,731Z" fill="#d26e5d" stroke="#d26e5d" stroke-width="1.51"/><path d="M-179,71L-226,211L-93,127Z" fill="#e0baa6" stroke="#e0baa6" stroke-width="1.51"/><path d="M-227,1044L6,1036L-55,883Z" fill="#f57762" stroke="#f57762" stroke-width="1.51"/><path d="M1975,1359L2162,1300L2107,1194Z" fill="#8cabb4" stroke="#8cabb4" stroke-width="1.51"/><path d="M2162,1300L2306,1126L2107,1194Z" fill="#8daab3" stroke="#8daab3" stroke-width="1.51"/><path d="M2239,1046L2306,1126L2248,875Z" fill="#b89696" stroke="#b89696" stroke-width="1.51"/><path d="M2283,694L2306,1126L2271,33Z" fill="#7594a3" stroke="#7594a3" stroke-width="1.51"/><path d="M-179,71L-215,-71L-226,211Z" fill="#e9b198" stroke="#e9b198" stroke-width="1.51"/><path d="M-79,-178L-215,-71L-70,-46Z" fill="#f29e7e" stroke="#f29e7e" stroke-width="1.51"/><path d="M-52,1134L-33,1256L82,1160Z" fill="#d69d8e" stroke="#d69d8e" stroke-width="1.51"/><path d="M-231,1137L-33,1256L-52,1134Z" fill="#dd907d" stroke="#dd907d" stroke-width="1.51"/><path d="M-79,-178L-203,-226L-215,-71Z" fill="#f78d69" stroke="#f78d69" stroke-width="1.51"/><path d="M91,-218L-203,-226L-79,-178Z" fill="#f6916e" stroke="#f6916e" stroke-width="1.51"/><path d="M603,-270L-203,-226L91,-218Z" fill="#eea78c" stroke="#eea78c" stroke-width="1.51"/><path d="M2162,1300L2255,1325L2306,1126Z" fill="#80afba" stroke="#80afba" stroke-width="1.51"/><path d="M1975,1359L2255,1325L2162,1300Z" fill="#73b3c0" stroke="#73b3c0" stroke-width="1.51"/><path d="M-226,211L-227,1044L-214,344Z" fill="#b97367" stroke="#b97367" stroke-width="1.51"/><path d="M-192,731L-227,1044L-168,818Z" fill="#ea6955" stroke="#ea6955" stroke-width="1.51"/><path d="M-168,818L-227,1044L-55,883Z" fill="#f26d59" stroke="#f26d59" stroke-width="1.51"/><path d="M-227,1044L-231,1137L-52,1134Z" fill="#e97e68" stroke="#e97e68" stroke-width="1.51"/><path d="M-246,1328L-231,1137L-227,1044Z" fill="#e37f68" stroke="#e37f68" stroke-width="1.51"/><path d="M-231,1137L-246,1328L-33,1256Z" fill="#d7907d" stroke="#d7907d" stroke-width="1.51"/><path d="M-33,1256L-246,1328L154,1292Z" fill="#c6a599" stroke="#c6a599" stroke-width="1.51"/><path d="M154,1292L-246,1328L248,1296Z" fill="#bbb1aa" stroke="#bbb1aa" stroke-width="1.51"/><path d="M583,1322L-246,1328L1365,1339Z" fill="#81bac7" stroke="#81bac7" stroke-width="1.51"/><path d="M-226,211L-246,1328L-227,1044Z" fill="#eb6450" stroke="#eb6450" stroke-width="1.51"/></svg>