<svg id="Layer_1" data-name="Layer 1" xmlns="http://www.w3.org/2000/svg" viewBox="0 0 770 770"><defs><style>.cls-1{fill:#3aaedf;}.cls-2{fill:#44c5f2;}.cls-3{fill:#eff2fa;}.cls-4{fill:#e4eaf6;}.cls-5{fill:#ff6464;}.cls-6{fill:#d2555a;}.cls-7{fill:#c7cfe2;}.cls-8{fill:#afb9d2;}.cls-9{fill:#d7deed;}.cls-10{fill:#fff;}.cls-11{fill:#707487;}.cls-12{fill:#5b5d6e;}</style></defs><title>calendar</title><circle class="cls-1" cx="385" cy="385" r="385"/><ellipse class="cls-2" cx="384.5" cy="385.2" rx="321.5" ry="312.08"/><path class="cls-3" d="M581.86,554.59H200.14A14.14,14.14,0,0,1,186,540.45V215.28a14.14,14.14,0,0,1,14.14-14.14H581.86A14.14,14.14,0,0,1,596,215.28V540.45A14.14,14.14,0,0,1,581.86,554.59Z"/><path class="cls-4" d="M488.85,554.59a113.1,113.1,0,1,0-195.7,0Z"/><path class="cls-5" d="M596,271.83H186V215.28a14.14,14.14,0,0,1,14.14-14.14H581.86A14.14,14.14,0,0,1,596,215.28Z"/><rect class="cls-4" x="186" y="271.83" width="410" height="14.14"/><circle class="cls-6" cx="246.09" cy="232.95" r="21.21"/><path class="cls-7" d="M246.09,243.55h0a10.6,10.6,0,0,1-10.6-10.6V197.6a10.6,10.6,0,0,1,10.6-10.6h0a10.6,10.6,0,0,1,10.6,10.6v35.34A10.6,10.6,0,0,1,246.09,243.55Z"/><path class="cls-8" d="M246.09,222.34a10.6,10.6,0,0,1-10.6-10.6v21.21a10.6,10.6,0,0,0,21.21,0V211.74A10.6,10.6,0,0,1,246.09,222.34Z"/><circle class="cls-6" cx="535.91" cy="232.95" r="21.21"/><path class="cls-7" d="M535.91,243.55h0a10.6,10.6,0,0,1-10.6-10.6V197.6a10.6,10.6,0,0,1,10.6-10.6h0a10.6,10.6,0,0,1,10.6,10.6v35.34A10.6,10.6,0,0,1,535.91,243.55Z"/><path class="cls-8" d="M535.91,222.34a10.6,10.6,0,0,1-10.6-10.6v21.21a10.6,10.6,0,1,0,21.21,0V211.74A10.6,10.6,0,0,1,535.91,222.34Z"/><path class="cls-4" d="M263.76,370.79H235.48a7.07,7.07,0,0,1-7.07-7.07V342.52a7.07,7.07,0,0,1,7.07-7.07h28.28a7.07,7.07,0,0,1,7.07,7.07v21.21A7.07,7.07,0,0,1,263.76,370.79Z"/><path class="cls-4" d="M320.31,370.79H292a7.07,7.07,0,0,1-7.07-7.07V342.52a7.07,7.07,0,0,1,7.07-7.07h28.28a7.07,7.07,0,0,1,7.07,7.07v21.21A7.07,7.07,0,0,1,320.31,370.79Z"/><path class="cls-4" d="M376.86,370.79H348.59a7.07,7.07,0,0,1-7.07-7.07V342.52a7.07,7.07,0,0,1,7.07-7.07h28.28a7.07,7.07,0,0,1,7.07,7.07v21.21A7.07,7.07,0,0,1,376.86,370.79Z"/><path class="cls-4" d="M433.41,370.79H405.14a7.07,7.07,0,0,1-7.07-7.07V342.52a7.07,7.07,0,0,1,7.07-7.07h28.28a7.07,7.07,0,0,1,7.07,7.07v21.21A7.07,7.07,0,0,1,433.41,370.79Z"/><path class="cls-9" d="M490,370.79H461.69a7.07,7.07,0,0,1-7.07-7.07V342.52a7.07,7.07,0,0,1,7.07-7.07H490a7.07,7.07,0,0,1,7.07,7.07v21.21A7.07,7.07,0,0,1,490,370.79Z"/><path class="cls-9" d="M546.52,370.79H518.24a7.07,7.07,0,0,1-7.07-7.07V342.52a7.07,7.07,0,0,1,7.07-7.07h28.28a7.07,7.07,0,0,1,7.07,7.07v21.21A7.07,7.07,0,0,1,546.52,370.79Z"/><path class="cls-7" d="M263.76,321.31H235.48a7.07,7.07,0,0,1-7.07-7.07h0a7.07,7.07,0,0,1,7.07-7.07h28.28a7.07,7.07,0,0,1,7.07,7.07h0A7.07,7.07,0,0,1,263.76,321.31Z"/><path class="cls-7" d="M320.31,321.31H292a7.07,7.07,0,0,1-7.07-7.07h0a7.07,7.07,0,0,1,7.07-7.07h28.28a7.07,7.07,0,0,1,7.07,7.07h0A7.07,7.07,0,0,1,320.31,321.31Z"/><path class="cls-7" d="M376.86,321.31H348.59a7.07,7.07,0,0,1-7.07-7.07h0a7.07,7.07,0,0,1,7.07-7.07h28.28a7.07,7.07,0,0,1,7.07,7.07h0A7.07,7.07,0,0,1,376.86,321.31Z"/><path class="cls-7" d="M433.41,321.31H405.14a7.07,7.07,0,0,1-7.07-7.07h0a7.07,7.07,0,0,1,7.07-7.07h28.28a7.07,7.07,0,0,1,7.07,7.07h0A7.07,7.07,0,0,1,433.41,321.31Z"/><path class="cls-5" d="M490,321.31H461.69a7.07,7.07,0,0,1-7.07-7.07h0a7.07,7.07,0,0,1,7.07-7.07H490a7.07,7.07,0,0,1,7.07,7.07h0A7.07,7.07,0,0,1,490,321.31Z"/><path class="cls-5" d="M546.52,321.31H518.24a7.07,7.07,0,0,1-7.07-7.07h0a7.07,7.07,0,0,1,7.07-7.07h28.28a7.07,7.07,0,0,1,7.07,7.07h0A7.07,7.07,0,0,1,546.52,321.31Z"/><path class="cls-4" d="M263.76,420.28H235.48a7.07,7.07,0,0,1-7.07-7.07V392a7.07,7.07,0,0,1,7.07-7.07h28.28a7.07,7.07,0,0,1,7.07,7.07v21.21A7.07,7.07,0,0,1,263.76,420.28Z"/><path class="cls-4" d="M320.31,420.28H292a7.07,7.07,0,0,1-7.07-7.07V392a7.07,7.07,0,0,1,7.07-7.07h28.28a7.07,7.07,0,0,1,7.07,7.07v21.21A7.07,7.07,0,0,1,320.31,420.28Z"/><path class="cls-4" d="M376.86,420.28H348.59a7.07,7.07,0,0,1-7.07-7.07V392a7.07,7.07,0,0,1,7.07-7.07h28.28a7.07,7.07,0,0,1,7.07,7.07v21.21A7.07,7.07,0,0,1,376.86,420.28Z"/><path class="cls-4" d="M433.41,420.28H405.14a7.07,7.07,0,0,1-7.07-7.07V392a7.07,7.07,0,0,1,7.07-7.07h28.28a7.07,7.07,0,0,1,7.07,7.07v21.21A7.07,7.07,0,0,1,433.41,420.28Z"/><path class="cls-9" d="M490,420.28H461.69a7.07,7.07,0,0,1-7.07-7.07V392a7.07,7.07,0,0,1,7.07-7.07H490A7.07,7.07,0,0,1,497,392v21.21A7.07,7.07,0,0,1,490,420.28Z"/><path class="cls-9" d="M546.52,420.28H518.24a7.07,7.07,0,0,1-7.07-7.07V392a7.07,7.07,0,0,1,7.07-7.07h28.28a7.07,7.07,0,0,1,7.07,7.07v21.21A7.07,7.07,0,0,1,546.52,420.28Z"/><path class="cls-4" d="M263.76,469.76H235.48a7.07,7.07,0,0,1-7.07-7.07V441.48a7.07,7.07,0,0,1,7.07-7.07h28.28a7.07,7.07,0,0,1,7.07,7.07v21.21A7.07,7.07,0,0,1,263.76,469.76Z"/><path class="cls-4" d="M320.31,469.76H292a7.07,7.07,0,0,1-7.07-7.07V441.48a7.07,7.07,0,0,1,7.07-7.07h28.28a7.07,7.07,0,0,1,7.07,7.07v21.21A7.07,7.07,0,0,1,320.31,469.76Z"/><path class="cls-4" d="M376.86,469.76H348.59a7.07,7.07,0,0,1-7.07-7.07V441.48a7.07,7.07,0,0,1,7.07-7.07h28.28a7.07,7.07,0,0,1,7.07,7.07v21.21A7.07,7.07,0,0,1,376.86,469.76Z"/><path class="cls-4" d="M433.41,469.76H405.14a7.07,7.07,0,0,1-7.07-7.07V441.48a7.07,7.07,0,0,1,7.07-7.07h28.28a7.07,7.07,0,0,1,7.07,7.07v21.21A7.07,7.07,0,0,1,433.41,469.76Z"/><path class="cls-9" d="M490,469.76H461.69a7.07,7.07,0,0,1-7.07-7.07V441.48a7.07,7.07,0,0,1,7.07-7.07H490a7.07,7.07,0,0,1,7.07,7.07v21.21A7.07,7.07,0,0,1,490,469.76Z"/><path class="cls-9" d="M546.52,469.76H518.24a7.07,7.07,0,0,1-7.07-7.07V441.48a7.07,7.07,0,0,1,7.07-7.07h28.28a7.07,7.07,0,0,1,7.07,7.07v21.21A7.07,7.07,0,0,1,546.52,469.76Z"/><path class="cls-4" d="M263.76,519.24H235.48a7.07,7.07,0,0,1-7.07-7.07V491a7.07,7.07,0,0,1,7.07-7.07h28.28a7.07,7.07,0,0,1,7.07,7.07v21.21A7.07,7.07,0,0,1,263.76,519.24Z"/><path class="cls-4" d="M320.31,519.24H292a7.07,7.07,0,0,1-7.07-7.07V491A7.07,7.07,0,0,1,292,483.9h28.28a7.07,7.07,0,0,1,7.07,7.07v21.21A7.07,7.07,0,0,1,320.31,519.24Z"/><path class="cls-4" d="M376.86,519.24H348.59a7.07,7.07,0,0,1-7.07-7.07V491a7.07,7.07,0,0,1,7.07-7.07h28.28a7.07,7.07,0,0,1,7.07,7.07v21.21A7.07,7.07,0,0,1,376.86,519.24Z"/><path class="cls-4" d="M433.41,519.24H405.14a7.07,7.07,0,0,1-7.07-7.07V491a7.07,7.07,0,0,1,7.07-7.07h28.28a7.07,7.07,0,0,1,7.07,7.07v21.21A7.07,7.07,0,0,1,433.41,519.24Z"/><path class="cls-9" d="M490,519.24H461.69a7.07,7.07,0,0,1-7.07-7.07V491a7.07,7.07,0,0,1,7.07-7.07H490A7.07,7.07,0,0,1,497,491v21.21A7.07,7.07,0,0,1,490,519.24Z"/><path class="cls-9" d="M546.52,519.24H518.24a7.07,7.07,0,0,1-7.07-7.07V491a7.07,7.07,0,0,1,7.07-7.07h28.28a7.07,7.07,0,0,1,7.07,7.07v21.21A7.07,7.07,0,0,1,546.52,519.24Z"/><circle class="cls-8" cx="391" cy="498.03" r="98.97"/><circle class="cls-10" cx="391" cy="498.03" r="84.83"/><circle class="cls-3" cx="391" cy="498.03" r="49.48"/><path class="cls-11" d="M391,406.14h0a7.07,7.07,0,0,0-7.07,7.07v7.07a7.07,7.07,0,0,0,7.07,7.07h0a7.07,7.07,0,0,0,7.07-7.07v-7.07A7.07,7.07,0,0,0,391,406.14Z"/><path class="cls-11" d="M391,568.72h0a7.07,7.07,0,0,0-7.07,7.07v7.07a7.07,7.07,0,0,0,7.07,7.07h0a7.07,7.07,0,0,0,7.07-7.07v-7.07A7.07,7.07,0,0,0,391,568.72Z"/><path class="cls-11" d="M482.9,498h0a7.07,7.07,0,0,0-7.07-7.07h-7.07a7.07,7.07,0,0,0-7.07,7.07h0a7.07,7.07,0,0,0,7.07,7.07h7.07A7.07,7.07,0,0,0,482.9,498Z"/><path class="cls-11" d="M320.31,498h0a7.07,7.07,0,0,0-7.07-7.07h-7.07A7.07,7.07,0,0,0,299.1,498h0a7.07,7.07,0,0,0,7.07,7.07h7.07A7.07,7.07,0,0,0,320.31,498Z"/><path class="cls-12" d="M391,526.31h0a7.07,7.07,0,0,1-7.07-7.07V448.55a7.07,7.07,0,0,1,7.07-7.07h0a7.07,7.07,0,0,1,7.07,7.07v70.69A7.07,7.07,0,0,1,391,526.31Z"/><path class="cls-12" d="M362.72,498h0a7.07,7.07,0,0,1,7.07-7.07h70.69a7.07,7.07,0,0,1,7.07,7.07h0a7.07,7.07,0,0,1-7.07,7.07H369.79A7.07,7.07,0,0,1,362.72,498Z"/><circle class="cls-7" cx="391" cy="498.03" r="14.14"/><path class="cls-1" d="M385,0C172.37,0,0,172.37,0,385S172.37,770,385,770,770,597.63,770,385,597.63,0,385,0Zm-.5,697.28C206.94,697.28,63,557.55,63,385.2S206.94,73.11,384.5,73.11,706,212.84,706,385.2,562.06,697.28,384.5,697.28Z"/></svg>