<svg id="Layer_1" data-name="Layer 1" xmlns="http://www.w3.org/2000/svg" viewBox="0 0 1147.58 1168"><defs><style>.cls-1{opacity:0.65;}.cls-2{fill:#eff2fa;}.cls-3{fill:#afb9d2;}.cls-4{fill:#8f96ac;}.cls-5{fill:#d7deed;}.cls-6{fill:#c7cfe2;}.cls-7{fill:#ff6464;}.cls-8{fill:#c3e678;}.cls-9{fill:#71a6d2;}.cls-10{fill:#3aaedf;}.cls-11{fill:#168cf1;}.cls-12{fill:#5869a7;}.cls-13{fill:#ff2b0c;}.cls-14{fill:#707487;}.cls-15{fill:#5b5d6e;}.cls-16{opacity:0.97;}.cls-17{fill:#ffd782;}.cls-18{fill:#e4eaf6;}.cls-19{fill:#d2555a;}.cls-20{fill:#fff;}.cls-21{fill:#ebd2af;}.cls-22{fill:#e1c3a0;}.cls-23{fill:#be4b50;}.cls-24{fill:#959cb3;}</style></defs><title>charts</title><g class="cls-1"><rect class="cls-2" x="317.41" y="523.59" width="32.72" height="376.33"/><rect class="cls-2" x="219.23" y="703.57" width="32.72" height="196.34"/><rect class="cls-2" x="415.58" y="392.69" width="32.72" height="507.22"/><rect class="cls-2" x="513.75" y="752.66" width="32.72" height="147.26"/><rect class="cls-2" x="611.92" y="687.21" width="32.72" height="212.71"/><rect class="cls-2" x="710.1" y="589.03" width="32.72" height="310.88"/><rect class="cls-2" x="808.27" y="65.45" width="32.72" height="834.47"/><rect class="cls-2" x="906.44" y="785.38" width="32.72" height="114.53"/><path class="cls-3" d="M922.8,801.75a16.32,16.32,0,0,1-5.18-.85L623.11,702.73a16.36,16.36,0,0,1-8.44-6.45L431.16,421,346.85,533.4a16.37,16.37,0,0,1-21.33,4.31L129.18,423.18a16.36,16.36,0,0,1,16.49-28.27L329.42,502.11l89.43-119.24a15.66,15.66,0,0,1,13.54-6.54,16.36,16.36,0,0,1,13.16,7.28L638.78,673.46,928,769.86a16.37,16.37,0,0,1-5.18,31.89Z"/><path class="cls-4" d="M137.41,916.28a16.36,16.36,0,0,1-14.62-23.68L221,696.25a16.4,16.4,0,0,1,17.33-8.82L525.9,735.37,711.51,596.16l97-533.63a16.36,16.36,0,1,1,32.2,5.85L742.56,608.32a16.33,16.33,0,0,1-6.28,10.16L539.93,765.74a16.23,16.23,0,0,1-12.51,3.05l-282.6-47.1L152.06,907.23A16.35,16.35,0,0,1,137.41,916.28Z"/><path class="cls-5" d="M137.42,818.1H104.7a16.36,16.36,0,0,1-16.36-16.36h0a16.36,16.36,0,0,1,16.36-16.36h32.72Z"/><path class="cls-5" d="M137.42,719.93H104.7a16.36,16.36,0,0,1-16.36-16.36h0a16.36,16.36,0,0,1,16.36-16.36h32.72Z"/><path class="cls-5" d="M137.42,621.76H104.7A16.36,16.36,0,0,1,88.34,605.4h0A16.36,16.36,0,0,1,104.7,589h32.72Z"/><path class="cls-5" d="M137.42,523.59H104.7a16.36,16.36,0,0,1-16.36-16.36h0a16.36,16.36,0,0,1,16.36-16.36h32.72Z"/><path class="cls-5" d="M137.42,425.41H104.7a16.36,16.36,0,0,1-16.36-16.36h0a16.36,16.36,0,0,1,16.36-16.36h32.72Z"/><path class="cls-5" d="M137.42,327.24H104.7a16.36,16.36,0,0,1-16.36-16.36h0a16.36,16.36,0,0,1,16.36-16.36h32.72Z"/><path class="cls-5" d="M137.42,229.07H104.7a16.36,16.36,0,0,1-16.36-16.36h0a16.36,16.36,0,0,1,16.36-16.36h32.72Z"/><path class="cls-5" d="M137.42,130.9H104.7a16.36,16.36,0,0,1-16.36-16.36h0A16.36,16.36,0,0,1,104.7,98.17h32.72Z"/><path class="cls-5" d="M939.16,899.91v32.72A16.36,16.36,0,0,1,922.8,949h0a16.36,16.36,0,0,1-16.36-16.36V899.91Z"/><path class="cls-5" d="M841,899.91v32.72A16.36,16.36,0,0,1,824.63,949h0a16.36,16.36,0,0,1-16.36-16.36V899.91Z"/><path class="cls-5" d="M742.82,899.91v32.72A16.36,16.36,0,0,1,726.46,949h0a16.36,16.36,0,0,1-16.36-16.36V899.91Z"/><path class="cls-5" d="M644.65,899.91v32.72A16.36,16.36,0,0,1,628.29,949h0a16.36,16.36,0,0,1-16.36-16.36V899.91Z"/><path class="cls-5" d="M546.47,899.91v32.72A16.36,16.36,0,0,1,530.11,949h0a16.36,16.36,0,0,1-16.36-16.36V899.91Z"/><path class="cls-5" d="M448.3,899.91v32.72A16.36,16.36,0,0,1,431.94,949h0a16.36,16.36,0,0,1-16.36-16.36V899.91Z"/><path class="cls-5" d="M350.13,899.91v32.72A16.36,16.36,0,0,1,333.77,949h0a16.36,16.36,0,0,1-16.36-16.36V899.91Z"/><path class="cls-5" d="M252,899.91v32.72A16.36,16.36,0,0,1,235.6,949h0a16.36,16.36,0,0,1-16.36-16.36V899.91Z"/><path class="cls-6" d="M137.42,949h0a16.36,16.36,0,0,1-16.36-16.36V16.36A16.36,16.36,0,0,1,137.42,0h0a16.36,16.36,0,0,1,16.36,16.36V932.64A16.36,16.36,0,0,1,137.42,949Z"/><path class="cls-6" d="M88.34,899.91h0a16.36,16.36,0,0,1,16.36-16.36H1021a16.36,16.36,0,0,1,16.36,16.36h0A16.36,16.36,0,0,1,1021,916.28H104.7A16.36,16.36,0,0,1,88.34,899.91Z"/><circle class="cls-7" cx="235.6" cy="703.57" r="32.72"/><circle class="cls-8" cx="333.77" cy="523.59" r="32.72"/><circle class="cls-8" cx="431.94" cy="392.69" r="32.72"/><circle class="cls-8" cx="628.29" cy="687.21" r="32.72"/><circle class="cls-8" cx="922.8" cy="785.38" r="32.72"/><circle class="cls-7" cx="530.11" cy="752.66" r="32.72"/><circle class="cls-7" cx="726.46" cy="605.4" r="32.72"/><circle class="cls-7" cx="824.63" cy="65.45" r="32.72"/></g><path class="cls-9" d="M483.83,339c-5.5,0-11.4-2.44-13.1-5.43s-7.42-6.67-12.71-8.2L236.95,261.51c-5.28-1.53-8.38-5-6.88-7.76s2.68-5,2.63-5,2-4,4.64-8.85L281,158.8c2.61-4.84,4.13-4.35,3.37,1.1l-9.66,69.85A11.94,11.94,0,0,0,283,242.44l152.9,44.17c5.28,1.53,7.37-1.13,4.65-5.91l-87.44-153c-2.73-4.78-2-10.35,1.54-12.4s6.49-3.77,6.47-3.84,3.86-2.38,8.62-5.13L480.48,42.28c4.76-2.75,5.51-1.79,1.67,2.15l-73.93,75.75a14.07,14.07,0,0,0-2,15.84l111,194.31c2.73,4.78.46,8.68-5,8.68Z"/><path class="cls-9" d="M505,98.41c1.86-5.18.24-6.19-3.6-2.25l-63,64.68a14,14,0,0,0-2,15.82l20,34.68c2.75,4.76,6.52,4.43,8.37-.75Z"/><path class="cls-9" d="M336.59,179.44c-2.34-5-4.86-4.59-5.61.85l-8.07,58.79a11.91,11.91,0,0,0,8.26,12.65L367,262c5.29,1.51,7.7-1.33,5.37-6.31Z"/><path class="cls-9" d="M827.27,253.74c1.5,2.74-1.6,6.23-6.88,7.76L599.32,325.37c-5.28,1.53-11,5.22-12.71,8.2S579,339,573.51,339H545.13c-5.5,0-7.77-3.91-5-8.68L651.14,136a14.07,14.07,0,0,0-2-15.84L575.18,44.43c-3.84-3.94-3.09-4.9,1.67-2.15l110.79,64.06c4.76,2.75,8.64,5.06,8.62,5.13s2.89,1.8,6.46,3.84,4.27,7.62,1.54,12.4l-87.45,153c-2.73,4.78-.64,7.43,4.64,5.91l152.9-44.17a11.94,11.94,0,0,0,8.24-12.68l-9.65-69.85c-.75-5.45.77-5.94,3.38-1.1L820,239.86c2.61,4.84,4.7,8.83,4.64,8.85S825.77,251,827.27,253.74Z"/><path class="cls-9" d="M552.38,98.41c-1.86-5.18-.24-6.19,3.6-2.25l63,64.68a14,14,0,0,1,2,15.82l-20,34.68c-2.75,4.76-6.52,4.43-8.37-.75Z"/><path class="cls-9" d="M720.75,179.44c2.34-5,4.86-4.59,5.61.85l8.07,58.79a11.91,11.91,0,0,1-8.26,12.65L690.34,262c-5.29,1.51-7.7-1.33-5.37-6.31Z"/><polygon class="cls-10" points="276.34 474 309.22 440.03 253.98 447.64 227.96 402.55 269.5 371.17 338.45 409.84 397.34 349 498.34 724 276.34 474"/><polygon class="cls-11" points="498.34 724 343.34 654 276.34 474 498.34 724"/><path class="cls-12" d="M713.34,654,568.84,764.12h0l-1.2.91,3.26-9.67a20.09,20.09,0,0,0-7.07-22.53L540.07,715.2a19.39,19.39,0,0,0-23.46,0l-23.76,17.64a20.09,20.09,0,0,0-7.07,22.53L489,765,343.34,654l155,70-101-375h262l-106,375Z"/><polygon class="cls-10" points="802.7 447.64 747.46 440.03 780.34 474 553.34 724 659.34 349 718.23 409.84 787.18 371.17 828.72 402.55 802.7 447.64"/><polygon class="cls-11" points="780.34 474 713.34 654 553.34 724 780.34 474"/><path class="cls-13" d="M564.56,753.39,562,761.44,557.15,777a16.78,16.78,0,0,1-15.85,11.77l-13.13.13-11.6.12a16.78,16.78,0,0,1-16.08-11.43l-5.17-15.36-2.72-8.08a16.79,16.79,0,0,1,5.91-18.83l19.86-14.74a16.8,16.8,0,0,1,19.73-.2l20.16,14.33A16.79,16.79,0,0,1,564.56,753.39Z"/><path class="cls-4" d="M464.1,894.35a8.84,8.84,0,0,1-6.64-3l-55-62.85-37.52,45a8.83,8.83,0,1,1-13.56-11.3l44.14-53a8.82,8.82,0,0,1,6.67-3.18,8.24,8.24,0,0,1,6.75,3l52.84,60.38L509,767.06a8.83,8.83,0,1,1,16,7.4l-53,114.76a8.83,8.83,0,0,1-6.76,5A8.42,8.42,0,0,1,464.1,894.35Z"/><rect class="cls-5" x="258" y="946.79" width="81.15" height="31.94" transform="translate(-593.32 493.11) rotate(-45)"/><path class="cls-6" d="M295.78,943a186.44,186.44,0,0,0,22.58,22.58l20.2-20.2L316,922.77Z"/><path class="cls-5" d="M437.61,656A167.72,167.72,0,1,0,605.34,823.72,167.72,167.72,0,0,0,437.61,656Zm0,309A141.24,141.24,0,1,1,578.86,823.73,141.24,141.24,0,0,1,437.61,965Z"/><path class="cls-14" d="M117.24,1162.83l-18.73-18.72a17.66,17.66,0,0,1,0-25l149-149a17.66,17.66,0,0,1,25,0l18.73,18.72a17.66,17.66,0,0,1,0,25l-149,149A17.65,17.65,0,0,1,117.24,1162.83Z"/><path class="cls-15" d="M116.16,1136.79l149-149a17.66,17.66,0,0,1,25,0l1.09,1.09,0,0-18.73-18.72a17.66,17.66,0,0,0-25,0l-149,149a17.65,17.65,0,0,0,0,25l17.64,17.64A17.65,17.65,0,0,1,116.16,1136.79Z"/><path class="cls-6" d="M280.33,1024.71l10.88-10.88a17.66,17.66,0,0,0,0-25l-18.73-18.72a17.66,17.66,0,0,0-25,0L236.63,981Z"/><g class="cls-16"><path class="cls-3" d="M254.29,998.67l10.88-10.88a17.66,17.66,0,0,1,25,0l1.09,1.09,0,0-18.73-18.72a17.66,17.66,0,0,0-25,0L236.63,981Z"/></g><circle class="cls-7" cx="358.17" cy="867.86" r="17.65"/><circle class="cls-17" cx="402.3" cy="814.9" r="17.65"/><circle class="cls-8" cx="464.1" cy="885.52" r="17.65"/><circle class="cls-13" cx="517.06" cy="770.76" r="17.65"/><path class="cls-2" d="M1054.36,451.92,851.73,356.39a8.3,8.3,0,0,1-4-11l81.38-172.61a8.3,8.3,0,0,1,11-4l202.63,95.54a8.3,8.3,0,0,1,4,11L1065.41,448A8.3,8.3,0,0,1,1054.36,451.92Z"/><path class="cls-18" d="M1005,428.65a66.38,66.38,0,1,0-103.88-49Z"/><path class="cls-7" d="M1132.64,305.37,915,202.75l14.15-30a8.3,8.3,0,0,1,11-4l202.63,95.54a8.3,8.3,0,0,1,4,11Z"/><rect class="cls-18" x="1017.9" y="137.51" width="8.3" height="240.62" transform="translate(352.99 1072.31) rotate(-64.76)"/><circle class="cls-19" cx="956.62" cy="197.15" r="12.45" transform="translate(370.33 978.35) rotate(-64.76)"/><path class="cls-6" d="M954,202.78h0a6.22,6.22,0,0,1-3-8.28l8.85-18.76a6.22,6.22,0,0,1,8.28-3h0a6.22,6.22,0,0,1,3,8.28l-8.85,18.76A6.22,6.22,0,0,1,954,202.78Z"/><path class="cls-3" d="M959.28,191.53a6.22,6.22,0,0,1-3-8.28L951,194.5a6.22,6.22,0,0,0,11.26,5.31l5.31-11.26A6.22,6.22,0,0,1,959.28,191.53Z"/><circle class="cls-19" cx="1110.47" cy="269.69" r="12.45" transform="translate(392.96 1159.11) rotate(-64.76)"/><path class="cls-6" d="M1107.82,275.32h0a6.22,6.22,0,0,1-3-8.28l8.85-18.76a6.22,6.22,0,0,1,8.28-3h0a6.22,6.22,0,0,1,3,8.28l-8.85,18.76A6.22,6.22,0,0,1,1107.82,275.32Z"/><path class="cls-3" d="M1113.13,264.06a6.22,6.22,0,0,1-3-8.28L1104.84,267a6.22,6.22,0,1,0,11.26,5.31l5.31-11.26A6.22,6.22,0,0,1,1113.13,264.06Z"/><path class="cls-18" d="M931.5,274.75l-15-7.08a4.15,4.15,0,0,1-2-5.52l5.31-11.26a4.15,4.15,0,0,1,5.52-2l15,7.08a4.15,4.15,0,0,1,2,5.52L937,272.77A4.15,4.15,0,0,1,931.5,274.75Z"/><path class="cls-18" d="M961.52,288.9l-15-7.08a4.15,4.15,0,0,1-2-5.52L949.84,265a4.15,4.15,0,0,1,5.52-2l15,7.08a4.15,4.15,0,0,1,2,5.52L967,286.92A4.15,4.15,0,0,1,961.52,288.9Z"/><path class="cls-18" d="M991.54,303.06l-15-7.08a4.15,4.15,0,0,1-2-5.52l5.31-11.26a4.15,4.15,0,0,1,5.52-2l15,7.08a4.15,4.15,0,0,1,2,5.52l-5.31,11.26A4.15,4.15,0,0,1,991.54,303.06Z"/><path class="cls-18" d="M1021.56,317.21l-15-7.08a4.15,4.15,0,0,1-2-5.52l5.31-11.26a4.15,4.15,0,0,1,5.52-2l15,7.08a4.15,4.15,0,0,1,2,5.52l-5.31,11.26A4.15,4.15,0,0,1,1021.56,317.21Z"/><path class="cls-5" d="M1051.58,331.36l-15-7.08a4.15,4.15,0,0,1-2-5.52l5.31-11.26a4.15,4.15,0,0,1,5.52-2l15,7.08a4.15,4.15,0,0,1,2,5.52l-5.31,11.26A4.15,4.15,0,0,1,1051.58,331.36Z"/><path class="cls-5" d="M1081.6,345.52l-15-7.08a4.15,4.15,0,0,1-2-5.52l5.31-11.26a4.15,4.15,0,0,1,5.52-2l15,7.08a4.15,4.15,0,0,1,2,5.52l-5.31,11.26A4.15,4.15,0,0,1,1081.6,345.52Z"/><path class="cls-6" d="M943.89,248.48l-15-7.08a4.15,4.15,0,0,1-2-5.52h0a4.15,4.15,0,0,1,5.52-2l15,7.08a4.15,4.15,0,0,1,2,5.52h0A4.15,4.15,0,0,1,943.89,248.48Z"/><path class="cls-6" d="M973.91,262.64l-15-7.08a4.15,4.15,0,0,1-2-5.52h0a4.15,4.15,0,0,1,5.52-2l15,7.08a4.15,4.15,0,0,1,2,5.52h0A4.15,4.15,0,0,1,973.91,262.64Z"/><path class="cls-6" d="M1003.93,276.79l-15-7.08a4.15,4.15,0,0,1-2-5.52h0a4.15,4.15,0,0,1,5.52-2l15,7.08a4.15,4.15,0,0,1,2,5.52h0A4.15,4.15,0,0,1,1003.93,276.79Z"/><path class="cls-6" d="M1033.95,290.94l-15-7.08a4.15,4.15,0,0,1-2-5.52h0a4.15,4.15,0,0,1,5.52-2l15,7.08a4.15,4.15,0,0,1,2,5.52h0A4.15,4.15,0,0,1,1033.95,290.94Z"/><path class="cls-7" d="M1064,305.1,1049,298a4.15,4.15,0,0,1-2-5.52h0a4.15,4.15,0,0,1,5.52-2l15,7.08a4.15,4.15,0,0,1,2,5.52h0A4.15,4.15,0,0,1,1064,305.1Z"/><path class="cls-7" d="M1094,319.25l-15-7.08a4.15,4.15,0,0,1-2-5.52h0a4.15,4.15,0,0,1,5.52-2l15,7.08a4.15,4.15,0,0,1,2,5.52h0A4.15,4.15,0,0,1,1094,319.25Z"/><path class="cls-18" d="M919.12,301l-15-7.08a4.15,4.15,0,0,1-2-5.52l5.31-11.26a4.15,4.15,0,0,1,5.52-2l15,7.08a4.15,4.15,0,0,1,2,5.52L924.64,299A4.15,4.15,0,0,1,919.12,301Z"/><path class="cls-18" d="M949.14,315.17l-15-7.08a4.15,4.15,0,0,1-2-5.52l5.31-11.26a4.15,4.15,0,0,1,5.52-2l15,7.08a4.15,4.15,0,0,1,2,5.52l-5.31,11.26A4.15,4.15,0,0,1,949.14,315.17Z"/><path class="cls-18" d="M979.16,329.32l-15-7.08a4.15,4.15,0,0,1-2-5.52l5.31-11.26a4.15,4.15,0,0,1,5.52-2l15,7.08a4.15,4.15,0,0,1,2,5.52l-5.31,11.26A4.15,4.15,0,0,1,979.16,329.32Z"/><path class="cls-18" d="M1009.18,343.48l-15-7.08a4.15,4.15,0,0,1-2-5.52l5.31-11.26a4.15,4.15,0,0,1,5.52-2l15,7.08a4.15,4.15,0,0,1,2,5.52l-5.31,11.26A4.15,4.15,0,0,1,1009.18,343.48Z"/><path class="cls-5" d="M1039.2,357.63l-15-7.08a4.15,4.15,0,0,1-2-5.52l5.31-11.26a4.15,4.15,0,0,1,5.52-2l15,7.08a4.15,4.15,0,0,1,2,5.52l-5.31,11.26A4.15,4.15,0,0,1,1039.2,357.63Z"/><path class="cls-5" d="M1069.22,371.78l-15-7.08a4.15,4.15,0,0,1-2-5.52l5.31-11.26a4.15,4.15,0,0,1,5.52-2l15,7.08a4.15,4.15,0,0,1,2,5.52l-5.31,11.26A4.15,4.15,0,0,1,1069.22,371.78Z"/><path class="cls-18" d="M906.74,327.28l-15-7.08a4.15,4.15,0,0,1-2-5.52l5.31-11.26a4.15,4.15,0,0,1,5.52-2l15,7.08a4.15,4.15,0,0,1,2,5.52l-5.31,11.26A4.15,4.15,0,0,1,906.74,327.28Z"/><path class="cls-18" d="M936.76,341.44l-15-7.08a4.15,4.15,0,0,1-2-5.52l5.31-11.26a4.15,4.15,0,0,1,5.52-2l15,7.08a4.15,4.15,0,0,1,2,5.52l-5.31,11.26A4.15,4.15,0,0,1,936.76,341.44Z"/><path class="cls-18" d="M966.77,355.59l-15-7.08a4.15,4.15,0,0,1-2-5.52l5.31-11.26a4.15,4.15,0,0,1,5.52-2l15,7.08a4.15,4.15,0,0,1,2,5.52l-5.31,11.26A4.15,4.15,0,0,1,966.77,355.59Z"/><path class="cls-18" d="M996.79,369.74l-15-7.08a4.15,4.15,0,0,1-2-5.52l5.31-11.26a4.15,4.15,0,0,1,5.52-2l15,7.08a4.15,4.15,0,0,1,2,5.52l-5.31,11.26A4.15,4.15,0,0,1,996.79,369.74Z"/><path class="cls-5" d="M1026.81,383.9l-15-7.08a4.15,4.15,0,0,1-2-5.52l5.31-11.26a4.15,4.15,0,0,1,5.52-2l15,7.08a4.15,4.15,0,0,1,2,5.52l-5.31,11.26A4.15,4.15,0,0,1,1026.81,383.9Z"/><path class="cls-5" d="M1056.83,398.05l-15-7.08a4.15,4.15,0,0,1-2-5.52l5.31-11.26a4.15,4.15,0,0,1,5.52-2l15,7.08a4.15,4.15,0,0,1,2,5.52l-5.31,11.26A4.15,4.15,0,0,1,1056.83,398.05Z"/><path class="cls-18" d="M894.35,353.55l-15-7.08a4.15,4.15,0,0,1-2-5.52l5.31-11.26a4.15,4.15,0,0,1,5.52-2l15,7.08a4.15,4.15,0,0,1,2,5.52l-5.31,11.26A4.15,4.15,0,0,1,894.35,353.55Z"/><path class="cls-18" d="M924.37,367.7l-15-7.08a4.15,4.15,0,0,1-2-5.52l5.31-11.26a4.15,4.15,0,0,1,5.52-2l15,7.08a4.15,4.15,0,0,1,2,5.52l-5.31,11.26A4.15,4.15,0,0,1,924.37,367.7Z"/><path class="cls-18" d="M954.39,381.86l-15-7.08a4.15,4.15,0,0,1-2-5.52L942.7,358a4.15,4.15,0,0,1,5.52-2l15,7.08a4.15,4.15,0,0,1,2,5.52l-5.31,11.26A4.15,4.15,0,0,1,954.39,381.86Z"/><path class="cls-18" d="M984.41,396l-15-7.08a4.15,4.15,0,0,1-2-5.52l5.31-11.26a4.15,4.15,0,0,1,5.52-2l15,7.08a4.15,4.15,0,0,1,2,5.52L989.93,394A4.15,4.15,0,0,1,984.41,396Z"/><path class="cls-5" d="M1014.43,410.16l-15-7.08a4.15,4.15,0,0,1-2-5.52l5.31-11.26a4.15,4.15,0,0,1,5.52-2l15,7.08a4.15,4.15,0,0,1,2,5.52l-5.31,11.26A4.15,4.15,0,0,1,1014.43,410.16Z"/><path class="cls-5" d="M1044.45,424.32l-15-7.08a4.15,4.15,0,0,1-2-5.52l5.31-11.26a4.15,4.15,0,0,1,5.52-2l15,7.08a4.15,4.15,0,0,1,2,5.52L1050,422.33A4.15,4.15,0,0,1,1044.45,424.32Z"/><circle class="cls-3" cx="967.2" cy="374.14" r="58.08" transform="translate(216.32 1089.42) rotate(-64.76)"/><circle class="cls-20" cx="967.2" cy="374.14" r="49.78" transform="translate(216.32 1089.42) rotate(-64.76)"/><circle class="cls-2" cx="967.2" cy="374.14" r="29.04" transform="translate(216.32 1089.42) rotate(-64.76)"/><path class="cls-14" d="M990.2,325.36h0a4.15,4.15,0,0,0-5.52,2l-1.77,3.75a4.15,4.15,0,0,0,2,5.52h0a4.15,4.15,0,0,0,5.52-2l1.77-3.75A4.15,4.15,0,0,0,990.2,325.36Z"/><path class="cls-14" d="M949.51,411.66h0a4.15,4.15,0,0,0-5.52,2l-1.77,3.75a4.15,4.15,0,0,0,2,5.52h0a4.15,4.15,0,0,0,5.52-2l1.77-3.75A4.15,4.15,0,0,0,949.51,411.66Z"/><path class="cls-14" d="M1016,397.14h0a4.15,4.15,0,0,0-2-5.52l-3.75-1.77a4.15,4.15,0,0,0-5.52,2h0a4.15,4.15,0,0,0,2,5.52l3.75,1.77A4.15,4.15,0,0,0,1016,397.14Z"/><path class="cls-14" d="M929.68,356.45h0a4.15,4.15,0,0,0-2-5.52l-3.75-1.77a4.15,4.15,0,0,0-5.52,2h0a4.15,4.15,0,0,0,2,5.52l3.75,1.77A4.15,4.15,0,0,0,929.68,356.45Z"/><path class="cls-15" d="M960.13,389.15h0a4.15,4.15,0,0,1-2-5.52l17.69-37.52a4.15,4.15,0,0,1,5.52-2h0a4.15,4.15,0,0,1,2,5.52l-17.69,37.52A4.15,4.15,0,0,1,960.13,389.15Z"/><path class="cls-15" d="M952.19,367.06h0a4.15,4.15,0,0,1,5.52-2l37.52,17.69a4.15,4.15,0,0,1,2,5.52h0a4.15,4.15,0,0,1-5.52,2l-37.52-17.69A4.15,4.15,0,0,1,952.19,367.06Z"/><circle class="cls-6" cx="967.2" cy="374.14" r="8.3" transform="translate(216.32 1089.42) rotate(-64.76)"/><path class="cls-6" d="M132.87,83.93,3.42,123.55a4.84,4.84,0,0,0-3.21,6l1.42,4.62a4.84,4.84,0,0,0,6,3.21L137.11,97.8a4.84,4.84,0,0,0,3.21-6l-1.42-4.62A4.84,4.84,0,0,0,132.87,83.93Z"/><path class="cls-6" d="M85.49,391.69l129.45-39.62a4.84,4.84,0,0,0,3.21-6l-1.42-4.62a4.84,4.84,0,0,0-6-3.21L81.25,377.82a4.84,4.84,0,0,0-3.21,6l1.42,4.62A4.84,4.84,0,0,0,85.49,391.69Z"/><path class="cls-2" d="M123.83,223.08l23.35-49a48.35,48.35,0,0,0,2.59-35L137.11,97.8,7.67,137.42l12.65,41.35A48.35,48.35,0,0,0,42,206.28L88.8,233.8a14.5,14.5,0,0,1,6.51,8.26h0a14.5,14.5,0,0,1-.78,10.49l-23.35,49a48.35,48.35,0,0,0-2.59,35l12.65,41.35L210.69,338.2,198,296.85a48.35,48.35,0,0,0-21.71-27.52l-46.76-27.51a14.5,14.5,0,0,1-6.51-8.26h0A14.51,14.51,0,0,1,123.83,223.08Z"/><path class="cls-18" d="M113.79,288.47l-.44-41.69A39.81,39.81,0,0,0,107.62,228l-23-34.8c-5.12-7.76-9.93-18.48-13.47-30L58.52,121.85,7.67,137.42l12.65,41.35A48.34,48.34,0,0,0,42,206.28L88.8,233.8a14.5,14.5,0,0,1,5.74,18.74l-23.35,49a48.35,48.35,0,0,0-2.59,35l12.65,41.35,50.85-15.56-12.65-41.34C115.91,309.34,113.89,297.77,113.79,288.47Z"/><path class="cls-3" d="M52.48,118.64,51.07,114a4.84,4.84,0,0,1,3.21-6L3.42,123.55a4.84,4.84,0,0,0-3.21,6l1.42,4.62a4.84,4.84,0,0,0,6,3.21l50.85-15.56A4.84,4.84,0,0,1,52.48,118.64Z"/><path class="cls-3" d="M130.31,372.91l-1.42-4.62a4.84,4.84,0,0,1,3.21-6L81.25,377.82a4.84,4.84,0,0,0-3.21,6l1.42,4.62a4.84,4.84,0,0,0,6,3.21l50.85-15.56A4.83,4.83,0,0,1,130.31,372.91Z"/><path class="cls-21" d="M169,281.83l-11.32-6.66a4.83,4.83,0,0,0-3.87-.46l-23.52,7.2a4.84,4.84,0,0,1-6-3.21L109.93,232a21,21,0,0,1,.76-15.08l0-.09,16.78-35.2L67.8,199.91a2.42,2.42,0,0,0-.52,4.39l28.87,17,.09.05a21,21,0,0,1,9.07,12.07l14.29,46.7a4.84,4.84,0,0,1-3.21,6l-23.52,7.2a4.83,4.83,0,0,0-2.95,2.54l-5.65,11.85a33.84,33.84,0,0,0-1.81,24.47l7.7,25.16a2.42,2.42,0,0,0,3,1.6l97.08-29.72a2.42,2.42,0,0,0,1.6-3l-7.7-25.16A33.85,33.85,0,0,0,169,281.83Z"/><path class="cls-22" d="M67.28,204.31l28.87,17,.09.05a21,21,0,0,1,9.07,12.07l8.18,26.74-.14-13.38a31.73,31.73,0,0,0-.78-6.15l-2.16-7.05a31.73,31.73,0,0,0-2.8-5.54L85.47,194.5,67.8,199.91A2.42,2.42,0,0,0,67.28,204.31Z"/><path class="cls-22" d="M119.45,320.91c-3.54-11.57-5.56-23.14-5.66-32.44l0-1.51-20.9,6.4a4.83,4.83,0,0,0-2.95,2.54l-5.65,11.85a33.85,33.85,0,0,0-1.81,24.47l7.7,25.16a2.42,2.42,0,0,0,3,1.6l34.67-10.61-8.41-27.48Z"/><path class="cls-5" d="M866.41,694.53l16.87-16.63A10,10,0,0,1,896,676.75l14.37,9.73L874.59,721.7l-9.52-14.51A10,10,0,0,1,866.41,694.53Z"/><path class="cls-6" d="M877.13,684l-10.72,10.57a10,10,0,0,0-1.35,12.65l9.52,14.51,10.72-10.57-9.52-14.51A10,10,0,0,1,877.13,684Z"/><path class="cls-23" d="M1093.57,858.1l3.52,3.57a10,10,0,0,1-.1,14.19l-35.73,35.22a10,10,0,0,1-14.19-.1l-3.52-3.57Z"/><path class="cls-5" d="M971,633.7,820.94,781.62c53.19,3.93,102.65,32.67,127.3,57.69l78.61-77.48C1002.2,736.81,974.18,686.94,971,633.7Z"/><path class="cls-24" d="M810.37,770.9,960.45,623a5,5,0,0,1,7.1.05l3.52,3.57a5,5,0,0,1-.05,7.1L820.94,781.62a5,5,0,0,1-7.1-.05L810.32,778A5,5,0,0,1,810.37,770.9Z"/><path class="cls-19" d="M854,915.19a5,5,0,0,0-.05,7.1l31.56,32a15.05,15.05,0,0,0,19,2l96.63-63.41L962.33,853.6l-94.95,62.31a5,5,0,0,1-6.33-.67h0A5,5,0,0,0,854,915.19Z"/><path class="cls-23" d="M1018.68,910.77,1005,924.23a5,5,0,0,1-7.63-.69L950.59,857a5,5,0,0,1,.58-6.46l4.12-4.06Z"/><path class="cls-7" d="M948.24,839.31l78.61-77.48,70.44,71.47a20.07,20.07,0,0,1-.21,28.38l-50,49.31a20.07,20.07,0,0,1-28.38-.21l-70.44-71.47Z"/><rect class="cls-24" x="935.88" y="799.12" width="110.38" height="10.03" transform="translate(-279.26 927.12) rotate(-44.58)"/><path class="cls-19" d="M1057.78,900.41,1047.06,911a20.07,20.07,0,0,1-28.38-.21l-63.39-64.32,25-24.65,77.48,78.61Z"/><rect class="cls-14" x="946.71" y="825.54" width="35.12" height="10.03" transform="translate(-305.51 915.91) rotate(-44.58)"/><path class="cls-6" d="M973.26,814.65c-24.65-25-69.35-58.45-109.44-75.3l-42.88,42.26c53.19,3.93,102.65,32.67,127.3,57.69Z"/><path class="cls-14" d="M853.25,728.64,810.37,770.9a5,5,0,0,0-.05,7.1l3.52,3.57a5,5,0,0,0,7.1.05l42.88-42.26a5,5,0,0,1-7.1-.05l-3.52-3.57A5,5,0,0,1,853.25,728.64Z"/></svg>