<svg id="Layer_1" data-name="Layer 1" xmlns="http://www.w3.org/2000/svg" viewBox="0 0 770 770"><defs><style>.cls-1{fill:#3aaedf;}.cls-2{fill:#ff6464;}.cls-3{fill:#c7cfe2;}.cls-4{fill:#afb9d2;}.cls-5{fill:#959cb3;}.cls-6{fill:#e4eaf6;}.cls-7{fill:#e6af78;}.cls-8{fill:#eff2fa;}.cls-9{fill:#d29b6e;}.cls-10{fill:#f0c087;}.cls-11{fill:#5b5d6e;}.cls-12{fill:#515262;}.cls-13{fill:#785550;}.cls-14{fill:#694b4b;}.cls-15{fill:#5a4146;}.cls-16{fill:#b4e1fa;}.cls-17{fill:#a0d2f0;}.cls-18{fill:#d2555a;}</style></defs><title>chatting</title><path class="cls-1" d="M770,385a383.27,383.27,0,0,1-42.83,176.64Q720.78,574,713.5,585.88a387,387,0,0,1-67.73,82.36h0s0,0,0,0a383.34,383.34,0,0,1-37.08,30.13q-7.19,5.16-14.63,10Q588,712.29,581.73,716a385.38,385.38,0,0,1-393.47,0q-13.78-8.2-26.8-17.51c-1.63-1.16-3.24-2.33-4.85-3.52a387.32,387.32,0,0,1-40.35-34.28h0A385,385,0,1,1,703.21,168.22q9.86,14.45,18.41,29.8A383.23,383.23,0,0,1,770,385Z"/><ellipse class="cls-2" cx="384.5" cy="385.2" rx="321.5" ry="312.08"/><path class="cls-3" d="M703.21,168.22V316.89a44,44,0,0,1-2.14,13.58h0a44.54,44.54,0,0,1-42.21,30.76H514.74v42a5.54,5.54,0,0,1-9.46,3.92l-46-46H392.79a44.48,44.48,0,0,1-44.23-41.34c0-.5-.06-1-.08-1.5s0-1,0-1.5V161.69a44.45,44.45,0,0,1,44.34-44.35H658.86c1,0,2,0,3,.1A387.64,387.64,0,0,1,703.21,168.22Z"/><path class="cls-4" d="M647.4,206H481.48V183.86H569.8a11.34,11.34,0,0,0,11.44-10.35,11.09,11.09,0,0,0-11.06-11.83H481.48V117.34H459.31V272.55A44.47,44.47,0,0,1,415,316.89H348.45a43.73,43.73,0,0,0,6.2,22.17H415a66.59,66.59,0,0,0,66.52-66.52h44a11.31,11.31,0,0,0,11.31-9.44,11.09,11.09,0,0,0-11-12.73H481.48V228.21H647.78a11.09,11.09,0,0,0,11.06-11.83A11.34,11.34,0,0,0,647.4,206Z"/><path class="cls-5" d="M647.77,183.86H614.52a11.09,11.09,0,1,1,0-22.17h33.26a11.09,11.09,0,0,1,0,22.17Z"/><path class="cls-5" d="M647.77,272.55h-77.6a11.09,11.09,0,0,1,0-22.17h77.6a11.09,11.09,0,0,1,0,22.17Z"/><path class="cls-4" d="M647.77,316.9H492.57a11.09,11.09,0,0,1,0-22.17H647.77a11.09,11.09,0,0,1,0,22.17Z"/><path class="cls-6" d="M459.31,117.34V272.55A44.31,44.31,0,0,1,443.95,306a44.94,44.94,0,0,1-6,4.4A44,44,0,0,1,415,316.9H348.45l-46,46a5.54,5.54,0,0,1-9.46-3.92v-42H148.9a44.48,44.48,0,0,1-44.35-44.34V121.24A386.68,386.68,0,0,1,159.39,73H415a44,44,0,0,1,17.32,3.54,0,0,0,0,0,0,0h0A44.5,44.5,0,0,1,459.31,117.34Z"/><path class="cls-4" d="M193.24,139.52H160a11.09,11.09,0,1,1,0-22.17h33.26a11.09,11.09,0,1,1,0,22.17Z"/><path class="cls-3" d="M403.88,139.52H237.59a11.09,11.09,0,1,1,0-22.17H403.88a11.09,11.09,0,1,1,0,22.17Z"/><path class="cls-3" d="M403.88,183.86H160a11.09,11.09,0,0,1,0-22.17h243.9a11.09,11.09,0,1,1,0,22.17Z"/><path class="cls-4" d="M403.88,228.21H370.62a11.09,11.09,0,1,1,0-22.17h33.26a11.09,11.09,0,1,1,0,22.17Z"/><path class="cls-3" d="M326.28,228.21H160A11.09,11.09,0,0,1,160,206H326.28a11.09,11.09,0,1,1,0,22.17Z"/><path class="cls-3" d="M403.88,272.55H160a11.09,11.09,0,0,1,0-22.17h243.9a11.09,11.09,0,0,1,0,22.17Z"/><polygon class="cls-7" points="294.72 629.02 294.72 593.2 202.62 593.2 202.62 629.02 248.67 669.95 294.72 629.02"/><path class="cls-8" d="M381.71,665.69v40.08A10.23,10.23,0,0,1,371.47,716H188.26q-13.78-8.2-26.8-17.51c-1.63-1.16-3.24-2.33-4.85-3.52a387.32,387.32,0,0,1-40.35-34.28h0a18.43,18.43,0,0,1,.54-1.79c.18-.5.37-1,.59-1.47a.51.51,0,0,1,.06-.13,17.24,17.24,0,0,1,1.16-2.21c.21-.36.44-.71.68-1.06s.49-.68.75-1a20.39,20.39,0,0,1,11.38-7.24l56.82-13.37h0l.5-.12h0l6-1.41a10.2,10.2,0,0,0,4.66-2.52l3.23,2.06,2,1.28,3.47,2.21,40.56,25.81,33.5-19.54h0L300,629.8a9.76,9.76,0,0,0,2.65,1.07l6,1.41h0l57.34,13.49A20.36,20.36,0,0,1,377.3,653a20,20,0,0,1,1.86,2.8,12.46,12.46,0,0,1,.62,1.21l.12.27c.15.32.28.65.41,1s.23.6.34.91l.06.19c.09.28.18.56.25.85a.57.57,0,0,1,0,.12c.09.33.17.67.24,1s.12.57.17.86v0a5.42,5.42,0,0,1,.09.56,3.85,3.85,0,0,1,.06.49,3.74,3.74,0,0,1,0,.47c0,.14,0,.29,0,.44a4.6,4.6,0,0,1,0,.53C381.7,665,381.71,665.36,381.71,665.69Z"/><path class="cls-9" d="M202.62,593.2V631c58,20.9,92.1-31.41,92.1-31.41V593.2Z"/><path class="cls-10" d="M182.16,475.51l4.46,98.09a30.7,30.7,0,0,0,12.25,23.17L220,612.64a30.7,30.7,0,0,0,18.42,6.14h20.47a30.7,30.7,0,0,0,18.42-6.14l21.16-15.87a30.7,30.7,0,0,0,12.25-23.17l4.46-98.09h-133Z"/><path class="cls-7" d="M233.32,496c20.47,0,51.17-5.12,58.45-20.47H182.16l4.46,98.09a30.7,30.7,0,0,0,12.25,23.17L220,612.64a30.7,30.7,0,0,0,18.42,6.14h10.23c-10.23,0-30.7-20.47-30.7-46.05v-61.4C218,506.21,223.09,496,233.32,496Z"/><path class="cls-6" d="M344.14,682.79,377.3,653a20.44,20.44,0,0,1,4.41,12.68v40.07A10.23,10.23,0,0,1,371.47,716H335.66V701.83A25.58,25.58,0,0,1,344.14,682.79Z"/><path class="cls-6" d="M161.46,698.49c-1.63-1.16-3.24-2.33-4.85-3.52a387.32,387.32,0,0,1-40.35-34.28h0a18.43,18.43,0,0,1,.54-1.79c.18-.5.37-1,.59-1.47a.51.51,0,0,1,.06-.13,20.21,20.21,0,0,1,1.16-2.21A19.53,19.53,0,0,1,120,653l33.16,29.78A25.54,25.54,0,0,1,161.46,698.49Z"/><polygon class="cls-11" points="261.46 716 235.88 716 239.08 669.95 258.27 669.95 261.46 716"/><path class="cls-12" d="M261.46,659.71H235.88v3a12.39,12.39,0,0,0,12.39,12.39h.79a12.39,12.39,0,0,0,12.39-12.39v-3Z"/><path class="cls-6" d="M201.9,617.62l46.77,42.09s-13.1,6.61-29.26,19.94a6.57,6.57,0,0,1-10.17-2.3l-22-48.34,7-10.43A5.12,5.12,0,0,1,201.9,617.62Z"/><path class="cls-6" d="M295.44,617.62l-46.77,42.09s13.1,6.61,29.26,19.94a6.57,6.57,0,0,0,10.17-2.3l22-48.34-7-10.43A5.12,5.12,0,0,0,295.44,617.62Z"/><path class="cls-13" d="M279.69,441.62l4.8,33.9c21.9,4.38,25.05,38.74,25.51,48.56a10.1,10.1,0,0,0,1.62,5L320,542s-2.86-21.43,10.23-35.82C330.2,506.21,334.7,421.15,279.69,441.62Z"/><path class="cls-10" d="M325.1,539.84,319.32,563a6.15,6.15,0,0,1-6,4.66h0a6.15,6.15,0,0,1-6.1-5.39l-3-23.64a10.59,10.59,0,0,1,10.51-11.91h0A10.59,10.59,0,0,1,325.1,539.84Z"/><path class="cls-14" d="M187.06,432.45l7.57,5.17c-34.22,25.26-27.82,68.6-27.82,68.6C177,516.45,177,542,177,542l10.23-10.23s-3.95-29.56,15.35-40.93c17.91-10.55,33.58-5.12,49.57-5.12C295,485.75,307,469.6,305,449.93c-1.08-10.18-16.64-31.37-56.28-30.7C232.67,419.5,202.62,424.35,187.06,432.45Z"/><path class="cls-15" d="M184.07,481.27s-5.44-21.43,10.55-43.65c-34.22,25.26-27.82,68.6-27.82,68.6C177,516.45,177,542,177,542l10.23-10.23s-3.95-29.56,15.35-40.93c17.91-10.55,33.58-5.12,49.57-5.12a125.68,125.68,0,0,0,18.45-1.27C237.64,485.59,218.18,460.59,184.07,481.27Z"/><path class="cls-7" d="M172.24,539.84,178,563a6.15,6.15,0,0,0,6,4.66h0a6.15,6.15,0,0,0,6.1-5.39l3-23.64a10.59,10.59,0,0,0-10.51-11.91h0A10.59,10.59,0,0,0,172.24,539.84Z"/><path class="cls-6" d="M310.07,705.76H284.49A10.23,10.23,0,0,0,274.26,716h46.05A10.23,10.23,0,0,0,310.07,705.76Z"/><path class="cls-14" d="M536.91,422.54c-103.22,0-91.78,125.52-91.3,216.49a9.71,9.71,0,0,0,4.76,8.31c11.44,6.9,42.85,23,86.54,23s75.11-16.12,86.54-23a9.71,9.71,0,0,0,4.76-8.31C628.69,548.07,640.13,422.54,536.91,422.54Z"/><path class="cls-15" d="M530.26,422.8c-96,5.38-85.11,127.29-84.65,216.23a9.71,9.71,0,0,0,4.76,8.31c11.44,6.9,42.85,23,86.54,23L563,487.75Z"/><path class="cls-14" d="M536.91,422.54c-58.69,0-62.77,70.92-62.77,70.92C508,487.75,528.76,502,563,487.75l-26.09,182.6c43.7,0,75.11-16.12,86.54-23a9.71,9.71,0,0,0,4.76-8.31C628.69,548.07,640.13,422.54,536.91,422.54Z"/><path class="cls-13" d="M628.22,639c.4-78.16,8.84-181.77-54.26-209.4-1.1,5.72-3.09,21.68,2.09,32,13,26.09,26.09,26.09,39.13,45.65,13,71.73-24.92,147.87-37.53,158.24h0a164,164,0,0,0,45.82-18.22A9.71,9.71,0,0,0,628.22,639Z"/><path class="cls-7" d="M645.76,668.24c-.06-.13-.12-.26-.19-.39a19.55,19.55,0,0,0-9.83-9L617,651h0l-23.57-9.81-5-2.09-8.9-3.71-1.74-.73h0l-.17-.07a13.07,13.07,0,0,1-6.69-6.3,12.88,12.88,0,0,1-1.34-5.74V606.77H504.31v15.76c0,.33,0,.66,0,1v0c0,.31-.06.62-.11.93a14.48,14.48,0,0,1-.42,1.87c-.09.31-.2.61-.31.9s-.29.7-.46,1a5.12,5.12,0,0,1-.27.52l-.29.5a10,10,0,0,1-.64,1c-.17.23-.35.46-.54.68a6,6,0,0,1-.59.65c-.13.14-.26.28-.4.41a5.34,5.34,0,0,1-.44.39c-.13.12-.27.23-.4.33a4.3,4.3,0,0,1-.49.38,2,2,0,0,1-.26.18,1.45,1.45,0,0,1-.26.17l-.5.32c-.23.14-.47.27-.72.4s-.59.29-.89.41l-1.93.8-7.15,3h0l-1.74.73L456.88,651h0l-18.78,7.82a19.24,19.24,0,0,0-8.79,7.33c-.26.39-.5.79-.73,1.2l-.26.48-.39.76c-.1.22-.2.44-.29.66a3.05,3.05,0,0,0-.13.32,16.49,16.49,0,0,0-.9,2.76l0,.1a0,0,0,0,1,0,0c0,.11,0,.23-.07.35a2,2,0,0,0-.05.24c-.07.3-.12.61-.17.91a16.81,16.81,0,0,0-.18,1.74c0,.11,0,.22,0,.33,0,.28,0,.56,0,.85V703a13,13,0,0,0,13.05,13H581.73Q588,712.3,594,708.36q7.44-4.82,14.63-10a383.35,383.35,0,0,0,37.08-30.13Z"/><path class="cls-16" d="M645.76,668.24h0c-.06-.13-.13-.26-.2-.39a19.55,19.55,0,0,0-9.83-9L617,651h0l-23.57-9.81-5-2.09-8.9-3.71-7,3h0l-33.06,14.27-2.53,1.09L509.8,642h0l-15.42-6.66-7.15,3h0l-1.74.73L456.88,651h0l-18.78,7.82a19.24,19.24,0,0,0-8.79,7.33c-.26.39-.5.79-.73,1.2l-.26.48-.39.76c-.1.22-.2.44-.29.66a3.05,3.05,0,0,0-.13.32,16.49,16.49,0,0,0-.9,2.76l0,.1a0,0,0,0,1,0,0c0,.11,0,.23-.07.35a2,2,0,0,0-.05.24c-.07.3-.12.61-.17.91a16.81,16.81,0,0,0-.18,1.74c0,.11,0,.22,0,.33,0,.28,0,.56,0,.85V703a13,13,0,0,0,13.05,13H581.73Q588,712.3,594,708.36q7.44-4.82,14.63-10a383.35,383.35,0,0,0,37.08-30.13Z"/><path class="cls-9" d="M569.52,606.77H504.31v15.76a13,13,0,0,1-8,12l-9.09,3.79C556.74,656.09,569.52,606.77,569.52,606.77Z"/><path class="cls-17" d="M457.84,684l-26.18-20.82a19.52,19.52,0,0,0-5.61,13.65V703a13,13,0,0,0,13,13h26.09V699.32A19.57,19.57,0,0,0,457.84,684Z"/><path class="cls-17" d="M642.25,663.3a19.72,19.72,0,0,1,3.5,5,383.34,383.34,0,0,1-37.08,30.13A19.54,19.54,0,0,1,616,684Z"/><path class="cls-17" d="M537.89,703h-2a5.54,5.54,0,0,1-5.54-5.54V653.75h13v43.66A5.54,5.54,0,0,1,537.89,703Z"/><path class="cls-17" d="M536.91,653.74l-37.32-28a5.22,5.22,0,0,0-7.47,1.28l-7.38,11.06,22.88,32a5.22,5.22,0,0,0,7.5,1Z"/><path class="cls-17" d="M536.91,653.74l37.32-28a5.22,5.22,0,0,1,7.47,1.28l7.38,11.06-22.88,32a5.22,5.22,0,0,1-7.5,1Z"/><path class="cls-10" d="M569.52,481.23c-32.61,32.61-96.6,6.52-96.6,58.69l4,38.43a26.09,26.09,0,0,0,13.31,20.44l37.13,20.63a19.56,19.56,0,0,0,19,0l37.13-20.63a26.09,26.09,0,0,0,13.31-20.44l4.67-45.64a72,72,0,0,0,.29-9.76C599.38,506.35,576,494.27,569.52,481.23Z"/><path class="cls-7" d="M472.92,539.92l4,38.43a26.09,26.09,0,0,0,13.31,20.44l37.13,20.63a19.48,19.48,0,0,0,13.28,2h0s-18.72-5.67-29.86-35.83c-3.41-9.24-8.15-58.15-4.08-64.13,8.06-11.82,53-13,66.26-35q-1-1.22-1.81-2.45l-.14-.2a25.16,25.16,0,0,1-1.54-2.61C536.91,513.84,472.92,487.75,472.92,539.92Z"/><path class="cls-17" d="M594,708.36Q588,712.29,581.73,716H556.48v-2A11.08,11.08,0,0,1,567.56,703h17A11.09,11.09,0,0,1,594,708.36Z"/><path class="cls-18" d="M721.62,198q-8.54-15.34-18.41-29.8A385.33,385.33,0,0,0,385,0,384.93,384.93,0,0,0,116.26,660.68h0A387.32,387.32,0,0,0,156.61,695c1.61,1.19,3.22,2.36,4.85,3.52q13,9.3,26.8,17.51a385.38,385.38,0,0,0,393.47,0q6.24-3.7,12.31-7.64,7.44-4.82,14.63-10a383.34,383.34,0,0,0,37.08-30.13s0,0,0,0h0a387,387,0,0,0,67.73-82.36q7.26-11.84,13.67-24.24A385.59,385.59,0,0,0,721.62,198ZM706,389.23c0,.84,0,1.67,0,2.51,0,.14,0,.28,0,.42v.1c0,.61,0,1.2,0,1.81,0,1.06-.06,2.12-.11,3.19-.05,1.28-.1,2.55-.17,3.83,0,.1,0,.21,0,.32-.05,1.08-.12,2.15-.19,3.23,0,.38,0,.75-.07,1.14h0s0,.11,0,.16c-.07,1.09-.15,2.17-.24,3.26s-.16,2-.25,3l0,.36c0,.51-.09,1-.14,1.51q-.14,1.53-.3,3.06c-.12,1.15-.24,2.29-.38,3.44l-.06.49c-.13,1.17-.28,2.35-.43,3.52,0,.19-.05.39-.08.59-.16,1.23-.33,2.47-.51,3.7-.13.91-.26,1.82-.41,2.73l-.27,1.74q-.24,1.54-.51,3.09-.6,3.55-1.29,7.08c-.11.6-.23,1.19-.35,1.79l-.45,2.17c-.16.76-.32,1.52-.49,2.28-.13.6-.25,1.2-.39,1.79s-.27,1.2-.41,1.79c-.06.28-.12.56-.19.84-.27,1.19-.55,2.38-.85,3.57-.11.45-.21.9-.33,1.35s-.22.89-.34,1.34a1.21,1.21,0,0,1-.05.18q-.23.93-.48,1.86c-.06.21-.11.43-.17.64-.16.61-.32,1.22-.49,1.83-.07.27-.15.55-.22.83a.93.93,0,0,1,0,.13c-.25.91-.5,1.81-.76,2.72-.35,1.24-.71,2.48-1.09,3.72-.06.22-.12.43-.19.64-.34,1.13-.68,2.26-1,3.38l-.08.26-.06.19,0,.1-.07.22a.49.49,0,0,1,0,.11c-.23.76-.48,1.52-.73,2.27-.63,2-1.29,3.9-2,5.84-.42,1.19-.85,2.39-1.28,3.58s-.88,2.4-1.33,3.59-.79,2.1-1.2,3.14q-.78,2-1.59,4c-.33.83-.67,1.66-1,2.48l-.72,1.72-.72,1.68c-.42,1-.86,2-1.3,3q-.22.54-.48,1.08-.91,2-1.86,4.08c-.36.78-.72,1.57-1.11,2.35,0,0,0,0,0,0l-.12.25c-.11.24-.22.47-.34.71-.21.44-.42.87-.62,1.3-.41.84-.82,1.67-1.24,2.51l-1,2.08-.87,1.7s-.05.11-.08.16c-.44.86-.89,1.71-1.34,2.57q-1.81,3.44-3.72,6.84c-.59,1-1.18,2.1-1.79,3.14q-1.89,3.29-3.87,6.53c-.62,1-1.25,2-1.89,3.07-.52.84-1.05,1.67-1.58,2.5s-1.07,1.66-1.61,2.49l-1.17,1.79c-.58.87-1.16,1.74-1.75,2.61l-2,3c-.56.81-1.13,1.62-1.7,2.42q-3.48,4.93-7.16,9.72l-.43.56q-1.33,1.74-2.7,3.45-1.58,2-3.2,4c-.63.78-1.27,1.56-1.92,2.33-.37.45-.74.9-1.12,1.34-.82,1-1.64,1.93-2.47,2.88l-1.92,2.19h0l-1,1.15c-.9,1-1.81,2-2.71,3l-.28.3c-.49.53-1,1.07-1.48,1.6l-1.49,1.59-1.51,1.59c-.5.53-1,1.05-1.51,1.57-.12.14-.26.27-.39.41l-2.28,2.32-1,1-1.33,1.32c-.44.44-.88.88-1.33,1.31l-.65.64q-2.73,2.64-5.52,5.23l-.72.66-.48.44-.24.22-.26.23c-.69.65-1.4,1.28-2.11,1.91-1.09,1-2.18,2-3.29,2.91l-.11.1-.33.28-1.51,1.31-1.52,1.29q-1.71,1.45-3.45,2.88c-1.09.9-2.19,1.79-3.29,2.68l-.19.15-3.53,2.78-1.53,1.17q-1,.8-2,1.56c-1.14.87-2.29,1.72-3.45,2.57l-.16.12-.13.09-.25.19h0c-.64.48-1.29.94-1.93,1.4l-.57.41L573,638l-.5.35h0a0,0,0,0,0,0,0c-1,.69-1.95,1.37-2.94,2l-.86.59-.15.1c-1.09.75-2.19,1.48-3.3,2.21-.87.58-1.75,1.15-2.63,1.72s-1.76,1.14-2.65,1.7-1.77,1.11-2.66,1.66c-1.82,1.14-3.66,2.25-5.51,3.35l-2.59,1.51c-.91.54-1.82,1.06-2.74,1.57l-2.8,1.57-.23.13-1.8,1-.78.42c-.78.43-1.57.85-2.36,1.27l-.48.25-2.85,1.49-2.6,1.33-2.18,1.09-.43.21c-1.72.86-3.46,1.69-5.2,2.51l-2.2,1-.17.08-.62.28-2.27,1-.63.28-.28.13c-.29.12-.57.25-.86.39h0l-.37.16-.23.1h0l-2.36,1-2.36,1c-.48.21-1,.41-1.45.6h0a1.58,1.58,0,0,1-.27.12l-.28.12-1.56.64,0,0-2.74,1.1-2.71,1.06c-.95.37-1.89.73-2.84,1.08s-1.67.63-2.51.93c-2.33.86-4.67,1.68-7,2.48q-1.14.41-2.31.78l-.28.09-2.08.68-.79.26-.4.12q-.75.26-1.5.48l-1.9.59-2.95.89q-1.48.45-3,.87c-1,.29-2,.57-3,.84l-3,.81c-.72.2-1.44.38-2.16.57l-.16,0-.5.13-.69.17c-.87.23-1.73.44-2.6.65q-.3.09-.6.15c-.46.11-.91.23-1.37.33l-1.38.33q-3.18.75-6.37,1.43l-3.21.67-2.62.52c-.36.08-.72.15-1.09.21-.91.18-1.81.35-2.72.51l-3.24.58c-1.08.18-2.16.37-3.25.54l-2.37.37-.37.06-1.64.25-2,.29-.8.11-2,.28-2.26.29-.33,0-.66.09-4,.46c-1.12.13-2.25.25-3.38.36l-2,.19-2.78.25c-1.23.11-2.47.21-3.7.3q-4.47.35-9,.55l-3.71.16-3.43.11-1.51,0q-1.66,0-3.33.06c-1.39,0-2.77,0-4.16,0l-2.79,0h-.51l-2.37,0-2.09,0h-.07l-2-.06h-.4c-1.26,0-2.53-.08-3.79-.14H370c-.33,0-.64,0-1,0l-.28,0c-.92,0-1.83-.08-2.74-.14l-1.51-.08-1.29-.08h-.24c-.71,0-1.41-.09-2.11-.15l-1-.07q-2.09-.15-4.14-.33h-.08c-.67-.05-1.33-.11-2-.18l-2.47-.23-.31,0-.38,0-1-.11c-1.36-.14-2.73-.29-4.09-.46h-.2c-1.14-.13-2.26-.27-3.4-.42l-.49-.06-1.07-.14-.16,0-3.14-.44-.32-.05-2.35-.35-2.35-.36q-2.34-.37-4.68-.78l-2.07-.37-2.15-.39-2.17-.42-2.65-.53-.93-.19-.28-.06-2.46-.52-.62-.13-1.31-.29c-.9-.2-1.8-.4-2.7-.62-.45-.09-.89-.2-1.33-.3l-.54-.13-3.67-.89c-1.38-.34-2.75-.69-4.12-1.05l-3.63-1-.27-.08c-.9-.24-1.8-.49-2.69-.75l-1.65-.48-3.09-.91-3.76-1.16-1.81-.58-.38-.13-.61-.22h-.07l-.88-.28-.25-.08c-1-.33-2-.67-3-1h0l-.44-.15c-1.24-.42-2.47-.85-3.7-1.29s-2.46-.88-3.69-1.33l-3.54-1.33-.26-.1c-1.17-.45-2.33-.9-3.5-1.37-.89-.35-1.77-.7-2.66-1.07l-1.83-.75,0,0-1.12-.46-1.25-.53-.77-.33-.17-.07-2.22-1-.16-.07-.55-.24h0l-2.14-.95h0l-.5-.23-4-1.81-1.11-.52,0,0h0l-2.8-1.33-1-.48c-.69-.33-1.37-.67-2-1l-1.34-.66-1.35-.68-1.12-.57-.59-.3-2.92-1.53c-1.14-.6-2.27-1.2-3.4-1.82l-3.12-1.71-.26-.15q-1.36-.75-2.7-1.53l-.51-.29L219,652.83l-.36-.21-1.57-.93c-.84-.49-1.67-1-2.51-1.5l-.11-.07c-1-.61-2-1.23-3-1.86l-1.59-1c-1.39-.86-2.76-1.74-4.13-2.64-.74-.48-1.48-1-2.22-1.46-1-.65-2-1.33-3-2h0c-.13-.08-.25-.17-.37-.26l-.08,0-.46-.32c-.88-.59-1.74-1.2-2.6-1.8s-1.95-1.36-2.92-2.06l-.43-.31q-1.44-1-2.85-2.07l-1.69-1.24a0,0,0,0,1,0,0l-.85-.64h0l-.38-.29-.25-.19c-.82-.61-1.63-1.23-2.44-1.85l-.16-.12-.66-.51c-.45-.34-.89-.69-1.32-1l-1.32-1c-.9-.71-1.81-1.43-2.7-2.15l-.66-.54c-.79-.64-1.59-1.29-2.37-1.94l-.17-.14s0,0,0,0c-.82-.68-1.64-1.36-2.45-2l-.41-.34-.14-.12-2.15-1.85c-.78-.67-1.55-1.34-2.31-2L165.91,614l-.72-.66-2-1.86c-.78-.71-1.55-1.43-2.31-2.15l-1.63-1.54-2.44-2.35c-.54-.52-1.07-1-1.6-1.58s-1.18-1.16-1.77-1.76h0l-1.62-1.64c-.8-.81-1.59-1.62-2.38-2.45l-1.1-1.15q-2-2.14-4-4.33c-.67-.72-1.33-1.46-2-2.19s-1.32-1.47-2-2.21q-.44-.48-.84-1l-.84-1c-1.39-1.6-2.76-3.2-4.11-4.83q-.87-1-1.71-2.07a2.07,2.07,0,0,1-.14-.17c-.37-.43-.73-.88-1.08-1.32-.8-1-1.59-2-2.37-3s-1.56-2-2.33-3-1.49-1.93-2.22-2.91l-1.89-2.54c-.56-.76-1.11-1.52-1.66-2.29-.16-.22-.32-.43-.47-.65-.66-.91-1.31-1.82-2-2.74l-1.73-2.49-1.39-2c-.57-.85-1.15-1.7-1.71-2.56s-1.07-1.62-1.6-2.44l0,0-.26-.4-.88-1.37-.13-.21s0,0,0,0l0-.07c-.58-.91-1.15-1.82-1.72-2.73s-1.16-1.87-1.73-2.81c-.42-.69-.84-1.38-1.25-2.07l-.06-.1,0-.07c-.39-.64-.77-1.28-1.14-1.93s-.87-1.47-1.29-2.21-.92-1.61-1.38-2.41L101,532.58c-.44-.79-.87-1.58-1.3-2.37-.57-1.06-1.14-2.12-1.7-3.18q-1.67-3.15-3.24-6.34c-.54-1.09-1.07-2.17-1.6-3.27-.37-.77-.74-1.53-1.1-2.31-.11-.22-.21-.45-.32-.67-.57-1.21-1.12-2.42-1.68-3.63l-1.47-3.3c-.44-1-.88-2-1.3-3-.31-.71-.61-1.43-.91-2.15,0-.06,0-.11-.07-.17-.35-.84-.7-1.68-1-2.52l0-.08c-.43-1-.85-2.1-1.26-3.16l-.3-.75c-.41-1-.82-2.11-1.21-3.17s-.71-1.86-1-2.8l-.13-.37c0-.1-.08-.19-.11-.29s-.08-.19-.11-.29c-.33-.89-.64-1.79-1-2.69L79.78,485c-.18-.53-.37-1.06-.54-1.59-.05-.14-.1-.27-.14-.41-.25-.71-.49-1.43-.72-2.15-.13-.38-.26-.76-.38-1.14-.29-.86-.56-1.72-.84-2.59l-.18-.58c-.07-.21-.13-.42-.2-.63L76,473.43c-.21-.68-.41-1.36-.62-2L75,469.93c-.34-1.18-.67-2.35-1-3.53,0-.06,0-.12-.05-.18-.28-1-.55-2-.82-3l-.51-2c0-.06,0-.13,0-.19-.3-1.17-.6-2.34-.88-3.52s-.62-2.53-.9-3.8c-.09-.38-.18-.75-.26-1.13-.16-.67-.3-1.34-.45-2s-.29-1.35-.44-2c-.19-.9-.38-1.8-.56-2.71s-.37-1.84-.55-2.75l0-.17c-.05-.27-.1-.55-.16-.82l-.48-2.61s0-.08,0-.12c-.15-.81-.29-1.63-.43-2.45s-.34-2-.49-2.93l-.3-1.83c0-.11,0-.23,0-.34s0-.23-.05-.34v0c-.12-.76-.23-1.52-.34-2.28-.15-1-.28-2-.41-3-.09-.63-.18-1.25-.26-1.89l0-.25q-.18-1.36-.33-2.73c-.2-1.6-.38-3.21-.54-4.82l-.21-2.12,0-.3,0-.29c-.06-.65-.12-1.32-.17-2-.09-.93-.16-1.86-.23-2.79s-.13-1.72-.19-2.59-.1-1.46-.15-2.2a2.43,2.43,0,0,1,0-.27c-.07-1.1-.14-2.21-.19-3.32s-.11-2.28-.15-3.42-.08-2-.11-3.05c0-.46,0-.91,0-1.37Q63,389,63,385.2c0-1.35,0-2.69,0-4,0-1,0-2.06.05-3.09,0-.23,0-.47,0-.71l0-1c0-.31,0-.63,0-1,0-.77.05-1.55.08-2.33.05-1.33.11-2.67.18-4,.06-1.11.12-2.21.19-3.31l.09-1.39c.07-1.09.15-2.17.24-3.25s.16-2,.25-3c0-.47.08-.94.13-1.41l0-.32c.09-1,.18-1.94.29-2.91l.06-.59q.33-3.12.73-6.23c.09-.72.18-1.44.28-2.16.13-1,.27-2,.41-3s.25-1.7.38-2.55l0-.2s0-.08,0-.12c.08-.55.17-1.1.26-1.65.18-1.15.37-2.29.57-3.43l.06-.37c.16-1,.34-2,.52-2.94q.73-4.05,1.58-8.06c.27-1.25.54-2.49.82-3.73s.63-2.76,1-4.14.65-2.67,1-4l0-.11c.2-.8.41-1.6.62-2.39l.2-.77c.17-.65.35-1.29.52-1.93.08-.26.15-.52.22-.78.21-.77.42-1.54.64-2.31.33-1.15.66-2.3,1-3.44s.69-2.29,1-3.43c.09-.28.17-.55.26-.81l.54-1.72c.19-.58.37-1.15.56-1.72a.73.73,0,0,1,0-.14l0-.09c.11-.36.23-.71.35-1,.27-.84.55-1.69.84-2.52l.06-.17c.21-.63.42-1.25.64-1.87.42-1.21.85-2.42,1.29-3.62.26-.72.52-1.43.79-2.14.34-.94.7-1.88,1.06-2.82.1-.26.19-.51.3-.77.4-1.06.82-2.13,1.24-3.18l.69-1.71q.88-2.18,1.79-4.33l.27-.63c.07-.15.13-.31.2-.46l0-.07,0-.1c.21-.48.41-1,.63-1.45s.42-1,.64-1.45c.5-1.15,1-2.31,1.55-3.45.08-.19.17-.39.26-.58s.27-.59.41-.88.35-.76.53-1.14l.11-.23c.28-.61.56-1.21.85-1.81l.2-.41c.07-.16.14-.31.22-.47a.35.35,0,0,0,0-.09l1.06-2.17L95.17,249c.37-.74.73-1.48,1.11-2.21s.75-1.46,1.13-2.19q1.14-2.17,2.31-4.35c.39-.72.78-1.44,1.18-2.16l1.2-2.15c.4-.72.81-1.43,1.22-2.14.2-.36.4-.71.61-1.06s.41-.72.62-1.07q1.14-2,2.31-3.9a.75.75,0,0,0,.07-.12l.05-.08,1.14-1.87,1.2-1.94q2.44-3.91,5-7.75l0,0c.47-.71.94-1.42,1.42-2.12l.88-1.29.11-.16c.08-.13.16-.24.25-.36q.77-1.12,1.56-2.25c.08-.13.17-.25.26-.38l.29-.41c1.06-1.49,2.12-3,3.2-4.45l1.34-1.8,1.34-1.8c.93-1.23,1.86-2.45,2.81-3.66l1.08-1.38,1-1.23,0,0,0-.05,0,0,.26-.33.82-1c.84-1,1.68-2.07,2.53-3.1s1.88-2.27,2.84-3.4c.67-.78,1.33-1.56,2-2.33s1.35-1.55,2-2.32l1.44-1.63,2-2.19c.69-.77,1.4-1.53,2.1-2.29.85-.91,1.7-1.81,2.56-2.71l.35-.37q2.73-2.85,5.54-5.64l.55-.55.37-.37,1.8-1.76c1-.95,2-1.89,3-2.83l2.13-2,.85-.78.21-.19c.58-.56,1.17-1.09,1.76-1.62q1.62-1.47,3.27-2.92c.82-.73,1.64-1.45,2.47-2.16s1.59-1.38,2.4-2c.6-.52,1.2-1,1.82-1.53l.4-.34q2.78-2.31,5.61-4.56l1.22-1q.61-.49,1.23-1c.9-.71,1.82-1.41,2.73-2.11l0,0c.94-.71,1.87-1.41,2.82-2.11l.66-.49c.41-.31.82-.62,1.24-.91l.29-.21c.64-.48,1.28-.94,1.92-1.4s1.28-.92,1.93-1.38l.16-.12c1.34-1,2.7-1.89,4.06-2.82l.77-.53c1.36-.93,2.74-1.85,4.12-2.76l2.42-1.58,2.43-1.55c1.8-1.14,3.62-2.27,5.44-3.37l2.78-1.67q2.08-1.23,4.18-2.43c1.26-.72,2.53-1.44,3.8-2.14l1.05-.58.35-.19,0,0,2.4-1.31h0l.24-.13.28-.15.46-.24q2-1.09,4.11-2.16l2.44-1.24.23-.12,0,0,2.49-1.23,2.62-1.28c1.75-.85,3.52-1.67,5.29-2.48l2.29-1c1.4-.63,2.8-1.25,4.21-1.85l.42-.18q2.12-.91,4.26-1.8l3-1.22c.66-.28,1.33-.54,2-.8,1.82-.72,3.65-1.43,5.49-2.11.91-.35,1.83-.68,2.74-1,2.1-.77,4.2-1.51,6.32-2.23l2.85-1c.89-.29,1.79-.59,2.7-.87l2.16-.69,2.83-.87,2.85-.85,2.85-.82,2.87-.8L300,84q1-.27,2-.51l2.91-.74q1.53-.39,3.09-.75c.9-.22,1.81-.43,2.72-.63l.92-.21,1.8-.4.18,0,.14,0h.05c.89-.2,1.78-.39,2.68-.57l2.72-.56,2-.39.6-.11c1.14-.23,2.29-.44,3.44-.65l.45-.08,1.17-.21,2-.35,2.93-.48q1.86-.3,3.72-.57c1.07-.17,2.14-.32,3.22-.46l.45-.06.27,0,.36,0c1.23-.17,2.47-.33,3.71-.48l3.9-.46,3.05-.32,2.35-.23,3-.27,2.62-.22c1.6-.13,3.2-.24,4.8-.34l1.83-.11c1-.06,1.92-.11,2.89-.15,1.34-.07,2.69-.13,4-.18l3.49-.11,1.78,0,3,0c1.38,0,2.77,0,4.16,0s2.62,0,3.92,0l1.82,0h.66l1.42,0,1.28,0c.75,0,1.51,0,2.26.07.32,0,.63,0,.94,0l.95,0q1.41,0,2.82.12c1.25,0,2.49.12,3.73.19,1.55.09,3.09.2,4.63.31l1,.08c.95.07,1.89.14,2.82.23l1.41.12c1.27.11,2.54.23,3.8.36l2.25.23,2.08.23,1.94.23c.87.1,1.75.2,2.62.32.68.08,1.37.17,2,.27s1.42.19,2.13.3c.42,0,.83.11,1.25.18h0q.52.06,1,.15h.1q1.56.23,3.12.48l1,.16,3,.5,1.67.29,2.34.42L447,79c1.28.24,2.56.49,3.83.76.45.08.91.18,1.37.28l1.58.33,2.4.52.14,0c1.05.23,2.11.47,3.15.72q1.08.24,2.16.51l.33.08.28.06c.7.17,1.39.33,2.08.51l.23.06.09,0c.72.17,1.43.35,2.14.54l1.4.36,1.39.37,1.22.32.65.18c.73.19,1.45.39,2.18.6l.26.07,1.11.31c1.35.38,2.69.78,4,1.18q1.09.31,2.19.66l2.18.67,4.27,1.37.2.07.43.14c1,.34,2.06.69,3.09,1l2.35.82.45.16c.43.14.85.3,1.28.45l2.41.86c.72.27,1.44.53,2.16.81l1.8.67c1.67.64,3.34,1.29,5,2q2.86,1.14,5.7,2.34l2.43,1c1,.41,1.92.82,2.87,1.25l.7.31.35.16c1.16.52,2.33,1,3.48,1.58l2,.94,2,1,.23.11c1.35.65,2.69,1.3,4,2l.27.13,2.29,1.15.41.21.13.07,1,.51c1.23.63,2.45,1.26,3.66,1.91s2.23,1.19,3.33,1.79c.71.38,1.42.77,2.12,1.17.91.49,1.81,1,2.71,1.52l.34.19.2.11c.58.33,1.16.66,1.73,1l.79.46h0l1.13.66c.92.53,1.83,1.08,2.73,1.63l.54.32,1.39.85.39.23,1.77,1.09,1,.61,1.93,1.21c.64.4,1.27.82,1.91,1.23,1.28.82,2.54,1.65,3.8,2.49.72.47,1.44,1,2.15,1.45l.34.22.47.32.51.35,1.87,1.29,3.24,2.28.75.54.36.26.14.1c.43.31.87.62,1.29.94.9.65,1.79,1.31,2.68,2s1.49,1.11,2.23,1.68,1.34,1,2,1.54l.07,0,.52.4.2.15.44.35c.72.55,1.44,1.12,2.15,1.69l0,0,0,0,.3.24.13.11,1.55,1.24,1.53,1.24q1.89,1.53,3.75,3.09l.21.18,2,1.7,1.43,1.24c.85.73,1.7,1.47,2.54,2.23.59.51,1.18,1,1.76,1.57,1,.92,2,1.84,3.05,2.77l2.26,2.1.12.11,1.66,1.57c.83.79,1.64,1.58,2.46,2.38s1.84,1.8,2.75,2.71l.34.34.64.65.15.15c.65.65,1.29,1.31,1.93,2,.88.9,1.76,1.81,2.62,2.72l.91,1c.29.32.59.63.88.94s.59.62.87.94c.52.55,1,1.1,1.53,1.66.81.88,1.61,1.76,2.4,2.65.5.55,1,1.11,1.49,1.68s.84,1,1.25,1.43h0l.22.26c.88,1,1.76,2,2.63,3.06l1,1.16c.66.78,1.3,1.56,1.94,2.34.2.23.39.46.58.7.56.68,1.11,1.36,1.66,2,.44.54.88,1.09,1.31,1.64.73.92,1.46,1.84,2.17,2.77l.14.18.35.45c.81,1.06,1.62,2.12,2.42,3.19s1.78,2.39,2.65,3.59a4.27,4.27,0,0,1,.27.37l.3.42c.61.83,1.22,1.67,1.81,2.52l.68,1,0,.06c.54.76,1.07,1.51,1.59,2.28l.17.25c.4.58.8,1.15,1.18,1.73l.12.18,0,.05c.67,1,1.32,1.95,2,2.92s1.34,2,2,3c.21.34.43.68.65,1a1,1,0,0,1,.08.14h0c.15.23.3.47.44.71.44.69.88,1.38,1.31,2.08.67,1.08,1.34,2.15,2,3.24.41.66.81,1.33,1.21,2,.26.43.51.86.76,1.29.52.87,1,1.74,1.52,2.61.79,1.37,1.57,2.74,2.34,4.13a.16.16,0,0,1,0,.07c.44.79.88,1.58,1.31,2.38.23.41.45.82.67,1.24l.28.52c.45.84.89,1.68,1.33,2.52.1.19.2.38.29.57.52,1,1,1.94,1.51,2.92.3.59.6,1.18.89,1.77q.75,1.5,1.47,3c.32.64.63,1.29.93,1.93l0,.06.11.23c.37.76.73,1.53,1.08,2.29.63,1.34,1.24,2.68,1.84,4,.32.7.62,1.39.93,2.09s.61,1.4.91,2.1c.53,1.23,1.06,2.47,1.57,3.71.17.39.32.77.47,1.16.38.9.74,1.8,1.1,2.7.3.74.59,1.48.88,2.22.4,1,.8,2.07,1.19,3.11.45,1.2.9,2.4,1.33,3.6.27.74.55,1.49.8,2.24l.07.21v0c.24.66.47,1.32.7,2,.14.41.29.83.42,1.24.39,1.13.78,2.27,1.14,3.42a5.69,5.69,0,0,1,.18.54c.35,1.06.69,2.14,1,3.21l.84,2.72c.28.91.55,1.82.82,2.73.22.75.43,1.49.64,2.24.11.37.22.74.32,1.12s.2.75.31,1.12c.41,1.5.81,3,1.2,4.51s.77,3,1.14,4.53.67,2.83,1,4.24l.06.23,0,.12c0,.19.09.39.13.58q.94,4.27,1.79,8.59c.15.77.3,1.54.44,2.31.07.36.14.71.2,1.07h0c.08.41.15.82.22,1.24.19,1.09.38,2.17.56,3.26q.55,3.27,1,6.57c.2,1.45.4,2.89.59,4.34l0,.19c.13,1,.26,2.07.38,3.1,0,.06,0,.12,0,.18.16,1.31.3,2.62.44,3.93,0,.12,0,.24,0,.36.1,1,.19,1.9.28,2.86.14,1.56.28,3.12.4,4.68q.15,1.83.27,3.66c.07,1.06.13,2.12.19,3.18l.09,1.81a2.56,2.56,0,0,1,0,.28c0,.76.08,1.51.11,2.27,0,.21,0,.42,0,.63s0,.23,0,.34c0,.87.07,1.75.09,2.62v.11c0,.52,0,1,.05,1.54v0c0,1.16.05,2.33.06,3.49,0,1.34,0,2.69,0,4S706,387.89,706,389.23Z"/></svg>