<?xml version="1.0" encoding="utf-8"?>
<!-- Generator: Adobe Illustrator 21.1.0, SVG Export Plug-In . SVG Version: 6.00 Build 0)  -->
<svg version="1.1" id="Layer_1" xmlns="http://www.w3.org/2000/svg" xmlns:xlink="http://www.w3.org/1999/xlink" x="0px" y="0px"
	 viewBox="0 0 512 424.5" style="enable-background:new 0 0 512 424.5;" xml:space="preserve">
<style type="text/css">
	.st0{fill:#AFB9D2;}
	.st1{fill:#E1C3A0;}
	.st2{fill:#EBD2AF;}
	.st3{fill:#D29B6E;}
	.st4{fill:#707487;}
	.st5{fill:#5B5D6E;}
	.st6{fill:#694B4B;}
	.st7{fill:#F0C087;}
	.st8{fill:#F0DCBE;}
	.st9{fill:#C7CFE2;}
	.st10{fill:#959CB3;}
	.st11{fill:#C5D0E4;}
	.st12{fill:#FFFFFF;}
</style>
<title>deer-guy</title>
<path class="st0" d="M297,138.1h-82c-6.8,0-12.5,5.2-13.2,11.9l-7.6,76.4h123.6l-7.6-76.4C309.5,143.3,303.8,138.2,297,138.1z"/>
<rect x="12.7" y="221.4" class="st1" width="476.7" height="158.9"/>
<path class="st2" d="M21.5,221.4v194.2c0,4.9-4,8.8-8.8,8.8s-8.8-4-8.8-8.8l0,0V221.4H21.5z"/>
<path class="st2" d="M498.2,221.4v194.2c0,4.9-4,8.8-8.8,8.8c-4.9,0-8.8-4-8.8-8.8V221.4H498.2z"/>
<polygon class="st3" points="277.6,165.4 277.6,146.4 234.4,146.4 234.4,165.4 256,187.2 "/>
<path class="st4" d="M310.5,168.8l-29.4-6.6c-0.4-0.1-0.8-0.3-1.2-0.5L256,175l-22.9-13.9c-0.6,0.5-1.4,0.9-2.2,1.1l-29.4,6.6
	c-4.2,0.9-7.3,4.5-7.3,8.8v39.9c0.1,2.6,2.2,4.6,4.8,4.5h114c2.6,0.1,4.7-2,4.8-4.5v-39.9C317.7,173.4,314.7,169.7,310.5,168.8z"/>
<path class="st5" d="M300.4,185.2l15.4-13.2c1.3,1.6,2,3.6,2,5.6v39.9c-0.1,2.6-2.2,4.6-4.8,4.5h-16.6v-28.4
	C296.4,190.4,297.9,187.3,300.4,185.2z"/>
<path class="st5" d="M211.6,185.2L196.2,172c-1.3,1.6-2,3.6-2,5.6v39.9c0.1,2.6,2.2,4.6,4.8,4.5h16.6v-28.4
	C215.6,190.4,214.1,187.3,211.6,185.2z"/>
<polygon class="st5" points="261.9,222.1 250.1,222.1 251.5,174.9 260.5,174.9 "/>
<path class="st5" d="M234.3,156.4L256,175c-4.8,2.5-9.4,5.4-13.6,8.8c-1.4,1.1-3.3,0.8-4.4-0.5c-0.1-0.2-0.2-0.3-0.3-0.5l-10.2-21.4
	l3.2-4.6c0.8-1.1,2.3-1.3,3.4-0.5C234.2,156.3,234.2,156.3,234.3,156.4z"/>
<path class="st5" d="M277.7,156.4L256,175c4.8,2.5,9.4,5.4,13.6,8.8c1.4,1.1,3.3,0.8,4.4-0.5c0.1-0.2,0.2-0.3,0.3-0.5l10.2-21.4
	l-3.2-4.6c-0.8-1.1-2.3-1.3-3.4-0.5C277.8,156.3,277.8,156.3,277.7,156.4z"/>
<path class="st6" d="M264.8,67.5h-17.7c-14.6,0-26.5,11.9-26.5,26.5v0v19.2c0,4.7,1.9,9.2,5.2,12.5l3.7,3.7h53l3.7-3.7
	c3.3-3.3,5.2-7.8,5.2-12.5V94C291.3,79.4,279.5,67.5,264.8,67.5C264.8,67.5,264.8,67.5,264.8,67.5z"/>
<path class="st7" d="M228.6,113l1.1,25.4c0.2,3.9,2.1,7.6,5.2,10l9,6.9c2.2,1.7,5,2.7,7.8,2.7h8.7c2.8,0,5.6-0.9,7.8-2.7l9-6.9
	c3.1-2.4,5-6.1,5.2-10l1.1-25.4c0.5-8.9-6.4-16.5-15.3-17c-0.2,0-0.4,0-0.6,0h-23c-8.9,0.1-16.1,7.4-15.9,16.4
	C228.6,112.6,228.6,112.8,228.6,113z"/>
<path class="st8" d="M503.2,217.6H8.8c-4.9,0-8.8,4-8.8,8.8c0,0,0,0,0,0l0,0c0,4.9,4,8.8,8.8,8.8c0,0,0,0,0,0h494.3
	c4.9,0,8.8-4,8.8-8.8l0,0C512,221.5,508,217.6,503.2,217.6z"/>
<path class="st9" d="M441.4,217.6c-4.9,0-8.8-4-8.8-8.8v-67l-25-25c-3.3-3.3-7.8-5.2-12.5-5.2h-6.7v17.7c0,4.9-4,8.8-8.8,8.8
	c-4.9,0-8.8-4-8.8-8.8v-26.4c0-4.9,4-8.8,8.8-8.8c0,0,0,0,0,0h15.5c9.4,0,18.4,3.7,25,10.3l27.5,27.6c1.7,1.7,2.6,3.9,2.6,6.2v70.6
	C450.2,213.6,446.3,217.6,441.4,217.6C441.4,217.6,441.4,217.6,441.4,217.6z"/>
<path class="st0" d="M388.4,129.3h-17.6c-9.7,0-17.7,7.9-17.7,17.6c0,0,0,0,0,0v6.6c0,1.2,1,2.2,2.2,2.2h48.5c1.2,0,2.2-1,2.2-2.2
	V147C406.1,137.2,398.2,129.3,388.4,129.3C388.4,129.3,388.4,129.3,388.4,129.3z"/>
<path class="st0" d="M459,217.6h-61.8v-8.8c0-4.9,4-8.8,8.8-8.8h44.1c4.9,0,8.8,4,8.8,8.8L459,217.6L459,217.6z"/>
<circle class="st10" cx="379.6" cy="102.8" r="8.8"/>
<circle class="st10" cx="441.4" cy="138.1" r="8.8"/>
<path class="st4" d="M139,217.6H55.2c-1.2,0-2.2-1-2.2-2.2v-13.2c0-1.2,1-2.2,2.2-2.2c0,0,0,0,0,0H139c1.2,0,2.2,1,2.2,2.2v0v13.2
	C141.2,216.6,140.2,217.6,139,217.6z"/>
<path class="st0" d="M139,182.3H64c-1.2,0-2.2-1-2.2-2.2l0,0v-13.2c0-1.2,1-2.2,2.2-2.2h75c1.2,0,2.2,1,2.2,2.2v0v13.2
	C141.2,181.3,140.2,182.3,139,182.3z"/>
<path class="st9" d="M147.9,164.6H81.7c-1.2,0-2.2-1-2.2-2.2l0,0v-13.2c0-1.2,1-2.2,2.2-2.2h66.2c1.2,0,2.2,1,2.2,2.2v0v13.2
	C150.1,163.7,149.1,164.6,147.9,164.6z"/>
<path class="st9" d="M147.9,199.9h-75c-1.2,0-2.2-1-2.2-2.2l0,0v-13.2c0-1.2,1-2.2,2.2-2.2h0h75c1.2,0,2.2,1,2.2,2.2v0v13.2
	C150.1,199,149.1,199.9,147.9,199.9z"/>
<path class="st11" d="M368.5,217.6h-22.1c-1.2,0-2.2-1-2.2-2.2v-30.9c0-1.2,1-2.2,2.2-2.2h22.1c1.2,0,2.2,1,2.2,2.2v30.9
	C370.8,216.6,369.8,217.6,368.5,217.6L368.5,217.6z"/>
<path class="st0" d="M297,138.1h-82c-6.8,0-12.5,5.2-13.2,11.9l-7.6,76.4h123.6l-7.6-76.4C309.5,143.3,303.8,138.2,297,138.1z"/>
<rect x="12.7" y="221.4" class="st1" width="476.7" height="158.9"/>
<path class="st2" d="M21.5,221.4v194.2c0,4.9-4,8.8-8.8,8.8s-8.8-4-8.8-8.8l0,0V221.4H21.5z"/>
<path class="st2" d="M498.2,221.4v194.2c0,4.9-4,8.8-8.8,8.8c-4.9,0-8.8-4-8.8-8.8V221.4H498.2z"/>
<polygon class="st3" points="277.6,165.4 277.6,146.4 234.4,146.4 234.4,165.4 256,187.2 "/>
<path class="st4" d="M310.5,168.8l-29.4-6.6c-0.4-0.1-0.8-0.3-1.2-0.5L256,175l-22.9-13.9c-0.6,0.5-1.4,0.9-2.2,1.1l-29.4,6.6
	c-4.2,0.9-7.3,4.5-7.3,8.8v39.9c0.1,2.6,2.2,4.6,4.8,4.5h114c2.6,0.1,4.7-2,4.8-4.5v-39.9C317.7,173.4,314.7,169.7,310.5,168.8z"/>
<path class="st5" d="M300.4,185.2l15.4-13.2c1.3,1.6,2,3.6,2,5.6v39.9c-0.1,2.6-2.2,4.6-4.8,4.5h-16.6v-28.4
	C296.4,190.4,297.9,187.3,300.4,185.2z"/>
<path class="st5" d="M211.6,185.2L196.2,172c-1.3,1.6-2,3.6-2,5.6v39.9c0.1,2.6,2.2,4.6,4.8,4.5h16.6v-28.4
	C215.6,190.4,214.1,187.3,211.6,185.2z"/>
<polygon class="st5" points="261.9,222.1 250.1,222.1 251.5,174.9 260.5,174.9 "/>
<path class="st5" d="M234.3,156.4L256,175c-4.8,2.5-9.4,5.4-13.6,8.8c-1.4,1.1-3.3,0.8-4.4-0.5c-0.1-0.2-0.2-0.3-0.3-0.5l-10.2-21.4
	l3.2-4.6c0.8-1.1,2.3-1.3,3.4-0.5C234.2,156.3,234.2,156.3,234.3,156.4z"/>
<path class="st5" d="M277.7,156.4L256,175c4.8,2.5,9.4,5.4,13.6,8.8c1.4,1.1,3.3,0.8,4.4-0.5c0.1-0.2,0.2-0.3,0.3-0.5l10.2-21.4
	l-3.2-4.6c-0.8-1.1-2.3-1.3-3.4-0.5C277.8,156.3,277.8,156.3,277.7,156.4z"/>
<path class="st6" d="M264.8,67.5h-17.7c-14.6,0-26.5,11.9-26.5,26.5v0v19.2c0,4.7,1.9,9.2,5.2,12.5l3.7,3.7h53l3.7-3.7
	c3.3-3.3,5.2-7.8,5.2-12.5V94C291.3,79.4,279.5,67.5,264.8,67.5C264.8,67.5,264.8,67.5,264.8,67.5z"/>
<path class="st7" d="M228.6,113l1.1,25.4c0.2,3.9,2.1,7.6,5.2,10l9,6.9c2.2,1.7,5,2.7,7.8,2.7h8.7c2.8,0,5.6-0.9,7.8-2.7l9-6.9
	c3.1-2.4,5-6.1,5.2-10l1.1-25.4c0.5-8.9-6.4-16.5-15.3-17c-0.2,0-0.4,0-0.6,0h-23c-8.9,0.1-16.1,7.4-15.9,16.4
	C228.6,112.6,228.6,112.8,228.6,113z"/>
<path class="st8" d="M503.2,217.6H8.8c-4.9,0-8.8,4-8.8,8.8c0,0,0,0,0,0l0,0c0,4.9,4,8.8,8.8,8.8c0,0,0,0,0,0h494.3
	c4.9,0,8.8-4,8.8-8.8l0,0C512,221.5,508,217.6,503.2,217.6z"/>
<path class="st9" d="M441.4,217.6c-4.9,0-8.8-4-8.8-8.8v-67l-25-25c-3.3-3.3-7.8-5.2-12.5-5.2h-6.7v17.7c0,4.9-4,8.8-8.8,8.8
	c-4.9,0-8.8-4-8.8-8.8v-26.4c0-4.9,4-8.8,8.8-8.8c0,0,0,0,0,0h15.5c9.4,0,18.4,3.7,25,10.3l27.5,27.6c1.7,1.7,2.6,3.9,2.6,6.2v70.6
	C450.2,213.6,446.3,217.6,441.4,217.6C441.4,217.6,441.4,217.6,441.4,217.6z"/>
<path class="st0" d="M388.4,129.3h-17.6c-9.7,0-17.7,7.9-17.7,17.6c0,0,0,0,0,0v6.6c0,1.2,1,2.2,2.2,2.2h48.5c1.2,0,2.2-1,2.2-2.2
	V147C406.1,137.2,398.2,129.3,388.4,129.3C388.4,129.3,388.4,129.3,388.4,129.3z"/>
<path class="st0" d="M459,217.6h-61.8v-8.8c0-4.9,4-8.8,8.8-8.8h44.1c4.9,0,8.8,4,8.8,8.8L459,217.6L459,217.6z"/>
<circle class="st10" cx="379.6" cy="102.8" r="8.8"/>
<circle class="st10" cx="441.4" cy="138.1" r="8.8"/>
<path class="st4" d="M139,217.6H55.2c-1.2,0-2.2-1-2.2-2.2v-13.2c0-1.2,1-2.2,2.2-2.2c0,0,0,0,0,0H139c1.2,0,2.2,1,2.2,2.2v0v13.2
	C141.2,216.6,140.2,217.6,139,217.6z"/>
<path class="st0" d="M139,182.3H64c-1.2,0-2.2-1-2.2-2.2l0,0v-13.2c0-1.2,1-2.2,2.2-2.2h75c1.2,0,2.2,1,2.2,2.2v0v13.2
	C141.2,181.3,140.2,182.3,139,182.3z"/>
<path class="st9" d="M147.9,164.6H81.7c-1.2,0-2.2-1-2.2-2.2l0,0v-13.2c0-1.2,1-2.2,2.2-2.2h66.2c1.2,0,2.2,1,2.2,2.2v0v13.2
	C150.1,163.7,149.1,164.6,147.9,164.6z"/>
<path class="st9" d="M147.9,199.9h-75c-1.2,0-2.2-1-2.2-2.2l0,0v-13.2c0-1.2,1-2.2,2.2-2.2h0h75c1.2,0,2.2,1,2.2,2.2v0v13.2
	C150.1,199,149.1,199.9,147.9,199.9z"/>
<path class="st11" d="M368.5,217.6h-22.1c-1.2,0-2.2-1-2.2-2.2v-30.9c0-1.2,1-2.2,2.2-2.2h22.1c1.2,0,2.2,1,2.2,2.2v30.9
	C370.8,216.6,369.8,217.6,368.5,217.6L368.5,217.6z"/>
<path class="st12" d="M246.7,84.5c-3.9,0-7.5-0.7-8-1.6s-5.2-2.8-10.5-4.4l-50.8-14.7c-5.3-1.5-9.2-3.4-8.8-4.2s0.8-1.5,0.8-1.5
	s2.1-4,4.7-8.8l6-11.2c2.6-4.8,4.1-4.3,3.4,1.1l-0.9,6.3c-0.6,5.6,2.8,10.9,8.2,12.7l30.9,8.9c5.3,1.5,7.4-1.1,4.6-5.9L208,29.1
	c-2.7-4.8-4.1-9.2-3.1-9.8s1.9-1.1,1.9-1.1s3.9-2.3,8.6-5l20-11.6c4.8-2.8,5.5-1.8,1.7,2.2l-11.7,11.9c-3.8,3.9-4.8,11.1-2,15.8
	l25.3,44.3C251.6,80.6,250.6,84.5,246.7,84.5z"/>
<path class="st12" d="M246.4,21.1c1.9-5.2,0.2-6.2-3.6-2.3l-8.5,8.7c-3.8,3.9-5,10.6-2.6,14.7s5.9,3.3,7.7-1.8L246.4,21.1z"/>
<path class="st12" d="M202.7,44.5c-2.3-5-4.9-4.6-5.6,0.9l-0.4,3.1c-0.7,5.4,2.3,10.9,6.7,12.2s6.1-1.8,3.8-6.8L202.7,44.5z"/>
<path class="st12" d="M342.7,59.7c0.4,0.8-3.5,2.7-8.8,4.2l-50.8,14.7c-5.3,1.5-10,3.5-10.5,4.4s-4.1,1.6-8,1.6s-4.8-3.9-2.1-8.7
	l25.3-44.3c2.7-5.2,1.9-11.4-2-15.8L274.1,3.9C270.3,0,271-1,275.8,1.7l20,11.6c4.8,2.8,8.7,5,8.6,5s0.8,0.5,1.9,1.1s-0.3,5-3.1,9.8
	l-18.5,32.3c-2.7,4.8-0.6,7.4,4.6,5.9l30.9-8.9c5.4-1.7,8.9-7,8.2-12.7l-0.9-6.3c-0.8-5.4,0.8-5.9,3.4-1.1l6,11.2
	c2.6,4.8,4.7,8.8,4.7,8.8C341.9,58.2,342.3,58.9,342.7,59.7z"/>
<path class="st12" d="M265,21.1c-1.9-5.2-0.2-6.2,3.6-2.3l8.5,8.7c3.8,3.9,5,10.6,2.6,14.7s-5.9,3.3-7.7-1.8L265,21.1z"/>
<path class="st12" d="M308.7,44.5c2.3-5,4.9-4.6,5.6,0.9l0.4,3.1c0.7,5.4-2.3,10.9-6.7,12.2s-6.1-1.8-3.8-6.8L308.7,44.5z"/>
</svg>
