<svg id="Layer_1" data-name="Layer 1" xmlns="http://www.w3.org/2000/svg" viewBox="0 0 512 424.46"><defs><style>.cls-1{fill:#afb9d2;}.cls-2{fill:#e1c3a0;}.cls-3{fill:#ebd2af;}.cls-4{fill:#d29b6e;}.cls-5{fill:#707487;}.cls-6{fill:#5b5d6e;}.cls-7{fill:#694b4b;}.cls-8{fill:#f0c087;}.cls-9{fill:#f0dcbe;}.cls-10{fill:#c7cfe2;}.cls-11{fill:#959cb3;}.cls-12{fill:#c5d0e4;}.cls-13{fill:#71a6d2;}</style></defs><title>deer-guy</title><path class="cls-1" d="M297,138.14H215a13.24,13.24,0,0,0-13.18,11.92l-7.64,76.35H317.79l-7.64-76.35A13.24,13.24,0,0,0,297,138.14Z"/><rect class="cls-2" x="12.66" y="221.42" width="476.69" height="158.9"/><path class="cls-3" d="M21.48,221.42V415.63a8.82,8.82,0,1,1-17.65,0V221.42Z"/><path class="cls-3" d="M498.17,221.42V415.63a8.82,8.82,0,1,1-17.65,0V221.42Z"/><polygon class="cls-4" points="277.6 165.41 277.6 146.38 234.4 146.38 234.4 165.41 256 187.16 277.6 165.41"/><path class="cls-5" d="M310.46,168.84l-29.41-6.6a4.83,4.83,0,0,1-1.23-.47L256,175l-22.89-13.88a4.81,4.81,0,0,1-2.16,1.11l-29.41,6.6a9.16,9.16,0,0,0-7.33,8.82v39.93a4.65,4.65,0,0,0,4.75,4.53H313a4.65,4.65,0,0,0,4.75-4.53V177.66A9.17,9.17,0,0,0,310.46,168.84Z"/><path class="cls-6" d="M300.35,185.24,315.75,172a8.78,8.78,0,0,1,2,5.62v39.93a4.65,4.65,0,0,1-4.75,4.53H296.4V193.66A11.1,11.1,0,0,1,300.35,185.24Z"/><path class="cls-6" d="M211.65,185.24,196.25,172a8.78,8.78,0,0,0-2,5.62v39.93a4.65,4.65,0,0,0,4.75,4.53H215.6V193.66A11.1,11.1,0,0,0,211.65,185.24Z"/><polygon class="cls-6" points="261.94 222.12 250.06 222.12 251.54 174.94 260.46 174.94 261.94 222.12"/><path class="cls-6" d="M234.28,156.38,256,175a82.42,82.42,0,0,0-13.59,8.83,3.13,3.13,0,0,1-4.72-1l-10.21-21.4,3.23-4.62A2.45,2.45,0,0,1,234.28,156.38Z"/><path class="cls-6" d="M277.72,156.38,256,175a82.42,82.42,0,0,1,13.59,8.83,3.13,3.13,0,0,0,4.72-1l10.21-21.4-3.23-4.62A2.45,2.45,0,0,0,277.72,156.38Z"/><path class="cls-7" d="M264.83,67.52H247.17A26.48,26.48,0,0,0,220.69,94v19.17a17.66,17.66,0,0,0,5.17,12.48l3.66,3.66h53l3.66-3.66a17.65,17.65,0,0,0,5.17-12.48V94A26.49,26.49,0,0,0,264.83,67.52Z"/><path class="cls-8" d="M228.58,113l1.13,25.45a13.39,13.39,0,0,0,5.19,10l9,6.87a12.82,12.82,0,0,0,7.8,2.66h8.67a12.83,12.83,0,0,0,7.8-2.66l9-6.87a13.39,13.39,0,0,0,5.19-10L283.42,113A16.15,16.15,0,0,0,267.5,96h-23A16.15,16.15,0,0,0,228.58,113Z"/><path class="cls-9" d="M503.17,217.59H8.83A8.83,8.83,0,0,0,0,226.42H0a8.83,8.83,0,0,0,8.83,8.83H503.17a8.83,8.83,0,0,0,8.83-8.83h0A8.83,8.83,0,0,0,503.17,217.59Z"/><path class="cls-10" d="M441.38,217.59a8.83,8.83,0,0,1-8.83-8.83v-67l-25-25a17.56,17.56,0,0,0-12.49-5.17h-6.69v17.66a8.83,8.83,0,0,1-17.66,0V102.83A8.83,8.83,0,0,1,379.58,94H395.1a35.11,35.11,0,0,1,25,10.34l27.55,27.56a8.83,8.83,0,0,1,2.59,6.24v70.62A8.83,8.83,0,0,1,441.38,217.59Z"/><path class="cls-1" d="M388.41,129.32H370.76A17.65,17.65,0,0,0,353.1,147v6.62a2.21,2.21,0,0,0,2.21,2.21h48.55a2.21,2.21,0,0,0,2.21-2.21V147A17.66,17.66,0,0,0,388.41,129.32Z"/><path class="cls-1" d="M459,217.59H397.24v-8.83a8.83,8.83,0,0,1,8.83-8.83h44.14a8.83,8.83,0,0,1,8.83,8.83v8.83Z"/><circle class="cls-11" cx="379.59" cy="102.83" r="8.83"/><circle class="cls-11" cx="441.38" cy="138.14" r="8.83"/><path class="cls-5" d="M139,217.59H55.17A2.21,2.21,0,0,1,53,215.39V202.14a2.21,2.21,0,0,1,2.21-2.21H139a2.21,2.21,0,0,1,2.21,2.21v13.24A2.21,2.21,0,0,1,139,217.59Z"/><path class="cls-1" d="M139,182.28H64a2.21,2.21,0,0,1-2.21-2.21V166.83A2.21,2.21,0,0,1,64,164.63h75a2.21,2.21,0,0,1,2.21,2.21v13.24A2.21,2.21,0,0,1,139,182.28Z"/><path class="cls-10" d="M147.86,164.63H81.65a2.21,2.21,0,0,1-2.21-2.21V149.18A2.21,2.21,0,0,1,81.65,147h66.21a2.21,2.21,0,0,1,2.21,2.21v13.24A2.21,2.21,0,0,1,147.86,164.63Z"/><path class="cls-10" d="M147.86,199.94h-75a2.21,2.21,0,0,1-2.21-2.21V184.49a2.21,2.21,0,0,1,2.21-2.21h75a2.21,2.21,0,0,1,2.21,2.21v13.24A2.21,2.21,0,0,1,147.86,199.94Z"/><path class="cls-12" d="M368.55,217.59H346.48a2.21,2.21,0,0,1-2.21-2.21v-30.9a2.21,2.21,0,0,1,2.21-2.21h22.07a2.21,2.21,0,0,1,2.21,2.21v30.9A2.21,2.21,0,0,1,368.55,217.59Z"/><path class="cls-1" d="M297,138.14H215a13.24,13.24,0,0,0-13.18,11.92l-7.64,76.35H317.79l-7.64-76.35A13.24,13.24,0,0,0,297,138.14Z"/><rect class="cls-2" x="12.66" y="221.42" width="476.69" height="158.9"/><path class="cls-3" d="M21.48,221.42V415.63a8.82,8.82,0,1,1-17.65,0V221.42Z"/><path class="cls-3" d="M498.17,221.42V415.63a8.82,8.82,0,1,1-17.65,0V221.42Z"/><polygon class="cls-4" points="277.6 165.41 277.6 146.38 234.4 146.38 234.4 165.41 256 187.16 277.6 165.41"/><path class="cls-5" d="M310.46,168.84l-29.41-6.6a4.83,4.83,0,0,1-1.23-.47L256,175l-22.89-13.88a4.81,4.81,0,0,1-2.16,1.11l-29.41,6.6a9.16,9.16,0,0,0-7.33,8.82v39.93a4.65,4.65,0,0,0,4.75,4.53H313a4.65,4.65,0,0,0,4.75-4.53V177.66A9.17,9.17,0,0,0,310.46,168.84Z"/><path class="cls-6" d="M300.35,185.24,315.75,172a8.78,8.78,0,0,1,2,5.62v39.93a4.65,4.65,0,0,1-4.75,4.53H296.4V193.66A11.1,11.1,0,0,1,300.35,185.24Z"/><path class="cls-6" d="M211.65,185.24,196.25,172a8.78,8.78,0,0,0-2,5.62v39.93a4.65,4.65,0,0,0,4.75,4.53H215.6V193.66A11.1,11.1,0,0,0,211.65,185.24Z"/><polygon class="cls-6" points="261.94 222.12 250.06 222.12 251.54 174.94 260.46 174.94 261.94 222.12"/><path class="cls-6" d="M234.28,156.38,256,175a82.42,82.42,0,0,0-13.59,8.83,3.13,3.13,0,0,1-4.72-1l-10.21-21.4,3.23-4.62A2.45,2.45,0,0,1,234.28,156.38Z"/><path class="cls-6" d="M277.72,156.38,256,175a82.42,82.42,0,0,1,13.59,8.83,3.13,3.13,0,0,0,4.72-1l10.21-21.4-3.23-4.62A2.45,2.45,0,0,0,277.72,156.38Z"/><path class="cls-7" d="M264.83,67.52H247.17A26.48,26.48,0,0,0,220.69,94v19.17a17.66,17.66,0,0,0,5.17,12.48l3.66,3.66h53l3.66-3.66a17.65,17.65,0,0,0,5.17-12.48V94A26.49,26.49,0,0,0,264.83,67.52Z"/><path class="cls-8" d="M228.58,113l1.13,25.45a13.39,13.39,0,0,0,5.19,10l9,6.87a12.82,12.82,0,0,0,7.8,2.66h8.67a12.83,12.83,0,0,0,7.8-2.66l9-6.87a13.39,13.39,0,0,0,5.19-10L283.42,113A16.15,16.15,0,0,0,267.5,96h-23A16.15,16.15,0,0,0,228.58,113Z"/><path class="cls-9" d="M503.17,217.59H8.83A8.83,8.83,0,0,0,0,226.42H0a8.83,8.83,0,0,0,8.83,8.83H503.17a8.83,8.83,0,0,0,8.83-8.83h0A8.83,8.83,0,0,0,503.17,217.59Z"/><path class="cls-10" d="M441.38,217.59a8.83,8.83,0,0,1-8.83-8.83v-67l-25-25a17.56,17.56,0,0,0-12.49-5.17h-6.69v17.66a8.83,8.83,0,0,1-17.66,0V102.83A8.83,8.83,0,0,1,379.58,94H395.1a35.11,35.11,0,0,1,25,10.34l27.55,27.56a8.83,8.83,0,0,1,2.59,6.24v70.62A8.83,8.83,0,0,1,441.38,217.59Z"/><path class="cls-1" d="M388.41,129.32H370.76A17.65,17.65,0,0,0,353.1,147v6.62a2.21,2.21,0,0,0,2.21,2.21h48.55a2.21,2.21,0,0,0,2.21-2.21V147A17.66,17.66,0,0,0,388.41,129.32Z"/><path class="cls-1" d="M459,217.59H397.24v-8.83a8.83,8.83,0,0,1,8.83-8.83h44.14a8.83,8.83,0,0,1,8.83,8.83v8.83Z"/><circle class="cls-11" cx="379.59" cy="102.83" r="8.83"/><circle class="cls-11" cx="441.38" cy="138.14" r="8.83"/><path class="cls-5" d="M139,217.59H55.17A2.21,2.21,0,0,1,53,215.39V202.14a2.21,2.21,0,0,1,2.21-2.21H139a2.21,2.21,0,0,1,2.21,2.21v13.24A2.21,2.21,0,0,1,139,217.59Z"/><path class="cls-1" d="M139,182.28H64a2.21,2.21,0,0,1-2.21-2.21V166.83A2.21,2.21,0,0,1,64,164.63h75a2.21,2.21,0,0,1,2.21,2.21v13.24A2.21,2.21,0,0,1,139,182.28Z"/><path class="cls-10" d="M147.86,164.63H81.65a2.21,2.21,0,0,1-2.21-2.21V149.18A2.21,2.21,0,0,1,81.65,147h66.21a2.21,2.21,0,0,1,2.21,2.21v13.24A2.21,2.21,0,0,1,147.86,164.63Z"/><path class="cls-10" d="M147.86,199.94h-75a2.21,2.21,0,0,1-2.21-2.21V184.49a2.21,2.21,0,0,1,2.21-2.21h75a2.21,2.21,0,0,1,2.21,2.21v13.24A2.21,2.21,0,0,1,147.86,199.94Z"/><path class="cls-12" d="M368.55,217.59H346.48a2.21,2.21,0,0,1-2.21-2.21v-30.9a2.21,2.21,0,0,1,2.21-2.21h22.07a2.21,2.21,0,0,1,2.21,2.21v30.9A2.21,2.21,0,0,1,368.55,217.59Z"/><path class="cls-13" d="M246.7,84.49c-3.9,0-7.5-.7-8-1.6s-5.2-2.8-10.5-4.4l-50.8-14.7c-5.3-1.5-9.2-3.4-8.8-4.2s.8-1.5.8-1.5,2.1-4,4.7-8.8l6-11.2c2.6-4.8,4.1-4.3,3.4,1.1l-.9,6.3a12,12,0,0,0,8.2,12.7l30.9,8.9c5.3,1.5,7.4-1.1,4.6-5.9L208,29.09c-2.7-4.8-4.1-9.2-3.1-9.8s1.9-1.1,1.9-1.1,3.9-2.3,8.6-5l20-11.6c4.8-2.8,5.5-1.8,1.7,2.2l-11.7,11.9c-3.8,3.9-4.8,11.1-2,15.8l25.3,44.3C251.6,80.59,250.6,84.49,246.7,84.49Z"/><path class="cls-13" d="M246.4,21.09c1.9-5.2.2-6.2-3.6-2.3l-8.5,8.7c-3.8,3.9-5,10.6-2.6,14.7s5.9,3.3,7.7-1.8Z"/><path class="cls-13" d="M202.7,44.49c-2.3-5-4.9-4.6-5.6.9l-.4,3.1c-.7,5.4,2.3,10.9,6.7,12.2s6.1-1.8,3.8-6.8Z"/><path class="cls-13" d="M342.7,59.69c.4.8-3.5,2.7-8.8,4.2l-50.8,14.7c-5.3,1.5-10,3.5-10.5,4.4s-4.1,1.6-8,1.6-4.8-3.9-2.1-8.7l25.3-44.3a14.12,14.12,0,0,0-2-15.8L274.1,3.89C270.3,0,271-1,275.8,1.69l20,11.6c4.8,2.8,8.7,5,8.6,5s.8.5,1.9,1.1-.3,5-3.1,9.8l-18.5,32.3c-2.7,4.8-.6,7.4,4.6,5.9l30.9-8.9a11.81,11.81,0,0,0,8.2-12.7l-.9-6.3c-.8-5.4.8-5.9,3.4-1.1l6,11.2c2.6,4.8,4.7,8.8,4.7,8.8C341.9,58.19,342.3,58.89,342.7,59.69Z"/><path class="cls-13" d="M265,21.09c-1.9-5.2-.2-6.2,3.6-2.3l8.5,8.7c3.8,3.9,5,10.6,2.6,14.7s-5.9,3.3-7.7-1.8Z"/><path class="cls-13" d="M308.7,44.49c2.3-5,4.9-4.6,5.6.9l.4,3.1c.7,5.4-2.3,10.9-6.7,12.2s-6.1-1.8-3.8-6.8Z"/></svg>