<svg id="Layer_1" data-name="Layer 1" xmlns="http://www.w3.org/2000/svg" viewBox="0 0 49.04 32.84"><defs><style>.cls-1{fill:#5869a7;}</style></defs><title>footprint</title><g id="grzHuT.tif"><path class="cls-1" d="M47.94,3.72a7.42,7.42,0,0,0-3.4-2.2A30.61,30.61,0,0,0,33.24,0a33.94,33.94,0,0,0-7.8.9,17,17,0,0,0-9.2,5.8c-1.7,2.2-1.7,4.8.1,6.5a5.58,5.58,0,0,0,3.7,1.5,14.13,14.13,0,0,0,10.7-3.9,19,19,0,0,1,7.8-4.4c2.9-.9,5.8-1.7,8.7-2.5A2.54,2.54,0,0,0,47.94,3.72Z"/><path class="cls-1" d="M48.74,8.32c-1.7.8-3.5,1.7-5.2,2.5-2.2.9-4.4,2-6.6,2.7a20.7,20.7,0,0,1-4.9.7,17.46,17.46,0,0,0-10.8,3.5,9.58,9.58,0,0,0-2,2.5c-1.3,2.5.1,5.3,3,6.1a15.87,15.87,0,0,0,7.5-.2c5.1-1.1,8.9-4.2,12.6-7.6,2.5-2.3,4.9-4.8,6.2-8a13.32,13.32,0,0,0,.5-1.9Q48.89,8.32,48.74,8.32Z"/><path class="cls-1" d="M7,17.82a3,3,0,0,0,.3-3.6c-.8-1.4-1.6-2.8-3.5-2.9-1.7-.1-3,.4-3.5,2.1a13.52,13.52,0,0,0-.3,4,2.62,2.62,0,0,0,3.1,2.3A4.53,4.53,0,0,0,7,17.82Z"/><path class="cls-1" d="M7,32.52a9.69,9.69,0,0,0,2.3.3,4.15,4.15,0,0,0,3.8-5.1c-.1-.3-.1-.6-.3-.8a5.68,5.68,0,0,0-5.4-1.6,2.84,2.84,0,0,0-1.1.8C4.94,27.52,5.34,31,7,32.52Z"/></g></svg>