<?xml version="1.0" encoding="utf-8"?>
<!-- Generator: Adobe Illustrator 21.1.0, SVG Export Plug-In . SVG Version: 6.00 Build 0)  -->
<svg version="1.1" id="Layer_1" xmlns="http://www.w3.org/2000/svg" xmlns:xlink="http://www.w3.org/1999/xlink" x="0px" y="0px"
	 viewBox="0 0 49 32.8" style="enable-background:new 0 0 49 32.8;" xml:space="preserve">
<style type="text/css">
	.st0{fill:#D7D9DD;}
</style>
<title>footprint</title>
<g id="grzHuT.tif">
	<path class="st0" d="M47.9,3.7c-0.9-1-2.1-1.8-3.4-2.2C40.9,0.3,37.1-0.2,33.2,0c-2.6,0-5.2,0.3-7.8,0.9c-3.6,0.9-6.9,2.9-9.2,5.8
		c-1.7,2.2-1.7,4.8,0.1,6.5c1,0.9,2.3,1.5,3.7,1.5c4,0.3,7.8-1.2,10.7-3.9c2.2-2.1,4.9-3.6,7.8-4.4c2.9-0.9,5.8-1.7,8.7-2.5
		C47.5,3.9,47.7,3.8,47.9,3.7z"/>
	<path class="st0" d="M48.7,8.3c-1.7,0.8-3.5,1.7-5.2,2.5c-2.2,0.9-4.4,2-6.6,2.7c-1.6,0.4-3.2,0.7-4.9,0.7
		c-3.9-0.1-7.7,1.2-10.8,3.5c-0.8,0.7-1.5,1.6-2,2.5c-1.3,2.5,0.1,5.3,3,6.1c2.5,0.5,5.1,0.5,7.5-0.2c5.1-1.1,8.9-4.2,12.6-7.6
		c2.5-2.3,4.9-4.8,6.2-8c0.2-0.6,0.4-1.3,0.5-1.9C48.9,8.4,48.8,8.3,48.7,8.3z"/>
	<path class="st0" d="M7,17.8c0.9-1,1-2.5,0.3-3.6c-0.8-1.4-1.6-2.8-3.5-2.9c-1.7-0.1-3,0.4-3.5,2.1c-0.3,1.3-0.4,2.7-0.3,4
		c0.2,1.4,1.4,2.5,2.9,2.3c0.1,0,0.1,0,0.2,0C4.6,19.8,6.1,19.1,7,17.8z"/>
	<path class="st0" d="M7,32.5c0.8,0.2,1.5,0.3,2.3,0.3c2.3-0.1,4-2.1,3.9-4.4c0-0.2,0-0.5-0.1-0.7c-0.1-0.3-0.1-0.6-0.3-0.8
		c-1.4-1.5-3.4-2.1-5.4-1.6c-0.4,0.2-0.8,0.4-1.1,0.8C4.9,27.5,5.3,31,7,32.5z"/>
</g>
</svg>
