<?xml version="1.0" encoding="utf-8"?>
<!-- Generator: Adobe Illustrator 21.1.0, SVG Export Plug-In . SVG Version: 6.00 Build 0)  -->
<svg version="1.1" id="Layer_1" xmlns:sketch="http://www.bohemiancoding.com/sketch/ns"
	 xmlns="http://www.w3.org/2000/svg" xmlns:xlink="http://www.w3.org/1999/xlink" x="0px" y="0px" viewBox="0 0 25 25"
	 style="enable-background:new 0 0 25 25;" xml:space="preserve">
<style type="text/css">
	.st0{fill:#4285F4;}
	.st1{fill:#34A853;}
	.st2{fill:#FBBC05;}
	.st3{fill:#EA4335;}
	.st4{fill:none;}
</style>
<title>btn_google_light_normal_ios</title>
<desc>Created with Sketch.</desc>
<g id="_x39_-PATCH" transform="translate(-608.000000, -160.000000)" sketch:type="MSArtboardGroup">
</g>
<g id="logo_googleg_48dp" transform="translate(15.000000, 15.000000)" sketch:type="MSLayerGroup">
	<path id="Shape" sketch:type="MSShapeGroup" class="st0" d="M9.5-2.2c0-0.9-0.1-1.7-0.2-2.6H-2.5v4.8h6.7C4,1.6,3.1,3,1.8,3.9V7h4
		C8.2,4.8,9.5,1.6,9.5-2.2L9.5-2.2z"/>
	<path id="Shape_1_" sketch:type="MSShapeGroup" class="st1" d="M-2.5,10c3.4,0,6.2-1.1,8.3-3l-4-3.1C0.6,4.6-0.8,5.1-2.5,5.1
		c-3.3,0-6-2.2-7-5.2h-4.2v3.2C-11.6,7.2-7.4,10-2.5,10L-2.5,10z"/>
	<path id="Shape_2_" sketch:type="MSShapeGroup" class="st2" d="M-9.5-0.1c-0.3-0.8-0.4-1.6-0.4-2.4s0.1-1.6,0.4-2.4v-3.2h-4.2
		C-14.5-6.4-15-4.5-15-2.5s0.5,3.9,1.3,5.6L-9.5-0.1L-9.5-0.1z"/>
	<path id="Shape_3_" sketch:type="MSShapeGroup" class="st3" d="M-2.5-10c1.8,0,3.5,0.6,4.8,1.9l3.6-3.6c-2.2-2-5-3.3-8.4-3.3
		c-4.9,0-9.1,2.8-11.2,6.9l4.2,3.2C-8.5-7.8-5.7-10-2.5-10L-2.5-10z"/>
	<path id="Shape_4_" sketch:type="MSShapeGroup" class="st4" d="M-15-15h25v25h-25V-15z"/>
</g>
<g id="handles_square" sketch:type="MSLayerGroup">
</g>
</svg>
