<svg id="Layer_1" data-name="Layer 1" xmlns="http://www.w3.org/2000/svg" viewBox="0 0 511.99 187.01"><defs><style>.cls-1{fill:#69be5d;}.cls-2{fill:#9dc85c;}.cls-3{fill:#ffeb97;}.cls-4{fill:#fad2a3;}.cls-5{opacity:0.25;}.cls-6{fill:#ff8562;}.cls-7{fill:#fff4db;}.cls-8{fill:#f26e64;}.cls-9{fill:#fffcec;}.cls-10{fill:#63a0b5;}.cls-11{fill:#4185a6;}.cls-12{fill:#ebd7bd;}.cls-13{fill:#e8a271;}.cls-14{fill:#b66e64;}.cls-15{fill:#996459;}.cls-16{fill:#f4f4f4;}.cls-17{fill:#e5e5e5;}.cls-18{fill:#c9c9c9;}.cls-19{fill:#fff;}</style></defs><title>houses</title><path class="cls-1" d="M414.75,170.45a12.84,12.84,0,0,0-3.83.64,21.47,21.47,0,0,0-35,0,12.84,12.84,0,0,0-3.83-.64,12.71,12.71,0,0,0-12.8,12.61h68.29A12.71,12.71,0,0,0,414.75,170.45Z"/><path class="cls-2" d="M423.49,170.45a12.84,12.84,0,0,0-3.83.64,20.82,20.82,0,0,0-21.88-8.51,21.33,21.33,0,0,1,13.14,8.51,12.84,12.84,0,0,1,3.83-.64,12.71,12.71,0,0,1,12.8,12.61h8.74A12.71,12.71,0,0,0,423.49,170.45Z"/><path class="cls-3" d="M478,79.25h-19V51.5H312.86L290.39,29.38,256,63.25H118.4v-24H62.17V53H45.75L31.13,38.64,3.45,65.9l97.68,26,206.39,26.21,203.8-8.68c.5-7.32.76-14.71.63-22.2-.12-6.84-.59-13.59-1.23-20.29H478Z"/><path class="cls-4" d="M20.42,183.25h89.35v-88H.38A257.75,257.75,0,0,0,20.42,183.25Z"/><g class="cls-5"><path class="cls-6" d="M1.08,105.12H93.52V95.37H.39C.55,98.64.8,101.88,1.08,105.12Z"/></g><rect class="cls-7" x="109.77" y="15.25" width="148.92" height="168"/><rect class="cls-8" x="109.77" y="15.25" width="148.92" height="32"/><path class="cls-7" d="M510.39,119.88H430.82v63.37H495A251,251,0,0,0,510.39,119.88Z"/><rect class="cls-4" x="301.86" y="55.25" width="128.96" height="128"/><rect class="cls-9" x="186.13" y="87.25" width="113.73" height="88"/><polygon class="cls-8" points="403.95 23.25 328.73 23.25 298.64 55.25 434.04 55.25 403.95 23.25"/><polygon class="cls-10" points="247.88 119.88 247.88 129.88 245.85 129.88 245.85 149.88 225.54 149.88 225.54 129.88 223.51 129.88 223.51 119.88 247.88 119.88"/><path class="cls-11" d="M223.51,119.88v10h2v-8h20.31v8h2v-10Z"/><path class="cls-11" d="M221.47,117.88v36h28.44v-36Zm24.38,32h-.75l-.75,2H223.51v-32h24.37v10h-2Z"/><polygon class="cls-11" points="245.1 149.88 244.35 151.88 223.51 151.88 223.51 129.88 225.54 129.88 225.54 149.88 245.1 149.88"/><rect class="cls-11" x="223.51" y="125.88" width="24.37" height="4"/><rect class="cls-10" x="264.12" y="119.88" width="24.37" height="32"/><path class="cls-11" d="M290.52,153.88H262.09v-36h28.43Zm-24.37-4h20.31v-28H266.15Z"/><rect class="cls-11" x="264.12" y="125.88" width="24.37" height="4"/><polygon class="cls-8" points="280.37 51.5 256 51.5 231.63 51.5 191.01 99.5 320.99 99.5 280.37 51.5"/><rect class="cls-12" x="199.13" y="173.25" width="113.73" height="10"/><rect class="cls-13" x="109.77" y="161.63" width="89.36" height="21.62"/><g class="cls-5"><rect class="cls-6" x="199.13" y="99.5" width="113.73" height="9.75"/></g><g class="cls-5"><rect class="cls-6" x="109.77" y="46.63" width="148.92" height="9.75"/></g><rect class="cls-10" x="329.45" y="119.88" width="18.28" height="32"/><path class="cls-11" d="M349.76,153.88H327.42v-36h22.34Zm-18.28-4H345.7v-28H331.48Z"/><rect class="cls-11" x="329.45" y="125.88" width="18.28" height="4"/><rect class="cls-10" x="357.2" y="119.88" width="18.28" height="32"/><path class="cls-11" d="M377.51,153.88H355.17v-36h22.34Zm-18.28-4h14.22v-28H359.23Z"/><rect class="cls-11" x="357.2" y="125.88" width="18.28" height="4"/><rect class="cls-10" x="384.96" y="119.88" width="18.28" height="32"/><path class="cls-11" d="M405.27,153.88H382.93v-36h22.34Zm-18.28-4h14.22v-28H387Z"/><rect class="cls-11" x="384.96" y="125.88" width="18.28" height="4"/><rect class="cls-10" x="17.99" y="119.88" width="18.28" height="32"/><path class="cls-11" d="M38.3,153.88H16v-36H38.3Zm-18.28-4H34.24v-28H20Z"/><rect class="cls-11" x="17.99" y="125.88" width="18.28" height="4"/><rect class="cls-10" x="45.75" y="119.88" width="18.28" height="32"/><path class="cls-11" d="M66.06,153.88H43.72v-36H66.06Zm-18.28-4H62v-28H47.78Z"/><rect class="cls-11" x="45.75" y="125.88" width="18.28" height="4"/><rect class="cls-10" x="73.5" y="119.88" width="18.28" height="32"/><path class="cls-11" d="M93.81,153.88H71.47v-36H93.81Zm-18.28-4H89.75v-28H75.53Z"/><rect class="cls-11" x="73.5" y="125.88" width="18.28" height="4"/><rect class="cls-10" x="329.45" y="75.25" width="18.28" height="24"/><path class="cls-11" d="M349.76,101.25H327.42v-28h22.34Zm-18.28-4H345.7v-20H331.48Z"/><rect class="cls-11" x="329.45" y="81.25" width="18.28" height="4"/><rect class="cls-10" x="357.2" y="75.25" width="18.28" height="24"/><path class="cls-11" d="M377.51,101.25H355.17v-28h22.34Zm-18.28-4h14.22v-20H359.23Z"/><rect class="cls-11" x="357.2" y="81.25" width="18.28" height="4"/><rect class="cls-10" x="384.96" y="75.25" width="18.28" height="24"/><path class="cls-11" d="M405.27,101.25H382.93v-28h22.34Zm-18.28-4h14.22v-20H387Z"/><rect class="cls-11" x="384.96" y="81.25" width="18.28" height="4"/><rect class="cls-14" x="312.86" y="167.92" width="117.96" height="15.33"/><path class="cls-8" d="M511.86,99.5h-81v20.38h79.57C511.13,113.16,511.66,106.37,511.86,99.5Z"/><rect class="cls-10" x="441.57" y="137.5" width="48.49" height="23.03"/><path class="cls-11" d="M492.09,162.53H439.54v-27h52.55Zm-48.49-4H488v-19H443.6Z"/><rect class="cls-11" x="463.78" y="137.5" width="4.06" height="23.03"/><rect class="cls-8" x="430.82" y="87.25" width="8.63" height="32.63"/><rect class="cls-8" x="109.77" y="6.04" width="8.63" height="27.84"/><rect class="cls-14" x="142.98" width="11.42" height="27.31"/><rect class="cls-14" x="214.06" width="11.42" height="27.31"/><rect class="cls-8" x="250.06" y="6.04" width="8.63" height="27.84"/><g class="cls-5"><path class="cls-6" d="M510.39,119.88H430.82v9.75H509C509.48,126.38,510,123.16,510.39,119.88Z"/></g><rect class="cls-10" x="169.68" y="118.13" width="18.28" height="32"/><path class="cls-11" d="M190,152.13H167.65v-36H190Zm-18.28-4h14.22v-28H171.71Z"/><rect class="cls-11" x="169.68" y="124.13" width="18.28" height="4"/><rect class="cls-10" x="136.85" y="73.5" width="18.28" height="24"/><path class="cls-11" d="M157.15,99.5H134.81v-28h22.34Zm-18.28-4h14.22v-20H138.88Z"/><rect class="cls-11" x="136.85" y="79.5" width="18.28" height="4"/><rect class="cls-10" x="169.68" y="73.5" width="18.28" height="24"/><path class="cls-11" d="M190,99.5H167.65v-28H190Zm-18.28-4h14.22v-20H171.71Z"/><rect class="cls-11" x="169.68" y="79.5" width="18.28" height="4"/><path class="cls-8" d="M109.77,63.25H.77c-.6,7.9-.87,15.9-.73,24,0,2.68.22,5.34.34,8H109.77Z"/><path class="cls-14" d="M20.42,183.25h89.35V167.92H14.57C16.38,173.09,18.29,178.22,20.42,183.25Z"/><path class="cls-15" d="M112.77,187V146a3.87,3.87,0,0,0-7.74,0v41h7.74Z"/><path class="cls-1" d="M136.34,133.47c0,20.73-12.28,31.14-27.44,31.14s-27.44-10.41-27.44-31.14S98.27,31.88,108.9,31.88,136.34,112.74,136.34,133.47Z"/><path class="cls-2" d="M108.9,31.88c-2.11,0-4.45,3.21-6.86,8.45,8.67,12.93,19.89,76.83,19.89,94.58,0,17.34-7.83,27.1-18.23,29.25a30.83,30.83,0,0,0,5.2.46c15.15,0,27.44-10.41,27.44-31.14S119.53,31.88,108.9,31.88Z"/><path class="cls-15" d="M146.18,187v-31.5a3,3,0,0,0-6,0V187Z"/><path class="cls-1" d="M164.3,145.85c0,15.94-9.44,23.94-21.09,23.94s-21.09-8-21.09-23.94S135,67.75,143.2,67.75,164.3,129.91,164.3,145.85Z"/><path class="cls-2" d="M143.2,67.75c-1.62,0-3.42,2.46-5.28,6.5,6.67,9.94,15.29,59.06,15.29,72.71,0,13.33-6,20.83-14,22.48a23.75,23.75,0,0,0,4,.35c11.65,0,21.09-8,21.09-23.94S151.38,67.75,143.2,67.75Z"/><path class="cls-1" d="M401.87,167.69a15.65,15.65,0,0,0-4.67.78,26.18,26.18,0,0,0-42.7,0,15.65,15.65,0,0,0-4.67-.78,15.5,15.5,0,0,0-15.61,15.38h83.27A15.49,15.49,0,0,0,401.87,167.69Z"/><path class="cls-1" d="M375.55,167.69a15.65,15.65,0,0,0-4.67.78,26.18,26.18,0,0,0-42.7,0,15.65,15.65,0,0,0-4.67-.78,15.5,15.5,0,0,0-15.61,15.38h83.27A15.49,15.49,0,0,0,375.55,167.69Z"/><path class="cls-2" d="M386.21,167.69a15.65,15.65,0,0,0-4.67.78,25.39,25.39,0,0,0-26.68-10.37,26,26,0,0,1,16,10.37,15.65,15.65,0,0,1,4.67-.78,15.5,15.5,0,0,1,15.61,15.38h10.66A15.49,15.49,0,0,0,386.21,167.69Z"/><path class="cls-16" d="M236.43,142a1.63,1.63,0,0,1-1-.19,36.09,36.09,0,0,0-4.29-1.4,24,24,0,0,1-4.09-1.38l.09-.18.92-1.72c.51-.95.83-1,.71-.16s1.13,2,2.78,2.43,2.24-.47,1.3-2.1a11.49,11.49,0,0,1-1.47-3.1l.23-.13,2.23-1.29c1.23-.71,1.54-.58.7.28s-.58,3.23.58,5.26S236.89,142,236.43,142Z"/><path class="cls-16" d="M236,135.6c.45-1.26.22-1.66-.52-.91s-1.11,1.78-.82,2.28S235.52,136.86,236,135.6Z"/><path class="cls-16" d="M231.43,137.8c-.42-.9-.86-1-1-.27a1.47,1.47,0,0,0,.77,1.64C231.77,139.32,231.85,138.71,231.43,137.8Z"/><path class="cls-16" d="M243.12,139.52c1.5-.43,2.73-.53,2.73-.22s-1.4,1-3.11,1.46a21.52,21.52,0,0,0-3.22,1.09,1.66,1.66,0,0,1-.95.19c-.46,0,.11-1.66,1.27-3.69s1.42-4.39.57-5.26-.53-1,.7-.28l2.23,1.29.22.14a11.53,11.53,0,0,1-1.47,3.1C241.16,139,241.62,139.95,243.12,139.52Z"/><path class="cls-16" d="M239,135.6c-.45-1.26-.22-1.66.52-.91s1.11,1.78.82,2.28S239.47,136.86,239,135.6Z"/><path class="cls-16" d="M243.57,137.8c.42-.9.86-1,1-.27a1.47,1.47,0,0,1-.77,1.64C243.23,139.32,243.14,138.71,243.57,137.8Z"/><polygon class="cls-17" points="234.94 149.88 231.5 149.88 228.71 146.74 229.85 145.55 227.93 145.82 227.02 144.25 228.47 143.15 230.87 144.5 232.92 142.38 234.94 149.88"/><polygon class="cls-18" points="231.5 149.88 229.88 149.88 228.71 146.74 231.5 149.88"/><polygon class="cls-19" points="237.49 142.38 237.49 149.88 234.94 149.88 232.92 142.38 237.49 142.38"/><polygon class="cls-17" points="245.85 145.65 245.12 145.55 245.85 146.31 245.85 147.2 243.42 149.88 239.93 149.88 242.05 142.38 244.11 144.5 245.85 143.52 245.85 145.65"/><polygon class="cls-18" points="245.85 147.2 245.85 147.87 245.1 149.88 243.42 149.88 245.85 147.2"/><polygon class="cls-19" points="239.93 149.88 237.49 149.88 237.49 142.38 242.05 142.38 239.93 149.88"/></svg>