<svg id="Layer_1" data-name="Layer 1" xmlns="http://www.w3.org/2000/svg" viewBox="0 0 1299.45 1106.69"><defs><style>.cls-1{opacity:0.6;}.cls-2{fill:#e9e9ff;}.cls-3{fill:#c0c0f9;}.cls-4{fill:#95c4f8;}.cls-5{fill:#7e7e92;}.cls-6{fill:#6e6e84;}.cls-7{fill:#5f5f74;}.cls-8{fill:#36b294;}.cls-9{fill:#00a07d;}.cls-10{fill:#52c883;}.cls-11{fill:#f4f4f4;}.cls-12{fill:#e5e5e5;}.cls-13{fill:#c9c9c9;}.cls-14{fill:#fff;}.cls-15{fill:#ff2b0c;}.cls-16{fill:none;}.cls-17{fill:#34be71;}.cls-18{fill:#674447;}.cls-19{fill:#44a67d;}.cls-20{fill:#c3e1f5;}.cls-21{fill:#edf5fb;}.cls-22{fill:#ce6565;}.cls-23{opacity:0.77;}.cls-24{fill:#dfe0e8;}.cls-25{fill:#c8c9cf;}.cls-26{fill:#f5f5f5;}.cls-27{fill:#bebabf;}.cls-28{fill:#b2b2d8;}</style></defs><title>hunt</title><g class="cls-1"><path class="cls-2" d="M1130.42,72.65a69.23,69.23,0,0,0-20.95,3.54,116.41,116.41,0,0,0-191.55,0,66.78,66.78,0,0,0-57.46,7C837.87,34.19,788.64,0,731.15,0c-41.38,0-78.34,17.9-104.4,46a98.8,98.8,0,0,0-123.9,96.64h697.6A70,70,0,0,0,1130.42,72.65Z"/></g><path class="cls-3" d="M71.9,286.69a94,94,0,0,1,117.91-92c24.8-26.78,60-43.82,99.35-43.82A135.79,135.79,0,0,1,425,286.69H71.9Z"/><g class="cls-1"><path class="cls-2" d="M1299.45,297.69c-15.72-18-31.84-35.73-48.72-52.68-1.34,1-2.79,1.86-4,3a87,87,0,0,0-135.91-9.54,60.58,60.58,0,0,0-76,59.26h264.65Z"/></g><path class="cls-4" d="M1182.45,557.19q0,12.3-.62,24.48v.52q-.71,14.22-2.22,28.31-.72,6.9-1.66,13.75l.58-.06-.58.07q-1.55,11.5-3.66,22.89h0q-.86,4.66-1.8,9.3a487.22,487.22,0,0,1-13.89,52.78q-6.59,20.27-15,40a491.89,491.89,0,0,1-38.86,73.82l.58.24-.58-.23a492.85,492.85,0,0,1-59.93,75.94q-3.43,3.57-6.95,7.09a497.3,497.3,0,0,1-45.66,40.41A492.11,492.11,0,0,1,689,1050.69a498.14,498.14,0,0,1-77.73-6.06h0q-19.77-3.12-39.18-7.84h0A492,492,0,0,1,351.3,917.1q-5.73-5.37-11.31-10.95A491.75,491.75,0,0,1,234.25,749.29q-4.53-10.7-8.53-21.56A485.64,485.64,0,0,1,206,659.2a495.18,495.18,0,0,1-10.53-102c0-2.11,0-4.21,0-6.32a495.26,495.26,0,0,1,7.4-79.66h0q3.6-20.51,8.93-40.6,2.14-8.09,4.57-16.11c.78-2.6,1.58-5.19,2.42-7.78q.8-2.52,1.64-5,3.07-9.27,6.54-18.43t7.26-18.15q7.71-18.24,16.81-35.7c.89-1.72,1.79-3.41,2.7-5.12h0a0,0,0,0,0,0,0q9.79-18.3,21.08-35.67A491.61,491.61,0,0,1,329.54,219q5.13-5.46,10.45-10.78A492.23,492.23,0,0,1,496.85,102.49a488.92,488.92,0,0,1,79.4-25.9h0q18.2-4.26,36.73-7.11h0a494.84,494.84,0,0,1,74.54-5.78H689a497.69,497.69,0,0,1,72,5.2h0A487.73,487.73,0,0,1,867.59,97q6.75,2.63,13.46,5.46A494,494,0,0,1,1140.4,357.6a0,0,0,0,1,0,0q1.65,3.72,3.24,7.47c.54,1.28,1.08,2.57,1.61,3.86a487.49,487.49,0,0,1,23.95,74.11h0a490.27,490.27,0,0,1,10.88,65.4s0,0,0,.08c0,.37.07.75.1,1.12q2.05,21.55,2.22,43.44Q1182.45,555.15,1182.45,557.19Z"/><path class="cls-5" d="M454.39,224.82,423.6,272l-47.93,73.43-16.91,25.9-30.67,47-.48.74-3.95,6.05-4,6.06s-9,0-24.67,0h0c-19.2-.06-48.37-.19-83.18-.5q2.14-8.09,4.57-16.11c.78-2.6,1.58-5.19,2.42-7.78q.8-2.52,1.64-5,3.07-9.27,6.54-18.43t7.26-18.15q7.71-18.24,16.81-35.7c.89-1.72,1.79-3.41,2.7-5.12h0a0,0,0,0,0,0,0q9.79-18.3,21.08-35.67A491.61,491.61,0,0,1,329.54,219a180.65,180.65,0,0,0,36.15,3.65l77.54,1.89Z"/><path class="cls-5" d="M1140.4,357.6A490.52,490.52,0,0,0,1091,270.83l19.9,139.24.09.63h0l13.14,91.91.16,1.12s20.39,1.7,51.21,4.33l.3,0,.23,0,4.09.35a490.25,490.25,0,0,0-10.88-65.4h0a487.5,487.5,0,0,0-24-74.11c-.53-1.29-1.07-2.58-1.61-3.86q-1.59-3.75-3.24-7.47Z"/><path class="cls-6" d="M1182.45,557.19q0,12.3-.62,24.48v.52q-.71,14.22-2.22,28.31-.72,6.9-1.66,13.75l.58-.06-.58.07q-1.55,11.5-3.66,22.89h0q-.86,4.66-1.8,9.3a487.22,487.22,0,0,1-13.89,52.78q-6.59,20.27-15,40a491.89,491.89,0,0,1-38.86,73.82l.58.24-.58-.23a492.85,492.85,0,0,1-59.93,75.94q-3.43,3.57-6.95,7.09a497.3,497.3,0,0,1-45.66,40.41l-92.2-33.7L858.31,897.6l-45.15-16.5L710.22,843.48l-.41-.15L700.69,840l-11.58-4.23-34.74-12.7h0l-20.09-7.34L617,809.42l-15-5.5-25-9.14-12.46-4.56-1.43-.52-3.83-1.4L553.08,786l-18.2-6.65-11.55-4.22h0l-225.1-82.27L206,659.2a495.18,495.18,0,0,1-10.53-102c0-2.11,0-4.21,0-6.32a495.26,495.26,0,0,1,7.4-79.66h0q3.6-20.51,8.93-40.6,2.14-8.09,4.57-16.11c.78-2.6,1.58-5.19,2.42-7.78q.8-2.52,1.64-5,3.07-9.27,6.54-18.43t7.26-18.15q7.71-18.24,16.81-35.7c.89-1.72,1.79-3.41,2.7-5.12h0a0,0,0,0,0,0,0q9.79-18.3,21.08-35.67A491.61,491.61,0,0,1,329.54,219q5.13-5.46,10.45-10.78A492.23,492.23,0,0,1,496.85,102.49a488.92,488.92,0,0,1,79.4-25.9h0q18.2-4.26,36.73-7.11h0a494.84,494.84,0,0,1,74.54-5.78H689a497.69,497.69,0,0,1,72,5.2h0A487.73,487.73,0,0,1,867.59,97q6.75,2.63,13.46,5.46A494,494,0,0,1,1140.4,357.6a0,0,0,0,1,0,0q1.65,3.72,3.24,7.47c.54,1.28,1.08,2.57,1.61,3.86a487.49,487.49,0,0,1,23.95,74.11h0a490.27,490.27,0,0,1,10.88,65.4s0,0,0,.08c0,.37.07.75.1,1.12q2.05,21.55,2.22,43.44Q1182.45,555.15,1182.45,557.19Z"/><path class="cls-7" d="M1180.1,508.55l-4.1-.43-.23,0-.3,0-51.37-5.45-7.5-.8-18.06-1.91-13.11-1.39-7.69-.81-50.7-5.38h0l-17.23-1.82L967.19,486l-59.34-6.28-447-47.35-49.84-5.28-83-8.79-3-.32h0l-24.7-2.61L240.55,409h0l-21.72-2.3q.8-2.52,1.64-5,3.07-9.27,6.54-18.43t7.26-18.15q7.71-18.24,16.81-35.7c.89-1.72,1.79-3.41,2.7-5.12h0a0,0,0,0,0,0,0c15.36-9.35,31-18.55,46.06-27,46.65-26.1,88.53-45,103.74-39.29a9.36,9.36,0,0,1,3.65,2.39c5.38,5.86,10.83,9.6,16.38,11.65,37.46,13.92,79.1-48.49,128.36-47.23,69.42,1.78,100.22,166.23,173.11,219.4S856.4,370.88,888,332.61c50.52-61.24,109.75-12.53,169.66,38.13l.87.73a542.77,542.77,0,0,0,52.17,39.06l.28.18a443.73,443.73,0,0,0,58.25,32.35h0a490.27,490.27,0,0,1,10.88,65.4S1180.1,508.52,1180.1,508.55Z"/><path class="cls-7" d="M1182.45,557.19q0,12.3-.62,24.48v.52q-.71,14.22-2.22,28.31-.72,6.9-1.66,13.75l.58-.06-.58.07q-1.55,11.5-3.66,22.89h0c-6.62,2.9-13.32,5.82-20.05,8.75-24.18,10.53-48.82,21.13-71.85,31l-.06,0-.73.31h0l-8.8,3.76-16.93,7.24-5.87,2.5c-23.29,9.95-43.36,18.52-57.38,24.6-4.31,1.87-8,3.51-11.14,4.88l-.36.16-.24.1c-9.72,4.23-20.7,6.78-32.41,8.19a250.69,250.69,0,0,1-36.27,1.39c-5.63-.13-11.29-.39-16.95-.72h0c-8.31-.48-16.6-1.11-24.73-1.75h0l-3.29-.27c-3.5-.27-6.95-.55-10.36-.8-7.69-.59-15.14-1.09-22.22-1.38-15.6-.65-29.4-.25-39.92,2.69q-.67.18-1.32.39l-.08,0h0l-.09,0-.07,0q-1.1.33-2.13.72c-8,3-17.54,1.58-27.66-2.48-11.92-4.78-24.65-13.29-36.62-22.86C698.81,691.42,675,663.42,675,663.42l-10.6-1.59h0l-9.14-1.36h0c-26.36-3.9-75.14-11-121.7-17h0c-49.08-6.35-95.69-11.54-111-10.62-9.34.56-33.1-13.92-63.32-35.81h0c-24.79-18-53.93-40.9-83-64.6h0c-25.46-20.75-50.88-42.09-73.29-61.18h0q3.6-20.51,8.93-40.6,2.14-8.09,4.57-16.11l51.11,5,30.35,3,25.81,2.54,23.82,2.36h0l71.59,7.07,54.83,5.41,432.52,42.72h0l62.42,6.16,40.14,4,19,1.88h0l50.43,5,6.63.65,13.66,1.35,18.35,1.81,63.08,6.23q2.05,21.55,2.22,43.44Q1182.45,555.15,1182.45,557.19Z"/><path class="cls-8" d="M347.49,427.44h0L327.61,419,325.12,418h0c-10.5-4.44-18.3-7.73-22.18-9.32l-2-.79c-5.54-2.15-36.79-12.47-74-24.62q3.44-9.12,7.26-18.15,7.71-18.24,16.81-35.7c.89-1.72,1.79-3.41,2.7-5.12h0a0,0,0,0,0,0,0q9.79-18.3,21.08-35.67c8.75.64,17.26,2.4,25,8.65h0c.35.27.7.56,1,.86,16.79,14.6,25.12,24.28,41.51,33.38,8.3,4.6,18.68,9.07,33.28,13.93.84.29,1.7.57,2.58.86,46.77,15.27,37.62,65.5,79.89,84.77q1.38.63,2.76,1.32a119.83,119.83,0,0,1,13,7.56c27.93,18.53,53.69,49.43,64,63.17l0,0,.13.18C543,510,418.28,457.4,347.49,427.44Z"/><path class="cls-9" d="M664.41,661.83h0a53.65,53.65,0,0,1-10.21,1.44c-10.46.63-25.49-.46-46.48-3.94-19.52-3.24-44.86-8.77-74.16-15.89h0c-49.71-12.07-110.84-28.7-174.3-46.43h0c-27.62-7.72-55.67-15.64-83.42-23.49-27.3-7.71-54.29-15.35-80.28-22.64a495.26,495.26,0,0,1,7.4-79.66h0q3.6-20.51,8.93-40.6,2.14-8.09,4.57-16.11c.78-2.6,1.58-5.19,2.42-7.78q.8-2.52,1.64-5,3.07-9.27,6.54-18.43t7.26-18.15q7.71-18.24,16.81-35.7a133.84,133.84,0,0,0,23.08,13.15c17.49,7.75,35.18,11.78,51.78,16.46,11.64,3.28,22.74,6.88,32.84,12.31a77.93,77.93,0,0,1,22.85,18.2c13.68,16,19.61,27.23,29.45,37.57a85.74,85.74,0,0,0,8,7.43c6.48,5.29,14.79,10.6,26.6,16.49,39.93,19.93,39.53,21.39,73.2,38.2a64.61,64.61,0,0,1,19,13.89l0,0C550.83,517,556,535.24,574.37,559.57A187.35,187.35,0,0,0,635.62,612l.75.39.55.29.18.1.71.37q.68.33,1.35.69l.64.32,1.57.8.12.06c4.85,2.59,16.81,11.32,25.05,20.67C675.87,646.32,680.43,657.7,664.41,661.83Z"/><path class="cls-10" d="M938.13,696.79l-26.22,15.82h0l-19.64,11.85L870.5,737.59h0l-8.34,5h0l-5.29,3.19-17.63,10.63-4.31,2.61h0s0,0,0,0l-.24.15L709.8,834.5l-9.11,5.5-11.57,7-11.95,7.21-60.08,36.24-14.55,8.78-68.69,41.42-15.35,9.26L390.07,950A492.33,492.33,0,0,1,351.3,917.1q-5.73-5.37-11.31-10.95A491.75,491.75,0,0,1,234.25,749.29q-4.53-10.7-8.53-21.56A485.64,485.64,0,0,1,206,659.2a495.18,495.18,0,0,1-10.53-102c0-2.11,0-4.21,0-6.32a495.26,495.26,0,0,1,7.4-79.66h0q3.6-20.51,8.93-40.6,2.14-8.09,4.57-16.11c.78-2.6,1.58-5.19,2.42-7.78q.8-2.52,1.64-5,10.13,3.6,20.08,7.34h0q13.64,5.13,27,10.53,13.92,5.64,27.51,11.55h0C422.67,486.43,529,557.4,635.62,612l.75.39.55.29.18.1.71.37q.68.33,1.35.69l.64.32,1.57.8.12.06q14.4,7.29,28.83,14.15,13.95,6.63,28,12.79h0q22.35,9.78,45,18.18,16.82,6.2,33.88,11.5a562.83,562.83,0,0,0,93.44,20.72q5.84.76,11.73,1.41,8.48.91,17.07,1.56,7.91.6,15.93.94Q926.65,696.79,938.13,696.79Z"/><path class="cls-11" d="M537.41,719.9c-2.3.91-4.6,1.33-5.1.93s-5.39-.29-10.86.23L495,723.62c-5.47.53-9.9.49-9.82-.09s.12-1.05.11-1.05.5-4.47,1.15-9.93l.1-.87c.64-5.46,2.07-6.25,3.17-1.74s6.48,7.76,12,7.23L515,715.87c5.47-.53,6.44-3.77,2.14-7.2l-12.93-10.33c-4.3-3.43-7.42-6.73-6.94-7.33s.86-1.1.86-1.11,2.78-3.55,6.19-7.86L509,676.1c3.41-4.31,4.47-3.69,2.35,1.38L510,680.66a14.07,14.07,0,0,0,4,15.47L533.79,712C538.09,715.43,539.72,719,537.41,719.9Z"/><path class="cls-11" d="M522.37,685.89c-.18-5.5-2.06-5.84-4.18-.77l-.21.51c-2.12,5.08-1.88,10.79.53,12.7s4.23-1,4.05-6.52Z"/><path class="cls-11" d="M504.22,708.72c-3.89-3.66-6.28-3.42-5.31.53s4.15,6.94,7.07,6.65S508.11,712.38,504.22,708.72Z"/><path class="cls-11" d="M588.58,682.54c.45.37-2.74,3.43-7.09,6.8l-21,16.27c-4.35,3.37-8,6.64-8.07,7.27s-2,1.9-4.35,2.81-3.55-2.79-2.78-8.24l3.59-25.16a14.07,14.07,0,0,0-7.72-14l-3.14-1.4c-5-2.24-4.68-3.42.76-2.62l7.48,1.11c5.44.8,9.89,1.47,9.89,1.49s.62.11,1.38.22.75,4.65,0,10.1l-2.34,16.39c-.78,5.44,2.14,7.15,6.49,3.78l10.58-8.18c4.35-3.37,6-9.42,3.76-13.46s-.71-4.44,3.5-.9l.67.57c4.21,3.54,7.65,6.44,7.64,6.45S588.13,682.17,588.58,682.54Z"/><path class="cls-11" d="M535.69,680.61c-3.63-4.13-2.5-5.67,2.52-3.42l.5.22c5,2.25,8.76,6.57,8.31,9.62s-3.79,2.15-7.42-2Z"/><path class="cls-11" d="M564.55,684.81c.33-5.33,2.23-6.79,4.23-3.25s1.73,7.9-.6,9.69S564.22,690.14,564.55,684.81Z"/><polygon class="cls-12" points="508.29 758.5 511.65 750.36 502.61 755.47 495.01 749.44 500.05 741.16 514.64 743.12 520.66 728.54 563.89 786.55 508.29 758.5"/><polygon class="cls-13" points="563.89 786.55 532.25 785.07 508.29 758.5 563.89 786.55"/><path class="cls-14" d="M543.35,719.55l24.86,62.73a3.72,3.72,0,0,0-1.76,1.49l-2.9,4.69a3.74,3.74,0,0,0,.32,4.39l1.23,1.45-32.85-9.23,31.65,1.48-43.23-58Z"/><polygon class="cls-12" points="597.63 717.8 587.54 720.27 595.57 723.9 573.42 782.78 566.04 710.56 580.41 717.05 589.7 705.62 599.04 708.21 597.63 717.8"/><polygon class="cls-13" points="595.57 723.9 596.32 759.67 573.42 782.78 595.57 723.9"/><path class="cls-14" d="M596.32,759.67l-17.47,29h0l-.15.24-.1-1.9a3.74,3.74,0,0,0-2.77-3.42l-5.33-1.42a3.72,3.72,0,0,0-2.3.12l-24.86-62.73,22.69-9,7.38,72.22Z"/><path class="cls-15" d="M577.6,787.67l.11,1.57.22,3a3.13,3.13,0,0,1-1.94,3.13l-2.26.92-2,.82a3.13,3.13,0,0,1-3.57-.88l-1.95-2.31-1-1.21a3.13,3.13,0,0,1-.27-3.67l2.43-3.92a3.13,3.13,0,0,1,3.4-1.39l4.47,1.1A3.13,3.13,0,0,1,577.6,787.67Z"/><line class="cls-16" x1="540.46" y1="718.89" x2="532.08" y2="722.21"/><path class="cls-17" d="M1182.45,557.19q0,12.3-.62,24.48v.52q-.71,14.22-2.22,28.31-.72,6.9-1.66,13.75l.58-.06-.58.07q-1.55,11.5-3.66,22.89h0q-.86,4.66-1.8,9.3a487.22,487.22,0,0,1-13.89,52.78q-6.59,20.27-15,40a491.89,491.89,0,0,1-38.86,73.82l.58.24-.58-.23a492.85,492.85,0,0,1-59.93,75.94q-3.43,3.57-6.95,7.09a497.3,497.3,0,0,1-45.66,40.41A492.11,492.11,0,0,1,689,1050.69a498.14,498.14,0,0,1-77.73-6.06h0q-19.77-3.12-39.18-7.84h0A492,492,0,0,1,351.3,917.1q-5.73-5.37-11.31-10.95A491.75,491.75,0,0,1,234.25,749.29q-4.53-10.7-8.53-21.56c33.07,1.31,62.4,5.44,91.6,11,56.73,10.78,113,26.92,195.11,38.19q7,1,14,1.68c2.82.3,5.64.56,8.47.8q8.48.7,17,1.09,3.86.18,7.72.28l.79,0q3.64.1,7.3.14c1.85,0,3.7,0,5.56,0h.88c.38,0,.74,0,1.12,0h0c2.77,0,5.55-.05,8.32-.11q24.06-.54,48.29-3.39,3.51-.41,7-.85,8.73-1.12,17.46-2.52,16.34-2.58,32.73-6.08,10.34-2.19,20.69-4.71,11.89-2.9,23.81-6.21,15.41-4.26,30.85-9.18,14.34-4.55,28.69-9.59l.07,0,.09,0h0l.08,0,1.26-.45q20-7,40-15,11.1-4.38,22.21-9,10.18-4.21,20.36-8.64,2.42-1,4.82-2.09h0q8.73-3.8,17.43-7.71,8.1-3.64,16.2-7.38,16.4-7.54,32.78-15.44,14.79-7.09,29.56-14.41,18.66-9.24,37.28-18.73l1.2-.61q16.77-8.52,33.49-17.18l12.93-6.7,9.86-5.12,26-13.53,2-1,1.27-.67q15.51-8.07,30.95-16.07,10.64-5.52,21.23-11,13.84-7.12,27.63-14.1c.21-.1.41-.21.61-.32Q1182.45,555.15,1182.45,557.19Z"/><path class="cls-18" d="M609.06,902.5a8,8,0,0,1-8.05-8l-.06-86.6a8,8,0,0,1,16.09,0l.06,86.6A8,8,0,0,1,609.06,902.5Z"/><path class="cls-9" d="M659.66,800.46a50.67,50.67,0,0,1-101.35.07c0-28,22.61-114,50.59-114.05S659.64,772.47,659.66,800.46Z"/><path class="cls-8" d="M608.9,686.47c-7,0-13.71,5.44-19.79,14h0c25.61,0,46.44,78.71,46.45,104.32a46.37,46.37,0,0,1-36.64,45.35,50.66,50.66,0,0,0,60.73-49.7C659.64,772.47,636.89,686.45,608.9,686.47Z"/><path class="cls-18" d="M845.8,830.78a11.1,11.1,0,0,1-11.12-11.09l-.08-119.56a11.11,11.11,0,0,1,22.22,0l.08,119.56A11.1,11.1,0,0,1,845.8,830.78Z"/><path class="cls-9" d="M915.66,689.88a70,70,0,1,1-139.93.1c0-38.64,31.21-157.44,69.85-157.47S915.64,651.24,915.66,689.88Z"/><path class="cls-8" d="M845.59,532.51c-9.7,0-18.93,7.51-27.32,19.34h0c35.37,0,64.11,108.67,64.14,144a64,64,0,0,1-50.59,62.61,70,70,0,0,0,83.85-68.62C915.64,651.24,884.23,532.48,845.59,532.51Z"/><path class="cls-18" d="M699.49,883.59a10.34,10.34,0,0,1-10.35-10.33l-.08-111.32a10.34,10.34,0,0,1,20.69,0l.08,111.32A10.34,10.34,0,0,1,699.49,883.59Z"/><path class="cls-9" d="M764.54,752.4a65.15,65.15,0,0,1-130.29.09c0-36,29.06-146.6,65-146.62S764.52,716.43,764.54,752.4Z"/><path class="cls-8" d="M699.29,605.87c-9,0-17.63,7-25.44,18h0c32.93,0,59.7,101.18,59.72,134.11a59.61,59.61,0,0,1-47.1,58.3,65.13,65.13,0,0,0,78.07-63.89C764.52,716.43,735.27,605.85,699.29,605.87Z"/><path class="cls-19" d="M1172.49,656.46a487.22,487.22,0,0,1-13.89,52.78q-6.59,20.27-15,40a491.89,491.89,0,0,1-38.86,73.82l.58.24-.58-.23a492.85,492.85,0,0,1-59.93,75.94q-3.43,3.57-6.95,7.09a497.3,497.3,0,0,1-45.66,40.41A492.11,492.11,0,0,1,689,1050.69a498.14,498.14,0,0,1-77.73-6.06h0q-19.77-3.12-39.18-7.84h0A492,492,0,0,1,351.3,917.1c39.26-3.43,76.43-8,111.74-13.48,49.41-7.67,95.18-17.17,137.95-28q8.12-2,16.08-4.16,31.08-8.22,60.1-17.3,6-1.86,11.95-3.77,10.47-3.34,20.69-6.79l.41-.14c44.47-15,85.6-31.06,124.44-47.46q11.23-4.76,22.22-9.52c27.59-12,54.08-24,79.86-35.83l11.74-5.38q16.36-7.5,32.4-14.81l.24-.1.36-.16L992.9,725s0,0,0,0c19.22-8.65,38.16-17,57.07-25l6.27-2.62q8.27-3.43,16.53-6.75c2.94-1.17,5.87-2.34,8.81-3.48l.72-.28.06,0c23.76-9.32,47.59-17.79,71.85-25.15Q1163.32,659,1172.49,656.46Z"/><path class="cls-20" d="M496.85,102.49a488.92,488.92,0,0,1,79.4-25.9c-32.19,20.5-53.64,72.67-110.11,78.22-18.34,1.8-33.75-3.47-46.23-11.44A491.71,491.71,0,0,1,496.85,102.49Z"/><path class="cls-20" d="M761,68.89A487.73,487.73,0,0,1,867.59,97l-.6.22c-29.84,11.21-44.13,36.66-52.58,65.8-17.29,59.64-10.12,134.7-61.82,134.73-49.73,0-63.7-86.69-86-153.49C654,106.68,638.77,75.38,613,69.48a494.84,494.84,0,0,1,74.54-5.78H689a497.69,497.69,0,0,1,72,5.2Z"/><path class="cls-21" d="M689,63.69a497.69,497.69,0,0,1,72,5.2c-3.24,10.48-7,21.75-11.73,33.76-22.3,56.59-42.62,27-61.67-38.95Z"/><path class="cls-18" d="M1181.83,581.67v.52q-.71,14.22-2.22,28.31-.72,6.9-1.66,13.75l.58-.06-.58.07q-1.55,11.5-3.66,22.89h0q-.86,4.66-1.8,9.3a487.22,487.22,0,0,1-13.89,52.78,13.78,13.78,0,0,1-4.33-10l0-37.47v-5.84l0-32.17v-1.48l0-54.73V550.46a13.82,13.82,0,0,1,27.64,0v3Z"/><path class="cls-9" d="M1140.41,357.62q1.65,3.72,3.24,7.47c.54,1.28,1.08,2.57,1.61,3.86a487.5,487.5,0,0,1,24,74.11h0a490.25,490.25,0,0,1,10.88,65.4s0,.05,0,.08c0,.37.07.75.1,1.12q2.05,21.56,2.22,43.44,0,2,0,4.08,0,12.3-.62,24.48v.52q-.7,14.22-2.22,28.31-.72,6.9-1.66,13.75l-.29,0-.29,0c-.87.1-1.75.18-2.63.25-2.21.17-4.45.26-6.7.26s-4.53-.08-6.75-.25q-3.58-.27-7.07-.84a86.29,86.29,0,0,1-27.66-9.38,87.27,87.27,0,0,1-24.56-19.8c-.37-.43-.74-.86-1.09-1.29-.66-.79-1.27-1.57-1.92-2.38a0,0,0,0,0,0,0,86.67,86.67,0,0,1-18.06-53,182.39,182.39,0,0,1,2.17-25.22q.84-5.89,2-12.34c.1-.58.21-1.17.32-1.76,1.84-10,4.23-20.81,7.09-31.92q1.7-6.58,3.61-13.27a443.85,443.85,0,0,1,14.55-42.8c.06-.16.13-.31.19-.46,7.6-18.8,16.35-35.79,25.94-48.1l.89-1.13q1.33-1.69,2.7-3.24Z"/><path class="cls-8" d="M1178,624.25l.58-.06-.58.07-.29,0-.29,0c-.87.1-1.75.18-2.63.25-2.21.17-4.45.26-6.7.26s-4.53-.08-6.75-.25c-2.39-.19-4.74-.48-7.07-.85q-1.77-.29-3.51-.63,1.77-.37,3.51-.84a79.2,79.2,0,0,0,25.39-11.76Q1178.89,617.4,1178,624.25Z"/><path class="cls-8" d="M1143.65,365.09c.54,1.28,1.08,2.57,1.61,3.86a24.52,24.52,0,0,0-11.4-3h0q1.47-2.07,3-4l.89-1.13c.9-1.11,1.8-2.19,2.71-3.22Q1142.06,361.34,1143.65,365.09Z"/><path class="cls-18" d="M1061.43,728.87A11.4,11.4,0,0,1,1050,717.48l-.09-122.73a11.4,11.4,0,0,1,22.8,0l.09,122.73A11.4,11.4,0,0,1,1061.43,728.87Z"/><path class="cls-9" d="M1133.14,584.24a71.82,71.82,0,0,1-143.64.1c0-39.67,32-161.62,71.71-161.65S1133.12,544.57,1133.14,584.24Z"/><path class="cls-8" d="M1061.21,422.69c-10,0-19.43,7.71-28,19.85h0c36.31,0,65.81,111.55,65.84,147.86a65.73,65.73,0,0,1-51.93,64.28,71.81,71.81,0,0,0,86.07-70.44C1133.12,544.57,1100.87,422.66,1061.21,422.69Z"/><path class="cls-18" d="M964.77,857.95a16.2,16.2,0,0,1-16.22-16.18l-.12-174.44a16.21,16.21,0,0,1,32.42,0L981,841.74A16.2,16.2,0,0,1,964.77,857.95Z"/><path class="cls-9" d="M1066.7,652.37a102.08,102.08,0,1,1-204.17.14c0-56.38,45.54-229.72,101.92-229.76S1066.66,596,1066.7,652.37Z"/><path class="cls-8" d="M964.46,422.76c-14.15,0-27.62,11-39.86,28.22h0c51.6,0,93.54,158.55,93.58,210.15a93.41,93.41,0,0,1-73.81,91.36,102.06,102.06,0,0,0,122.34-100.12C1066.66,596,1020.83,422.72,964.46,422.76Z"/><path class="cls-7" d="M1105.37,823.35l-.58-.23a492.85,492.85,0,0,1-59.93,75.94q-3.43,3.57-6.95,7.09a497.3,497.3,0,0,1-45.66,40.41A492.11,492.11,0,0,1,689,1050.69a498.14,498.14,0,0,1-77.73-6.06h0q-19.77-3.12-39.18-7.84c37.08-20.42,74-43.16,109.43-66.17h0c47.77-31,92.78-62.55,131.69-89.52,50.06-34.7,90-61.86,112.72-70.73a181.22,181.22,0,0,1,22.64-7.2,183.14,183.14,0,0,1,32.41-5,209.38,209.38,0,0,1,42.87,1.76c23.73,3.3,47,10.16,69.7,18.76,1.45.55,2.9,1.1,4.35,1.67q3.48,1.35,6.94,2.76Z"/><path class="cls-6" d="M1104.79,823.11h0a492.85,492.85,0,0,1-59.93,75.94c-28.87-18.91-54.23-35.21-70-43.09l-1.26-.62c-6-2.92-10.51-4.51-13.15-4.43a52.44,52.44,0,0,0-8.29,1c-22.25,4.24-54.71,21.78-93.81,45.7-32.43,19.84-69.43,44.07-109,68.73-43.85,27.36-90.83,55.26-138.13,78.3h0q-19.77-3.12-39.18-7.84c37.08-20.42,74-43.16,109.43-66.17h0c47.77-31,92.78-62.55,131.69-89.52,50.06-34.7,90-61.86,112.72-70.73a181.22,181.22,0,0,1,22.64-7.2,183.14,183.14,0,0,1,32.41-5,209.38,209.38,0,0,1,42.87,1.76c23.73,3.3,47,10.16,69.7,18.76,1.45.55,2.9,1.1,4.35,1.67Q1101.33,821.7,1104.79,823.11Z"/><path class="cls-22" d="M900.05,912.86a412.15,412.15,0,0,1-150.7,53.47,417.75,417.75,0,0,1-60.4,4.36q-3.75,0-7.48-.07h0a410.11,410.11,0,0,1-147.61-30c-2-.78-3.9-1.59-5.84-2.41A415.18,415.18,0,0,1,317.32,738.73q-5-10.14-9.39-20.6-5.28-12.48-9.71-25.22a410.19,410.19,0,0,1-22.45-119.4q-.33-8.13-.32-16.32,0-12.45.73-24.79h0A410.11,410.11,0,0,1,295,431.1h0q1.36-4.29,2.84-8.55,1.24-3.6,2.56-7.18,1.23-3.36,2.52-6.71,2.39-6.22,5-12.4,8.1-19.14,18-37.25,7.7-14.09,16.47-27.52a414,414,0,0,1,54.17-66.68q3.46-3.46,7-6.86a415.59,415.59,0,0,1,39.66-33.39,411.64,411.64,0,0,1,223.33-80.26q11.15-.6,22.39-.6A411.79,411.79,0,0,1,814.41,163q18,5.71,35.48,13.12a415.25,415.25,0,0,1,208.62,195.3q6.13,12.17,11.46,24.78a409.07,409.07,0,0,1,14.59,40.18q4.57,14.94,8,30.17,3.7,16.5,6,33.31c.08.57.16,1.14.23,1.72a418.25,418.25,0,0,1,3.68,55.56q0,18.16-1.54,36.08c-.05.65-.11,1.31-.18,2a409.13,409.13,0,0,1-8.51,53.92q-4.37,19.26-10.61,38.05s0,0,0,0h0q-4,12.11-8.78,24v.63c-.93,2.32-1.88,4-2.85,6.29q-2.12,5-4.37,10a410.41,410.41,0,0,1-41.8,71.84,416.82,416.82,0,0,1-42.46,49.66q-3.23,3.23-6.52,6.39A413.33,413.33,0,0,1,900.05,912.86Zm282.37-359.75q-.16-21.87-2.22-43.44c0-.37-.07-.75-.1-1.12,0,0,0,0,0-.08a490.27,490.27,0,0,0-10.88-65.4h0a487.49,487.49,0,0,0-23.95-74.11c-.53-1.29-1.07-2.58-1.61-3.86q-1.59-3.75-3.24-7.47a0,0,0,0,0,0,0A490.52,490.52,0,0,0,1091,270.83,496.23,496.23,0,0,0,881.05,102.49q-6.7-2.84-13.46-5.46A487.73,487.73,0,0,0,761,68.89h0a497.69,497.69,0,0,0-72-5.2h-1.39A494.84,494.84,0,0,0,613,69.48h0q-18.52,2.85-36.73,7.11h0a493.59,493.59,0,0,0-156.34,66.78A494.08,494.08,0,0,0,340,208.23q-5.32,5.32-10.45,10.78a491.61,491.61,0,0,0-54.69,69.57q-11.3,17.35-21.08,35.67a0,0,0,0,1,0,0h0c-.91,1.71-1.81,3.4-2.7,5.12q-9.09,17.46-16.81,35.7-3.82,9-7.26,18.15t-6.54,18.43q-.84,2.52-1.64,5c-.84,2.59-1.64,5.18-2.42,7.78q-2.43,8-4.57,16.11-5.34,20.1-8.93,40.6h0a495.26,495.26,0,0,0-7.4,79.66c0,2.11,0,4.21,0,6.32A495.18,495.18,0,0,0,206,659.2a485.64,485.64,0,0,0,19.74,68.53q4,10.86,8.53,21.56A491.75,491.75,0,0,0,340,906.15q5.58,5.58,11.31,10.95A493.19,493.19,0,0,0,572,1036.79h0q19.41,4.71,39.18,7.84h0a498.14,498.14,0,0,0,77.73,6.06,492.11,492.11,0,0,0,303.3-104.13,497.3,497.3,0,0,0,45.66-40.41q3.51-3.51,6.95-7.09a492.85,492.85,0,0,0,59.93-75.94h0a491.89,491.89,0,0,0,38.86-73.82q8.37-19.77,15-40a487.22,487.22,0,0,0,13.89-52.78q.94-4.63,1.8-9.3h0q2.11-11.38,3.66-22.89h0q.95-6.86,1.66-13.75,1.53-14.09,2.22-28.31v-.52q.62-12.2.62-24.48Q1182.45,555.15,1182.42,553.11Z"/><g class="cls-23"><path class="cls-24" d="M544.45,1001.31c-152.53,0-276.62-124.09-276.62-276.62S391.93,448.07,544.45,448.07,821.07,572.16,821.07,724.69,697,1001.31,544.45,1001.31Zm0-526.9c-138,0-250.28,112.27-250.28,250.28S406.45,975,544.45,975,794.73,862.69,794.73,724.69,682.46,474.41,544.45,474.41Z"/><path class="cls-25" d="M544.45,843.24A118.55,118.55,0,1,1,663,724.69,118.69,118.69,0,0,1,544.45,843.24Zm0-210.76a92.21,92.21,0,1,0,92.21,92.21A92.31,92.31,0,0,0,544.45,632.48Z"/><path class="cls-26" d="M544.45,843.24A118.55,118.55,0,1,1,663,724.69,118.69,118.69,0,0,1,544.45,843.24Zm0-210.76a92.21,92.21,0,1,0,92.21,92.21A92.31,92.31,0,0,0,544.45,632.48Z"/><path class="cls-25" d="M544.45,1054c-181.58,0-329.31-147.73-329.31-329.31S362.87,395.37,544.45,395.37,873.76,543.1,873.76,724.69,726,1054,544.45,1054Zm0-632.28c-167.05,0-303,135.91-303,303s135.91,303,303,303,303-135.91,303-303S711.51,421.72,544.45,421.72Z"/><path class="cls-27" d="M544.45,513.93a13.17,13.17,0,0,1-13.17-13.17V355.86a13.17,13.17,0,0,1,26.35,0v144.9A13.17,13.17,0,0,1,544.45,513.93Z"/><path class="cls-27" d="M544.45,1106.69a13.17,13.17,0,0,1-13.17-13.17V948.62a13.17,13.17,0,0,1,26.35,0v144.9A13.17,13.17,0,0,1,544.45,1106.69Z"/><path class="cls-27" d="M755.21,724.69a13.17,13.17,0,0,1,13.17-13.17h144.9a13.17,13.17,0,0,1,0,26.35H768.38A13.17,13.17,0,0,1,755.21,724.69Z"/><path class="cls-27" d="M386.38,724.69a13.17,13.17,0,0,1,13.17-13.17H689.35a13.17,13.17,0,0,1,0,26.35H399.56A13.17,13.17,0,0,1,386.38,724.69Z"/><path class="cls-27" d="M162.45,724.69a13.17,13.17,0,0,1,13.17-13.17h144.9a13.17,13.17,0,0,1,0,26.35H175.63A13.17,13.17,0,0,1,162.45,724.69Z"/><path class="cls-27" d="M544.45,566.62a13.17,13.17,0,0,1,13.17,13.17V869.58a13.17,13.17,0,0,1-26.35,0V579.79A13.17,13.17,0,0,1,544.45,566.62Z"/></g><path class="cls-2" d="M939.9,925.69a94,94,0,0,1,117.91-92c24.8-26.78,60-43.82,99.35-43.82A135.79,135.79,0,0,1,1293,925.69H939.9Z"/><path class="cls-3" d="M61.55,968.22a102,102,0,0,1,127.92-99.79c26.91-29.06,65.06-47.54,107.79-47.54A147.32,147.32,0,0,1,444.59,968.22h-383Z"/><path class="cls-28" d="M1098.09,899.6a67.88,67.88,0,0,0-20.53,3.47,114.07,114.07,0,0,0-187.69,0,67.88,67.88,0,0,0-20.53-3.47,68.62,68.62,0,0,0-68.62,68.62h366A68.63,68.63,0,0,0,1098.09,899.6Z"/><g class="cls-1"><path class="cls-2" d="M321.07,628.91a39.15,39.15,0,0,0-11.85,2,65.64,65.64,0,0,0-97.33-12.13A87,87,0,0,0,76,609.25a60.7,60.7,0,0,0-14.73-2A61.25,61.25,0,0,0,0,668.52H360.67A39.6,39.6,0,0,0,321.07,628.91Z"/></g><g class="cls-1"><path class="cls-2" d="M1116.45,438.69c-15.72-18-31.84-35.73-48.72-52.68-1.34,1-2.79,1.86-4,3a87,87,0,0,0-135.91-9.54,60.58,60.58,0,0,0-76,59.26h264.65Z"/></g></svg>