<svg id="Layer_1" data-name="Layer 1" xmlns="http://www.w3.org/2000/svg" viewBox="0 0 934.14 748.66"><defs><style>.cls-1{fill:#9af4ef;}.cls-2{fill:#4cd3cb;}.cls-3{fill:#fff;}.cls-4{fill:#00bdb3;}.cls-5{fill:#00a07d;}.cls-6{fill:#36b294;}.cls-7{opacity:0.6;}.cls-8{fill:none;}.cls-9{fill:#b7b7b7;}.cls-10{fill:#5b5d6e;}</style></defs><title>lost</title><circle class="cls-1" cx="494.67" cy="350.5" r="332.5"/><path class="cls-2" d="M167.52,291.37a329.55,329.55,0,0,0,0,118.25c72.93,27.46,195.2,45.48,333.79,45.48,130,0,245.59-15.86,319.62-40.49a332.59,332.59,0,0,0,0-128.24c-74-24.63-189.63-40.49-319.62-40.49C362.72,245.89,240.45,263.91,167.52,291.37Z"/><path class="cls-3" d="M748.71,136.07a64.65,64.65,0,0,0-37.49,25.87,38.32,38.32,0,0,0-11.58-2,38.72,38.72,0,0,0-38.72,38.72H790.47A332.94,332.94,0,0,0,748.71,136.07Z"/><path class="cls-4" d="M732.81,582.44A331.26,331.26,0,0,0,826,377.57L813.54,358.9H827c.07-2.8.21-5.59.21-8.4,0-8-.38-15.87-.93-23.7L790.8,273.65,734,358.9h34.1l-45.47,68.21h34.1l-45.47,68.21h34.1l-45.47,68.21H734L721.64,582C725.37,582.11,729.08,582.31,732.81,582.44Z"/><path class="cls-4" d="M238.81,495.32h34.1l-45.47-68.21h34.1L216.07,358.9h34.1l-56.84-85.26L163.77,318c-1,10.7-1.6,21.53-1.6,32.5,0,2.82.14,5.6.21,8.4h8.22l-7.78,11.67a331.39,331.39,0,0,0,97.5,215.77l5.14.11-15.28-22.92h34.1Z"/><path class="cls-4" d="M372.8,523.52,360.48,542c31.62.82,63.23,2.85,94.09,3.44,15.64.3,31.4.66,47.2,1l-15.28-22.92h34.1l-45.47-68.21h34.1L463.74,387.1h34.1l-45.47-68.21h34.1l-56.84-85.26L372.8,318.89h34.1L361.43,387.1h34.1l-45.47,68.21h34.1l-45.47,68.21Z"/><path class="cls-4" d="M499.22,523.52,486.9,542c31.62.82,63.23,2.85,94.09,3.44,15.64.3,31.4.66,47.2,1L612.9,523.52H647l-45.47-68.21h34.1L590.16,387.1h34.1l-45.47-68.21h34.1l-56.84-85.26-56.84,85.26h34.1L487.85,387.1H522l-45.47,68.21h34.1l-45.47,68.21Z"/><polygon class="cls-4" points="725.69 319.33 551.51 295.49 359.59 307.41 304.17 296.96 226.9 337.05 272.92 495.32 618.4 495.32 725.69 360.89 725.69 319.33"/><path class="cls-4" d="M614.47,541.67l-12.32,18.48c31.62.82,63.23,2.85,94.09,3.44,15.64.3,31.4.66,47.2,1l-15.28-22.92h34.1l-45.47-68.21h34.1l-45.47-68.21h34.1L694,337h34.1l-56.84-85.26L614.47,337h34.1L603.1,405.26h34.1l-45.47,68.21h34.1l-45.47,68.21Z"/><path class="cls-4" d="M247.33,541.67,235,560.16c31.62.82,63.23,2.85,94.09,3.44,15.64.3,31.4.66,47.2,1L361,541.67h34.1l-45.47-68.21h34.1l-45.47-68.21h34.1L326.91,337H361l-56.84-85.26L247.33,337h34.1L236,405.26h34.1L224.6,473.46h34.1l-45.47,68.21Z"/><path class="cls-5" d="M796.37,490.24l-11.19-16.78h18.4q3-7.49,5.61-15.14l-35.38-53.06h34.1L762.45,337h34.1l-56.84-85.26L682.87,337H717L671.5,405.26h34.1l-45.47,68.21h34.1l-45.47,68.21h34.1L637.4,609.88h34.1l-23.88,35.83A333.75,333.75,0,0,0,796.37,490.24Z"/><path class="cls-5" d="M193,490.24l11.19-16.78h-18.4q-3-7.49-5.61-15.14l35.38-53.06h-34.1L226.9,337h-34.1l56.84-85.26L306.47,337h-34.1l45.47,68.21h-34.1l45.47,68.21H295.1l45.47,68.21h-34.1l45.47,68.21h-34.1l23.88,35.83A333.75,333.75,0,0,1,193,490.24Z"/><path class="cls-6" d="M703,609.59l-15.4-23.1h34.1l-45.47-68.21h34.1l-45.47-68.21h34.1l-45.47-68.21h34.1l-45.47-68.21h34.1l-56.84-85.26-56.84,85.26h34.1l-45.47,68.21h34.1l-45.47,68.21h34.1l-45.47,68.21h34.1L517,586.5h34.1l-45.47,68.21h34.1l-18.07,27.11A330.83,330.83,0,0,0,703,609.59Z"/><path class="cls-6" d="M286.29,609.59l15.4-23.1h-34.1l45.47-68.21H279l45.47-68.21h-34.1l45.47-68.21h-34.1l45.47-68.21h-34.1l56.84-85.26,56.84,85.26h-34.1l45.47,68.21H404l45.47,68.21h-34.1l45.47,68.21h-34.1l45.47,68.21H438.1l45.47,68.21H449.47l18.07,27.11A330.83,330.83,0,0,1,286.29,609.59Z"/><path class="cls-3" d="M453,155.89a33.91,33.91,0,0,1,42.52-33.17,48.83,48.83,0,0,1,84.8,33.17Z"/><g class="cls-7"><path class="cls-3" d="M535.28,210.68A22.14,22.14,0,0,1,563,189a31.88,31.88,0,0,1,55.36,21.65H535.28Z"/></g><g class="cls-7"><path class="cls-3" d="M626.5,119.48A22.74,22.74,0,0,0,598,97.24a32.75,32.75,0,0,0-56.86,22.24Z"/></g><path class="cls-3" d="M470.14,147.54a30.84,30.84,0,0,0-9.32,1.58,51.82,51.82,0,0,0-85.26,0,30.84,30.84,0,0,0-9.32-1.58,31.17,31.17,0,0,0-31.17,31.17H501.31A31.17,31.17,0,0,0,470.14,147.54Z"/><g class="cls-7"><path class="cls-3" d="M421,91.25a17,17,0,0,0-5.14.87,28.56,28.56,0,0,0-47,0,17,17,0,0,0-22.32,16.31h91.62A17.18,17.18,0,0,0,421,91.25Z"/></g><path class="cls-5" d="M562.87,568.31H597l-45.47-68.21h34.1L540.14,431.9h34.1l-45.47-68.21h34.1L517.4,295.48h34.1l-56.84-85.26-56.84,85.26h34.1l-45.47,68.21h34.1L415.09,431.9h34.1l-45.47,68.21h34.1l-45.47,68.21h34.1L381,636.53h34.1l-20.7,31.05a333.72,333.72,0,0,0,200.56,0l-20.7-31.05h34.1Z"/><g class="cls-7"><path class="cls-3" d="M297.25,198.71a31.17,31.17,0,0,0-31.17-31.17,30.84,30.84,0,0,0-9.32,1.58A52.1,52.1,0,0,0,230,149.33a332.58,332.58,0,0,0-31.11,49.37Z"/></g><path class="cls-3" d="M617.15,468.4c-5.11,1-10,1-10.88,0s-6.08-2.25-11.55-2.75l-77.52-7c-5.48-.49-9.66-1.85-9.29-3s.66-2.12.63-2.13,1.3-4.31,2.94-9.56l7.1-22.75c1.64-5.25,3.22-5.05,3.52.44l.84,15.38a11.94,11.94,0,0,0,10.5,10.88l49.87,4.47c5.48.49,7-2.52,3.43-6.68l-37-43c-3.59-4.17-5.53-8.44-4.3-9.49s2.21-1.93,2.2-2,3.37-3,7.52-6.61l28.57-24.86c4.15-3.61,5.07-2.8,2.05,1.79L569.71,386a14.07,14.07,0,0,0,1,15.93L619.92,459C623.5,463.19,622.26,467.41,617.15,468.4Z"/><path class="cls-3" d="M601,381.53c.84-5.44-.95-6.12-4-1.52l-12.7,19.35a14,14,0,0,0,1.07,15.91l2.28,2.63c3.61,4.15,7.24,3.1,8.08-2.33Z"/><path class="cls-3" d="M546.87,424.09c-3.24-4.44-5.65-3.58-5.34,1.91l.61,11a11.91,11.91,0,0,0,10.52,10.85l2.39.21c5.48.47,7.31-2.77,4.07-7.21Z"/><path class="cls-3" d="M737.22,411.13c.78.94-2.59,3.76-7.48,6.27l-69.28,35.45c-4.9,2.51-9.26,5.6-9.69,6.87s-5,3.13-10.07,4.12-7.84-2.46-6.07-7.67l24.24-71.35a14.07,14.07,0,0,0-5-15.16l-24-16.64c-4.52-3.13-4-4.23,1.23-2.43l35.8,12.36c5.2,1.8,9.45,3.29,9.45,3.32s1.24.47,2.77,1,1.33,5.2-.44,10.41L660.38,431.4c-1.77,5.21.79,7.42,5.69,4.91l44.57-22.81a11.94,11.94,0,0,0,5.67-14l-5-14.58c-1.78-5.2-.38-6,3.1-1.73l15.1,18.44c3.48,4.26,6.32,7.75,6.3,7.76S736.44,410.19,737.22,411.13Z"/><path class="cls-3" d="M623.2,377.21c-2.81-4.73-1.41-6,3.11-2.9l19,13.19a14,14,0,0,1,5,15.16L649.16,406c-1.79,5.2-5.55,5.59-8.36.86Z"/><path class="cls-3" d="M689.29,396.44c1.35-5.33,3.9-5.44,5.67-.23l3.56,10.45a11.91,11.91,0,0,1-5.69,14l-2.14,1.09c-4.9,2.49-7.82.16-6.47-5.17Z"/><path class="cls-3" d="M742.24,487.41l-21.78,1.19,15.16,10.59L723.31,573.3l-1.32.91-.29-.08L711.36,571l-12.21-3.65L695,566.14l-9.37-2.8-14.07-4.21-.26-.08-12-3.57,3.62,7.06,2.61,5.09,4.52,8.81h0l-3,35.65,15.73-10.85,5.69,11.1-12.47,14h0l-.4.44.53-4a7.85,7.85,0,0,0-4.39-8.12l-10.44-5a7.79,7.79,0,0,0-4.8-.65,7.91,7.91,0,0,0-4.21,2.39l-7.8,8.55a7.85,7.85,0,0,0-1,9.18l2,3.47-64.22-31.78L542.1,536.76l10.09-15.49-20.64,7L518.2,512.93l13.61-15.14,29.36,9.71,18.07-27.75,50.3-9.77,50.3-9.76,27.15,19,23.59-20,18.29,8.95Z"/><polygon class="cls-3" points="694.98 566.14 678.63 593.09 667.09 612.1 670.08 576.45 670.08 576.44 671.54 559.13 685.61 563.34 694.98 566.14"/><polygon class="cls-3" points="721.99 574.21 682.82 601.25 667.09 612.1 678.63 593.09 694.98 566.14 699.15 567.39 711.36 571.04 721.7 574.13 721.99 574.21"/><polygon class="cls-3" points="671.28 559.05 671.54 559.13 670.08 576.44 665.56 567.63 662.95 562.54 659.33 555.48 671.28 559.05"/><polygon class="cls-3" points="723.31 573.3 722.39 574.33 688.51 612.35 682.82 601.25 721.99 574.21 723.31 573.3"/><path class="cls-3" d="M673.59,622.55l-.37,3.28-.71,6.33a6.56,6.56,0,0,1-5.21,5.7l-5,1-4.45.91a6.56,6.56,0,0,1-7-3.19l-3.13-5.51L646,628.2a6.57,6.57,0,0,1,.87-7.67l6.53-7.14a6.57,6.57,0,0,1,7.56-1.55l8.81,4A6.57,6.57,0,0,1,673.59,622.55Z"/><line class="cls-8" x1="623.83" y1="467.51" x2="605.25" y2="471.11"/><path class="cls-3" d="M754.68,583.74q-6.3,7-13,13.75a351.3,351.3,0,0,1-42.26,36.08l-7.78-15.16,0-.07h0l-3.07-6-5.69-11.1-4.19-8.16-2.93-5.72-5.62-10.92h0l-4.52-8.81-2.61-5.09-3.62-7.06,12,3.57.26.08,14.07,4.21,9.37,2.8,4.17,1.25L711.36,571l10.34,3.09.29.08.4.12L726,575.4l10.55,3.07.08,0Z"/><path class="cls-9" d="M816.65,213.76A349.91,349.91,0,1,0,630.41,672.48q10.09-4.27,19.86-9.13a349.74,349.74,0,0,0,91.39-65.86q6.72-6.72,13-13.75a347.18,347.18,0,0,0,49.47-71.06q6.78-12.91,12.5-26.44a351,351,0,0,0,0-272.48ZM479.39,648.43A300.64,300.64,0,0,1,414.11,638c-1.71-.48-3.41-1-5.1-1.47q-11.6-3.42-22.84-7.77a296.29,296.29,0,0,1-39.67-18.88,299.57,299.57,0,0,1-62.69-47.71l-.15-.14-.76-.76-.39-.39a300.94,300.94,0,0,1-44.35-56.61,295.08,295.08,0,0,1-34-81.95c-.07-.3-.15-.6-.21-.9q-2-8-3.48-16.16-2.16-11.61-3.4-23.45A302.47,302.47,0,0,1,195.39,350q0-6.5.28-13c.06-1.56.14-3.11.23-4.66a299.9,299.9,0,0,1,6.16-45.66q.77-3.55,1.62-7.08a294.63,294.63,0,0,1,32.71-80.94,297.91,297.91,0,0,1,20.14-29.9,303.72,303.72,0,0,1,26.37-30.08,298.78,298.78,0,0,1,422.54,0q6.93,6.93,13.34,14.22a298.6,298.6,0,0,1,33.17,45.76,294.6,294.6,0,0,1,31.71,76.88q.83,3.21,1.56,6.43a297.92,297.92,0,0,1,7.12,48.71q.21,3.15.33,6.32.28,6.45.28,13a302.71,302.71,0,0,1-1.53,30.51q-1.26,12.49-3.54,24.75-1.48,8-3.42,15.95c-.35,1.42-.7,2.85-1.07,4.26a295.18,295.18,0,0,1-38.49,87.21c-.32.5-.65,1-1,1.49q-6.59,10-14,19.48a304.41,304.41,0,0,1-24.46,27.62l-.36.35c-.64.65-1.28,1.28-1.93,1.91l-.2.2c-1.25,1.23-2.52,2.44-3.8,3.66q-5.31,5-10.83,9.73-6.18,5.32-12.62,10.25c-2.3,1.77-4.62,3.51-7,5.19q-6.68,4.84-13.6,9.27c-.43.29-.86.56-1.3.84q-5.52,3.5-11.17,6.74c-.27.16-.54.32-.82.47-.79.46-1.58.9-2.37,1.34q-2.19,1.23-4.39,2.4-6.87,3.69-13.93,7-9,4.2-18.18,7.81-11.61,4.53-23.6,8.08l-4.29,1.24a299.33,299.33,0,0,1-65.19,10.62q-7.83.39-15.72.4Q486.74,648.78,479.39,648.43Z"/><g id="grzHuT.tif"><path class="cls-10" d="M95.05,653.33c-1-2.66-3.19-4.23-5.14-5.76-6-4.2-12.8-6.67-20-8.45-4.83-1.13-9.84-2.3-14.79-2.28-7.12,0-14.1,1.67-19.84,6-4.23,3.19-5.54,8-3.09,12a10.64,10.64,0,0,0,6,4.62c7.39,2.62,14.76,1.67,21.64-1.78a36.21,36.21,0,0,1,16.56-4.16c5.78-.19,11.52-.2,17.25-.21A4.85,4.85,0,0,0,95.05,653.33Z"/><path class="cls-10" d="M269.38,645.37a13.63,13.63,0,0,0-6.63-5.37,54.35,54.35,0,0,0-19.3-5.29c-5-.57-10-1.15-14.88-.52-7.51.71-14.5,3.14-20,8.75-3.26,3.26-4.14,7.17-2.5,10.58,1.5,3.18,4.47,4.59,7.6,5.44,6.67,1.63,12.91-.22,18.85-3.14,2.29-1.15,4.37-3,6.66-4.1,5.57-3,11.82-3.48,17.81-4.41,3.29-.48,6.77-.91,10-1.21A5.68,5.68,0,0,1,269.38,645.37Z"/><path class="cls-10" d="M177.33,718.76c-2.56.68-5.12,1.36-7.81,1.81-6.45,1.2-12.91,2.39-19.26,3.22-2.27.36-4.75-.71-7-1.13-7.5-1.46-14.91-1.12-21.39,3a12.92,12.92,0,0,0-4.89,5.58c-2.38,5.08.56,10.23,6.57,12.08A36.92,36.92,0,0,0,150,741.92c6.31-2.82,12.53-6.05,17.9-10.51a61.63,61.63,0,0,0,8.62-9.1c.8-.77,1-2.11,1.46-3.16C177.59,719.23,177.46,719,177.33,718.76Z"/><path class="cls-10" d="M346.75,704.92c-1.49.38-2.74.63-3.81.93-7.11,1.41-14.26,3-21.5,4.19a18.15,18.15,0,0,1-7.34-.63c-7.45-1.65-14.94-1.72-21.82,1.73a17.24,17.24,0,0,0-5,4c-3.85,4.68-2.64,10.35,2.47,13.33,4.43,2.6,9.51,2.8,14.64,2.83,6.7.06,12.86-2.21,18.8-5.13,7.34-3.72,14.24-8,19.88-14.12A16.33,16.33,0,0,0,346.75,704.92Z"/><path class="cls-10" d="M270.34,654.13c-2.14.6-3.86,1.12-5.59,1.63-6.37,1.61-12.66,3.65-18.93,4.89a27.06,27.06,0,0,1-9.06-.11c-7.24-1-14.33-.37-20.65,3.23a16.54,16.54,0,0,0-5.24,4.69c-3.25,4.64-1.15,10,4.35,12.26,4.26,1.76,8.84,1.63,13.42,1.5,6.8-.31,12.83-2.81,18.68-6.15,6.32-3.6,12.51-7.44,17.4-13,1.94-2,3.2-4.46,4.82-6.78C269.79,656.15,269.81,655.37,270.34,654.13Z"/><path class="cls-10" d="M94.21,662.19c-3.53.61-7.29,1.36-10.82,2-4.5.55-9.1,1.46-13.49,1.64a39.45,39.45,0,0,1-9.36-1.18c-7.4-1.83-14.48-2-21.62,1A18.26,18.26,0,0,0,34,669.2c-3.65,3.94-2.49,9.79,2.44,12.73,4.24,2.55,9,3.07,13.89,3.41,9.93.55,18.48-3.24,27-7.62,5.75-3,11.43-6.36,15.43-11.58a25.39,25.39,0,0,0,1.88-3.24Q94.48,662.26,94.21,662.19Z"/><path class="cls-10" d="M175.31,709.52c-2-1.52-3.81-3.42-6-4.62A72.88,72.88,0,0,0,135,697.1a34.67,34.67,0,0,0-18.87,6.1,11.45,11.45,0,0,0-5,6.73,7.39,7.39,0,0,0,3.15,8c4.14,2.91,8.76,3.39,13.67,2.76,5.52-.66,10.65-2.81,15.7-5.38a30.25,30.25,0,0,1,10.7-3c6.35-.83,13-1.19,19.41-1.6a4.17,4.17,0,0,0,1.07-.3A1.72,1.72,0,0,0,175.31,709.52Z"/><path class="cls-10" d="M344.13,695.7c-1.64-1.24-3-2.8-4.68-3.85-5-3.35-10.84-5.15-16.64-6.34A108.87,108.87,0,0,0,307,683.35a34.78,34.78,0,0,0-22.39,6.71,11.75,11.75,0,0,0-4.25,6.15c-.77,3.54,1,7,4.89,8.85a20.15,20.15,0,0,0,11.57,1.79,35.59,35.59,0,0,0,15.29-5.3c4.55-2.9,9.78-3.25,14.83-3.64,4.87-.45,9.91-.84,14.73-1.1a10.22,10.22,0,0,0,2.27-.36C343.8,696.2,344,696.07,344.13,695.7Z"/><path class="cls-10" d="M256.37,720.27a5.16,5.16,0,0,0-2,6,12,12,0,0,0,5.11,7.33c1.82,1.29,4.08,1.71,6.05.28,1.92-1.25,3.95-2.87,3.92-5.65a2.42,2.42,0,0,1,.12-1.15c.56-6.37-4-10-10-8.09C258.19,719.38,257.25,719.92,256.37,720.27Z"/><path class="cls-10" d="M87,744c.77.8,1.49,1.79,2.44,2.64,1.72,1.66,3.83,2.63,6.3,1.53s4.68-2.67,4.57-5.86a2.42,2.42,0,0,1,.12-1.15c1.19-5.8-2.71-8.85-8.6-8.29C84.84,733.14,83.28,738.84,87,744Z"/><path class="cls-10" d="M12.76,658.64a5.77,5.77,0,0,0,2.37-6.47c-.77-3-1.53-6-5-7.09-3.07-1-5.72-.78-7.49,2.1a25.77,25.77,0,0,0-2.57,7.2c-.57,2.81,1.5,5.35,4.54,5.79A8.63,8.63,0,0,0,12.76,658.64Z"/><path class="cls-10" d="M179.29,648.15c-3.48,2.6-4.93,9.32-3.24,12.55a3.43,3.43,0,0,0,1.35,1.56c2.59,2.09,7.69,1.51,10.75-1,2.54-2.07,2.75-5,1.35-8.52a7.6,7.6,0,0,0-7.65-5.26C180.83,647.58,179.89,648.12,179.29,648.15Z"/><path class="cls-10" d="M5.36,685.67c1.42.59,2.74,1.54,4.08,1.71,5.35.68,9.16-2.43,9.56-7.46,0-.6.12-1.15-.15-1.62-1-2.84-6.06-6-9.12-5.66a5.41,5.41,0,0,0-2.43.92C4,675.42,3,682.05,5.36,685.67Z"/><path class="cls-10" d="M84.54,717.65c2.34,3,6.06,3.84,8.84,1.63,4.23-3.19,5.44-7.6,3-10.85s-8.19-4-11.43-1.55C82.1,709.27,81.94,714.17,84.54,717.65Z"/><path class="cls-10" d="M185.32,675.89c-3,2.34-3.76,8.66-1.42,11.67,2.2,2.78,6.92,2.88,10.4.28,2.73-2,3.85-6.85,2.23-8.87C193.8,675.25,188.1,673.69,185.32,675.89Z"/><path class="cls-10" d="M253.55,703.88c2.47,3.25,6.06,3.84,9.08,1.5,4.23-3.19,5.11-7.1,2.69-10.53-2.47-3.25-8.37-4.07-11.38-1.74C251.1,695.5,250.94,700.4,253.55,703.88Z"/></g><g id="grzHuT.tif-2" data-name="grzHuT.tif"><path class="cls-10" d="M840.08,62.46c-1.54-2.41-3.94-3.54-6.15-4.66-6.66-3-13.84-4.09-21.27-4.45-5-.18-10.1-.37-15,.61-7,1.39-13.51,4.35-18.31,9.73-3.54,3.94-3.91,8.88-.73,12.37a10.64,10.64,0,0,0,6.82,3.37c7.75,1.15,14.81-1.19,20.89-5.9a36.21,36.21,0,0,1,15.45-7.26c5.64-1.3,11.27-2.41,16.89-3.52A4.85,4.85,0,0,0,840.08,62.46Z"/><path class="cls-10" d="M933.39,110.87c-2.38,1.16-4.76,2.32-7.32,3.28-6.1,2.41-12.21,4.83-18.29,6.86-2.16.8-4.79.22-7.09.24-7.65,0-14.85,1.76-20.4,7.09a12.92,12.92,0,0,0-3.73,6.41c-1.36,5.44,2.51,9.93,8.77,10.59a36.92,36.92,0,0,0,25.71-6.5c5.65-4,11.13-8.35,15.55-13.75a61.63,61.63,0,0,0,6.71-10.59c.64-.91.55-2.25.82-3.38C933.74,111.28,933.57,111.07,933.39,110.87Z"/><path class="cls-10" d="M841,71.32c-3.34,1.28-6.89,2.74-10.24,4-4.31,1.4-8.65,3.18-12.93,4.2a39.45,39.45,0,0,1-9.41.64c-7.62-.37-14.59.83-21,5.13a18.26,18.26,0,0,0-4.15,4.47c-2.82,4.57-.56,10.09,4.84,12,4.65,1.68,9.46,1.28,14.29.68,9.85-1.37,17.51-6.73,25-12.67,5.08-4,10-8.43,12.92-14.33a25.39,25.39,0,0,0,1.22-3.54Q841.24,71.34,841,71.32Z"/><path class="cls-10" d="M929.64,102.18c-2.21-1.12-4.39-2.62-6.82-3.37a72.88,72.88,0,0,0-35.09-1.08,34.67,34.67,0,0,0-17.34,9.61,11.45,11.45,0,0,0-3.62,7.57,7.39,7.39,0,0,0,4.62,7.22c4.63,2.06,9.24,1.64,13.95.08,5.29-1.71,9.91-4.81,14.38-8.3a30.25,30.25,0,0,1,9.93-5c6.08-2,12.5-3.66,18.74-5.3a4.17,4.17,0,0,0,1-.5A1.72,1.72,0,0,0,929.64,102.18Z"/><path class="cls-10" d="M849.6,153c.91.64,1.8,1.47,2.9,2.13,2,1.3,4.26,1.85,6.48.29s4.08-3.52,3.36-6.63a2.42,2.42,0,0,1-.11-1.15c.06-5.92-4.36-8.16-10-6.48C845.39,142.75,845,148.64,849.6,153Z"/><path class="cls-10" d="M760.34,83.49a5.77,5.77,0,0,0,1.08-6.8c-1.32-2.77-2.65-5.55-6.24-6-3.22-.43-5.76.34-6.95,3.5a25.77,25.77,0,0,0-1.14,7.56c0,2.87,2.5,5,5.57,4.81A8.63,8.63,0,0,0,760.34,83.49Z"/><path class="cls-10" d="M758.26,111.43c1.51.3,3,1,4.33.9,5.38-.36,8.53-4.15,7.94-9.16-.15-.58-.11-1.15-.46-1.56-1.53-2.6-7.1-4.73-10-3.8a5.41,5.41,0,0,0-2.2,1.37C755,101.63,755.24,108.34,758.26,111.43Z"/><path class="cls-10" d="M842.12,127.6c2.87,2.51,6.69,2.6,9-.1,3.54-3.94,3.88-8.5.83-11.22s-8.81-2.37-11.52.67C838.11,119.85,838.9,124.68,842.12,127.6Z"/></g></svg>