<svg id="Layer_1" data-name="Layer 1" xmlns="http://www.w3.org/2000/svg" viewBox="0 0 770 770"><defs><style>.cls-1{fill:#3aaedf;}.cls-2{fill:#ff6464;}.cls-3{fill:#eff2fa;}.cls-4{fill:#ffd782;}.cls-5{fill:#ffc36e;}.cls-6{fill:#c3e678;}.cls-7{fill:#a5d76e;}.cls-8{fill:#b4e1fa;}.cls-9{fill:#9be6d2;}.cls-10{fill:#78d2be;}.cls-11{fill:#d2555a;}.cls-12{fill:#a0d2f0;}.cls-13{fill:#d7deed;}.cls-14{fill:#e6af78;}.cls-15{fill:#d29b6e;}.cls-16{fill:#f0c087;}.cls-17{fill:#5b5d6e;}.cls-18{fill:#515262;}.cls-19{fill:#785550;}.cls-20{fill:#694b4b;}.cls-21{fill:#5a4146;}</style></defs><title>manage</title><path class="cls-1" d="M770,385a383.27,383.27,0,0,1-42.83,176.64Q720.78,574,713.5,585.88a384.38,384.38,0,0,1-35.16,48.48C607.73,717.35,502.51,770,385,770A385,385,0,0,1,0,385C0,172.37,172.37,0,385,0,529.77,0,655.88,79.9,721.62,198A383.23,383.23,0,0,1,770,385Z"/><ellipse class="cls-2" cx="384.5" cy="385.2" rx="321.5" ry="312.08"/><path class="cls-3" d="M770,385a383.27,383.27,0,0,1-42.83,176.64Q720.78,574,713.5,585.88a384.38,384.38,0,0,1-35.16,48.48H213.45c-.55,0-1.09,0-1.63-.06a23.14,23.14,0,0,1-5-.87,24.28,24.28,0,0,1-15.87-14.33,23.87,23.87,0,0,1-1.67-7.44c0-.51-.05-1-.05-1.54V222.26A24.24,24.24,0,0,1,213.45,198H721.62A383.23,383.23,0,0,1,770,385Z"/><path class="cls-4" d="M504.34,573.76H455.86a12.12,12.12,0,0,1-12.12-12.12V270.74a12.12,12.12,0,0,1,12.12-12.12h48.48a12.12,12.12,0,0,1,12.12,12.12v290.9A12.12,12.12,0,0,1,504.34,573.76Z"/><path class="cls-5" d="M504.34,573.76H455.86a12.12,12.12,0,0,1-12.12-12.12V440.43a12.12,12.12,0,0,1,12.12-12.12h48.48a12.12,12.12,0,0,1,12.12,12.12V561.64A12.12,12.12,0,0,1,504.34,573.76Z"/><path class="cls-6" d="M601.31,573.76H552.83a12.12,12.12,0,0,1-12.12-12.12V440.43a12.12,12.12,0,0,1,12.12-12.12h48.48a12.12,12.12,0,0,1,12.12,12.12V561.64A12.12,12.12,0,0,1,601.31,573.76Z"/><path class="cls-7" d="M601.31,573.76H552.83a12.12,12.12,0,0,1-12.12-12.12V537.4a12.12,12.12,0,0,1,12.12-12.12h48.48a12.12,12.12,0,0,1,12.12,12.12v24.24A12.12,12.12,0,0,1,601.31,573.76Z"/><path class="cls-8" d="M310.41,573.76H261.93a12.12,12.12,0,0,1-12.12-12.12V440.43a12.12,12.12,0,0,1,12.12-12.12h48.48a12.12,12.12,0,0,1,12.12,12.12V561.64A12.12,12.12,0,0,1,310.41,573.76Z"/><path class="cls-9" d="M698.28,573.76H649.79a12.12,12.12,0,0,1-12.12-12.12V343.47a12.12,12.12,0,0,1,12.12-12.12h48.48a12.12,12.12,0,0,1,12.12,12.12V561.64A12.12,12.12,0,0,1,698.28,573.76Z"/><path class="cls-10" d="M698.28,573.76H649.79a12.12,12.12,0,0,1-12.12-12.12V488.91a12.12,12.12,0,0,1,12.12-12.12h48.48a12.12,12.12,0,0,1,12.12,12.12v72.72A12.12,12.12,0,0,1,698.28,573.76Z"/><path class="cls-2" d="M407.38,573.76H358.9a12.12,12.12,0,0,1-12.12-12.12V391.95a12.12,12.12,0,0,1,12.12-12.12h48.48a12.12,12.12,0,0,1,12.12,12.12V561.64A12.12,12.12,0,0,1,407.38,573.76Z"/><path class="cls-11" d="M407.38,573.76H358.9a12.12,12.12,0,0,1-12.12-12.12V513.16A12.12,12.12,0,0,1,358.9,501h48.48a12.12,12.12,0,0,1,12.12,12.12v48.48A12.12,12.12,0,0,1,407.38,573.76Z"/><path class="cls-12" d="M310.41,573.76H261.93a12.12,12.12,0,0,1-12.12-12.12V537.4a12.12,12.12,0,0,1,12.12-12.12h48.48a12.12,12.12,0,0,1,12.12,12.12v24.24A12.12,12.12,0,0,1,310.41,573.76Z"/><path class="cls-13" d="M727.17,561.64Q720.78,574,713.5,585.88H225.57a12.12,12.12,0,0,1,0-24.24Z"/><polygon class="cls-14" points="263.8 599.86 263.8 560.71 163.1 560.71 163.1 599.86 213.45 644.62 263.8 599.86"/><path class="cls-8" d="M358.9,640v43.82A11.19,11.19,0,0,1,347.71,695H156.61a387,387,0,0,1-76.52-74.88,22.6,22.6,0,0,1,5.16-1.91l62.69-14.75,5.45-1.28,1.09-.26a11.1,11.1,0,0,0,5.09-2.75l3.53,2.25,2.19,1.39,3.85,2.45,21.79,13.87,22.52,14.33,36.6-21.34,19.47-11.36a11.37,11.37,0,0,0,2.9,1.17l6.53,1.54,62.69,14.74a22.29,22.29,0,0,1,12.44,7.92c.37.47.73,1,1.06,1.46a21.91,21.91,0,0,1,1.85,3.36c.2.45.39.91.55,1.38s.32.9.45,1.36c.07.23.14.46.19.7h0a22.34,22.34,0,0,1,.63,3.67C358.87,638.67,358.9,639.31,358.9,640Z"/><path class="cls-15" d="M163.1,560.71V602c63.43,22.85,100.7-34.34,100.7-34.34v-7Z"/><path class="cls-16" d="M140.72,432l4.88,107.25A33.57,33.57,0,0,0,159,564.61L182.12,582a33.56,33.56,0,0,0,20.14,6.71h22.38A33.57,33.57,0,0,0,244.78,582l23.13-17.35a33.56,33.56,0,0,0,13.39-25.33L286.17,432H140.72Z"/><path class="cls-14" d="M196.67,454.42c22.38,0,55.94-5.59,63.9-22.38H140.72l4.87,107.25A33.57,33.57,0,0,0,159,564.62L182.12,582a33.56,33.56,0,0,0,20.14,6.71h11.19c-11.19,0-33.57-22.38-33.57-50.35V471.2C179.88,465.6,185.48,454.42,196.67,454.42Z"/><path class="cls-12" d="M317.83,658.66l36.25-32.56A22.34,22.34,0,0,1,358.9,640v43.81A11.19,11.19,0,0,1,347.71,695H308.55v-15.5A28,28,0,0,1,317.83,658.66Z"/><polygon class="cls-17" points="227.43 694.97 199.46 694.97 202.96 644.62 223.94 644.62 227.43 694.97"/><path class="cls-18" d="M227.43,633.43h-28v3.23A13.55,13.55,0,0,0,213,650.21h.87a13.55,13.55,0,0,0,13.55-13.55v-3.23Z"/><path class="cls-12" d="M162.32,587.41l51.13,46s-14.32,7.23-32,21.8a7.18,7.18,0,0,1-11.11-2.51l-24-52.85,7.6-11.4A5.59,5.59,0,0,1,162.32,587.41Z"/><path class="cls-12" d="M264.58,587.41l-51.13,46s14.32,7.23,32,21.8a7.18,7.18,0,0,0,11.11-2.51l24-52.85-7.6-11.4A5.59,5.59,0,0,0,264.58,587.41Z"/><path class="cls-19" d="M247.36,395,252.61,432c23.94,4.79,27.39,42.36,27.89,53.09a11,11,0,0,0,1.77,5.47l9.13,14.17s-3.13-23.43,11.19-39.16C302.59,465.6,307.5,372.6,247.36,395Z"/><path class="cls-16" d="M297,502.37l-6.32,25.27a6.73,6.73,0,0,1-6.53,5.09h0a6.73,6.73,0,0,1-6.67-5.89L274.26,501a11.58,11.58,0,0,1,11.49-13h0A11.58,11.58,0,0,1,297,502.37Z"/><path class="cls-20" d="M146.09,385l8.28,5.65c-37.41,27.62-30.42,75-30.42,75,11.19,11.19,11.19,39.16,11.19,39.16l11.19-11.19S142,461.25,163.1,448.82c19.58-11.54,36.71-5.59,54.19-5.59,46.85,0,60-17.66,57.69-39.16-1.18-11.13-18.19-34.3-61.54-33.57C196,370.8,163.1,376.1,146.09,385Z"/><path class="cls-21" d="M142.82,438.33s-5.94-23.43,11.54-47.73c-37.41,27.62-30.42,75-30.42,75,11.19,11.19,11.19,39.16,11.19,39.16l11.19-11.19S142,461.25,163.1,448.82c19.58-11.54,36.71-5.59,54.19-5.59a137.41,137.41,0,0,0,20.17-1.39C201.38,443.05,180.12,415.72,142.82,438.33Z"/><path class="cls-14" d="M129.89,502.37l6.32,25.27a6.73,6.73,0,0,0,6.53,5.09h0a6.73,6.73,0,0,0,6.67-5.89L152.64,501a11.58,11.58,0,0,0-11.49-13h0A11.58,11.58,0,0,0,129.89,502.37Z"/><path class="cls-12" d="M280.58,683.78h-28A11.19,11.19,0,0,0,241.42,695h50.35A11.19,11.19,0,0,0,280.58,683.78Z"/><path class="cls-11" d="M721.62,198C655.88,79.9,529.77,0,385,0,172.37,0,0,172.37,0,385A384.94,384.94,0,0,0,385,770c117.51,0,222.73-52.65,293.34-135.64a384.38,384.38,0,0,0,35.16-48.48q7.26-11.84,13.67-24.24A385.59,385.59,0,0,0,721.62,198ZM627.77,589.24c-.9,1-1.81,2-2.71,3l-.28.3c-.49.53-1,1.07-1.48,1.6l-1.49,1.59-1.51,1.59c-.5.53-1,1.05-1.51,1.57-.12.14-.26.27-.39.41l-2.28,2.32-1,1-1.33,1.32c-.44.44-.88.88-1.33,1.31l-.65.64q-2.73,2.64-5.52,5.23l-.72.66c-1,.94-2.05,1.88-3.09,2.8s-2.18,2-3.29,2.91l-.11.1-.33.28-1.51,1.31-1.52,1.29q-1.71,1.45-3.45,2.88c-1.09.9-2.19,1.79-3.29,2.68l-.19.15-3.53,2.78q-1.77,1.38-3.57,2.73c-1.14.87-2.29,1.72-3.45,2.57l-.16.12-.13.09q-1.09.81-2.19,1.59l-.57.41L573,638q-1.72,1.21-3.46,2.4l-.86.59-.15.1c-1.09.75-2.19,1.48-3.3,2.21-.87.58-1.75,1.15-2.63,1.72s-1.76,1.14-2.65,1.7-1.77,1.11-2.66,1.66c-1.82,1.14-3.66,2.25-5.51,3.35l-2.59,1.51c-.91.54-1.82,1.06-2.74,1.57l-2.8,1.57c-.93.52-1.87,1-2.81,1.54s-1.89,1-2.84,1.52l-2.85,1.49-2.6,1.33-2.61,1.3c-1.72.86-3.46,1.69-5.2,2.51l-2.37,1.11-.62.28-2.27,1-2.15,1q-2.48,1.09-5,2.14l-2,.84-1.56.64,0,0-2.74,1.1-2.71,1.06c-.95.37-1.89.73-2.84,1.08s-1.67.63-2.51.93c-2.33.86-4.67,1.68-7,2.48q-1.14.41-2.31.78l-.28.09-2.08.68-.79.26-.4.12q-.75.26-1.5.48l-1.9.59-2.95.89q-1.48.45-3,.87c-1,.29-2,.57-3,.84l-3,.81c-.72.2-1.44.38-2.16.57l-.16,0-.5.13-.69.17c-.87.23-1.73.44-2.6.65q-.3.09-.6.15c-.92.23-1.83.45-2.75.66q-3.18.75-6.37,1.43l-3.21.67-2.62.52c-.36.08-.72.15-1.09.21-.91.18-1.81.35-2.72.51l-3.24.58c-1.08.18-2.16.37-3.25.54l-2.37.37-.37.06-1.64.25-2,.29-.8.11-2,.28c-1.07.15-2.16.28-3.25.42l-4,.46c-1.12.13-2.25.25-3.38.36l-2,.19-2.78.25c-1.23.11-2.47.21-3.7.3q-4.47.35-9,.55l-3.71.16-3.43.11-1.51,0q-1.66,0-3.33.06c-1.39,0-2.77,0-4.16,0l-2.91,0h-.14l-2.62,0-2.09,0h-.07l-2-.06h-.4c-1.26,0-2.53-.08-3.79-.14h-.45c-.36,0-.71,0-1.07,0l-.28,0c-.92,0-1.83-.08-2.74-.14l-1.51-.08-1.29-.08h-.24c-.71,0-1.41-.09-2.11-.15l-1-.07q-2.09-.15-4.14-.33h-.08c-.67-.05-1.33-.11-2-.18l-2.47-.23-.31,0-.38,0-1-.11c-1.36-.14-2.73-.29-4.09-.46h-.2c-1.14-.13-2.26-.27-3.4-.42l-.49-.06-1.07-.14-.16,0-3.46-.49-2.35-.35-2.35-.36q-2.34-.37-4.68-.78l-2.07-.37-2.15-.39-2.17-.42-2.65-.53-.93-.19-.28-.06-2.46-.52-.62-.13-1.31-.29c-.9-.2-1.8-.4-2.7-.62-.45-.09-.89-.2-1.33-.3l-.54-.13-3.67-.89c-1.38-.34-2.75-.69-4.12-1.05l-3.63-1-.27-.08c-.9-.24-1.8-.49-2.69-.75l-1.65-.48-3.09-.91-3.76-1.16-3.75-1.21-.25-.08c-1.16-.38-2.32-.77-3.47-1.17s-2.47-.85-3.7-1.29-2.46-.88-3.69-1.33l-3.54-1.33-.26-.1c-1.17-.45-2.33-.9-3.5-1.37-.89-.35-1.77-.7-2.66-1.07l-1.83-.75-2.41-1-.77-.33c-1-.44-2.07-.88-3.1-1.34h0l-2.65-1.18-4-1.81-3.94-1.87c-1-.49-2-1-3-1.49l-1.34-.66c-.83-.41-1.65-.83-2.47-1.25l-.59-.3-2.92-1.53c-1.14-.6-2.27-1.2-3.4-1.82l-3.12-1.71-.26-.15q-1.36-.75-2.7-1.53l-.51-.29L219,652.83l-.36-.21-1.57-.93c-.84-.49-1.67-1-2.51-1.5l-.11-.07c-1-.61-2-1.23-3-1.86l-1.59-1c-1.39-.86-2.76-1.74-4.13-2.64-.74-.48-1.48-1-2.22-1.46-1-.65-2-1.33-3-2h0c-.13-.08-.25-.17-.37-.26l-.08,0-.46-.32c-.88-.59-1.74-1.2-2.6-1.8s-1.95-1.36-2.92-2.06l-.43-.31q-1.44-1-2.85-2.07c-1-.72-2-1.44-2.94-2.18l-.25-.19c-.82-.61-1.63-1.23-2.44-1.85l-.16-.12-.66-.51c-.45-.34-.89-.69-1.32-1l-1.32-1c-.9-.71-1.81-1.43-2.7-2.15l-.66-.54c-.79-.64-1.59-1.29-2.37-1.94l-.17-.14s0,0,0,0c-.82-.68-1.64-1.36-2.45-2l-.41-.34-.14-.12-2.15-1.85c-.78-.67-1.55-1.34-2.31-2L165.91,614l-.72-.66-2-1.86c-.78-.71-1.55-1.43-2.31-2.15l-1.63-1.54-2.44-2.35c-.54-.52-1.07-1-1.6-1.58s-1.18-1.16-1.77-1.76h0l-1.62-1.64c-.8-.81-1.59-1.62-2.38-2.45l-1.1-1.15q-2-2.14-4-4.33c-.67-.72-1.33-1.46-2-2.19s-1.32-1.47-2-2.21q-.44-.48-.84-1l-.84-1c-1.39-1.6-2.76-3.2-4.11-4.83q-.87-1-1.71-2.07a2.07,2.07,0,0,1-.14-.17c-.37-.43-.73-.88-1.08-1.32-.8-1-1.59-2-2.37-3s-1.56-2-2.33-3-1.49-1.93-2.22-2.91l-1.89-2.54c-.56-.76-1.11-1.52-1.66-2.29-.16-.22-.32-.43-.47-.65-.66-.91-1.31-1.82-2-2.74l-1.73-2.49-1.39-2c-.57-.85-1.15-1.7-1.71-2.56s-1.07-1.62-1.6-2.44l0,0-.26-.4-.88-1.37-.13-.21s0,0,0,0l0-.07c-.58-.91-1.15-1.82-1.72-2.73s-1.16-1.87-1.73-2.81c-.42-.69-.84-1.38-1.25-2.07l-.06-.1,0-.07c-.39-.64-.76-1.28-1.14-1.93s-.87-1.47-1.29-2.21-.92-1.61-1.38-2.41L101,532.58c-.44-.79-.87-1.58-1.3-2.37-.57-1.06-1.14-2.12-1.7-3.18q-1.67-3.15-3.24-6.34c-.54-1.09-1.07-2.17-1.6-3.27-.37-.77-.74-1.53-1.1-2.31-.11-.22-.21-.45-.32-.67-.57-1.21-1.12-2.42-1.68-3.63l-1.47-3.3c-.44-1-.88-2-1.3-3-.31-.71-.61-1.43-.91-2.15,0-.06,0-.11-.07-.17-.35-.84-.7-1.68-1-2.52l0-.08c-.43-1-.85-2.1-1.26-3.16l-.3-.75c-.41-1-.82-2.11-1.21-3.17s-.71-1.86-1-2.8l-.13-.37c0-.1-.08-.19-.11-.29s-.08-.19-.11-.29c-.33-.89-.64-1.79-1-2.69L79.78,485c-.18-.53-.37-1.06-.54-1.59-.05-.14-.1-.27-.14-.41-.25-.71-.49-1.43-.72-2.15-.13-.38-.26-.76-.38-1.14-.29-.86-.56-1.72-.84-2.59l-.18-.58c-.07-.21-.13-.42-.2-.63L76,473.43c-.21-.68-.41-1.36-.62-2L75,469.93c-.34-1.18-.67-2.35-1-3.53,0-.06,0-.12-.05-.18-.28-1-.55-2-.82-3l-.51-2c0-.06,0-.13,0-.19-.3-1.17-.6-2.34-.88-3.52s-.62-2.53-.9-3.8c-.09-.38-.18-.75-.26-1.13-.16-.67-.3-1.34-.45-2s-.29-1.35-.44-2c-.19-.9-.38-1.8-.56-2.71s-.37-1.84-.55-2.75l0-.17c-.05-.27-.1-.55-.16-.82l-.48-2.61s0-.08,0-.12c-.15-.81-.29-1.63-.43-2.45s-.34-2-.49-2.93c-.12-.72-.23-1.45-.35-2.17,0-.12,0-.23-.05-.34v0c-.12-.76-.23-1.52-.34-2.28-.15-1-.28-2-.41-3-.09-.63-.18-1.25-.26-1.89l0-.25q-.18-1.36-.33-2.73c-.2-1.6-.38-3.21-.54-4.82l-.21-2.12,0-.3,0-.29c-.06-.65-.12-1.32-.17-2-.09-.93-.16-1.86-.23-2.79s-.13-1.72-.19-2.59-.1-1.46-.15-2.2a2.43,2.43,0,0,1,0-.27c-.07-1.1-.14-2.21-.19-3.32s-.11-2.28-.15-3.42-.08-2-.11-3.05c0-.46,0-.91,0-1.37Q63,389,63,385.2C63,212.84,206.94,73.11,384.5,73.11c1.31,0,2.62,0,3.92,0l1.82,0h.66l1.42,0,1.28,0c.75,0,1.51,0,2.26.07.32,0,.63,0,.94,0l.95,0q1.41,0,2.82.12c1.25,0,2.49.12,3.73.19,1.55.09,3.09.2,4.63.31l1,.08c.95.07,1.89.14,2.82.23l1.41.12c1.27.11,2.54.23,3.8.36l2.25.23,2.08.23,1.94.23c.87.1,1.75.2,2.62.32.68.08,1.37.17,2,.27s1.42.19,2.13.3,1.54.21,2.31.33h.1q1.56.23,3.12.48l1,.16,3,.5,1.67.29,2.34.42L447,79c1.28.24,2.56.49,3.83.76.45.08.91.18,1.37.28l1.58.33,2.4.52.14,0c1.05.23,2.11.47,3.15.72q1.08.24,2.16.51l.33.08c.87.2,1.73.4,2.59.63l.09,0c.72.17,1.43.35,2.14.54l1.4.36,1.39.37,1.22.32.65.18c.73.19,1.45.39,2.18.6l.26.07,1.11.31c1.35.38,2.69.78,4,1.18q1.09.31,2.19.66l2.18.67,4.27,1.37.2.07.43.14c1,.34,2.06.69,3.09,1l2.35.82.45.16c.43.14.85.3,1.28.45l2.41.86c.72.27,1.44.53,2.16.81l1.8.67c1.67.64,3.34,1.29,5,2q2.86,1.14,5.7,2.34l2.43,1c1,.41,1.92.82,2.87,1.25l.7.31.35.16c1.16.52,2.33,1,3.48,1.58l2,.94,2,1,.23.11c1.35.65,2.69,1.3,4,2l.27.13,2.29,1.15.41.21,1.12.58c1.23.63,2.45,1.26,3.66,1.91s2.23,1.19,3.33,1.79c.71.38,1.42.77,2.12,1.17.91.49,1.81,1,2.71,1.52l.34.19.2.11c.58.33,1.16.66,1.73,1l1.93,1.12c.92.53,1.83,1.08,2.73,1.63l.54.32,1.39.85.39.23,1.77,1.09,1,.61,1.93,1.21c.64.4,1.27.82,1.91,1.23,1.28.82,2.54,1.65,3.8,2.49.72.47,1.44,1,2.15,1.45l.34.22.47.32.51.35,1.87,1.29,3.24,2.28.75.54c.6.43,1.2.86,1.79,1.3.9.65,1.79,1.31,2.68,2s1.49,1.11,2.23,1.68,1.34,1,2,1.54l.07,0,.52.4.2.15.44.35c.72.55,1.44,1.12,2.15,1.69l0,0,0,0,.3.24c1.08.86,2.15,1.72,3.21,2.59q1.89,1.53,3.75,3.09l.21.18,2,1.7,1.43,1.24c.85.73,1.7,1.47,2.54,2.23.59.51,1.18,1,1.76,1.57,1,.92,2,1.84,3.05,2.77l2.26,2.1q2.15,2,4.24,4.06c.93.9,1.84,1.8,2.75,2.71l.34.34.64.65.15.15c.65.65,1.29,1.31,1.93,2,.88.9,1.76,1.81,2.62,2.72l.91,1c.29.32.59.63.88.94s.59.62.87.94c.52.55,1,1.1,1.53,1.66.81.88,1.61,1.76,2.4,2.65.5.55,1,1.11,1.49,1.68s1,1.13,1.48,1.69c.88,1,1.76,2,2.63,3.06l1,1.16c.66.78,1.3,1.56,1.94,2.34.2.23.39.46.58.7.56.68,1.11,1.36,1.66,2,.44.54.88,1.09,1.31,1.64.73.92,1.46,1.84,2.17,2.77l.14.18.35.45c.81,1.06,1.62,2.12,2.42,3.19s1.78,2.39,2.65,3.59a4.27,4.27,0,0,1,.27.37c.71,1,1.42,2,2.11,2.94l.68,1,0,.06c.54.76,1.07,1.51,1.59,2.28l.17.25c.4.58.8,1.15,1.18,1.73l.12.18,0,.05c.67,1,1.32,1.95,2,2.92s1.34,2,2,3c.21.34.43.68.65,1s.36.56.53.85c.44.69.88,1.38,1.31,2.08.67,1.08,1.34,2.15,2,3.24.41.66.81,1.33,1.21,2,.26.43.51.86.76,1.29.52.87,1,1.74,1.52,2.61.79,1.37,1.57,2.74,2.34,4.13a.16.16,0,0,1,0,.07c.44.79.88,1.58,1.31,2.38.23.41.45.82.67,1.24l.28.52c.45.84.89,1.68,1.33,2.52.1.19.2.38.29.57.52,1,1,1.94,1.51,2.92.3.59.6,1.18.89,1.77q.75,1.5,1.47,3c.32.64.63,1.29.93,1.93l0,.06.11.23c.37.76.73,1.53,1.08,2.29.63,1.34,1.24,2.68,1.84,4,.32.7.62,1.39.93,2.09s.61,1.4.91,2.1c.53,1.23,1.06,2.47,1.57,3.71.17.39.32.77.47,1.16.38.9.74,1.8,1.1,2.7.3.74.59,1.48.88,2.22.4,1,.8,2.07,1.19,3.11.45,1.2.9,2.4,1.33,3.6.27.74.55,1.49.8,2.24l.07.21v0c.24.66.47,1.32.7,2,.14.41.29.83.42,1.24.39,1.13.78,2.27,1.14,3.42a5.69,5.69,0,0,1,.18.54c.35,1.06.69,2.14,1,3.21l.84,2.72c.28.91.55,1.82.82,2.73.22.75.43,1.49.64,2.24.11.37.22.74.32,1.12s.2.75.31,1.12c.41,1.5.81,3,1.2,4.51s.77,3,1.14,4.53.67,2.83,1,4.24l.06.23,0,.12c0,.19.09.39.13.58q.94,4.27,1.79,8.59c.15.77.3,1.54.44,2.31s.29,1.54.42,2.32c.19,1.09.38,2.17.56,3.26q.55,3.27,1,6.57c.2,1.45.4,2.89.59,4.34l0,.19c.13,1,.26,2.07.38,3.1,0,.06,0,.12,0,.18.16,1.31.3,2.62.44,3.93,0,.12,0,.24,0,.36.1,1,.19,1.9.28,2.86.14,1.56.28,3.12.4,4.68q.15,1.83.27,3.66c.07,1.06.13,2.12.19,3.18l.09,1.81a2.56,2.56,0,0,1,0,.28c0,.76.08,1.51.11,2.27,0,.21,0,.42,0,.63s0,.23,0,.34c0,.87.07,1.75.09,2.62v.11c0,.52,0,1,.05,1.54v0c0,1.16.05,2.33.06,3.49,0,1.34,0,2.69,0,4s0,2.69,0,4c0,.84,0,1.67,0,2.51,0,.14,0,.28,0,.42v.1c0,.61,0,1.2,0,1.81,0,1.06-.06,2.12-.11,3.19-.05,1.28-.1,2.55-.17,3.83,0,.1,0,.21,0,.32-.05,1.08-.12,2.15-.19,3.23,0,.38,0,.75-.07,1.14h0s0,.11,0,.16c-.07,1.09-.15,2.17-.24,3.26s-.16,2-.25,3l0,.36c0,.51-.09,1-.14,1.51q-.14,1.53-.3,3.06c-.12,1.15-.24,2.29-.38,3.44l-.06.49c-.13,1.17-.28,2.35-.43,3.52,0,.19-.05.39-.08.59-.16,1.23-.33,2.47-.51,3.7-.13.91-.26,1.82-.41,2.73l-.27,1.74q-.24,1.54-.51,3.09-.6,3.55-1.29,7.08c-.11.6-.23,1.19-.35,1.79l-.45,2.17c-.16.76-.32,1.52-.49,2.28-.25,1.2-.52,2.39-.8,3.58-.06.28-.12.56-.19.84-.27,1.19-.56,2.38-.85,3.57-.11.45-.21.9-.33,1.35s-.22.89-.34,1.34a1.21,1.21,0,0,1-.05.18q-.23.93-.48,1.86c-.06.21-.11.43-.17.64-.16.61-.32,1.22-.49,1.83-.07.27-.15.55-.22.83a.93.93,0,0,1,0,.13c-.25.91-.5,1.81-.76,2.72-.35,1.24-.71,2.48-1.09,3.72-.06.22-.12.43-.19.64-.34,1.13-.68,2.26-1,3.38l-.08.26-.06.19,0,.1-.07.22a.49.49,0,0,1,0,.11c-.23.76-.48,1.52-.73,2.27-.63,2-1.29,3.9-2,5.84-.42,1.19-.85,2.39-1.28,3.58s-.88,2.4-1.33,3.59-.79,2.1-1.2,3.14q-.78,2-1.59,4c-.33.83-.67,1.66-1,2.48l-.72,1.72-.72,1.68c-.42,1-.86,2-1.3,3q-.22.54-.48,1.08-.91,2-1.86,4.08c-.36.79-.73,1.58-1.12,2.37l-.12.25c-.11.24-.22.47-.34.71-.21.44-.42.87-.62,1.3-.41.84-.82,1.67-1.24,2.51l-1,2.08-.87,1.7s-.05.11-.08.16c-.44.86-.89,1.71-1.34,2.57q-1.81,3.44-3.72,6.84c-.59,1-1.18,2.1-1.79,3.14q-1.89,3.29-3.87,6.53c-.62,1-1.25,2-1.89,3.07-.52.84-1.05,1.67-1.58,2.5s-1.07,1.66-1.61,2.49l-1.17,1.79c-.58.87-1.16,1.74-1.75,2.61l-2,3c-.56.81-1.13,1.62-1.7,2.42q-3.48,4.93-7.16,9.72l-.43.56q-1.33,1.74-2.7,3.45-1.58,2-3.2,4c-.63.78-1.27,1.56-1.92,2.33-.37.45-.74.9-1.12,1.34-.82,1-1.64,1.93-2.47,2.88Z"/></svg>