<svg xmlns="http://www.w3.org/2000/svg" viewBox="0 0 1033.24 477.71"><defs><style>.cls-1{fill:#f4f4f4;}.cls-2{fill:#e5e5e5;}.cls-3{fill:#c9c9c9;}.cls-4{fill:#fff;}.cls-5{fill:#ff2b0c;}</style></defs><title>password</title><g id="Layer_1" data-name="Layer 1"><path d="M815.07,156.37a32.93,32.93,0,0,0-32.84,33v32.1H848v-32.1A33,33,0,0,0,815.07,156.37Z"/><path d="M906.33,0H126.91C57.16,0,0,57.2,0,127v223.8c0,69.86,57.16,127,126.91,127H906.33c69.75,0,126.91-57.09,126.91-127V127C1033.24,57.2,976.08,0,906.33,0ZM276.12,273.52l30.45,33.15-52.74,39.57-21.63-39.57C229,301,224,289.94,217,273.52c-7.67,18-12.77,29-15.3,33.15l-21.94,39.57-54.21-39.57,32.78-33.15a238,238,0,0,1,27-23.37c-9-.81-20.86-2.48-35.48-5.23l-45.4-7.39,21.06-61.82,40.71,18.51c4.29,1.93,14.95,8,31.92,18.11q-5.44-24.63-7-36.63l-5.78-44.25H250l-5.23,44.25a237.4,237.4,0,0,1-7.36,36.63c7.45-3.74,12.38-6.22,14.71-7.58,8.18-4.55,14.49-7.69,18.73-9.72l40.74-19.32,20.18,61.82-45,9.41c-8.24,1.58-20.47,2.62-36.71,3.21C261,258.77,269.65,266.51,276.12,273.52Zm298.47,0,30.49,33.15-52.74,39.55-21.61-39.55c-3.19-5.65-8.18-16.73-15.17-33.15-7.69,18-12.75,29-15.28,33.15l-22,39.55-54.19-39.55,32.78-33.15a236.12,236.12,0,0,1,27-23.37c-9-.81-20.86-2.48-35.48-5.23L403,237.54l21.08-61.82,40.74,18.51c4.24,1.93,14.95,8,31.9,18.11q-5.57-24.63-7-36.63l-5.8-44.21h64.68l-5.25,44.21A247.72,247.72,0,0,1,536,212.34c7.41-3.74,12.33-6.22,14.69-7.58,8.13-4.55,14.47-7.69,18.73-9.72l40.76-19.32,20.2,61.82-45.09,9.41c-8.24,1.58-20.42,2.62-36.69,3.21C559.51,258.77,568.15,266.51,574.59,273.52Zm334.44,56a24.81,24.81,0,0,1-24.73,24.73H745.91a24.8,24.8,0,0,1-24.73-24.73V246.13a24.8,24.8,0,0,1,24.73-24.73h3.34V189.3a65.84,65.84,0,1,1,131.68,0v32.1h3.34A24.83,24.83,0,0,1,909,246.13v83.41Z"/><path d="M502.16,186c-.18,7.73.2,17.15,7.89,21.34,5.76,3.14,13.42,1.92,18.52-1.95,14-10.6,5.22-33.69-9.06-39.23-18.73-7.28-26.66,15.71-29.8,29.38-2.52,11-5,22.95-4.52,34.28.39,9.57,4.52,18,11.28,24.66,13.8,13.67,34.8,19.7,53.87,17.54a64.33,64.33,0,0,0,45.4-27.08,60,60,0,0,0,8.66-51.37c-5-16.92-17.83-33-35.3-37.9-9.84-2.79-20-1.18-27.63,5.83-8.3,7.6-13.7,18.86-17.25,29.37a79.63,79.63,0,0,0-4,17.32c-.35,3.51.28,6.51,3.78,8,4.76,2.07,11.38,2,16.46,2a70.14,70.14,0,0,0,19.14-3c1.85-.55,1.06-3.45-.8-2.89a66.59,66.59,0,0,1-26.49,2.55c-3.65-.41-5.67-.21-7.74-3.18-1.95-2.79-1.16-5.08-.57-8.2a88.38,88.38,0,0,1,3.38-12.59c5.39-15.47,16-35.28,35.14-33.42,15.7,1.52,28.75,14.14,35.4,27.75a56.86,56.86,0,0,1,2.76,43.71c-10.85,30.84-44.58,46.67-75.59,38.21-14.78-4-31.32-14-35.74-29.63-2.65-9.37-.68-19.95.9-29.34,1.31-7.76,2.8-15.73,5.44-23.17s7.7-16.75,16.77-17.07c10.58-.37,18.95,10.38,19.94,20.15.91,9-4.64,17.62-14.19,18-11.69.52-13.29-10.95-13.07-20.08,0-1.93-3-1.93-3,0Z"/><path d="M636,220.71a62.79,62.79,0,0,0-7.23-8.3c1-2.52,1.92-5,2.82-7.58,5.6-15.66,11.19-34.52-2.11-48.06-3.65-3.71-10.65-5-15.15-2a131.07,131.07,0,0,0-15.13,12.11q3.07-21.16,4.42-42.55c.78-12.46-17.51-16.9-23.29-6.31q-9.82,18-18,36.79a14.14,14.14,0,0,0-2.65-1.84c.26-8.75-.75-17.88-9.15-22.66a18.84,18.84,0,0,0-13.46-1.92,39.52,39.52,0,0,0,.82-7.16,10.87,10.87,0,0,0-.73-4.06,124.3,124.3,0,0,0,1.47-29.76c-.85-11.74-16.89-17.8-23.29-6.31q-6.17,11.08-11.91,22.39c-4.37-1.39-9.36-.7-12.38,3.07A132.12,132.12,0,0,0,472.69,137a12.17,12.17,0,0,0-7.86,8.37q-1.54,6.27-3.37,12.42.22-6.18.16-12.39c-.13-12.88-16.55-16.38-23.29-6.31-3.2,4.77-6.42,9.81-9.25,15.08a11,11,0,0,0-3.88,4.23,221.67,221.67,0,0,0-22.32,64.14c-3.24,18.24-8.42,48.27,15.4,55.09,4.86,1.39,11.31-.75,13.89-5.34-.09,2.23-.14,4.46-.13,6.69-9.81,6.32-11.94,19.27-7.74,29.53-.49,3.9-.77,7.72-.88,11.33-.58,19.5,6.06,40.74,24.52,50.14,5.85,3,13.75,1.74,17.1-4.48a93.57,93.57,0,0,0,5.16-11.35c5,.35,8.79-2,11.76-6a100.49,100.49,0,0,0,15.68-32.27,14.47,14.47,0,0,0,4.55-6.49c.78-2.14,1.52-4.29,2.25-6.44l.29-.14c.92.86,1.88,1.69,2.87,2.47a14.09,14.09,0,0,0,11.91,3.06Q516.72,320,514,331.7c-1.48,6.39,1.38,11.2,5.63,13.64,1,7.63,3.66,15.1,8.63,20.91A25.69,25.69,0,0,0,560,371.82c6.94-3.75,12-9.89,15.76-16.79a12.75,12.75,0,0,0,5.92-3c20.63-18.83,32.82-44.43,36.07-72a9.32,9.32,0,0,0-2.22-7.22,48.81,48.81,0,0,0,.83-8.38,24,24,0,0,0-4.6-14.53q1-1.94,2-3.89c1,.68,2,1.37,3,2,8.95,5.83,21.32-3.69,18.45-13.78C638.29,230.46,639.38,225.29,636,220.71ZM449.14,331.53c-.14-.62-.24-1.25-.35-1.88.21,1.22,0,.4,0-.29l1.86.85c-.18,1.51-.4,3-.69,4.51C449.63,333.67,449.37,332.6,449.14,331.53Zm97.11,17a28.56,28.56,0,0,0,2.9.46,9.51,9.51,0,0,1-1.41,1,.77.77,0,0,0-.58-.1c-.19-.22-.38-.48-.42-.51l-.45-.77Z"/></g><g id="Layer_2" data-name="Layer 2"><path class="cls-1" d="M507.36,211.77c-4.58,0-8.8-.84-9.39-1.87s-5.39-3.12-10.67-4.64l-63.45-18.33c-5.28-1.53-9.19-3.55-8.67-4.49s.92-1.72.9-1.73,2.1-4,4.71-8.82l8.8-16.33c2.61-4.84,4.13-4.35,3.37,1.1l-1.53,11a11.94,11.94,0,0,0,8.24,12.68l40,11.55c5.28,1.53,7.37-1.13,4.65-5.91l-23.57-41.24c-2.73-4.78-4-9.26-2.72-10s2.23-1.3,2.22-1.32,3.88-2.3,8.64-5L495.64,113c4.76-2.75,5.51-1.79,1.67,2.15L481,131.8a14.07,14.07,0,0,0-2,15.84l31.69,55.45C513.44,207.87,511.93,211.77,507.36,211.77Z"/><path class="cls-1" d="M507.53,135.19c1.86-5.18.24-6.19-3.6-2.25L491.4,145.79a14,14,0,0,0-2,15.82l.33.56c2.75,4.76,6.52,4.43,8.37-.75Z"/><path class="cls-1" d="M454.61,162.82c-2.34-5-4.86-4.59-5.61.85l-1,7.23a11.82,11.82,0,0,0,8.11,12.61c5.21,1.49,7.56-1.37,5.22-6.35Z"/><path class="cls-1" d="M620.62,182.45c.52.94-3.39,3-8.67,4.49L548.5,205.27c-5.28,1.53-10.09,3.62-10.67,4.64s-4.81,1.87-9.39,1.87-6.09-3.91-3.36-8.68l31.69-55.45a14.07,14.07,0,0,0-2-15.84l-16.27-16.67c-3.84-3.94-3.09-4.9,1.67-2.15l26.75,15.47c4.76,2.75,8.65,5,8.64,5s1,.62,2.22,1.32,0,5.18-2.72,10L551.48,186c-2.73,4.78-.64,7.43,4.64,5.91l40-11.55a11.94,11.94,0,0,0,8.24-12.68l-1.52-11c-.75-5.45.77-5.94,3.38-1.1l8.8,16.33c2.61,4.84,4.73,8.81,4.71,8.82S620.1,181.5,620.62,182.45Z"/><path class="cls-1" d="M528.27,135.19c-1.86-5.18-.24-6.19,3.6-2.25l12.53,12.85a14,14,0,0,1,2,15.82l-.33.56c-2.75,4.76-6.52,4.43-8.37-.75Z"/><path class="cls-1" d="M581.19,162.82c2.34-5,4.86-4.59,5.61.85l1,7.23a11.82,11.82,0,0,1-8.11,12.61c-5.21,1.49-7.56-1.37-5.22-6.35Z"/><polygon class="cls-2" points="431.1 258.21 442.41 246.53 423.4 249.15 414.45 233.64 428.74 222.84 452.46 236.14 472.72 215.22 507.46 344.22 431.1 258.21"/><polygon class="cls-3" points="507.46 344.22 454.14 320.14 431.1 258.21 507.46 344.22"/><path class="cls-4" d="M517.79,215.21V339.83a6.86,6.86,0,0,0-4,1.36l-8.17,6.07a6.91,6.91,0,0,0-2.43,7.75l1.12,3.33-50.12-38.2,53.32,24.08-34.74-129Z"/><polygon class="cls-2" points="612.17 249.15 593.16 246.53 604.47 258.21 526.38 344.22 562.85 215.22 583.11 236.14 606.83 222.84 621.12 233.64 612.17 249.15"/><polygon class="cls-3" points="604.47 258.21 581.43 320.14 526.38 344.22 604.47 258.21"/><path class="cls-4" d="M581.43,320.14,531.72,358h0l-.41.31,1.12-3.33a6.91,6.91,0,0,0-2.43-7.75l-8.17-6.07a6.86,6.86,0,0,0-4-1.36V215.21h45.06l-36.46,129Z"/><path class="cls-5" d="M530.24,355.46l-.87,2.77-1.68,5.34a5.77,5.77,0,0,1-5.45,4l-4.52,0-4,0a5.77,5.77,0,0,1-5.53-3.93l-1.78-5.28-.94-2.78a5.78,5.78,0,0,1,2-6.48l6.83-5.07a5.78,5.78,0,0,1,6.79-.07l6.93,4.93A5.78,5.78,0,0,1,530.24,355.46Z"/></g></svg>