<svg xmlns="http://www.w3.org/2000/svg" viewBox="0 0 888 888"><defs><style>.cls-1{fill:#5c5e70;}.cls-2{fill:#ff525d;}.cls-3{fill:#ffd15c;}.cls-4{fill:#f9eed7;}.cls-5{fill:#71a6d2;}.cls-6{fill:#3aaedf;}.cls-7{fill:#168cf1;}.cls-8{fill:#5869a7;}.cls-9{fill:#ff2b0c;}.cls-10{fill:none;}</style></defs><title>question</title><g id="Layer_1" data-name="Layer 1"><path class="cls-1" d="M888,444c0,199.14-131.12,367.67-311.73,424q-2.94.92-5.9,1.79c-2,.59-4,1.17-6,1.72a438.43,438.43,0,0,1-56.76,12c-2.08.31-4.18.6-6.27.86-.81.11-1.63.21-2.44.3h0A444.64,444.64,0,0,1,444,888C198.79,888,0,689.21,0,444S198.79,0,444,0,888,198.79,888,444Z"/><path class="cls-2" d="M237.09.23C109,3,4.17,106.67.12,234.72A241.55,241.55,0,0,0,58.92,401a73.33,73.33,0,0,1,13.3,72.6L56.27,518.22c-5.19,14.52,11.63,26.94,24,17.7l56.56-42.3a74.14,74.14,0,0,1,58.82-13.21,242.81,242.81,0,0,0,67.07,3.72c121.64-10.07,217.58-110.67,221.95-232.65C489.65,111.77,376.37-2.75,237.09.23Z"/><path class="cls-3" d="M788.82,624c-20.51,24.75-27,58.21-16.22,88.47l7.67,21.48q-14.52,16.83-30.66,32.15L702,730.52a89.85,89.85,0,0,0-70.15-16.35c-15.89,3-33.69,5.6-46.61,5.6-146,0-264.3-118.32-264.3-264.3s118.45-264.3,264.3-264.3,264.3,118.32,264.3,264.3A263.25,263.25,0,0,1,788.82,624Z"/><path class="cls-4" d="M622.53,601.68c0,20-17.07,37.56-37.07,37.56a37.56,37.56,0,1,1,0-75.11C605.46,564.12,622.53,581.19,622.53,601.68ZM613.26,509c0,15.12-16.59,21.46-28.29,21.46-15.61,0-28.78-6.34-28.78-21.46,0-58-6.83-141.45-6.83-199.5,0-19,15.61-29.75,35.61-29.75,19,0,35.12,10.73,35.12,29.75C620.09,367.55,613.26,451,613.26,509Z"/><path class="cls-4" d="M284,233.13C259.4,252.36,259,265.79,259,289c0,8.5-4.47,18.34-26.39,18.34-18.34,0-24.6-6.71-24.6-30,0-38.47,17-56.81,30-68,14.76-12.53,39.81-26.39,39.81-50.55,0-20.58-17.89-30.42-40.26-30.42-45.63,0-35.79,34.45-59.94,34.45-12.08,0-26.84-8.05-26.84-25.5,0-24.15,27.74-59.94,88.13-59.94,57.26,0,95.28,31.76,95.28,73.81S296.09,223.73,284,233.13ZM267.45,372.7c0,18.34-15.21,34.44-34.45,34.44S199,391,199,372.7c0-18.79,15.21-34.45,34-34.45A34.75,34.75,0,0,1,267.45,372.7Z"/></g><g id="Layer_2" data-name="Layer 2"><path class="cls-5" d="M438.06,524.24c-5.42.92-11.4-.21-13.28-2.5s-7.89-4.68-13.36-5.31L216.65,494.22c-5.46-.62-9.21-3.22-8.33-5.77s1.56-4.65,1.51-4.67,1.35-4.29,3.12-9.5l24.65-72.74c1.76-5.21,3.35-5,3.51.52l1.76,58.15a11.94,11.94,0,0,0,10.24,11.13L387,486.61c5.46.62,7.08-2.35,3.59-6.6L295.77,364.43c-3.49-4.25-4.09-9.58-1.34-11.83s5-4.15,5-4.2,3.41-3,7.65-6.48l83-68.78c4.23-3.51,5.14-2.68,2,1.84l-50.49,72.92a14.07,14.07,0,0,0,.65,16L463.05,511.2c3.49,4.25,1.9,8.48-3.52,9.4Z"/><path class="cls-5" d="M419.78,317.88c1-5.41-.8-6.14-3.93-1.62L373,378.19a14,14,0,0,0,.69,15.93L394,418.66c3.51,4.24,7.16,3.28,8.13-2.14Z"/><path class="cls-5" d="M289.1,410.93c-3.14-4.52-5.56-3.72-5.39,1.78l1.52,48.51a11.91,11.91,0,0,0,10.25,11.1l29.28,3.24c5.47.61,7.37-2.6,4.24-7.11Z"/><path class="cls-5" d="M716.9,402.35c1.67,2.12-1,5.81-6,8.19l-176.6,85.08c-5,2.39-9.85,6.62-10.87,9.41s-6.29,5.82-11.72,6.74l-21.48,3.64c-5.42.92-8.31-2.56-6.42-7.72l65.61-178.92a14.07,14.07,0,0,0-4.64-15.28l-71.68-52.24c-4.44-3.24-3.86-4.32,1.29-2.4l101,37.63c5.15,1.92,9.36,3.54,9.36,3.6s2.72,1.11,6.06,2.34,4.53,6.45,2.63,11.61L542,454.36c-1.89,5.16.61,7.44,5.57,5L669,400.94a11.94,11.94,0,0,0,6-13.88l-17.47-55.49c-1.65-5.25-.24-6,3.14-1.65l47.22,60.58c3.38,4.34,6.11,7.91,6.07,7.94S715.22,400.23,716.9,402.35Z"/><path class="cls-5" d="M461.07,310.89c-2.7-4.79-1.27-6.06,3.18-2.82l60.81,44.38a14,14,0,0,1,4.6,15.27l-11.09,29.86c-1.91,5.16-5.69,5.45-8.38.66Z"/><path class="cls-5" d="M615.1,355.74c1.47-5.3,4-5.34,5.67-.09L635.31,402a11.91,11.91,0,0,1-6,13.85l-26.58,12.7c-5,2.37-7.82,0-6.34-5.32Z"/><polygon class="cls-6" points="279.48 669.35 302.58 635.68 256.64 650.12 227.98 615.47 258.83 582.76 323.12 605.75 364.5 545.45 504.57 850.24 279.48 669.35"/><polygon class="cls-7" points="504.57 850.24 362.49 812.97 279.48 669.35 504.57 850.24"/><path class="cls-8" d="M677.57,759.63,576.27,868q-2.94.92-5.9,1.79l.52-3.26a17.37,17.37,0,0,0-9.27-18.17l-22.78-11.59a16.73,16.73,0,0,0-20,3.38l-17.69,18.45a17.35,17.35,0,0,0-2.77,20.2l3,5.56c-.81.11-1.63.21-2.44.3h0L362.48,813l142.09,37.27L364.5,545.45l223.12-37.77L551.41,842.31Z"/><polygon class="cls-6" points="723.92 571.01 675.78 572.5 708.68 596.68 551.41 842.31 587.62 507.68 646.54 551 699.68 508.13 739.58 528.86 723.92 571.01"/><polygon class="cls-7" points="708.68 596.68 677.58 759.63 551.41 842.31 708.68 596.68"/><path class="cls-9" d="M565.2,865.72l-.79,5.75a438.43,438.43,0,0,1-56.76,12l-.13-.25L504,876.72a14.5,14.5,0,0,1,2.31-16.89l14.79-15.42a14.51,14.51,0,0,1,16.77-3l19.24,9.3A14.5,14.5,0,0,1,565.2,865.72Z"/><line class="cls-10" x1="463.58" y1="520.79" x2="422.38" y2="527.77"/></g></svg>