<?xml version="1.0" encoding="iso-8859-1"?>
<!-- Generator: Adobe Illustrator 19.0.0, SVG Export Plug-In . SVG Version: 6.00 Build 0)  -->
<svg version="1.1" id="Capa_1" xmlns="http://www.w3.org/2000/svg" xmlns:xlink="http://www.w3.org/1999/xlink" x="0px" y="0px"
	 viewBox="0 0 511.999 511.999" style="enable-background:new 0 0 511.999 511.999;" xml:space="preserve">
<path style="fill:#879499;" d="M265.158,323.49l-61.195,60.285c-3.883,3.825-10.454,1.074-10.454-4.376v-84.448h71.648v28.539
	H265.158z"/>
<path style="fill:#CAEBF9;" d="M235.911,300.786l136.584,112.481c3.503,2.885,8.819,1.106,9.878-3.308L478.943,7.59
	c1.188-4.95-3.816-9.115-8.468-7.047L36.527,193.408c-4.864,2.162-4.864,9.065,0,11.227l140.02,62.231L235.911,300.786z"/>
<path style="fill:#BCCED5;" d="M435.534,52.98L235.912,300.787l-32.531,81.725c-2.553,5.617-10.866,4.386-11.682-1.73
	l-15.152-113.915l250.122-222.33C432.302,39.527,440.262,47.111,435.534,52.98z"/>
<g>
	<path style="fill:#04A1EE;" d="M249.822,397.121c-2.999-2.998-7.861-2.999-10.859,0.001l-67.842,67.843
		c-2.999,3-2.999,7.861,0,10.86c1.499,1.499,3.465,2.248,5.429,2.248c1.965,0,3.93-0.749,5.429-2.249l67.842-67.843
		C252.821,404.982,252.821,400.121,249.822,397.121z"/>
	<path style="fill:#04A1EE;" d="M137.194,312.846L69.881,380.16c-2.999,3-2.999,7.861,0,10.861c1.499,1.499,3.465,2.248,5.429,2.248
		c1.965,0,3.93-0.75,5.429-2.248l67.313-67.314c2.999-3,2.999-7.861,0-10.86C145.055,309.849,140.193,309.849,137.194,312.846z"/>
	<path style="fill:#04A1EE;" d="M137.194,397.124L35.43,498.891c-2.999,3-2.999,7.861,0,10.86c1.499,1.499,3.465,2.248,5.429,2.248
		c1.965,0,3.93-0.749,5.429-2.249l101.765-101.767c2.999-3,2.999-7.861,0-10.86C145.055,394.126,140.193,394.126,137.194,397.124z"
		/>
</g>
<g>
</g>
<g>
</g>
<g>
</g>
<g>
</g>
<g>
</g>
<g>
</g>
<g>
</g>
<g>
</g>
<g>
</g>
<g>
</g>
<g>
</g>
<g>
</g>
<g>
</g>
<g>
</g>
<g>
</g>
</svg>
