<?xml version="1.0" encoding="utf-8"?>
<!-- Generator: Adobe Illustrator 21.1.0, SVG Export Plug-In . SVG Version: 6.00 Build 0)  -->
<svg version="1.1" id="Layer_1" xmlns="http://www.w3.org/2000/svg" xmlns:xlink="http://www.w3.org/1999/xlink" x="0px" y="0px"
	 viewBox="0 0 512 512" style="enable-background:new 0 0 512 512;" xml:space="preserve">
<style type="text/css">
	.st0{fill:#71A6D2;}
	.st1{fill:none;}
	.st2{fill:#AFB9D2;}
	.st3{fill:#C7CFE2;}
	.st4{fill:#5B5D6E;}
	.st5{fill:#464655;}
	.st6{fill:#E1C3A0;}
	.st7{fill:#EBD2AF;}
	.st8{fill:#F0DCBE;}
	.st9{fill:#B99678;}
	.st10{fill:#707487;}
	.st11{fill:#959CB3;}
	.st12{fill:#F4F4F4;}
	.st13{fill:#E5E5E5;}
	.st14{fill:#C9C9C9;}
	.st15{fill:#FFFFFF;}
	.st16{fill:#FF2B0C;}
</style>
<g>
	<g>
		<g>
			<g>
				<g>
					<path class="st0" d="M182.7,186c-3.9,0-7.5-0.7-8-1.6c-0.5-0.9-5.2-2.8-10.5-4.4l-50.8-14.7c-5.3-1.5-9.2-3.4-8.8-4.2
						c0.4-0.8,0.8-1.5,0.8-1.5s2.1-4,4.7-8.8l6-11.2c2.6-4.8,4.1-4.3,3.4,1.1l-0.9,6.3c-0.8,5.4,3,11.2,8.2,12.7l30.9,8.9
						c5.3,1.5,7.4-1.1,4.6-5.9L144,130.6c-2.7-4.8-4.1-9.2-3.1-9.8s1.9-1.1,1.9-1.1c0,0,3.9-2.3,8.6-5l20-11.6
						c4.8-2.8,5.5-1.8,1.7,2.2l-11.7,11.9c-3.8,3.9-4.8,11.1-2,15.8l25.3,44.3C187.6,182.1,186.6,186,182.7,186z"/>
				</g>
				<g>
					<path class="st0" d="M182.4,122.6c1.9-5.2,0.2-6.2-3.6-2.3l-8.5,8.7c-3.8,3.9-5,10.6-2.6,14.7c2.4,4.2,5.9,3.3,7.7-1.8
						L182.4,122.6z"/>
				</g>
			</g>
			<g>
				<g>
					<path class="st0" d="M138.7,146c-2.3-5-4.9-4.6-5.6,0.9l-0.4,3.1c-0.7,5.4,2.3,10.9,6.7,12.2c4.4,1.3,6.1-1.8,3.8-6.8
						L138.7,146z"/>
				</g>
			</g>
		</g>
		<g>
			<g>
				<g>
					<path class="st0" d="M278.7,161.2c0.4,0.8-3.5,2.7-8.8,4.2l-50.8,14.7c-5.3,1.5-10,3.5-10.5,4.4s-4.1,1.6-8,1.6
						s-4.8-3.9-2.1-8.7l25.3-44.3c2.7-4.8,1.8-11.9-2-15.8l-11.7-11.9c-3.8-3.9-3.1-4.9,1.7-2.2l20,11.6c4.8,2.8,8.7,5,8.6,5
						c0,0,0.8,0.5,1.9,1.1c1,0.6-0.3,5-3.1,9.8l-18.5,32.3c-2.7,4.8-0.6,7.4,4.6,5.9l30.9-8.9c5.3-1.5,9-7.2,8.2-12.7l-0.9-6.3
						c-0.8-5.4,0.8-5.9,3.4-1.1l6,11.2c2.6,4.8,4.7,8.8,4.7,8.8C277.9,159.7,278.3,160.4,278.7,161.2z"/>
				</g>
				<g>
					<path class="st0" d="M201,122.6c-1.9-5.2-0.2-6.2,3.6-2.3l8.5,8.7c3.8,3.9,5,10.6,2.6,14.7c-2.4,4.2-5.9,3.3-7.7-1.8L201,122.6
						z"/>
				</g>
			</g>
			<g>
				<g>
					<path class="st0" d="M244.7,146c2.3-5,4.9-4.6,5.6,0.9l0.4,3.1c0.7,5.4-2.3,10.9-6.7,12.2c-4.4,1.3-6.1-1.8-3.8-6.8L244.7,146z
						"/>
				</g>
			</g>
		</g>
	</g>
</g>
<line class="st1" x1="182.7" y1="182.4" x2="157.4" y2="182.4"/>
<polygon class="st2" points="379.6,242.8 326.6,242.8 335.4,198.6 370.8,198.6 "/>
<path class="st3" d="M432.6,216.3H273.7c-4.9,0-8.8-4-8.8-8.8V101.5c0-4.9,4-8.8,8.8-8.8h158.9c4.9,0,8.8,4,8.8,8.8v105.9
	C441.4,212.3,437.4,216.3,432.6,216.3z"/>
<path class="st4" d="M432.6,92.7H273.7c-4.9,0-8.8,4-8.8,8.8v97.1h176.6v-97.1C441.4,96.6,437.4,92.7,432.6,92.7z"/>
<rect x="282.5" y="110.3" class="st5" width="141.2" height="70.6"/>
<rect x="150.1" y="242.8" class="st6" width="335.4" height="35.3"/>
<g>
	<path class="st7" d="M485.5,419.3L485.5,419.3c-4.9,0-8.8-4-8.8-8.8V242.8h17.7v167.7C494.3,415.4,490.4,419.3,485.5,419.3z"/>
	<path class="st7" d="M150.1,419.3H26.5c-4.9,0-8.8-4-8.8-8.8V242.8h141.2v167.7C158.9,415.4,154.9,419.3,150.1,419.3z"/>
</g>
<path class="st8" d="M503.2,251.6H8.8c-4.9,0-8.8-4-8.8-8.8l0,0c0-4.9,4-8.8,8.8-8.8h494.3c4.9,0,8.8,4,8.8,8.8l0,0
	C512,247.6,508,251.6,503.2,251.6z"/>
<rect x="17.7" y="295.7" class="st6" width="141.2" height="17.7"/>
<g>
	<path class="st9" d="M100.5,269.2H76.1c-3.3,0-6.4-1.9-7.9-4.9l-6.4-12.8h53l-6.4,12.8C106.9,267.4,103.8,269.2,100.5,269.2z"/>
	<path class="st9" d="M100.5,392.8H76.1c-3.3,0-6.4-1.9-7.9-4.9l-6.4-12.8h53l-6.4,12.8C106.9,390.9,103.8,392.8,100.5,392.8z"/>
	<path class="st9" d="M100.5,331H76.1c-3.3,0-6.4-1.9-7.9-4.9l-6.4-12.8h53l-6.4,12.8C106.9,329.1,103.8,331,100.5,331z"/>
</g>
<rect x="17.7" y="357.5" class="st6" width="141.2" height="17.7"/>
<path class="st10" d="M227.3,233.9h-83.9c-1.2,0-2.2-1-2.2-2.2v-13.2c0-1.2,1-2.2,2.2-2.2h83.9c1.2,0,2.2,1,2.2,2.2v13.2
	C229.5,232.9,228.5,233.9,227.3,233.9z"/>
<path class="st2" d="M227.3,198.6h-75c-1.2,0-2.2-1-2.2-2.2v-13.2c0-1.2,1-2.2,2.2-2.2h75c1.2,0,2.2,1,2.2,2.2v13.2
	C229.5,197.6,228.5,198.6,227.3,198.6z"/>
<g>
	<path class="st3" d="M236.1,216.3h-75c-1.2,0-2.2-1-2.2-2.2v-13.2c0-1.2,1-2.2,2.2-2.2h75c1.2,0,2.2,1,2.2,2.2v13.2
		C238.3,215.3,237.4,216.3,236.1,216.3z"/>
	<path class="st3" d="M44.1,233.9c-4.9,0-8.8-4-8.8-8.8v-70.6c0-2.3,0.9-4.6,2.6-6.2l27.6-27.6c6.7-6.7,15.5-10.3,25-10.3h15.5
		c4.9,0,8.8,4,8.8,8.8v26.5c0,4.9-4,8.8-8.8,8.8s-8.8-4-8.8-8.8V128h-6.7c-4.7,0-9.2,1.8-12.5,5.2l-25,25v67
		C53,230,49,233.9,44.1,233.9z"/>
</g>
<g>
	<path class="st2" d="M97.1,145.7h17.7c9.8,0,17.7,7.9,17.7,17.7v6.6c0,1.2-1,2.2-2.2,2.2H81.7c-1.2,0-2.2-1-2.2-2.2v-6.6
		C79.4,153.6,87.4,145.7,97.1,145.7z"/>
	<path class="st2" d="M26.5,233.9h61.8v-8.8c0-4.9-4-8.8-8.8-8.8H35.3c-4.9,0-8.8,4-8.8,8.8L26.5,233.9L26.5,233.9z"/>
</g>
<g>
	<circle class="st11" cx="105.9" cy="119.2" r="8.8"/>
	<circle class="st11" cx="44.1" cy="154.5" r="8.8"/>
</g>
<g>
	<g>
		<g>
			<g>
				<g>
					<g>
						<path class="st12" d="M351,138.7c-0.9,0-1.8-0.2-1.9-0.4c-0.1-0.2-4-1.5-8.6-2.8c-4.6-1.3-8.3-2.6-8.2-2.8
							c0.1-0.2,0.2-0.4,0.2-0.4s0.8-1.6,1.9-3.5s1.7-2,1.4-0.3c-0.2,1.7,2.3,3.9,5.6,4.9c3.3,1,4.5-0.9,2.6-4.2
							c-1.9-3.3-3.2-6.1-2.9-6.2c0.3-0.1,0.5-0.3,0.5-0.3c0,0,2-1.2,4.5-2.6c2.5-1.4,3.1-1.2,1.4,0.6c-1.7,1.7-1.2,6.5,1.2,10.5
							C350.7,135.4,351.9,138.7,351,138.7z"/>
					</g>
					<g>
						<path class="st12" d="M350,125.8c0.9-2.5,0.4-3.3-1-1.8c-1.5,1.5-2.2,3.6-1.6,4.6C347.9,129.6,349.1,128.3,350,125.8z"/>
					</g>
				</g>
				<g>
					<g>
						<path class="st12" d="M340.9,130.2c-0.9-1.8-1.7-2.1-1.9-0.5c-0.2,1.5,0.5,3,1.5,3.3C341.6,133.3,341.8,132,340.9,130.2z"/>
					</g>
				</g>
			</g>
			<g>
				<g>
					<g>
						<path class="st12" d="M374,132.7c0.1,0.2-3.6,1.4-8.2,2.8c-4.6,1.3-8.5,2.6-8.6,2.8c-0.1,0.2-1,0.4-1.9,0.4s0.2-3.3,2.5-7.4
							c2.3-4.1,2.8-8.8,1.2-10.5c-1.7-1.7-1.1-2,1.4-0.6c2.5,1.4,4.5,2.6,4.5,2.6c0,0,0.2,0.1,0.5,0.3s-1.1,2.9-2.9,6.2
							c-1.9,3.3-0.7,5.2,2.6,4.2c3.3-1,5.8-3.1,5.6-4.9c-0.2-1.7,0.4-1.6,1.4,0.3s1.9,3.5,1.9,3.5
							C373.8,132.4,373.9,132.5,374,132.7z"/>
					</g>
					<g>
						<path class="st12" d="M356.2,125.8c-0.9-2.5-0.4-3.3,1-1.8s2.2,3.6,1.6,4.6C358.3,129.6,357.1,128.3,356.2,125.8z"/>
					</g>
				</g>
				<g>
					<g>
						<path class="st12" d="M365.3,130.2c0.9-1.8,1.7-2.1,1.9-0.5c0.2,1.5-0.5,3-1.5,3.3C364.6,133.3,364.4,132,365.3,130.2z"/>
					</g>
				</g>
			</g>
		</g>
	</g>
	<g>
		<polygon class="st13" points="335.5,148.1 337.8,145.8 333.9,146.3 332.1,143.1 335,141 339.8,143.7 343.9,139.4 351,165.6 		"/>
		<polygon class="st14" points="351,165.6 340.1,160.7 335.5,148.1 		"/>
		<path class="st15" d="M353.1,139.4v25.3c-0.3,0-0.6,0.1-0.8,0.3l-1.7,1.2c-0.5,0.4-0.7,1-0.5,1.6l0.2,0.7l-10.2-7.8l10.8,4.9
			l-7.1-26.2H353.1z"/>
	</g>
	<g>
		<polygon class="st13" points="372.3,146.3 368.4,145.8 370.7,148.1 354.8,165.6 362.2,139.4 366.4,143.7 371.2,141 374.1,143.1 		
			"/>
		<polygon class="st14" points="370.7,148.1 366,160.7 354.8,165.6 		"/>
		<path class="st15" d="M366,160.7l-10.1,7.7v0l-0.1,0.1l0.2-0.7c0.2-0.6,0-1.2-0.5-1.6l-1.7-1.2c-0.2-0.2-0.5-0.3-0.8-0.3v-25.3
			h9.2l-7.4,26.2L366,160.7z"/>
	</g>
	<path class="st16" d="M355.6,167.9l-0.2,0.6l-0.3,1.1c-0.2,0.5-0.6,0.8-1.1,0.8l-0.9,0l-0.8,0c-0.5,0-1-0.3-1.1-0.8l-0.4-1.1
		l-0.2-0.6c-0.2-0.5,0-1,0.4-1.3l1.4-1c0.2-0.2,0.4-0.2,0.7-0.2c0.2,0,0.5,0.1,0.7,0.2l1.4,1C355.6,166.9,355.8,167.4,355.6,167.9z"
		/>
	<line class="st15" x1="352.2" y1="138.8" x2="348.8" y2="138.8"/>
</g>
<g id="grzHuT.tif">
	<g>
		<g>
			<path class="st4" d="M351.3,451.9c-0.9-1.2-2.2-1.7-3.4-2.2c-3.6-1.3-7.4-1.6-11.3-1.5c-2.6,0.1-5.3,0.2-7.8,0.9
				c-3.6,1-6.9,2.8-9.2,5.8c-1.7,2.2-1.7,4.8,0.1,6.5c1,1,2.3,1.4,3.7,1.5c4.1,0.3,7.7-1.2,10.7-3.9c2.3-2.1,4.9-3.6,7.8-4.4
				c2.9-0.9,5.8-1.7,8.7-2.5C350.8,452.1,351,452,351.3,451.9z"/>
			<path class="st4" d="M438.4,423.7c-1.3-1.2-2.7-1.6-4.1-1.8c-3.5-0.7-7-0.6-10.5,0c-2.6,0.4-5.2,0.8-7.6,1.8
				c-3.7,1.4-6.9,3.6-8.9,7.2c-1.2,2.1-1.1,4.2,0.2,5.7c1.2,1.4,2.9,1.7,4.6,1.7c3.6-0.1,6.5-1.9,9.1-4.2c1-0.9,1.8-2.1,2.8-3
				c2.4-2.3,5.5-3.4,8.4-4.7c1.6-0.7,3.3-1.4,4.9-2C437.6,424.1,437.9,423.9,438.4,423.7z"/>
			<path class="st4" d="M402,473.6c-1.2,0.7-2.4,1.4-3.7,2c-3.1,1.5-6.2,3-9.3,4.3c-1.1,0.5-2.5,0.3-3.7,0.4
				c-4,0.3-7.7,1.5-10.4,4.5c-0.9,0.9-1.5,2.3-1.7,3.5c-0.5,2.9,1.7,5.1,5,5.2c4.9,0.2,9.3-1.3,13.2-4.4c2.8-2.3,5.5-4.8,7.6-7.8
				c1.3-1.8,2.2-3.8,3.1-5.8c0.3-0.5,0.2-1.2,0.3-1.8C402.2,473.8,402.1,473.7,402,473.6z"/>
			<path class="st4" d="M485.8,443.1c-0.7,0.4-1.3,0.7-1.8,1c-3.4,1.7-6.8,3.5-10.3,5.1c-1.1,0.5-2.5,0.7-3.8,0.7
				c-4,0.2-7.8,1.2-10.8,3.9c-0.8,0.7-1.5,1.7-2,2.7c-1.3,2.9,0.1,5.6,3.1,6.4c2.6,0.7,5.2,0.1,7.8-0.6c3.4-0.9,6.2-2.9,8.8-5.2
				c3.2-2.9,6.1-6,8.1-9.9C485.4,446,485.9,444.8,485.8,443.1z"/>
			<path class="st4" d="M440.1,428c-1,0.6-1.8,1.1-2.6,1.6c-3,1.7-5.9,3.6-8.9,5.1c-1.4,0.7-3,1-4.6,1.2c-3.8,0.5-7.3,1.8-10,4.5
				c-0.9,0.9-1.6,2-2,3.1c-1,2.8,0.8,5.2,3.9,5.6c2.4,0.3,4.7-0.4,7-1.1c3.4-1.1,6.1-3.2,8.6-5.7c2.7-2.7,5.3-5.5,7-9
				c0.7-1.3,1-2.7,1.5-4.1C440.1,429.1,440,428.7,440.1,428z"/>
			<path class="st4" d="M352.1,456.5c-1.7,0.8-3.5,1.7-5.2,2.5c-2.2,0.9-4.4,2-6.6,2.7c-1.6,0.5-3.3,0.6-4.9,0.7
				c-4,0.1-7.6,1-10.8,3.5c-0.8,0.7-1.5,1.6-2,2.5c-1.3,2.5,0.1,5.3,3,6.1c2.5,0.7,5,0.3,7.5-0.2c5.1-1.1,8.9-4.2,12.6-7.6
				c2.5-2.3,4.9-4.8,6.2-8c0.2-0.6,0.4-1.3,0.5-1.9C352.3,456.6,352.2,456.5,352.1,456.5z"/>
			<path class="st4" d="M399.7,469.2c-1.2-0.5-2.4-1.2-3.7-1.5c-6.2-1.3-12.3-0.9-18.4,0.8c-3.4,1-6.4,3-8.7,5.7
				c-1,1.1-1.6,2.5-1.6,4.1c0.1,1.8,1.1,3,2.7,3.6c2.5,0.9,4.9,0.5,7.3-0.5c2.7-1.1,5-2.9,7.2-4.9c1.4-1.3,3.2-2.3,5-3
				c3.1-1.3,6.4-2.4,9.6-3.5c0.2-0.1,0.4-0.2,0.5-0.3C399.7,469.5,399.7,469.4,399.7,469.2z"/>
			<path class="st4" d="M483.2,438.8c-1-0.4-1.9-1-2.9-1.3c-3-1-6.2-1.1-9.3-0.9c-2.8,0.2-5.6,0.5-8.3,1.1c-4.2,1-7.7,3.1-10.4,6.5
				c-0.8,1.1-1.3,2.3-1.3,3.7c0.1,1.9,1.5,3.4,3.7,3.8c2.1,0.4,4.2,0.1,6.1-0.7c2.7-1.1,5-2.6,7-4.8c1.9-2.1,4.5-3,7-3.9
				c2.4-0.9,4.9-1.8,7.3-2.6c0.4-0.1,0.7-0.3,1.1-0.5C483.1,439.1,483.2,439,483.2,438.8z"/>
			<path class="st4" d="M442.2,463.4c-0.8,1.1-0.9,2.1-0.2,3.3c0.8,1.5,2,2.4,3.6,3c1.1,0.4,2.3,0.3,3.1-0.7c0.8-0.9,1.6-2,1.2-3.4
				c-0.1-0.2-0.1-0.4-0.1-0.6c-0.6-3.3-3.4-4.5-6.2-2.7C443,462.7,442.6,463.1,442.2,463.4z"/>
			<path class="st4" d="M359.8,498.9c0.5,0.3,1,0.7,1.6,1c1.1,0.6,2.3,0.8,3.4-0.1c1.1-0.9,2-2,1.5-3.6c-0.1-0.2-0.1-0.4-0.1-0.6
				c-0.2-3.1-2.6-4.1-5.5-3C357.2,493.7,357.2,496.8,359.8,498.9z"/>
			<path class="st4" d="M310.4,466c0.9-1.2,1-2.4,0.3-3.6c-0.8-1.4-1.6-2.8-3.5-2.9c-1.7-0.1-3,0.4-3.5,2.1c-0.3,1.3-0.4,2.7-0.3,4
				c0.1,1.5,1.5,2.5,3.1,2.3C308.1,467.9,309.5,467.3,310.4,466z"/>
			<path class="st4" d="M393.2,437.6c-1.4,1.8-1.2,5.4,0.1,6.8c0.2,0.3,0.6,0.5,0.9,0.6c1.6,0.7,4.1-0.3,5.3-2
				c1-1.4,0.7-2.9-0.5-4.5c-1.2-1.6-2.7-2.1-4.6-1.6C393.9,437.1,393.5,437.5,393.2,437.6z"/>
			<path class="st4" d="M310.4,480.7c0.8,0.1,1.6,0.4,2.3,0.3c2.8-0.4,4.3-2.5,3.8-5.1c-0.1-0.3-0.1-0.6-0.3-0.8
				c-0.9-1.3-3.9-2.2-5.4-1.6c-0.4,0.2-0.8,0.4-1.1,0.8C308.3,475.7,308.7,479.2,310.4,480.7z"/>
			<path class="st4" d="M354.9,485.9c1.6,1.2,3.6,1.1,4.7-0.4c1.7-2.2,1.7-4.6,0-5.9c-1.7-1.3-4.7-0.9-6,0.8
				C352.5,482,353.1,484.5,354.9,485.9z"/>
			<path class="st4" d="M400.1,450.8c-1.2,1.6-0.7,4.9,0.9,6.1c1.5,1.1,3.9,0.5,5.3-1.3c1.1-1.4,1-4-0.1-4.8
				C404.3,449.3,401.2,449.3,400.1,450.8z"/>
			<path class="st4" d="M438.5,455.5c1.7,1.3,3.6,1.1,4.8-0.5c1.7-2.2,1.6-4.3-0.1-5.7c-1.7-1.3-4.8-0.9-6,0.7
				C436.1,451.6,436.7,454.1,438.5,455.5z"/>
		</g>
	</g>
</g>
</svg>
