<svg id="Layer_1" data-name="Layer 1" xmlns="http://www.w3.org/2000/svg" viewBox="0 0 1709 580.5"><defs><style>.cls-1{fill:#8dd9ff;}.cls-2{fill:#fff;}.cls-3{fill:#43ab5f;}.cls-4{fill:#71be63;}.cls-5{fill:#94d75b;}.cls-6{fill:#b0eb81;}.cls-7{fill:#674447;}.cls-8{fill:#8c665b;}.cls-9{fill:#e9b668;}.cls-10{fill:#9e8282;}.cls-11{fill:#b2b9c9;}.cls-12{fill:#f4f4f4;}.cls-13{fill:#e5e5e5;}.cls-14{fill:#c9c9c9;}.cls-15{fill:#ff2b0c;}.cls-16{fill:#9af4ef;}.cls-17{fill:#00c8b4;}.cls-18{fill:#52c883;}.cls-19{fill:#34be71;}.cls-20{fill:#00a07d;}.cls-21{fill:#00827e;}.cls-22{fill:#4f6e6e;}.cls-23{fill:#6c5f59;}.cls-24{fill:#805f59;}.cls-25{opacity:0.6;}.cls-26{fill:#36b294;}.cls-27{fill:#5869a7;}.cls-28{fill:#8282df;}.cls-29{opacity:0.4;}.cls-30{fill:#9da6ed;}.cls-31{opacity:0.65;}.cls-32{fill:#6464cb;}.cls-33{fill:#5a5ab7;}.cls-34{fill:#5f5fad;}.cls-35{opacity:0.2;}.cls-36{fill:#5a5a84;}.cls-37{fill:#6574a7;}.cls-38{opacity:0.7;}.cls-39{fill:none;}.cls-40{fill:#9fc3dd;}.cls-41{fill:#b39191;}.cls-42{fill:#eee1c2;}.cls-43{fill:#a29b91;}.cls-44{fill:#fdefdb;}.cls-45{fill:#7faab8;}.cls-46{fill:#88b7c6;}</style></defs><title>walking</title><circle class="cls-1" cx="1453" cy="297.5" r="256"/><rect class="cls-2" x="1253" y="247.97" width="22.48" height="45.53"/><path class="cls-3" d="M1200.13,337.5c19.21,122.38,125.09,216,252.87,216s233.66-93.62,252.87-216Z"/><path class="cls-4" d="M1669.88,433.5a254.42,254.42,0,0,0,36-96H1200.13a254.43,254.43,0,0,0,36,96Z"/><path class="cls-5" d="M1212.62,385.5h480.77a253.67,253.67,0,0,0,12.48-48H1200.13A253.74,253.74,0,0,0,1212.62,385.5Z"/><path class="cls-6" d="M1203.25,353.5h499.5c1.19-5.28,2.27-10.6,3.12-16H1200.13C1201,342.9,1202.06,348.22,1203.25,353.5Z"/><path class="cls-7" d="M1571,524.66,1453,337.5,1335,524.65a255.94,255.94,0,0,0,236.08,0Z"/><path class="cls-8" d="M1483.27,385.5l-30.27-48-30.27,48Z"/><path class="cls-2" d="M1453,337.5l105.83,193.1q6.19-2.82,12.21-5.94Z"/><path class="cls-2" d="M1453,337.5,1335,524.65q6,3.13,12.21,5.94Z"/><path class="cls-9" d="M1475.18,552.43,1453,337.5l7.42,215.77Q1467.86,553.06,1475.18,552.43Z"/><path class="cls-9" d="M1453,337.5l-22.18,214.93q7.32.63,14.76.84Z"/><rect class="cls-10" x="1317" y="321.5" width="45.67" height="16"/><rect class="cls-10" x="1590.52" y="311.5" width="22.48" height="26"/><rect class="cls-11" x="1295.35" y="329.5" width="32.63" height="8"/><path class="cls-12" d="M1477.19,148.39c-4,0-7.77-.74-8.29-1.65s-5.26-2.9-10.55-4.42l-53.75-15.53c-5.28-1.53-9.23-3.46-8.78-4.29s.81-1.52.8-1.53,2.1-4,4.71-8.82L1408,99.8c2.61-4.84,4.13-4.35,3.37,1.1l-1,7.41a11.94,11.94,0,0,0,8.24,12.68l33,9.55c5.28,1.53,7.37-1.13,4.65-5.91l-19.64-34.37c-2.73-4.78-4.07-9.19-3-9.81s2-1.15,2-1.17,3.88-2.29,8.64-5l21.58-12.48c4.76-2.75,5.51-1.79,1.67,2.15l-12.72,13a14.07,14.07,0,0,0-2,15.84l26.81,46.91C1482.31,144.48,1481.23,148.39,1477.19,148.39Z"/><path class="cls-12" d="M1476.95,81.89c1.86-5.18.24-6.19-3.6-2.25l-9.42,9.67c-3.84,3.94-4.93,10.71-2.43,15.06s6.07,3.66,7.93-1.52Z"/><path class="cls-12" d="M1431.13,106.24c-2.34-5-4.86-4.59-5.61.85l-.56,4.06c-.75,5.45,2.4,11,7,12.29s6.45-1.69,4.11-6.67Z"/><path class="cls-12" d="M1577.17,122.5c.46.83-3.5,2.76-8.78,4.29l-53.75,15.53c-5.28,1.53-10,3.52-10.55,4.42s-4.25,1.65-8.29,1.65-5.11-3.91-2.38-8.68l26.81-46.91a14.07,14.07,0,0,0-2-15.84l-12.72-13c-3.84-3.94-3.09-4.9,1.67-2.15l21.58,12.48c4.76,2.75,8.65,5,8.64,5s.88.55,2,1.17-.26,5-3,9.81l-19.64,34.37c-2.73,4.78-.64,7.43,4.64,5.91l33-9.55a11.94,11.94,0,0,0,8.24-12.68l-1-7.41c-.75-5.45.77-5.94,3.38-1.1l6.66,12.35c2.61,4.84,4.73,8.81,4.71,8.82S1576.72,121.67,1577.17,122.5Z"/><path class="cls-12" d="M1496.05,81.89c-1.86-5.18-.24-6.19,3.6-2.25l9.42,9.67c3.84,3.94,4.93,10.71,2.43,15.06s-6.07,3.66-7.93-1.52Z"/><path class="cls-12" d="M1541.87,106.24c2.34-5,4.86-4.59,5.61.85l.56,4.06c.75,5.45-2.4,11-7,12.29s-6.45-1.69-4.11-6.67Z"/><polygon class="cls-13" points="1409.88 189.38 1419.86 179.07 1403.09 181.38 1395.19 167.69 1407.8 158.16 1428.74 169.9 1446.62 151.43 1477.29 265.3 1409.88 189.38"/><polygon class="cls-14" points="1477.29 265.3 1430.22 244.04 1409.88 189.38 1477.29 265.3"/><path class="cls-2" d="M1486.4,151.43v110a6.06,6.06,0,0,0-3.56,1.2l-7.21,5.36a6.1,6.1,0,0,0-2.15,6.84l1,2.94L1430.22,244l47.07,21.26-30.67-113.87Z"/><polygon class="cls-13" points="1569.71 181.38 1552.94 179.07 1562.92 189.38 1493.99 265.3 1526.18 151.43 1544.06 169.9 1565 158.16 1577.61 167.69 1569.71 181.38"/><polygon class="cls-14" points="1562.92 189.38 1542.58 244.04 1493.99 265.3 1562.92 189.38"/><path class="cls-2" d="M1542.58,244l-43.88,33.44h0l-.36.28,1-2.94a6.1,6.1,0,0,0-2.15-6.84l-7.21-5.36a6.06,6.06,0,0,0-3.56-1.2v-110h39.78L1494,265.3Z"/><path class="cls-15" d="M1497.4,275.22l-.77,2.45-1.48,4.72a5.1,5.1,0,0,1-4.81,3.57l-4,0-3.52,0a5.09,5.09,0,0,1-4.88-3.47l-1.57-4.66-.83-2.45a5.1,5.1,0,0,1,1.79-5.72l6-4.48a5.1,5.1,0,0,1,6-.06l6.12,4.35A5.1,5.1,0,0,1,1497.4,275.22Z"/><circle class="cls-16" cx="855" cy="289.5" r="256"/><path class="cls-17" d="M1090.53,189.08a30.27,30.27,0,0,0-20.94,11.62,23.57,23.57,0,0,0-16.48,1.81,24.63,24.63,0,0,0-39.27-6.84,23.54,23.54,0,0,0-18,1,24.49,24.49,0,0,0-31.16-4.13,24.79,24.79,0,1,0-5.36,37.44,24.41,24.41,0,0,0,28.74,6c4.53,4.85,17.72,26.89,24.88,26.89,6.67,0,5.9-21.62,10.36-25.9a23.44,23.44,0,0,0,18.38-1.21,24.63,24.63,0,0,0,36.25,9.33,29.52,29.52,0,0,0,29.29,1.1A254.17,254.17,0,0,0,1090.53,189.08Z"/><path class="cls-17" d="M769.15,184.16A24.66,24.66,0,0,0,752.07,191a24.48,24.48,0,0,0-32.16-1.65,24.43,24.43,0,0,0-34.34,4.12,23.31,23.31,0,0,0-17.5,1.42,25.9,25.9,0,0,0-36,.77,29.13,29.13,0,0,0-13.21-3.26c-.28,0-.54.07-.82.08a254.11,254.11,0,0,0-15.39,53.93,29.28,29.28,0,0,0,16.21,4.89c9.92,0,27.13,7.52,32.46,0,2.44.76,4.25-4.35,6.94-4.35,4.72,0,1.34-8.18,5.16-10.38A24.42,24.42,0,0,0,698,232.67a23.69,23.69,0,0,0,21.93-4.16,24.48,24.48,0,0,0,32.16-1.65,24.77,24.77,0,1,0,17.08-42.7Z"/><path class="cls-18" d="M599,290.64C599.65,431.5,714,545.5,855,545.5s255.35-114,256-254.86Z"/><path class="cls-19" d="M636.07,422.19C695.67,418.07,775.62,469,847,469c141.8,0,160.67-52.85,230.42-52.85A254.73,254.73,0,0,0,1111,290.64H599A254.79,254.79,0,0,0,636.07,422.19Z"/><path class="cls-20" d="M627.43,406.72c61-2.55,173.45-8.1,257.71,4.38,71.33,10.57,151.2.11,202-14.11A254.5,254.5,0,0,0,1111,290.64H599A254.79,254.79,0,0,0,627.43,406.72Z"/><path class="cls-21" d="M611.36,368c39,21,103.28,26.92,179.64,18.93,83.33-8.72,167.37-10.18,228-5.45,33.47,2.61,59,.86,75.17-1.23A253.89,253.89,0,0,0,1111,290.64H599A255.21,255.21,0,0,0,611.36,368Z"/><path class="cls-22" d="M1091.36,387.82q4.65-11.17,8.26-22.84l-3.41-74.34h-2.72Z"/><path class="cls-22" d="M623.45,398.66,618.7,295h-2.64l-1.8,81.59Q618.35,387.89,623.45,398.66Z"/><path class="cls-20" d="M1087.27,222c-8.37,0-16.07,10.44-22.31,24.18a254.32,254.32,0,0,0,.8,91,36.9,36.9,0,0,0,40.45,1.55A256.59,256.59,0,0,0,1106,239C1100.48,229,1094.1,222,1087.27,222Z"/><path class="cls-20" d="M603.51,337.24a37.48,37.48,0,0,0,59.07-30.71c0-20.74-16.81-84.49-37.55-84.49-8.37,0-16.07,10.44-22.31,24.18a254.32,254.32,0,0,0,.8,91Z"/><polygon class="cls-21" points="845.83 397.78 835.67 397.78 838.11 287.07 840.75 287.07 845.83 397.78"/><polygon class="cls-21" points="815.58 400.21 805.42 400.21 807.86 289.5 810.5 289.5 815.58 400.21"/><polygon class="cls-21" points="879.33 397.78 870.64 397.78 872.73 302.95 874.99 302.95 879.33 397.78"/><polygon class="cls-21" points="865.91 392.27 857.22 392.27 859.3 297.44 861.56 297.44 865.91 392.27"/><polygon class="cls-21" points="922.76 397.78 914.06 397.78 916.15 302.95 918.41 302.95 922.76 397.78"/><polygon class="cls-21" points="1010.5 394.06 1001.81 394.06 1003.89 299.23 1006.15 299.23 1010.5 394.06"/><polygon class="cls-21" points="1055.44 392.27 1046.74 392.27 1048.83 297.44 1051.09 297.44 1055.44 392.27"/><polygon class="cls-21" points="1075.44 389.84 1066.74 389.84 1068.83 295.01 1071.09 295.01 1075.44 389.84"/><polygon class="cls-21" points="662.63 395.26 653.93 395.26 656.02 300.43 658.28 300.43 662.63 395.26"/><polygon class="cls-21" points="635.97 394.06 627.28 394.06 629.36 299.23 631.63 299.23 635.97 394.06"/><polygon class="cls-21" points="794.57 397.78 784.42 397.78 786.86 287.07 789.5 287.07 794.57 397.78"/><polygon class="cls-21" points="759.88 397.78 749.73 397.78 752.16 287.07 754.8 287.07 759.88 397.78"/><polygon class="cls-21" points="735 397.78 724.85 397.78 727.28 287.07 729.92 287.07 735 397.78"/><polygon class="cls-21" points="699.18 396.19 689.02 396.19 691.46 285.48 694.1 285.48 699.18 396.19"/><polygon class="cls-22" points="885.14 411.1 874.99 411.1 877.42 300.39 880.06 300.39 885.14 411.1"/><polygon class="cls-22" points="908.87 409.09 898.72 409.09 901.16 298.38 903.8 298.38 908.87 409.09"/><polygon class="cls-22" points="946.3 409.09 936.15 409.09 938.59 298.38 941.23 298.38 946.3 409.09"/><polygon class="cls-22" points="977.8 407 967.65 407 970.09 296.28 972.73 296.28 977.8 407"/><polygon class="cls-22" points="1016.3 403.2 1006.15 403.2 1008.59 292.49 1011.23 292.49 1016.3 403.2"/><polygon class="cls-22" points="1061.24 397.74 1051.09 397.74 1053.53 287.03 1056.17 287.03 1061.24 397.74"/><polygon class="cls-22" points="1081.24 402 1071.09 402 1073.53 291.29 1076.17 291.29 1081.24 402"/><polygon class="cls-22" points="672.73 407 662.58 407 665.02 296.28 667.66 296.28 672.73 407"/><polygon class="cls-22" points="641.78 409.09 631.63 409.09 634.06 298.38 636.7 298.38 641.78 409.09"/><polygon class="cls-23" points="789.5 431.42 775.62 431.42 778.95 280.08 782.56 280.08 789.5 431.42"/><polygon class="cls-23" points="831.86 431.42 817.99 431.42 821.32 280.08 824.92 280.08 831.86 431.42"/><polygon class="cls-23" points="893.94 430.15 880.06 430.15 883.39 278.81 887 278.81 893.94 430.15"/><polygon class="cls-23" points="932.29 430.15 918.41 430.15 921.74 278.81 925.35 278.81 932.29 430.15"/><polygon class="cls-23" points="999.77 431.42 985.89 431.42 989.22 280.08 992.83 280.08 999.77 431.42"/><polygon class="cls-23" points="1037.94 426.94 1024.06 426.94 1027.39 275.61 1031 275.61 1037.94 426.94"/><polygon class="cls-23" points="729.92 422.31 716.04 422.31 719.37 270.98 722.98 270.98 729.92 422.31"/><polygon class="cls-22" points="706.12 409.09 695.96 409.09 698.4 298.38 701.04 298.38 706.12 409.09"/><polygon class="cls-22" points="769.15 409.84 759 409.84 761.44 299.13 764.08 299.13 769.15 409.84"/><polygon class="cls-22" points="810.5 411.1 800.35 411.1 802.78 300.39 805.42 300.39 810.5 411.1"/><polygon class="cls-22" points="852.08 411.1 841.92 411.1 844.36 300.39 847 300.39 852.08 411.1"/><polygon class="cls-23" points="658.28 423.51 644.4 423.51 647.74 272.18 651.34 272.18 658.28 423.51"/><path class="cls-19" d="M1088,329.29a49.68,49.68,0,1,1-99.36,0c0-27.44,22.24-111.79,49.68-111.79S1088,301.85,1088,329.29Z"/><polygon class="cls-24" points="1035.76 340.83 1033.39 440.83 1047.97 440.83 1043.04 340.83 1035.76 340.83"/><polygon class="cls-24" points="1038.33 355.91 1061.12 337.38 1063.85 342.38 1038.33 365.17 1038.33 355.91"/><path class="cls-18" d="M1038.33,217.5c-6.85,0-13.38,5.26-19.32,13.58a14.65,14.65,0,0,1,5.55-1.17c27.44,0,49.68,84.35,49.68,111.79a49.4,49.4,0,0,1-10.16,30A49.6,49.6,0,0,0,1088,329.29C1088,301.85,1065.77,217.5,1038.33,217.5Z"/><path class="cls-19" d="M729.92,325a51.58,51.58,0,1,1-103.17,0c0-28.49,23.09-116.06,51.58-116.06S729.92,296.53,729.92,325Z"/><polygon class="cls-24" points="675.66 337.01 673.2 440.83 688.35 440.83 683.22 337.01 675.66 337.01"/><polygon class="cls-24" points="678.34 352.66 701.99 333.42 704.83 338.62 678.34 362.27 678.34 352.66"/><path class="cls-18" d="M678.34,209c-7.11,0-13.89,5.46-20.06,14.1a15.2,15.2,0,0,1,5.76-1.22c28.49,0,51.58,87.57,51.58,116.06a51.29,51.29,0,0,1-10.55,31.17A51.5,51.5,0,0,0,729.92,325C729.92,296.53,706.83,209,678.34,209Z"/><path class="cls-2" d="M818.54,131.34a28.16,28.16,0,0,0-8.52,1.44,47.35,47.35,0,0,0-77.91,0,28.16,28.16,0,0,0-8.52-1.44,28.48,28.48,0,0,0-28.48,28.48H847A28.48,28.48,0,0,0,818.54,131.34Z"/><g class="cls-25"><path class="cls-2" d="M959.68,142.85a17.93,17.93,0,0,0-5.42.92,30.13,30.13,0,0,0-49.57,0,17.92,17.92,0,0,0-5.42-.92A18.12,18.12,0,0,0,881.15,161h96.65A18.12,18.12,0,0,0,959.68,142.85Z"/></g><path class="cls-20" d="M900.22,272.46a39.58,39.58,0,0,1-1.22-9.59,39.16,39.16,0,0,1,39-39.32,38.73,38.73,0,0,1,6.62.61A44.44,44.44,0,0,1,968,217.5a45.19,45.19,0,0,1,45,45.37c0,1.12-.09,2.23-.17,3.33A72.58,72.58,0,0,1,1031,314.3c0,40.09-32.23,72.6-72,72.6s-72-32.5-72-72.6A72.61,72.61,0,0,1,900.22,272.46Z"/><polygon class="cls-24" points="965.55 440.83 952.95 440.83 955.98 313.16 959.25 313.16 965.55 440.83"/><polygon class="cls-24" points="957.11 362.42 928.75 339.36 925.35 341.25 957.11 369.61 957.11 362.42"/><polygon class="cls-24" points="959 334.48 939.76 318.83 937.45 320.12 959 339.36 959 334.48"/><polygon class="cls-24" points="959 350.32 987.36 327.26 990.76 329.15 959 357.51 959 350.32"/><path class="cls-26" d="M1012.83,266.2c.08-1.1.17-2.21.17-3.33a45.19,45.19,0,0,0-45-45.37,44.44,44.44,0,0,0-23.38,6.66A38,38,0,0,0,908.87,237,38.36,38.36,0,0,1,922,234.51a38.83,38.83,0,0,1,6.62.61A44.45,44.45,0,0,1,952,228.46a45.19,45.19,0,0,1,45,45.37c0,1.13-.09,2.23-.17,3.33A72.74,72.74,0,0,1,991,379.25a72.74,72.74,0,0,0,21.82-113Z"/><path class="cls-20" d="M812.84,255.45a43.09,43.09,0,0,0-49.3-53.19,49.88,49.88,0,0,0-75.91,42.63c0,1.24.1,2.45.18,3.67a79.92,79.92,0,1,0,125,6.89Z"/><path class="cls-26" d="M812.84,255.45a43.09,43.09,0,0,0-49.3-53.19A49.84,49.84,0,0,0,691.77,225a48.59,48.59,0,0,1,62-9.7,42.41,42.41,0,0,1,7.14-.65,41.9,41.9,0,0,1,42.06,41.75,41.41,41.41,0,0,1-1.31,10.18,76.5,76.5,0,0,1-14.93,104.58,79.78,79.78,0,0,0,26.17-115.74Z"/><polygon class="cls-24" points="754.8 440.83 740.93 440.83 741.6 410.58 741.68 406.88 741.68 406.87 741.84 399.5 742.23 381.8 744.26 289.5 747.86 289.5 754.8 440.83"/><polygon class="cls-24" points="745.5 347.84 714.28 322.44 710.54 324.53 745.5 355.75 745.5 347.84"/><polygon class="cls-24" points="747.59 334.52 778.81 309.12 782.56 311.2 747.59 342.43 747.59 334.52"/><path class="cls-19" d="M933.38,218.18a51.75,51.75,0,0,0-59.21-63.88A59.91,59.91,0,0,0,783,205.5c0,1.49.12,2.94.22,4.4a96,96,0,1,0,150.16,8.28Z"/><path class="cls-18" d="M933.38,218.18a51.75,51.75,0,0,0-59.21-63.88A59.86,59.86,0,0,0,788,181.64,58.36,58.36,0,0,1,862.37,170a51,51,0,0,1,8.58-.78,50.33,50.33,0,0,1,50.51,50.14,49.69,49.69,0,0,1-1.58,12.23A91.88,91.88,0,0,1,902,357.19a95.82,95.82,0,0,0,31.43-139Z"/><path class="cls-18" d="M774,223.6c0-.44,0-.88-.07-1.32-1,1.61-2,3.28-2.9,5C772,226,773,224.77,774,223.6Z"/><polygon class="cls-24" points="863.67 440.83 847 440.83 851 272 855.33 272 863.67 440.83"/><polygon class="cls-24" points="852.5 337.14 815 306.64 810.5 309.14 852.5 346.64 852.5 337.14"/><polygon class="cls-24" points="855 300.2 829.55 279.5 826.5 281.2 855 306.64 855 300.2"/><polygon class="cls-24" points="855 321.14 892.5 290.64 897 293.14 855 330.64 855 321.14"/><g class="cls-25"><path class="cls-2" d="M805.56,99.65a19.87,19.87,0,0,1,24.92-19.44,28.62,28.62,0,0,1,49.7,19.44Z"/></g><path class="cls-2" d="M908.87,103.65a12,12,0,0,0-15.08-11.78,17.31,17.31,0,0,0-30.08,11.78h45.16Z"/><path class="cls-2" d="M959,130.77a14.11,14.11,0,0,1,14.1-14.12,13.94,13.94,0,0,1,3.39.46,20.09,20.09,0,0,1,34.89,13.67Z"/><path class="cls-27" d="M854.75,580.5a290.32,290.32,0,0,1-113-557.68,290.32,290.32,0,0,1,226,534.86A288.46,288.46,0,0,1,854.75,580.5Zm0-531.44A241.19,241.19,0,0,0,684.2,460.8a241.19,241.19,0,0,0,341.1-341.1A239.62,239.62,0,0,0,854.75,49.06Z"/><path class="cls-28" d="M512,301.5a255.28,255.28,0,0,1-6.63,58c-.23,1-.46,2-.7,3s-.49,2-.74,3c-.61,2.37-1.26,4.71-1.95,7-.32,1.11-.64,2.22-1,3.32-.06.21-.12.43-.19.64a254.65,254.65,0,0,1-19,45.68q-4.7,8.78-10.07,17.12c-.84,1.32-1.69,2.62-2.56,3.92s-1.74,2.59-2.63,3.88-1.67,2.39-2.53,3.58c-.71,1-1.42,2-2.16,3q-.59.81-1.2,1.62c-.79,1.06-1.6,2.11-2.41,3.16q-1.42,1.85-2.9,3.66c-.21.27-.43.53-.65.8h0l0,.07c-.73.9-1.47,1.8-2.22,2.69-1.47,1.78-3,3.54-4.54,5.28-.33.37-.65.74-1,1.1s-.43.47-.65.71l-.54.6c-.6.66-1.19,1.32-1.79,2l-.82.87c-.18.21-.37.42-.57.62s-.63.68-1,1l-1,1-1,1c-.14.16-.29.32-.45.47-.45.47-.92.94-1.38,1.41l-.59.58-.38.37c-.47.47-.94.94-1.42,1.4a.17.17,0,0,1-.06.06l-.93.93c-.38.37-.77.75-1.16,1.11-.13.14-.26.26-.39.39q-1.48,1.42-3,2.82c-.76.71-1.53,1.41-2.3,2.11-.32.3-.65.59-1,.88l-.18.15c-.29.27-.57.53-.86.78l-1.75,1.53-.7.6-.22.19-.86.74c-.89.76-1.78,1.51-2.68,2.25s-1.69,1.41-2.55,2.09l-1.49,1.2c-.58.47-1.17.94-1.77,1.39l-1.2.95-.29.21s0,0,0,0q-.3.24-.6.45l-.05,0a.12.12,0,0,1-.07.05l-.13.1c-.76.59-1.52,1.17-2.3,1.74l-.93.69c-.44.34-.89.66-1.34,1-.68.5-1.37,1-2,1.47l-1.5,1.07-1.28.89-3.59,2.46a1,1,0,0,0-.16.1l-.1.07-.37.25-.38.25-1.91,1.25-2.36,1.51-1.44.91-.71.44h0c-.88.55-1.76,1.09-2.65,1.62l-2.68,1.59-.47.29-.07,0-2,1.17-2,1.15c-.68.39-1.37.77-2.06,1.14l-.14.08c-1.25.69-2.52,1.37-3.79,2q-.37.18-.75.39l-1.56.8-1.56.8c-.82.42-1.65.83-2.48,1.23l-.46.22-1.11.54-2,.94-.73.35c-.92.44-1.85.86-2.78,1.27l-1,.43-1.86.83-1,.44c-.72.32-1.45.63-2.18.93l-.17.08-.17.07-.52.22-.09,0c-.92.39-1.84.77-2.77,1.13l-.92.36-1.95.78-2.22.85c-.5.2-1,.39-1.52.57l-.7.26-2.2.79-.44.16c-.65.22-1.3.43-2,.66-1.38.49-2.78,1-4.18,1.41l-1.11.36q-1.19.39-2.37.75l-.58.18-.87.27-.22.07-1.13.35-1.3.39-.35.1q-1.47.44-2.94.84l-.83.23-.71.19h0s0,0,0,0l-.21.06c-.55.16-1.1.3-1.65.45l-.57.15-.35.09-.34.09-.76.19-.92.23-1,.26-.84.2-.56.13-.11,0-.07,0-.35.08-.8.19a0,0,0,0,1,0,0l-.17,0h0l0,0-.1,0-.8.18a.4.4,0,0,1-.15,0l-1,.24-.78.17-1.23.27-.35.08-1,.2-.43.09h0l-.26,0-.67.15-2.41.47c-.16,0-.31.07-.47.09h0l-.2,0q-1.27.26-2.58.48l-1.48.27h0l-.82.14c-.36.06-.72.13-1.09.18h0l-.18,0-1.29.21-1,.16a.57.57,0,0,1-.18,0l-.18,0-1.85.28-.61.09-.14,0L292,555l-.86.12-.13,0-.38,0-.42.06-.23,0-.39.05h0l-1,.13-.16,0h-.13l-.17,0h0l-1.51.18-1,.12-.53.06-.35,0-.55.06-.27,0h-.07l-1.39.15-.3,0-.85.08-.61.06-.44,0-1.11.1-.91.08-.35,0-1.19.1-.24,0h0a2.69,2.69,0,0,1-.4,0h-.21l-1.56.11h-.39l-.42,0-.48,0c-.32,0-.65.05-1,.06l-.58,0h-.17l-.33,0-.39,0h-.07a0,0,0,0,1,0,0h-.94l-.33,0-.38,0-.51,0-1.35.06-.49,0-.54,0-1.13,0-1,0-1,0h-.66l-.88,0h-1.42c-.13,0-.25,0-.38,0h-.14a0,0,0,0,1,0,0h0s0,0,0,0h0s0,0,0,0H259l-3,0-3,0h-.19s0,0,0,0h0s0,0,0,0h0a0,0,0,0,1,0,0h-.14c-.13,0-.25,0-.38,0h-1.42l-.88,0h-.66l-1,0-1,0-1.13,0-.54,0-.49,0-1.35-.06-.51,0-.38,0-.33,0h-.94a0,0,0,0,1,0,0h-.07l-.39,0-.33,0h-.17l-.58,0c-.32,0-.65,0-1-.06l-.48,0-.42,0h-.39l-1.56-.11H236a2.69,2.69,0,0,1-.4,0h0l-.24,0-1.19-.1-.35,0-.91-.08-1.11-.1-.44,0-.61-.06-.85-.08-.3,0-1.39-.15h-.07l-.27,0-.55-.06-.35,0-.53-.06-1-.12-1.51-.18h0l-.17,0h-.13l-.16,0-1-.13h0l-.39-.05-.23,0-.42-.06-.38,0-.13,0L220,555l-.87-.12-.14,0-.61-.09-1.85-.28-.18,0a.57.57,0,0,1-.18,0l-1-.16-1.29-.21-.18,0h0c-.37-.05-.73-.12-1.09-.18l-.82-.14h0l-1.48-.27L208,553l-.4-.08-.2,0h0c-.16,0-.31-.06-.47-.09l-2.41-.47-.67-.15-.26,0h0l-.43-.09-1-.2-.35-.08-1.23-.27-.78-.17-1-.24a.4.4,0,0,1-.15,0l-.8-.18-.1,0,0,0h0l-.17,0a0,0,0,0,1,0,0l-.25-.06a1.05,1.05,0,0,1-.24-.06l-1-.24-.39-.09-.84-.2-1-.26-.92-.23-.76-.19-.34-.09-.35-.09-.57-.15c-.55-.15-1.1-.29-1.65-.45l-.21-.06s0,0,0,0h0l-.71-.19-.83-.23q-1.47-.41-2.94-.84l-1-.29-.06,0-1.23-.38-.65-.2-.79-.25-1.77-.55c-1.43-.44-2.85-.9-4.26-1.39l-2.41-.82h0l-1.87-.63-.44-.16-2.2-.79-.7-.26c-.51-.18-1-.37-1.52-.57-1.71-.65-3.4-1.31-5.09-2-.93-.36-1.85-.74-2.77-1.13l-.09,0-.52-.22-.17-.07-.17-.08c-.73-.3-1.46-.61-2.18-.93l-1-.44-1.86-.83-1-.43c-.93-.41-1.86-.83-2.78-1.27l-.73-.35-2-.94-1.11-.54-.46-.22c-.83-.4-1.66-.81-2.48-1.23l-1.56-.8-2-1a1.5,1.5,0,0,0-.28-.15c-1.27-.67-2.54-1.35-3.79-2l-.14-.08c-.69-.37-1.38-.75-2.06-1.14l-2-1.15-2-1.17-.07,0-.47-.29-2.68-1.59c-.89-.53-1.77-1.07-2.65-1.62h0l-.71-.44-1.44-.91-2.36-1.51-1.91-1.25-.38-.25-.37-.25-.1-.07a.7.7,0,0,0-.16-.1l-1.4-1-1.75-1.2h0l-.43-.3-1.28-.89-1.5-1.07c-.68-.48-1.37-1-2-1.47-.45-.33-.9-.65-1.34-1l-.93-.69c-.86-.64-1.71-1.28-2.55-1.93q-.3-.21-.6-.45s0,0,0,0l-.29-.21-1.2-.95-1.77-1.39c-.31-.26-.63-.51-1-.76s-.46-.36-.68-.55l-.87-.72c-.51-.41-1-.83-1.54-1.26-.76-.63-1.53-1.27-2.28-1.91l-1.28-1.1c-.33-.27-.66-.56-1-.84s-.89-.78-1.34-1.17l-.9-.8-2.22-2c-1.72-1.56-3.41-3.14-5.08-4.76-.68-.65-1.33-1.32-2-2l-1.17-1.15-1.79-1.77c-.47-.48-.94-1-1.4-1.45l-1.38-1.46-.24-.25-.9-.95a1.46,1.46,0,0,1-.17-.19l-1.11-1.18c-.9-1-1.78-1.92-2.65-2.9l-.83-.9c-.28-.3-.55-.6-.82-.91-1.55-1.74-3.07-3.5-4.54-5.28-.75-.89-1.49-1.79-2.22-2.69,0,0,0,0,0-.06l-.58-.72-.08-.1q-1.45-1.82-2.9-3.66c-1-1.23-1.9-2.47-2.83-3.72s-1.69-2.28-2.53-3.44l-.39-.54-2-2.76-.33-.49q-1.5-2.14-3-4.34c-.83-1.26-1.67-2.54-2.49-3.82s-1.67-2.64-2.49-4q-2.47-4-4.77-8.09c-.68-1.2-1.35-2.41-2-3.63-.1-.16-.18-.32-.27-.49s-.18-.32-.25-.48c-.39-.71-.78-1.42-1.14-2.14a.65.65,0,0,1-.09-.16.82.82,0,0,1-.07-.13s0,0,0,0c-.34-.63-.67-1.26-1-1.9-.16-.29-.3-.58-.44-.87s-.38-.73-.57-1.1-.36-.7-.52-1.06-.29-.57-.42-.85c-.25-.48-.48-1-.71-1.45-.14-.3-.28-.59-.43-.88s-.23-.48-.34-.72a.54.54,0,0,1,0-.11c-.16-.32-.31-.64-.46-1s-.37-.77-.53-1.15c-.45-1-.89-1.9-1.32-2.86,0-.08-.07-.16-.11-.25q-.93-2.07-1.82-4.15c-.62-1.46-1.23-2.91-1.82-4.38q-4.21-10.29-7.49-21c-.07-.21-.13-.43-.19-.64-.34-1.1-.66-2.21-1-3.32-.69-2.33-1.34-4.67-2-7h0v0c-.21-.86-.43-1.71-.64-2.57-.12-.45-.23-.91-.33-1.37-.16-.66-.31-1.33-.46-2Q4,348.32,2.41,336.72c-.12-.79-.22-1.58-.32-2.37C2,334,2,333.56,2,333.16s-.1-.71-.13-1.07h0c-.24-1.95-.45-3.9-.64-5.87C1,324.86.93,323.5.83,322.14c0-.06,0-.11,0-.17-.17-1.89-.29-3.79-.4-5.69-.15-2.61-.26-5.24-.33-7.87Q0,305,0,301.57v-.07c0-.72,0-1.44,0-2.16,0-.14,0-.28,0-.42H0c0-1.68,0-3.36.09-5l0-.92h0c0-.81.06-1.62.1-2.43s.07-1.68.11-2.51C7.37,152.9,119.15,45.5,256,45.5,397.38,45.5,512,160.12,512,301.5Z"/><g class="cls-29"><path class="cls-30" d="M256,189.51C140.65,189.51,47.14,283,47.14,398.38a208.59,208.59,0,0,0,10.22,64.57,255.92,255.92,0,0,0,397.27,0,208.58,208.58,0,0,0,10.22-64.57C464.86,283,371.35,189.51,256,189.51Z"/></g><g class="cls-31"><circle class="cls-30" cx="256" cy="398.38" r="96.88"/></g><path class="cls-32" d="M30.76,179.82l3.84,16.55L149.27,237l7.17-12.44-2.09-8.74a52,52,0,0,0-23.5-62.56,51.26,51.26,0,0,0-31-54.33A257.13,257.13,0,0,0,30.76,179.82Z"/><path class="cls-33" d="M157.3,224.44c-.3,0-.57.08-.86.09A43.3,43.3,0,0,0,114,189.8c-1,0-1.93.23-2.91.29a51.52,51.52,0,0,0-67.52-31.4,254.66,254.66,0,0,0-43.44,135H157.3a34.63,34.63,0,1,0,0-69.27Z"/><path class="cls-33" d="M469.8,161.05a51.75,51.75,0,0,0-43.26,34.25c-1-.06-2-.15-3-.15A51.8,51.8,0,0,0,374.67,230c-1-.08-1.91-.29-2.9-.29a34.55,34.55,0,0,0-34.55,34.55,17.27,17.27,0,0,0,0,34.55H511.86A254.68,254.68,0,0,0,469.8,161.05Z"/><path class="cls-32" d="M199.15,52.11a45.29,45.29,0,0,0,40.25,66.14c.43,0,.82-.11,1.24-.12a36.19,36.19,0,0,0,35,27.32,36.15,36.15,0,0,0,68.11,17,54.34,54.34,0,0,0,86-44.21c0-1.62-.27-3.18-.41-4.76A255.71,255.71,0,0,0,199.15,52.11Z"/><path class="cls-34" d="M18.68,397.5c38,93.8,129.9,160,237.32,160s199.34-66.2,237.32-160Z"/><path class="cls-32" d="M256,424.17c-78,0-150.69,7.41-212.27,20.19C89.7,512.57,167.55,557.5,256,557.5s166.3-44.93,212.27-113.14C406.69,431.58,334,424.17,256,424.17Z"/><g class="cls-35"><path class="cls-30" d="M256,530A131.65,131.65,0,0,0,387.65,398.38H124.35A131.65,131.65,0,0,0,256,530Z"/></g><path class="cls-36" d="M256,429.5a8,8,0,0,1-8-8v-240a8,8,0,0,1,16,0v240A8,8,0,0,1,256,429.5Z"/><path class="cls-36" d="M224,361.5a4,4,0,0,1-4-4v-120a4,4,0,0,1,8,0v120A4,4,0,0,1,224,361.5Z"/><path class="cls-36" d="M192,361.5a4,4,0,0,1-4-4V263.07a4,4,0,0,1,8,0V357.5A4,4,0,0,1,192,361.5Z"/><path class="cls-36" d="M160,361.5a4,4,0,0,1-4-4V287.59a4,4,0,0,1,8,0V357.5A4,4,0,0,1,160,361.5Z"/><path class="cls-36" d="M128,361.5a4,4,0,0,1-4-4v-48a4,4,0,0,1,8,0v48A4,4,0,0,1,128,361.5Z"/><path class="cls-36" d="M96,361.5a4,4,0,0,1-4-4V327.92a4,4,0,0,1,8,0V357.5A4,4,0,0,1,96,361.5Z"/><path class="cls-36" d="M288,361.5a4,4,0,0,1-4-4v-120a4,4,0,0,1,8,0v120A4,4,0,0,1,288,361.5Z"/><path class="cls-36" d="M320,361.5a4,4,0,0,1-4-4V263.07a4,4,0,0,1,8,0V357.5A4,4,0,0,1,320,361.5Z"/><path class="cls-36" d="M352,361.5a4,4,0,0,1-4-4V287.59a4,4,0,1,1,8,0V357.5A4,4,0,0,1,352,361.5Z"/><path class="cls-36" d="M384,361.5a4,4,0,0,1-4-4v-48a4,4,0,0,1,8,0v48A4,4,0,0,1,384,361.5Z"/><path class="cls-36" d="M416,361.5a4,4,0,0,1-4-4V327.92a4,4,0,0,1,8,0V357.5A4,4,0,0,1,416,361.5Z"/><path class="cls-36" d="M496,361.5c-49.58,0-191.17-88.28-243.27-161.68a4,4,0,0,1,6.53-4.63C313.87,272.12,452.5,353.5,496,353.5a4,4,0,0,1,0,8Z"/><path class="cls-36" d="M16,361.5a4,4,0,0,1,0-8c43.5,0,182.13-81.38,236.73-158.32a4,4,0,0,1,6.53,4.63C207.17,273.22,65.58,361.5,16,361.5Z"/><path class="cls-37" d="M8.06,365.5H503.93c1.35-5.26,2.48-10.61,3.51-16H4.56C5.58,354.89,6.71,360.24,8.06,365.5Z"/><path class="cls-36" d="M11.19,376.5H500.81c1.61-5.26,3-10.6,4.28-16H6.91C8.18,365.9,9.58,371.24,11.19,376.5Z"/><rect class="cls-36" x="226" y="413.48" width="60" height="16.02"/><circle class="cls-2" cx="164" cy="134.73" r="5"/><circle class="cls-2" cx="224" cy="161.05" r="5"/><circle class="cls-2" cx="324" cy="224.44" r="5"/><circle class="cls-2" cx="371" cy="201.5" r="5"/><circle class="cls-2" cx="237" cy="247" r="5"/><g class="cls-38"><circle class="cls-30" cx="166.71" cy="103.9" r="5"/></g><g class="cls-29"><circle class="cls-30" cx="201" cy="137.5" r="5"/></g><g class="cls-29"><circle class="cls-30" cx="201" cy="215.25" r="5"/></g><g class="cls-38"><circle class="cls-30" cx="179" cy="176.71" r="5"/></g><g class="cls-29"><circle class="cls-30" cx="343" cy="191.5" r="5"/></g><g class="cls-38"><circle class="cls-30" cx="403.5" cy="181.71" r="5"/></g><g class="cls-38"><circle class="cls-30" cx="301.5" cy="211.5" r="5"/></g><path class="cls-12" d="M.68,292.93l-.52.87s0-.12,0-.37l0-.46h0l.5-.4C.92,292.33.93,292.5.68,292.93Z"/><path class="cls-12" d="M8.85,293.73s.39,3.64.92,8.07.31,7.77-.51,7.42-1.51-.81-1.54-1a26.78,26.78,0,0,0-3.89-3.51C1.73,303,0,301.55,0,301.54V299.2a21.72,21.72,0,0,1,3.67,2.67c2,1.63,3.35.45,3-2.61l-.79-6.48c-.06-.51.11-.95.39-1l.49-.07,4.89-.62c2.69-.34,3.17.11,1.08,1Z"/><path class="cls-12" d="M13.23,297.58c1.72-1.87,1.61-2.77-.25-2S9.71,297.91,9.84,299,11.5,299.45,13.23,297.58Z"/><path class="cls-12" d="M3.6,298.07c-.08-1.91-.74-2.44-1.48-1.19s-.68,2.81.14,3.46S3.68,300,3.6,298.07Z"/><path class="cls-12" d="M31.66,312.51c0,.21-3.68-.06-8.23-.6a68.92,68.92,0,0,0-8.59-.72,3.11,3.11,0,0,1-1.81-.37c-.82-.34,1.42-2.84,5-5.55s5.76-6.68,4.91-8.82-.19-2.13,1.44,0l3,3.93.3.4c.17.22-2,2.18-4.88,4.36s-2.52,4.28.73,4.66,6.27-.61,6.7-2.21.94-1.24,1.13.8.35,3.71.35,3.71S31.63,312.31,31.66,312.51Z"/><path class="cls-12" d="M18.6,299.84c.14-2.54.86-3.09,1.59-1.21s.62,4-.25,4.62S18.46,302.39,18.6,299.84Z"/><path class="cls-12" d="M25,307.08c1.42-1.28,2.27-1.17,1.89.23s-1.54,2.45-2.58,2.32S23.55,308.35,25,307.08Z"/><path class="cls-13" d="M2.83,307.24.82,322c-.17-1.89-.29-3.79-.4-5.69-.15-2.61-.26-5.24-.33-7.87Z"/><path class="cls-2" d="M10.86,310.63l-9,21.45c-.24-1.95-.45-3.9-.64-5.87C1,324.86.93,323.5.83,322.14c0-.06,0-.11,0-.17l2-14.73Z"/><polygon class="cls-13" points="25.14 323.77 21.95 321.87 23.09 324.8 2.7 334.26 18.9 314.01 20.93 319.26 26.16 318.68 27.9 321.67 25.14 323.77"/><polygon class="cls-14" points="23.09 324.8 14.32 334.11 2.7 334.26 23.09 324.8"/><path class="cls-2" d="M2.7,334.26l11.62-.15-11.7,3-.1,0,.45-.51a1.34,1.34,0,0,0,.15-1.56l-1-1.7a1.28,1.28,0,0,0-.17-.22,1.28,1.28,0,0,0-.45-.32l.32-.75h0l9-21.45,8,3.38Z"/><path class="cls-15" d="M2.55,336.56l-.14.16c-.12-.79-.22-1.58-.32-2.37l.56.9A1.13,1.13,0,0,1,2.55,336.56Z"/><line class="cls-39" x1="10.29" y1="309.74" x2="7.33" y2="308.48"/><path class="cls-12" d="M723,386.39a3.45,3.45,0,0,1-2,.43,76.46,76.46,0,0,0-9.53.87c-5,.63-9.14,1-9.12.73s0-.42,0-.42.16-1.85.36-4.12.76-2.67,1.25-.9,3.84,2.85,7.45,2.4,4-2.78.78-5.18-5.63-4.56-5.45-4.8L707,375l3.26-4.39c1.79-2.41,2.51-2.43,1.6,0s1.57,6.77,5.52,9.75S723.86,386,723,386.39Z"/><path class="cls-12" d="M716.68,374.26c-.17-2.82-1-3.42-1.78-1.33s-.66,4.4.32,5.13S716.86,377.08,716.68,374.26Z"/><path class="cls-12" d="M709.68,382.34c-1.58-1.4-2.53-1.28-2.1.27s1.72,2.7,2.88,2.55S711.26,383.74,709.68,382.34Z"/><path class="cls-12" d="M742.8,371c.18.14-2.88,2.89-6.8,6.12a76.46,76.46,0,0,0-7.19,6.31c0,.25-.79.78-1.69,1.16s-1.18-3.32-.62-8.23-.92-9.74-3.28-10.71-1.85-1.48,1.13-1.13l5.42.65.55.07c.3,0,.18,3.3-.27,7.26s1.48,5.31,4.29,3,4.33-5.48,3.38-7.05-.27-1.7,1.51-.29l3.24,2.58Z"/><path class="cls-12" d="M722.63,371.71c-1.93-2.07-1.81-3.06.26-2.2s3.65,2.55,3.5,3.76S724.55,373.77,722.63,371.71Z"/><path class="cls-12" d="M733.3,372.18c.07-2.11.81-2.72,1.64-1.34s.77,3.11-.13,3.84S733.23,374.3,733.3,372.18Z"/><polygon class="cls-13" points="711.86 402.01 713.1 398.75 709.57 400.87 706.5 398.57 708.4 395.23 714.2 395.85 716.42 390 734.2 412.49 711.86 402.01"/><polygon class="cls-14" points="734.2 412.49 721.65 412.26 711.86 402.01 734.2 412.49"/><path class="cls-2" d="M741.68,406.88l-.08,3.7-1.45,2.57-.05.1-.07-.75a1.48,1.48,0,0,0-1.13-1.32l-2.13-.5a1.41,1.41,0,0,0-.91.07,1.48,1.48,0,0,0-.68.61l-1.1,1.89a1.5,1.5,0,0,0,.18,1.73l.51.56-13.12-3.28,12.55.23L716.42,390l17.77-7.64,3.74,28.52Z"/><polygon class="cls-13" points="742.23 381.8 741.84 399.5 737.93 410.88 734.19 382.36 739.95 384.77 742.23 381.8"/><polygon class="cls-14" points="741.84 399.5 741.68 406.88 737.93 410.88 741.84 399.5"/><path class="cls-15" d="M739.64,412.77l.06.62.12,1.2a1.24,1.24,0,0,1-.73,1.26l-.89.39-.78.35a1.24,1.24,0,0,1-1.42-.31l-.8-.89-.42-.47a1.24,1.24,0,0,1-.15-1.45l.92-1.58a1.24,1.24,0,0,1,1.33-.59l1.78.38A1.24,1.24,0,0,1,739.64,412.77Z"/><line class="cls-39" x1="724.15" y1="385.96" x2="720.87" y2="387.37"/><rect class="cls-11" x="1652.33" y="264.25" width="27.67" height="37.25"/><path class="cls-40" d="M1661,337.5h44.87a257.79,257.79,0,0,0,3.13-40c0-4-.12-8-.3-12H1661Z"/><path class="cls-41" d="M1197.1,294.6c0,1-.1,1.92-.1,2.9a257.79,257.79,0,0,0,3.13,40H1246V294.6Z"/><polyline class="cls-11" points="1269 337.5 1317 337.5 1309 249.5 1269 265.5 1269 337.5"/><rect class="cls-42" x="1309" y="217.5" width="32" height="120"/><rect class="cls-11" x="1564" y="265.5" width="46.5" height="72"/><rect class="cls-41" x="1614.5" y="277.5" width="46.5" height="60"/><polyline class="cls-43" points="1341 337.5 1341 297.5 1293 297.5 1293 337.5"/><rect class="cls-44" x="1597" y="257.5" width="32" height="80"/><rect class="cls-40" x="1237" y="281.5" width="32" height="56"/><rect class="cls-42" x="1279.33" y="321.5" width="21.41" height="16"/><rect class="cls-42" x="1573" y="321.5" width="28.5" height="16"/><rect class="cls-10" x="1649.76" y="317.83" width="46.9" height="19.67"/><rect class="cls-10" x="1225.76" y="311.5" width="22.48" height="26"/><rect class="cls-11" x="1220.02" y="325.9" width="16.98" height="11.6"/><rect class="cls-45" x="1505.75" y="257.5" width="46.5" height="80"/><rect class="cls-42" x="1485" y="233.5" width="32" height="104"/><rect class="cls-40" x="1413" y="213.5" width="32" height="124"/><polyline class="cls-44" points="1485 337.5 1485 189.5 1445 165.5 1445 337.5"/><polygon class="cls-2" points="1373 137.5 1373 337.5 1413 337.5 1413 158.5 1413 109.5 1373 137.5"/><rect class="cls-2" x="1541" y="171.5" width="32" height="166"/><polyline class="cls-40" points="1387 337.5 1387 241.5 1341 241.5 1341 337.5"/><polyline class="cls-46" points="1517 337.5 1517 305.5 1469 313.5 1469 337.5"/><rect class="cls-43" x="1526.5" y="315.75" width="53.5" height="21.75"/><rect class="cls-41" x="1413" y="260" width="17.82" height="77.5"/><rect class="cls-42" x="1421.97" y="321.5" width="17.7" height="16"/><rect class="cls-10" x="1483.27" y="325.9" width="22.48" height="11.6"/><rect class="cls-11" x="1377" y="311.5" width="16.98" height="26"/><rect class="cls-11" x="1543.76" y="325.9" width="16.98" height="11.6"/><g id="grzHuT.tif"><path class="cls-27" d="M1104.37,443.18a7.42,7.42,0,0,0-2.53-3.16,30.61,30.61,0,0,0-10.25-5,33.94,33.94,0,0,0-7.68-1.61,17,17,0,0,0-10.56,2.59c-2.31,1.55-3.13,4-2,6.2a5.58,5.58,0,0,0,3,2.59,14.13,14.13,0,0,0,11.38-.32,19,19,0,0,1,8.79-1.71c3,.06,6,.22,9,.38A2.54,2.54,0,0,0,1104.37,443.18Z"/><path class="cls-27" d="M1195.92,444a7.15,7.15,0,0,0-3.32-3,28.51,28.51,0,0,0-10-3.32,32.39,32.39,0,0,0-7.78-.7,16.24,16.24,0,0,0-10.72,4c-1.8,1.61-2.37,3.64-1.61,5.47a5.67,5.67,0,0,0,3.83,3.07c3.45,1,6.77.25,10-1.11,1.23-.54,2.37-1.42,3.6-2,3-1.42,6.29-1.49,9.46-1.8,1.74-.16,3.57-.28,5.28-.35A3,3,0,0,1,1195.92,444Z"/><path class="cls-27" d="M1145.61,479.79c-1.36.28-2.72.57-4.14.73-3.42.44-6.83.89-10.18,1.14-1.2.13-2.47-.51-3.64-.79-3.89-1-7.78-1-11.29,1a6.78,6.78,0,0,0-2.72,2.78c-1.39,2.59,0,5.38,3.1,6.51a19.37,19.37,0,0,0,13.91,0,40.12,40.12,0,0,0,9.68-5,32.33,32.33,0,0,0,4.77-4.52c.44-.38.57-1.08.85-1.61C1145.74,480,1145.67,479.92,1145.61,479.79Z"/><path class="cls-27" d="M1234.75,477.35c-.79.16-1.45.25-2,.38-3.76.54-7.56,1.17-11.38,1.58a9.52,9.52,0,0,1-3.83-.54c-3.86-1.07-7.78-1.33-11.48.29a9,9,0,0,0-2.75,1.93,4.42,4.42,0,0,0,.92,7.05c2.25,1.49,4.9,1.74,7.59,1.9a21.9,21.9,0,0,0,10-2.15A35.21,35.21,0,0,0,1232.6,481,8.57,8.57,0,0,0,1234.75,477.35Z"/><path class="cls-27" d="M1196.17,448.58c-1.14.25-2.06.47-3,.7-3.38.66-6.74,1.55-10.06,2a14.2,14.2,0,0,1-4.74-.32,16.77,16.77,0,0,0-10.91,1.11,8.68,8.68,0,0,0-2.88,2.31c-1.83,2.34-.89,5.19,1.93,6.55,2.18,1,4.59,1.11,7,1.17a21.63,21.63,0,0,0,10-2.69,34.08,34.08,0,0,0,9.49-6.33,28.63,28.63,0,0,0,2.72-3.42C1195.82,449.62,1195.85,449.21,1196.17,448.58Z"/><path class="cls-27" d="M1103.67,447.79c-1.87.22-3.86.51-5.72.73-2.37.16-4.81.51-7.12.47a20.7,20.7,0,0,1-4.87-.89,17.46,17.46,0,0,0-11.35-.09,9.58,9.58,0,0,0-2.69,1.74c-2,2-1.58,5.06.92,6.74a15.87,15.87,0,0,0,7.18,2.18c5.19.57,9.77-1.17,14.36-3.23,3.1-1.39,6.17-3,8.41-5.63a13.32,13.32,0,0,0,1.08-1.64Q1103.82,447.84,1103.67,447.79Z"/><path class="cls-27" d="M1144.82,474.89a23.88,23.88,0,0,0-3-2.59,38.23,38.23,0,0,0-17.71-5.06A18.19,18.19,0,0,0,1114,469.9a6,6,0,0,0-2.81,3.38,3.88,3.88,0,0,0,1.42,4.27,9.74,9.74,0,0,0,7.08,1.83,24.85,24.85,0,0,0,8.38-2.37,15.87,15.87,0,0,1,5.69-1.27c3.35-.25,6.83-.25,10.21-.29a2.19,2.19,0,0,0,.57-.13A.9.9,0,0,0,1144.82,474.89Z"/><path class="cls-27" d="M1233.65,472.45c-.82-.7-1.49-1.55-2.34-2.15a24.39,24.39,0,0,0-8.54-3.79,57.11,57.11,0,0,0-8.22-1.58,18.25,18.25,0,0,0-11.92,2.88,6.16,6.16,0,0,0-2.4,3.1,4.15,4.15,0,0,0,2.31,4.77,10.57,10.57,0,0,0,6,1.26,18.67,18.67,0,0,0,8.16-2.34c2.47-1.39,5.22-1.42,7.87-1.49s5.22-.16,7.75-.16a5.36,5.36,0,0,0,1.2-.13C1233.46,472.7,1233.58,472.64,1233.65,472.45Z"/><path class="cls-27" d="M1187,482.83a2.71,2.71,0,0,0-1.23,3.07,6.31,6.31,0,0,0,2.47,4,2.62,2.62,0,0,0,3.16.32c1-.6,2.15-1.39,2.21-2.85a1.27,1.27,0,0,1,.09-.6c.47-3.32-1.8-5.34-5-4.52C1188,482.41,1187.45,482.67,1187,482.83Z"/><path class="cls-27" d="M1097.57,490.45c.38.44.73,1,1.2,1.45a2.85,2.85,0,0,0,3.26,1c1.33-.51,2.53-1.27,2.56-2.94a1.27,1.27,0,0,1,.09-.6c.79-3-1.17-4.71-4.27-4.58C1096.75,484.7,1095.77,487.64,1097.57,490.45Z"/><path class="cls-27" d="M1061.11,443.62a3,3,0,0,0,1.42-3.32c-.32-1.58-.63-3.16-2.4-3.86-1.58-.63-3-.57-4,.89a13.52,13.52,0,0,0-1.55,3.7,2.62,2.62,0,0,0,2.21,3.16A4.53,4.53,0,0,0,1061.11,443.62Z"/><path class="cls-27" d="M1148.64,442.86c-1.9,1.27-2.85,4.74-2.05,6.48a1.8,1.8,0,0,0,.66.85c1.3,1.17,4,1,5.66-.22,1.39-1,1.58-2.53.95-4.43a4,4,0,0,0-3.86-3C1149.46,442.6,1149,442.86,1148.64,442.86Z"/><path class="cls-27" d="M1056.46,457.57a9.69,9.69,0,0,0,2.09,1,4.15,4.15,0,0,0,5.22-3.64c0-.32.09-.6,0-.85a5.68,5.68,0,0,0-4.62-3.23,2.84,2.84,0,0,0-1.3.41C1056.05,452.16,1055.32,455.61,1056.46,457.57Z"/><path class="cls-27" d="M1097,476.57a3.22,3.22,0,0,0,4.59,1.11c2.31-1.55,3.07-3.83,1.87-5.6a4.6,4.6,0,0,0-5.95-1.14C1096,472.11,1095.77,474.67,1097,476.57Z"/><path class="cls-27" d="M1151,457.56a5,5,0,0,0-1.07,6.07c1.08,1.52,3.54,1.71,5.44.44,1.49-1,2.21-3.48,1.42-4.59C1155.47,457.47,1152.53,456.49,1151,457.56Z"/><path class="cls-27" d="M1186,474.16a3.19,3.19,0,0,0,4.71,1c2.31-1.55,2.88-3.57,1.71-5.44a4.69,4.69,0,0,0-5.91-1.23C1184.91,469.7,1184.69,472.26,1186,474.16Z"/></g><g id="grzHuT.tif-2" data-name="grzHuT.tif"><path class="cls-27" d="M532.3,463.4a7.42,7.42,0,0,0-3.4-2.2,30.61,30.61,0,0,0-11.3-1.5,33.94,33.94,0,0,0-7.8.9,17,17,0,0,0-9.2,5.8c-1.7,2.2-1.7,4.8.1,6.5a5.58,5.58,0,0,0,3.7,1.5,14.13,14.13,0,0,0,10.7-3.9,19,19,0,0,1,7.8-4.4c2.9-.9,5.8-1.7,8.7-2.5A2.54,2.54,0,0,0,532.3,463.4Z"/><path class="cls-27" d="M619.4,435.2a7.15,7.15,0,0,0-4.1-1.8,28.51,28.51,0,0,0-10.5,0,32.39,32.39,0,0,0-7.6,1.8,16.24,16.24,0,0,0-8.9,7.2c-1.2,2.1-1.1,4.2.2,5.7a5.67,5.67,0,0,0,4.6,1.7c3.6-.1,6.5-1.9,9.1-4.2,1-.9,1.8-2.1,2.8-3,2.4-2.3,5.5-3.4,8.4-4.7,1.6-.7,3.3-1.4,4.9-2A3,3,0,0,1,619.4,435.2Z"/><path class="cls-27" d="M583,485.1c-1.2.7-2.4,1.4-3.7,2-3.1,1.5-6.2,3-9.3,4.3-1.1.5-2.5.3-3.7.4-4,.3-7.7,1.5-10.4,4.5a6.78,6.78,0,0,0-1.7,3.5c-.5,2.9,1.7,5.1,5,5.2a19.37,19.37,0,0,0,13.2-4.4,40.12,40.12,0,0,0,7.6-7.8,32.33,32.33,0,0,0,3.1-5.8,5.23,5.23,0,0,0,.3-1.8C583.2,485.3,583.1,485.2,583,485.1Z"/><path class="cls-27" d="M666.8,454.6c-.7.4-1.3.7-1.8,1-3.4,1.7-6.8,3.5-10.3,5.1a9.52,9.52,0,0,1-3.8.7c-4,.2-7.8,1.2-10.8,3.9a9,9,0,0,0-2,2.7,4.42,4.42,0,0,0,3.1,6.4c2.6.7,5.2.1,7.8-.6a21.9,21.9,0,0,0,8.8-5.2,35.21,35.21,0,0,0,8.1-9.9A8.57,8.57,0,0,0,666.8,454.6Z"/><path class="cls-27" d="M621.1,439.5c-1,.6-1.8,1.1-2.6,1.6-3,1.7-5.9,3.6-8.9,5.1a14.2,14.2,0,0,1-4.6,1.2,16.77,16.77,0,0,0-10,4.5,8.68,8.68,0,0,0-2,3.1c-1,2.8.8,5.2,3.9,5.6,2.4.3,4.7-.4,7-1.1a21.63,21.63,0,0,0,8.6-5.7,34.08,34.08,0,0,0,7-9,28.63,28.63,0,0,0,1.5-4.1C621.1,440.6,621,440.2,621.1,439.5Z"/><path class="cls-27" d="M533.1,468c-1.7.8-3.5,1.7-5.2,2.5-2.2.9-4.4,2-6.6,2.7a20.7,20.7,0,0,1-4.9.7,17.46,17.46,0,0,0-10.8,3.5,9.58,9.58,0,0,0-2,2.5c-1.3,2.5.1,5.3,3,6.1a15.87,15.87,0,0,0,7.5-.2c5.1-1.1,8.9-4.2,12.6-7.6,2.5-2.3,4.9-4.8,6.2-8a13.32,13.32,0,0,0,.5-1.9Q533.25,468,533.1,468Z"/><path class="cls-27" d="M580.7,480.7a23.88,23.88,0,0,0-3.7-1.5,38.23,38.23,0,0,0-18.4.8,18.19,18.19,0,0,0-8.7,5.7,6,6,0,0,0-1.6,4.1,3.88,3.88,0,0,0,2.7,3.6,9.74,9.74,0,0,0,7.3-.5,24.85,24.85,0,0,0,7.2-4.9,15.87,15.87,0,0,1,5-3c3.1-1.3,6.4-2.4,9.6-3.5a2.19,2.19,0,0,0,.5-.3A.9.9,0,0,0,580.7,480.7Z"/><path class="cls-27" d="M664.2,450.3c-1-.4-1.9-1-2.9-1.3a24.39,24.39,0,0,0-9.3-.9,57.11,57.11,0,0,0-8.3,1.1,18.25,18.25,0,0,0-10.4,6.5,6.16,6.16,0,0,0-1.3,3.7,4.15,4.15,0,0,0,3.7,3.8,10.57,10.57,0,0,0,6.1-.7,18.67,18.67,0,0,0,7-4.8c1.9-2.1,4.5-3,7-3.9s4.9-1.8,7.3-2.6a5.36,5.36,0,0,0,1.1-.5C664.1,450.6,664.2,450.5,664.2,450.3Z"/><path class="cls-27" d="M623.2,474.9a2.71,2.71,0,0,0-.2,3.3,6.31,6.31,0,0,0,3.6,3,2.62,2.62,0,0,0,3.1-.7c.8-.9,1.6-2,1.2-3.4a1.27,1.27,0,0,1-.1-.6c-.6-3.3-3.4-4.5-6.2-2.7C624,474.2,623.6,474.6,623.2,474.9Z"/><path class="cls-27" d="M540.8,510.4c.5.3,1,.7,1.6,1a2.85,2.85,0,0,0,3.4-.1c1.1-.9,2-2,1.5-3.6a1.27,1.27,0,0,1-.1-.6c-.2-3.1-2.6-4.1-5.5-3C538.2,505.2,538.2,508.3,540.8,510.4Z"/><path class="cls-27" d="M491.4,477.5a3,3,0,0,0,.3-3.6c-.8-1.4-1.6-2.8-3.5-2.9-1.7-.1-3,.4-3.5,2.1a13.52,13.52,0,0,0-.3,4,2.62,2.62,0,0,0,3.1,2.3A4.53,4.53,0,0,0,491.4,477.5Z"/><path class="cls-27" d="M574.2,449.1c-1.4,1.8-1.2,5.4.1,6.8a1.8,1.8,0,0,0,.9.6c1.6.7,4.1-.3,5.3-2,1-1.4.7-2.9-.5-4.5a4,4,0,0,0-4.6-1.6C574.9,448.6,574.5,449,574.2,449.1Z"/><path class="cls-27" d="M491.4,492.2a9.69,9.69,0,0,0,2.3.3,4.15,4.15,0,0,0,3.8-5.1c-.1-.3-.1-.6-.3-.8a5.68,5.68,0,0,0-5.4-1.6,2.84,2.84,0,0,0-1.1.8C489.3,487.2,489.7,490.7,491.4,492.2Z"/><path class="cls-27" d="M535.9,497.4a3.22,3.22,0,0,0,4.7-.4c1.7-2.2,1.7-4.6,0-5.9a4.6,4.6,0,0,0-6,.8C533.5,493.5,534.1,496,535.9,497.4Z"/><path class="cls-27" d="M581.1,462.3a5,5,0,0,0,.9,6.1c1.5,1.1,3.9.5,5.3-1.3,1.1-1.4,1-4-.1-4.8C585.3,460.8,582.2,460.8,581.1,462.3Z"/><path class="cls-27" d="M619.5,467a3.19,3.19,0,0,0,4.8-.5c1.7-2.2,1.6-4.3-.1-5.7a4.69,4.69,0,0,0-6,.7C617.1,463.1,617.7,465.6,619.5,467Z"/></g></svg>